<?xml version="1.0" standalone="no"?>
<!DOCTYPE svg PUBLIC "-//W3C//DTD SVG 20010904//EN"
 "http://www.w3.org/TR/2001/REC-SVG-20010904/DTD/svg10.dtd">
<svg version="1.0" xmlns="http://www.w3.org/2000/svg"
 width="1280.000000pt" height="1268.000000pt" viewBox="0 0 1280.000000 1268.000000"
 preserveAspectRatio="xMidYMid meet">
<metadata>
Created by potrace 1.15, written by Peter Selinger 2001-2017
</metadata>
<g transform="translate(0.000000,1268.000000) scale(0.100000,-0.100000)"
fill="#000000" stroke="none">
<path d="M0 12654 c0 -23 3 -25 25 -20 90 23 106 46 31 46 -54 0 -56 -1 -56
-26z"/>
<path d="M1094 12673 c22 -3 48 -10 59 -18 14 -10 26 -11 48 -3 22 8 32 6 45
-6 16 -17 64 -22 64 -7 0 4 21 6 48 3 39 -3 50 0 66 17 l19 21 -194 -2 c-107
-1 -176 -3 -155 -5z"/>
<path d="M10480 12656 c0 -37 -37 -76 -72 -76 -34 0 -35 -23 -1 -28 32 -5 36
-30 10 -55 -13 -12 -31 -34 -40 -48 -17 -25 -16 -27 13 -57 18 -19 30 -42 30
-59 0 -14 14 -50 30 -80 22 -38 26 -53 16 -53 -8 0 -29 -17 -47 -37 -18 -21
-38 -37 -45 -35 -7 1 -22 -11 -34 -28 -12 -16 -26 -30 -31 -30 -5 0 -29 18
-52 39 -39 36 -49 40 -103 43 -65 3 -62 -2 -53 88 1 14 -1 32 -5 40 -5 11 12
31 59 70 36 29 65 57 65 61 0 21 -65 67 -124 88 -37 13 -71 32 -77 42 -20 37
-97 17 -174 -47 -43 -34 -48 -36 -97 -30 -104 12 -105 -37 -1 -65 79 -22 102
-35 109 -64 3 -13 12 -29 20 -36 8 -6 14 -18 14 -26 0 -8 8 -27 19 -41 10 -15
24 -58 30 -95 6 -37 17 -79 23 -93 11 -23 16 -25 50 -20 52 8 118 -33 118 -74
0 -18 8 -33 25 -44 22 -15 25 -23 25 -77 0 -33 5 -69 10 -80 13 -24 7 -24 -79
-3 -62 16 -65 16 -80 -3 -13 -15 -21 -17 -42 -9 -14 5 -38 6 -53 2 -25 -6 -26
-9 -26 -82 0 -82 -6 -99 -57 -158 -23 -28 -33 -50 -33 -73 0 -19 -11 -56 -25
-83 -46 -90 -29 -134 73 -191 84 -47 122 -78 116 -93 -3 -7 6 -23 20 -33 33
-27 23 -35 -36 -27 -45 6 -48 5 -58 -21 -10 -25 -13 -27 -48 -20 -81 16 -168
22 -189 12 -17 -7 -39 -3 -93 17 -82 30 -112 32 -131 10 -10 -13 -9 -21 6 -47
11 -18 14 -32 8 -34 -6 -2 -19 -10 -29 -18 -27 -20 -13 -39 82 -107 82 -60
115 -69 150 -43 32 24 62 18 84 -17 26 -43 26 -84 0 -98 -11 -6 -20 -17 -20
-24 0 -8 -10 -16 -22 -20 -40 -10 -176 -7 -184 5 -4 8 0 9 15 4 41 -13 21 16
-25 35 -66 29 -117 35 -132 17 -11 -12 -19 -12 -67 1 -60 17 -74 37 -53 73 10
17 10 23 1 26 -7 3 -13 11 -13 19 0 7 -11 16 -25 20 -14 3 -23 10 -20 14 10
16 -8 41 -57 79 -46 37 -48 40 -29 51 24 12 27 48 7 75 -12 17 -12 21 1 30 13
10 9 19 -31 59 -45 47 -84 64 -198 90 -20 4 -25 11 -21 25 7 26 -60 61 -115
61 -42 0 -84 30 -97 68 -3 12 -11 22 -16 22 -5 0 -9 5 -9 10 0 21 39 10 42
-12 5 -36 69 -63 157 -65 41 0 85 -7 98 -14 22 -12 27 -11 43 11 l19 25 56
-20 c55 -18 58 -18 143 0 51 11 131 19 192 20 93 1 111 4 157 28 66 34 144
112 173 172 58 121 39 393 -26 368 -9 -3 -18 5 -25 25 -6 17 -19 34 -29 37
-10 3 -22 20 -25 36 -8 36 -27 46 -62 30 -22 -10 -29 -9 -48 9 -12 11 -29 20
-39 20 -9 0 -32 11 -50 25 -18 14 -38 25 -44 25 -16 0 -15 -27 1 -33 6 -2 10
-7 7 -10 -3 -3 -39 6 -80 19 -41 13 -86 23 -99 20 -26 -4 -29 -3 -108 37 -60
32 -282 87 -347 87 -24 0 -65 -9 -90 -20 -36 -15 -52 -17 -72 -9 -34 12 -71
-10 -86 -52 -5 -16 -14 -29 -18 -29 -13 0 -22 34 -11 38 6 2 11 12 11 23 0 27
-37 33 -89 14 -52 -18 -48 -18 -54 -1 -4 9 0 12 13 9 25 -7 54 38 45 68 -6 18
-12 20 -44 15 -27 -4 -50 0 -81 15 -42 21 -44 21 -58 3 -8 -12 -11 -32 -8 -56
l6 -36 -73 -4 c-39 -2 -77 0 -83 4 -16 11 -24 -1 -24 -34 0 -40 -34 -35 -38 5
-4 31 -41 61 -65 51 -9 -3 -24 -1 -34 5 -14 8 -6 10 37 11 65 0 100 20 100 56
0 17 9 30 30 42 16 9 30 20 30 24 0 18 -86 69 -108 65 -17 -3 -20 -1 -13 6 6
6 11 14 11 18 0 9 -76 39 -100 39 -23 0 -27 -18 -6 -26 26 -10 27 -34 2 -34
-17 0 -30 11 -45 35 -33 56 -81 39 -81 -29 0 -18 -4 -24 -14 -20 -12 5 -12 10
0 40 8 19 12 39 8 45 -12 19 -54 30 -76 18 -14 -8 -23 -8 -31 0 -20 20 -29 12
-22 -19 6 -26 4 -30 -14 -30 -42 0 -34 -34 13 -54 7 -3 4 -9 -6 -16 -21 -13
-25 -79 -6 -98 9 -9 7 -13 -5 -18 -23 -8 -40 5 -34 28 3 11 0 21 -9 25 -10 4
-11 9 -5 17 11 13 -6 96 -19 96 -22 0 -81 -180 -86 -263 -4 -62 -9 -77 -26
-77 -6 0 -8 13 -4 33 14 78 14 97 -1 105 -13 8 -10 18 16 70 35 69 37 82 16
82 -21 0 -19 18 4 25 28 9 33 33 11 55 -22 22 -79 27 -81 8 -3 -25 3 -43 18
-60 15 -17 13 -18 -41 -18 -62 0 -76 -12 -56 -50 10 -20 10 -21 -8 -16 -35 12
-33 -10 3 -30 19 -10 35 -21 35 -25 0 -9 -59 -22 -87 -20 -23 2 -93 -60 -93
-84 0 -14 38 -55 51 -55 13 0 16 -50 4 -60 -9 -8 -14 -5 -18 10 -3 14 -14 20
-34 21 -39 2 -74 7 -104 14 -39 10 -89 -19 -89 -50 0 -14 8 -32 18 -41 14 -12
17 -24 13 -52 -7 -43 -35 -55 -45 -20 -6 23 -7 23 -22 -6 -14 -25 -18 -27 -26
-13 -13 25 -43 21 -56 -8 -7 -16 -20 -25 -34 -25 l-21 0 21 23 c12 13 22 28
22 34 0 6 6 13 13 16 6 2 8 8 4 13 -4 5 -11 4 -15 -1 -4 -6 -28 -10 -54 -10
-31 0 -53 -7 -67 -19 -28 -25 -27 -33 8 -51 l29 -15 -16 -42 c-27 -69 -83
-103 -95 -57 -7 28 -41 21 -45 -9 -3 -20 -8 -22 -33 -17 -18 4 -29 3 -29 -4 0
-6 9 -11 20 -11 11 0 20 -4 20 -10 0 -5 -10 -10 -22 -10 -29 0 -58 -19 -41
-27 9 -3 10 -10 3 -22 -5 -10 -7 -21 -3 -24 3 -4 0 -13 -6 -21 -15 -18 -8 -32
18 -39 15 -4 25 4 40 29 18 30 25 34 56 32 36 -2 36 -13 0 -20 -16 -3 -20 -11
-20 -45 0 -30 -7 -48 -24 -67 -24 -25 -24 -26 -6 -46 10 -11 13 -20 8 -20 -24
0 -64 29 -86 61 -30 45 -51 44 -55 -1 -6 -61 -22 -59 -22 3 0 49 -3 57 -18 57
-20 0 -52 -29 -52 -47 0 -6 -16 -11 -36 -10 -28 1 -42 -5 -60 -27 -24 -27 -33
-76 -15 -76 5 0 13 9 16 20 3 11 13 20 22 20 12 0 13 -3 4 -14 -9 -11 -5 -16
19 -26 34 -14 37 -28 14 -71 -8 -17 -13 -33 -10 -36 6 -7 76 66 76 79 0 17 32
7 37 -12 8 -29 23 -24 30 10 7 36 13 37 36 5 17 -24 17 -25 -3 -25 -12 0 -25
-10 -32 -25 -6 -14 -15 -25 -19 -25 -4 0 -9 -12 -11 -27 -3 -26 -6 -28 -46
-25 -41 4 -43 2 -40 -20 3 -20 9 -23 51 -26 26 -2 47 -7 47 -11 0 -10 -69 -31
-102 -31 -14 0 -32 -8 -41 -18 -21 -23 -22 -71 -3 -78 12 -5 12 -9 0 -32 -8
-15 -14 -32 -14 -38 0 -6 -10 -23 -21 -38 -15 -19 -18 -31 -11 -38 6 -6 8 -16
6 -23 -3 -6 2 -18 11 -25 12 -10 13 -16 4 -26 -17 -21 -36 -17 -44 9 -4 13 -8
17 -12 10 -2 -7 -15 -13 -29 -13 -17 0 -22 -4 -18 -15 4 -9 0 -15 -10 -15 -26
0 -19 -19 14 -38 16 -9 30 -20 30 -24 0 -4 -20 -10 -45 -14 -54 -8 -71 -22
-85 -72 -13 -49 -13 -57 6 -73 14 -12 13 -14 -8 -22 -22 -8 -23 -9 -4 -23 19
-13 19 -14 -6 -14 -15 0 -29 -4 -32 -9 -9 -14 22 -34 41 -27 9 4 20 1 25 -6
13 -21 9 -25 -17 -20 -21 4 -27 -1 -40 -32 -9 -20 -13 -47 -9 -61 4 -18 2 -25
-8 -25 -34 0 -66 -131 -35 -143 7 -3 32 -2 56 3 40 7 41 7 25 -11 -9 -11 -23
-19 -31 -19 -8 0 -25 -11 -38 -24 -14 -14 -41 -26 -69 -30 -25 -4 -46 -11 -46
-17 0 -5 -6 -9 -14 -9 -8 0 -18 -5 -22 -12 -5 -8 2 -9 27 -5 l34 7 -32 -26
c-34 -27 -44 -48 -18 -38 11 5 13 2 9 -10 -3 -9 -3 -24 1 -34 22 -50 9 -56
-24 -12 -22 30 -22 30 -52 13 -16 -9 -32 -25 -35 -35 -3 -10 -10 -18 -16 -18
-6 0 -6 -6 2 -15 10 -12 9 -16 -3 -21 -9 -3 -19 -14 -22 -25 -4 -10 -11 -19
-17 -19 -19 0 -47 -45 -48 -75 0 -23 -8 -35 -35 -53 -34 -22 -47 -56 -24 -64
16 -5 -1 -37 -41 -77 -29 -28 -31 -29 -28 -8 2 17 -3 23 -23 25 -36 4 -79 -38
-79 -78 0 -34 6 -37 38 -14 20 14 23 14 28 -1 10 -26 -8 -36 -46 -25 -41 12
-83 5 -101 -16 -7 -9 -26 -22 -42 -30 -27 -15 -30 -14 -48 5 -20 21 -44 26
-73 15 -25 -9 -19 -43 9 -56 14 -6 25 -14 25 -18 0 -4 -19 -20 -41 -36 -30
-20 -51 -27 -75 -25 -44 3 -44 -15 1 -36 l34 -16 -26 -14 c-14 -7 -44 -12 -67
-11 -41 3 -41 3 -38 -29 1 -18 -2 -33 -8 -33 -5 0 -10 -7 -10 -15 0 -19 -9
-19 -29 -1 -9 7 -33 16 -53 20 -30 6 -38 4 -38 -8 0 -9 12 -23 26 -33 l26 -17
-24 -17 c-12 -10 -23 -21 -24 -26 0 -4 -9 -25 -19 -45 -17 -35 -17 -39 -2 -56
22 -24 22 -27 -10 -56 -21 -19 -24 -28 -15 -39 9 -10 9 -16 0 -25 -9 -9 -7
-16 7 -32 15 -16 16 -22 5 -35 -7 -8 -17 -36 -21 -62 -8 -40 -6 -50 10 -67 10
-12 21 -30 23 -41 2 -11 10 -19 17 -17 7 1 24 -6 37 -17 l26 -20 -24 -5 c-12
-3 -34 -7 -48 -8 -19 -2 -24 -8 -22 -23 7 -37 27 -70 44 -70 23 0 35 -14 43
-52 4 -19 2 -34 -5 -38 -8 -5 -6 -13 6 -26 14 -15 15 -22 5 -32 -6 -6 -19 -12
-29 -12 -9 0 -22 -11 -29 -25 -7 -15 -20 -24 -30 -22 -16 2 -18 -6 -20 -63 -1
-49 2 -65 12 -65 7 0 16 8 19 18 4 11 15 18 28 18 16 -1 24 9 35 42 15 42 32
52 62 33 11 -7 10 -12 -8 -22 -11 -8 -21 -24 -21 -37 0 -19 4 -21 26 -16 25 6
24 5 -10 -29 -20 -20 -36 -45 -36 -55 0 -11 -6 -25 -14 -31 -12 -10 -15 -8
-18 10 -5 36 -28 36 -28 0 0 -17 -5 -40 -11 -50 -22 -34 24 -131 61 -131 11 0
20 -4 20 -8 0 -16 63 -72 88 -79 18 -4 29 -1 38 12 8 10 17 15 21 11 4 -4 1
-11 -7 -16 -61 -35 -64 -63 -8 -75 18 -4 38 -10 43 -13 15 -10 115 -9 121 0 3
4 16 8 30 8 18 0 27 8 35 28 10 25 12 26 23 10 18 -25 34 -22 48 7 6 13 15 22
19 19 4 -2 30 22 57 55 36 42 53 56 60 49 17 -17 36 40 21 58 -9 11 -6 14 16
14 24 0 26 3 21 24 -8 32 5 39 74 41 65 2 100 25 100 66 0 15 7 29 15 33 19 7
19 35 0 60 -11 14 -12 23 -4 33 19 22 29 15 29 -21 0 -19 5 -38 10 -41 6 -3
10 -15 10 -26 0 -27 45 -47 70 -31 16 10 22 8 35 -10 21 -31 19 -39 -10 -32
-30 7 -31 1 -10 -91 12 -49 13 -75 6 -103 -9 -31 -8 -39 11 -59 27 -29 62 -29
82 -1 13 18 18 20 28 10 10 -10 8 -26 -10 -77 -29 -82 -29 -135 -2 -142 16 -4
20 -14 20 -50 0 -50 7 -66 56 -130 19 -25 34 -55 34 -68 0 -15 7 -26 20 -30
11 -4 28 -23 38 -43 9 -20 22 -37 27 -37 19 0 35 -16 35 -36 0 -14 -7 -19 -25
-19 -33 0 -42 -25 -19 -51 18 -21 18 -21 -9 -8 -34 15 -44 6 -31 -29 10 -27
10 -27 -22 -24 -27 3 -40 -2 -64 -27 -33 -32 -61 -38 -104 -21 -33 12 -34 -3
-1 -18 54 -25 18 -62 -59 -62 -57 0 -62 -21 -11 -51 38 -23 45 -51 19 -80 -14
-16 -14 -18 6 -24 12 -4 19 -13 18 -23 -2 -12 9 -18 47 -25 58 -10 77 -23 55
-38 -11 -8 -12 -12 -3 -16 10 -3 9 -8 -2 -20 -8 -8 -13 -19 -10 -24 10 -15
-18 -10 -52 10 l-32 20 -27 -36 c-17 -22 -23 -38 -16 -41 6 -2 27 -17 48 -33
43 -34 43 -34 72 -13 13 9 29 13 36 11 15 -6 76 51 76 70 0 7 -10 15 -22 19
l-23 7 23 8 c26 10 28 26 7 56 -17 24 -14 28 33 38 48 10 52 33 12 65 l-33 27
29 19 c16 10 34 26 41 34 15 18 17 57 3 65 -12 7 -14 45 -2 45 4 0 22 -23 40
-52 30 -44 32 -53 22 -74 -7 -12 -10 -30 -6 -39 3 -9 0 -18 -9 -21 -28 -11
-15 -20 43 -31 50 -10 61 -9 96 9 31 15 50 18 87 13 48 -7 49 -6 65 29 18 37
15 52 -18 98 -17 24 21 92 54 96 44 6 50 10 39 31 -10 17 -6 19 39 23 28 1 52
-1 54 -7 1 -5 12 -2 24 9 20 17 23 17 54 2 32 -16 34 -16 50 4 19 24 38 82 38
118 0 13 9 35 19 49 11 13 17 31 14 39 -3 8 0 14 6 14 7 0 11 -24 11 -62 0
-76 8 -108 26 -108 16 0 21 19 28 115 4 39 19 121 34 183 20 80 24 112 15 112
-20 0 -43 -42 -37 -67 4 -14 -5 -47 -26 -90 l-32 -68 -14 34 c-18 42 -18 51 1
51 19 0 19 13 -1 51 -16 32 -12 62 13 90 13 15 12 19 -6 31 -19 13 -19 17 -6
34 22 29 18 52 -12 68 l-28 15 28 1 c36 0 44 23 23 67 -15 32 -15 36 -1 47 13
9 14 17 5 40 -8 23 -7 34 5 52 9 14 11 25 5 29 -17 11 -11 25 15 37 14 6 25
17 25 25 0 7 7 13 15 13 22 0 49 47 56 99 6 45 6 45 8 9 1 -25 7 -41 20 -47
23 -13 31 -5 31 30 0 27 42 69 69 69 8 0 6 10 -4 30 -15 29 -15 30 9 30 28 0
39 11 30 33 -8 21 -34 30 -50 16 -8 -6 -14 -7 -14 -3 0 5 9 15 20 22 11 6 28
29 39 50 15 29 26 39 43 38 39 -2 35 37 -10 81 -21 21 -41 45 -44 53 -4 12 -8
13 -20 2 -13 -10 -17 -10 -22 4 -4 10 2 22 16 33 34 28 18 53 -29 46 -47 -7
-85 12 -93 45 -5 22 -12 25 -60 28 -62 4 -80 14 -73 42 3 11 -2 31 -11 45 -11
16 -12 25 -5 25 8 0 8 4 1 13 -14 17 -17 46 -8 91 6 32 3 44 -18 77 -14 21
-26 43 -26 49 0 13 27 13 35 0 10 -16 45 -12 45 6 0 9 -9 29 -21 45 -15 22
-19 38 -14 57 4 15 8 40 9 55 2 16 8 32 15 36 9 6 1 17 -25 38 -43 35 -39 53
12 53 44 0 74 32 65 68 -5 19 2 32 39 69 28 28 40 48 33 50 -32 11 9 72 49 73
22 0 38 30 38 68 0 25 3 29 20 25 23 -6 27 15 8 36 -11 10 -8 11 14 6 23 -6
29 -3 36 16 5 13 23 28 43 34 23 8 35 19 37 33 2 12 9 22 17 22 16 0 21 14 40
102 9 45 25 84 45 111 16 22 30 46 30 53 0 7 -22 28 -50 48 -61 44 -64 67 -15
125 37 46 37 60 -2 102 -25 28 -22 39 13 39 35 0 54 11 54 30 0 21 25 44 40
35 5 -3 10 -1 10 4 0 6 -6 11 -14 11 -23 0 -26 13 -14 53 l11 36 25 -19 c40
-32 82 -20 82 21 0 15 8 17 55 14 48 -2 58 0 74 21 27 34 48 30 66 -12 13 -31
18 -35 40 -30 24 6 62 -8 77 -29 4 -5 8 -31 8 -57 0 -62 7 -78 36 -78 36 0 30
-27 -9 -44 -19 -7 -48 -28 -66 -45 -27 -27 -33 -40 -35 -85 -2 -34 -9 -60 -19
-71 -9 -9 -17 -29 -17 -44 0 -16 -9 -36 -21 -47 -16 -14 -20 -27 -16 -52 5
-29 2 -35 -33 -58 -28 -18 -41 -36 -47 -62 -7 -30 -13 -36 -31 -34 -20 3 -22
-1 -22 -37 0 -32 -3 -39 -15 -35 -8 4 -15 2 -15 -4 0 -5 7 -15 15 -22 23 -19
19 -60 -4 -60 -11 0 -22 -4 -25 -9 -3 -4 -16 -6 -30 -4 -16 3 -31 -2 -46 -17
-26 -26 -23 -54 8 -58 30 -5 28 -14 -18 -67 -35 -40 -40 -53 -40 -93 1 -45 1
-46 17 -27 15 19 15 19 10 -12 -5 -24 -1 -37 18 -58 20 -21 25 -37 25 -79 0
-45 3 -55 19 -59 12 -3 23 -19 30 -42 6 -21 23 -51 37 -67 26 -27 27 -28 6
-28 -29 0 -36 -17 -19 -43 18 -29 30 -77 18 -77 -5 0 -7 -9 -4 -20 3 -11 0
-20 -6 -20 -18 0 -13 -55 8 -82 12 -14 18 -33 15 -45 -4 -13 4 -30 20 -49 24
-27 27 -28 40 -11 12 16 14 16 20 1 4 -11 13 -14 34 -9 19 4 33 1 41 -9 9 -10
23 -13 48 -9 l35 6 -7 -33 c-8 -35 -1 -35 38 -2 16 14 17 13 17 -10 0 -24 27
-58 47 -58 16 0 9 -37 -12 -60 -15 -16 -15 -20 -3 -20 17 0 68 47 68 62 0 5 9
7 20 3 22 -7 57 9 80 37 8 10 35 24 60 31 33 10 44 18 42 30 -2 13 4 17 26 17
43 0 122 54 122 84 l0 24 40 -21 c30 -17 42 -19 51 -10 16 16 3 60 -21 68 -11
3 -20 11 -20 16 0 16 29 10 49 -10 15 -15 22 -17 30 -8 5 7 30 18 56 26 33 10
49 21 56 37 10 27 13 28 40 14 15 -8 27 -7 49 7 17 9 30 23 30 30 0 7 10 13
21 13 12 0 37 16 55 36 l34 35 0 -36 c0 -50 16 -78 40 -70 14 4 27 -2 44 -19
28 -31 54 -33 103 -6 l37 20 26 -25 c14 -14 38 -25 52 -25 15 0 29 -4 32 -9 4
-5 -36 -11 -90 -13 -106 -3 -126 -15 -116 -65 5 -25 3 -26 -30 -20 -45 7 -62
-4 -56 -37 6 -29 -3 -34 -22 -11 -32 39 -61 -5 -36 -54 21 -40 20 -68 -2 -80
-22 -12 -287 -18 -319 -7 -12 4 -24 2 -28 -4 -5 -8 -11 -8 -21 1 -8 6 -15 8
-16 3 0 -5 -2 -13 -3 -19 -2 -5 -3 -16 -4 -22 -3 -30 -95 -55 -118 -32 -14 14
-34 2 -31 -19 2 -11 -8 -18 -36 -24 -52 -11 -79 -35 -71 -65 5 -20 1 -23 -35
-29 -46 -7 -60 -21 -63 -60 -2 -22 3 -29 23 -34 26 -6 28 -17 15 -71 -5 -21 0
-34 24 -61 17 -20 31 -45 31 -56 0 -28 25 -51 49 -45 10 3 22 0 25 -6 13 -20
35 -11 51 20 33 62 41 24 33 -141 -1 -22 10 -61 30 -104 18 -37 32 -77 32 -88
0 -30 -26 -72 -65 -107 -38 -33 -50 -37 -60 -21 -3 6 -17 10 -30 10 -19 0 -29
10 -47 47 -18 38 -34 54 -78 78 -37 21 -56 38 -60 55 -8 34 -37 37 -68 7 -15
-14 -41 -32 -59 -41 -59 -29 -73 -59 -73 -152 0 -75 -2 -85 -27 -114 -25 -31
-27 -37 -24 -123 2 -69 8 -106 27 -150 13 -33 23 -69 22 -81 0 -11 7 -51 16
-87 15 -59 15 -71 3 -108 -8 -23 -11 -44 -6 -46 13 -9 29 31 29 75 0 27 4 39
11 34 6 -3 9 -19 5 -35 -4 -21 -2 -29 9 -29 12 0 12 -5 3 -25 -8 -18 -8 -32 2
-54 19 -47 8 -61 -49 -61 -27 0 -53 5 -56 10 -4 7 -13 6 -26 -1 -11 -5 -39
-13 -62 -17 l-42 -8 3 -51 c2 -28 -2 -62 -8 -75 -18 -33 -61 -78 -92 -94 -31
-16 -101 -18 -128 -4 -16 9 -37 59 -44 109 -7 44 -107 38 -199 -12 -94 -52
-139 -74 -169 -86 -16 -6 -42 -33 -62 -64 -27 -42 -42 -56 -67 -61 -51 -10
-231 -85 -271 -113 -21 -14 -44 -23 -52 -20 -23 9 -36 -12 -25 -41 12 -31 8
-35 -24 -27 -37 10 -50 30 -53 78 l-2 42 -40 -3 c-56 -4 -62 20 -11 42 41 19
49 36 24 56 -11 9 -14 22 -10 42 6 25 4 28 -19 28 -16 0 -26 6 -26 15 0 8 -4
15 -9 15 -14 0 -59 -46 -63 -66 -4 -20 -39 -24 -90 -10 -24 7 -29 4 -47 -32
-23 -45 -59 -72 -96 -72 -42 0 -65 -18 -85 -66 -22 -51 -32 -54 -49 -18 -8 19
-16 24 -29 19 -32 -14 -62 -17 -62 -8 0 5 12 20 26 34 34 31 55 74 48 93 -8
21 -43 20 -66 -1 -18 -16 -21 -16 -62 6 -24 13 -48 21 -55 17 -6 -4 -11 -1
-11 8 0 19 -13 20 -43 5 -22 -12 -22 -12 -3 10 16 18 18 28 10 58 -7 31 -15
39 -44 47 -19 5 -38 14 -42 20 -11 16 0 20 17 6 13 -10 15 -9 15 8 0 11 -11
29 -24 40 l-25 19 22 21 c18 19 19 24 8 45 -8 16 -10 37 -6 57 l7 32 21 -20
c11 -11 27 -42 36 -69 15 -44 19 -49 56 -56 100 -20 102 -20 119 5 14 22 14
31 1 92 -14 69 -33 104 -42 79 -3 -9 -13 -6 -34 9 l-29 22 -31 -23 c-17 -12
-37 -20 -45 -17 -18 7 -18 26 -1 26 28 0 49 39 59 112 10 74 17 93 25 70 8
-21 34 -43 44 -36 24 15 69 89 69 114 0 37 -19 51 -62 44 -39 -7 -46 0 -53 43
-3 16 -8 40 -11 54 -4 17 2 41 15 67 34 66 45 130 26 158 -19 30 -19 43 2 66
12 13 13 22 6 29 -7 7 -20 1 -42 -20 -18 -17 -42 -31 -54 -31 -33 0 -54 -19
-75 -71 -30 -69 -44 -79 -112 -79 -32 0 -70 -4 -84 -10 -31 -11 -63 -61 -73
-110 -3 -19 -12 -41 -20 -48 -7 -7 -13 -28 -14 -45 0 -18 -3 -67 -5 -110 -3
-43 0 -85 5 -95 9 -15 10 -15 11 4 0 35 13 36 27 3 18 -44 16 -52 -11 -47 -21
4 -26 0 -36 -37 -20 -72 -12 -83 71 -99 23 -5 27 -12 32 -58 4 -31 2 -66 -5
-84 -16 -44 -3 -95 36 -145 40 -50 37 -69 -11 -69 -30 0 -34 -3 -31 -22 2 -18
9 -23 35 -23 17 0 34 -3 38 -7 4 -3 0 -32 -9 -63 -9 -30 -14 -60 -11 -65 9
-14 -19 -12 -34 2 -10 11 -16 8 -32 -11 -15 -18 -19 -39 -19 -97 0 -66 -2 -74
-19 -74 -14 0 -25 16 -43 63 l-24 62 -70 3 c-82 3 -112 -13 -140 -78 -17 -38
-18 -39 -32 -18 -13 19 -22 20 -81 15 -93 -8 -199 -43 -225 -74 -54 -65 -68
-74 -115 -71 -44 2 -46 1 -58 -32 -6 -19 -15 -61 -18 -92 -5 -46 -15 -69 -56
-127 -33 -48 -56 -71 -70 -71 -17 0 -19 -6 -17 -37 3 -36 2 -37 -40 -47 -41
-10 -42 -12 -25 -28 16 -17 15 -18 -24 -18 -53 0 -64 -17 -29 -45 l27 -22 -30
5 c-21 3 -56 -9 -128 -46 -74 -38 -114 -51 -163 -57 -82 -8 -137 -22 -146 -37
-4 -6 -15 -56 -25 -112 -16 -88 -16 -102 -4 -116 16 -18 11 -30 -12 -30 -7 0
-30 -11 -51 -24 -20 -13 -64 -29 -97 -36 -157 -30 -195 -52 -195 -113 0 -53
-72 -87 -110 -52 -10 9 -52 26 -94 40 -62 18 -76 20 -72 9 3 -8 2 -13 -3 -9
-16 10 -24 65 -11 80 24 28 4 45 -53 45 -31 0 -61 6 -73 15 -10 8 -21 14 -24
15 -3 0 -6 -27 -7 -60 -2 -42 2 -64 13 -75 25 -25 34 -72 24 -127 -6 -27 -12
-53 -15 -58 -3 -5 6 -22 20 -38 31 -37 31 -44 1 -32 -13 5 -32 6 -43 4 -14 -4
-23 2 -31 21 -15 32 -27 26 -36 -16 -8 -41 -35 -35 -51 11 -14 41 -17 42 -71
13 l-42 -22 -28 57 c-16 31 -35 57 -42 57 -7 0 -16 6 -20 12 -5 8 -25 12 -52
10 -37 -2 -45 -6 -50 -26 -5 -22 -7 -22 -19 -7 -8 9 -21 16 -30 15 -9 -1 -24
1 -34 6 -11 4 -28 2 -43 -6 -20 -10 -27 -10 -33 -1 -5 9 -20 8 -62 -4 -69 -21
-81 -30 -77 -68 3 -28 6 -31 36 -31 24 0 31 -4 27 -14 -3 -8 2 -24 10 -37 15
-24 15 -24 -22 -24 -65 0 -85 -31 -28 -42 15 -2 21 -13 25 -43 5 -38 6 -40 40
-38 19 1 36 6 38 12 6 19 27 12 37 -11 6 -13 19 -24 30 -26 11 -2 32 -16 47
-30 25 -23 30 -24 52 -13 32 18 47 7 39 -29 -5 -25 -2 -30 15 -30 35 0 50 -10
45 -31 -5 -17 0 -19 51 -19 31 0 56 -4 56 -8 0 -4 -11 -24 -25 -42 -24 -32
-24 -36 -8 -47 9 -7 20 -13 24 -13 4 0 10 -8 14 -18 3 -11 17 -24 32 -31 l26
-12 -20 -22 c-11 -12 -23 -27 -27 -34 -8 -14 15 -63 38 -82 9 -8 16 -24 16
-37 0 -13 5 -35 12 -49 9 -21 17 -25 35 -20 17 4 23 1 23 -10 0 -9 10 -20 23
-25 37 -16 58 -37 51 -53 -3 -8 0 -25 6 -37 9 -17 7 -25 -9 -46 -21 -27 -20
-34 8 -68 15 -18 15 -19 -6 -14 -26 7 -40 -7 -21 -19 26 -16 78 -84 78 -101 0
-10 -11 2 -26 26 -14 23 -31 42 -39 42 -16 0 -48 -80 -65 -165 -7 -33 -17 -69
-23 -80 -6 -11 -12 -36 -13 -55 -3 -57 -71 -307 -96 -353 -28 -50 -64 -66
-155 -66 -52 -1 -66 3 -91 24 -18 15 -37 23 -46 19 -11 -4 -19 2 -25 19 -8 20
-15 24 -38 19 -15 -2 -35 -11 -44 -18 -13 -12 -20 -10 -48 10 -18 13 -38 32
-45 41 -19 27 -112 38 -142 18 -23 -14 -30 -14 -92 0 -37 9 -112 39 -167 67
-55 28 -110 50 -122 50 -13 0 -23 5 -23 10 0 6 -9 19 -20 30 -19 19 -23 19
-48 6 -23 -12 -31 -12 -52 -1 -14 7 -37 11 -52 8 -15 -3 -52 3 -83 13 -46 14
-61 15 -77 5 -25 -15 -34 -9 -62 47 -32 63 -58 86 -91 78 -14 -4 -25 -11 -25
-16 0 -6 -4 -10 -10 -10 -5 0 -7 7 -4 15 13 33 -30 24 -141 -31 -95 -48 -127
-59 -178 -62 -58 -4 -65 -7 -86 -37 -20 -29 -21 -38 -12 -73 12 -43 25 -52 77
-52 29 0 34 -4 34 -22 0 -24 -39 -68 -59 -68 -13 0 -14 -23 -1 -36 12 -12 -4
-84 -21 -95 -10 -6 -8 -14 5 -35 18 -27 18 -27 -13 -51 -32 -25 -40 -48 -20
-55 9 -3 9 -9 0 -25 -13 -26 -15 -147 -2 -171 11 -20 -8 -82 -36 -121 -11 -14
-29 -51 -42 -81 -13 -30 -32 -67 -43 -82 -11 -16 -17 -32 -13 -37 7 -13 -79
-153 -115 -188 -17 -15 -42 -30 -57 -33 -24 -5 -28 -10 -25 -33 2 -18 -12 -55
-39 -104 l-42 -76 27 -54 c14 -29 26 -60 26 -68 0 -11 11 -15 38 -15 21 0 43
-5 50 -12 20 -20 14 -71 -13 -110 -26 -38 -31 -63 -17 -72 16 -9 -19 -129 -60
-209 -22 -44 -36 -82 -32 -87 5 -4 32 -4 59 0 47 7 55 5 147 -42 l97 -49 47
20 c63 28 152 28 187 1 14 -11 30 -20 35 -20 6 0 31 -23 57 -52 46 -52 47 -52
40 -106 -6 -49 -5 -54 14 -59 22 -6 29 -23 10 -23 -7 0 -9 -10 -4 -27 12 -50
44 -113 56 -113 7 0 31 -20 55 -45 23 -25 46 -45 51 -45 6 0 18 9 28 20 10 11
26 20 36 20 9 0 27 16 39 35 26 42 50 49 133 41 60 -7 63 -6 91 23 25 26 38
31 75 31 64 0 171 -20 206 -38 19 -10 50 -15 82 -13 36 1 64 -4 92 -18 50 -26
57 -26 88 -1 34 27 46 25 87 -11 35 -30 36 -30 65 -13 16 9 40 35 52 56 54 89
85 124 139 151 57 29 58 29 177 11 35 -5 44 -3 50 11 4 11 0 22 -10 30 -27 19
-21 54 10 66 34 13 43 26 43 62 0 17 5 27 15 27 9 0 20 11 25 25 5 14 16 25
25 25 8 0 15 7 15 15 0 18 31 35 65 35 14 0 28 7 31 15 3 8 21 19 39 25 60 20
61 33 6 81 -43 37 -53 53 -66 104 -8 32 -15 68 -15 78 0 41 39 97 141 202 58
61 114 125 125 143 14 24 31 36 64 46 49 14 64 40 30 51 -30 9 -21 25 32 58
37 23 66 31 164 42 65 8 127 15 137 15 10 0 36 17 58 39 22 21 58 44 81 50 70
21 168 73 189 100 20 25 20 60 2 107 -3 8 1 14 10 14 17 0 47 26 47 40 0 5
-14 25 -31 45 -27 30 -31 41 -26 71 4 20 1 44 -6 54 -9 15 -8 23 6 38 9 10 17
30 17 44 0 26 20 39 80 52 14 3 49 26 78 51 30 25 56 45 58 45 3 0 17 -8 31
-17 15 -10 47 -23 72 -28 36 -8 46 -15 46 -30 0 -18 6 -20 54 -17 30 2 59 -2
67 -9 8 -6 25 -9 39 -7 16 4 25 1 25 -8 0 -23 31 -44 66 -44 28 0 36 -5 44
-25 9 -24 50 -37 50 -15 0 16 28 11 38 -7 9 -15 12 -15 38 2 16 11 47 22 69
25 31 4 39 9 37 23 -4 22 37 67 55 60 7 -3 18 7 24 21 8 17 20 26 36 26 16 0
23 6 23 20 0 11 6 21 13 21 26 3 33 4 52 15 11 6 42 15 70 19 69 10 101 29
127 75 13 21 31 41 40 43 10 3 22 16 27 29 11 30 56 61 87 61 13 0 40 -10 60
-22 20 -12 42 -20 49 -17 7 2 39 -18 71 -45 32 -27 66 -49 74 -48 64 6 85 -16
107 -113 8 -33 26 -83 40 -111 21 -42 24 -60 20 -104 -6 -56 -5 -57 42 -53 19
1 22 -2 17 -15 -8 -21 10 -45 35 -45 10 0 21 -9 24 -20 3 -11 13 -20 21 -20
21 0 40 -46 26 -63 -16 -19 -5 -27 33 -27 62 0 94 -19 121 -71 15 -31 31 -49
42 -49 28 0 61 -28 76 -65 8 -19 27 -40 43 -48 15 -9 42 -31 60 -51 19 -22 41
-36 55 -36 28 0 39 -7 61 -43 20 -30 38 -34 57 -12 16 19 49 19 74 0 25 -19
36 -19 36 0 0 44 78 -31 107 -102 18 -45 18 -45 60 -39 53 7 72 -11 49 -47
-29 -43 11 -51 64 -12 37 28 49 23 81 -29 13 -22 15 -34 7 -52 -15 -32 -5 -50
31 -57 17 -4 39 -16 48 -27 16 -18 25 -20 70 -14 47 6 52 4 68 -19 9 -14 20
-48 24 -77 6 -35 16 -58 29 -69 26 -20 52 -80 52 -120 0 -20 11 -43 32 -67 37
-42 31 -65 -20 -75 -57 -12 -75 -38 -47 -69 12 -13 12 -23 3 -52 -11 -37 -40
-54 -71 -42 -9 3 -27 -2 -41 -11 -21 -14 -29 -15 -41 -5 -12 10 -16 10 -19 -1
-2 -8 -7 -22 -10 -32 -7 -22 -34 -22 -58 0 -17 15 -21 15 -51 0 -17 -9 -45
-27 -60 -39 -24 -19 -39 -23 -89 -21 -37 2 -71 -3 -88 -12 -39 -20 -56 -19
-80 5 -11 11 -28 20 -39 20 -10 0 -21 9 -24 20 -7 28 -52 26 -77 -2 -11 -13
-27 -32 -37 -42 -17 -20 -18 -20 -49 31 -11 17 -15 15 -51 -22 -58 -57 -64
-107 -21 -159 29 -36 34 -38 74 -32 37 5 49 1 110 -39 38 -25 77 -45 88 -45
10 0 31 -11 48 -25 23 -19 41 -25 78 -25 68 0 95 -13 125 -59 34 -55 72 -73
134 -65 31 4 51 2 55 -5 17 -27 35 -10 34 31 0 33 5 47 26 64 32 28 32 31 4
62 -16 17 -19 26 -10 29 20 7 14 20 -13 27 -16 4 -25 13 -25 25 0 29 39 149
72 221 l29 65 20 -39 c23 -48 34 -56 80 -56 39 0 62 19 74 60 16 55 38 89 65
100 36 15 44 37 35 101 -9 63 7 83 82 105 29 8 60 22 68 30 20 20 19 68 -1 85
-10 8 -14 23 -11 42 3 24 -1 31 -33 47 -20 10 -42 26 -49 34 -8 9 -29 16 -51
16 -29 0 -39 5 -50 24 -11 22 -10 28 9 52 15 19 20 36 16 52 -7 27 57 157 82
166 9 4 32 -4 52 -16 25 -16 58 -24 111 -28 81 -5 80 -5 111 -88 8 -22 25 -40
51 -53 51 -26 68 -19 68 27 0 21 7 45 16 55 26 29 -7 84 -73 121 -31 18 -59
41 -64 55 -9 26 -50 47 -112 58 -20 4 -52 18 -70 31 -62 45 -103 62 -221 93
-178 46 -223 84 -157 131 33 23 45 50 36 79 -9 29 -30 32 -92 16 -126 -33
-264 -12 -288 42 -5 13 -21 27 -35 32 -45 15 -138 109 -163 164 -14 29 -39 97
-57 152 -35 104 -70 155 -108 155 -19 0 -191 118 -244 167 -19 18 -32 46 -43
94 -20 91 -20 97 15 117 40 23 47 48 21 81 -12 14 -26 36 -31 49 -6 13 -16 30
-24 38 -20 20 -9 54 18 54 12 0 46 16 76 35 30 19 65 35 77 35 14 0 24 9 32
31 9 26 14 29 33 23 13 -3 26 -12 30 -18 5 -7 12 -4 22 9 12 16 18 18 33 9 10
-6 20 -19 21 -28 4 -21 -25 -56 -46 -56 -10 0 -12 -5 -7 -17 4 -10 11 -40 16
-67 5 -30 18 -59 33 -75 13 -14 32 -44 41 -66 l17 -40 16 24 c9 13 26 33 38
45 12 12 26 48 34 83 15 75 35 82 86 31 18 -18 42 -41 53 -50 17 -15 21 -30
21 -78 0 -58 2 -63 44 -108 33 -35 42 -52 36 -62 -18 -28 -10 -56 22 -86 57
-51 117 -95 154 -110 29 -12 35 -19 30 -37 -10 -43 6 -51 64 -32 51 17 53 17
90 -4 21 -11 51 -21 67 -21 20 0 39 -11 62 -34 17 -18 54 -44 82 -56 49 -23
70 -47 26 -31 -13 5 -41 11 -63 13 -29 2 -39 -1 -39 -12 0 -11 12 -16 44 -17
29 -1 51 -9 66 -23 16 -15 43 -24 82 -29 44 -5 71 -16 113 -45 30 -20 66 -40
80 -42 15 -3 33 -18 43 -36 15 -26 21 -29 47 -23 19 4 30 3 30 -5 0 -6 15 -20
34 -31 19 -11 37 -30 40 -43 7 -27 44 -46 91 -46 33 0 35 -2 35 -35 0 -23 -5
-35 -14 -35 -17 0 -26 -22 -26 -65 0 -25 5 -35 20 -40 22 -7 22 -5 -1 -175 -8
-58 -6 -68 12 -92 16 -24 17 -28 4 -28 -22 0 -30 -27 -14 -47 8 -9 47 -31 87
-49 49 -23 76 -42 84 -59 6 -14 17 -25 25 -25 9 0 13 -13 13 -39 0 -31 6 -44
26 -60 15 -12 33 -21 40 -21 8 0 11 -6 8 -15 -4 -10 14 -27 60 -56 71 -44 110
-95 94 -123 -13 -23 -3 -34 26 -29 18 4 26 0 31 -16 3 -12 12 -21 20 -21 19 0
56 -50 51 -69 -3 -9 1 -25 9 -35 15 -19 16 -19 43 8 26 24 30 25 42 11 13 -16
35 -16 73 0 15 6 16 4 8 -16 -7 -20 -15 -24 -52 -24 -40 0 -44 -3 -47 -25 -6
-53 -13 -69 -33 -75 -30 -10 -22 -49 12 -53 21 -2 28 -10 33 -33 5 -25 10 -29
25 -24 14 4 32 -5 60 -31 43 -38 52 -69 25 -89 -21 -15 -10 -71 17 -85 12 -7
19 -21 19 -38 0 -32 16 -52 41 -52 24 0 51 29 45 49 -20 68 -20 71 12 71 25 0
34 -7 56 -45 15 -25 31 -45 36 -45 6 0 10 -16 10 -35 0 -22 8 -43 20 -55 34
-34 42 -25 38 46 -2 56 0 68 17 81 19 13 23 11 60 -31 22 -26 46 -46 53 -46 6
0 12 -4 12 -10 0 -12 47 -13 54 -2 3 5 -8 22 -25 38 -24 23 -28 34 -24 56 5
20 -1 42 -21 78 -15 27 -31 50 -36 50 -4 0 -8 5 -8 11 0 6 -18 31 -40 56 -62
71 -50 93 28 53 32 -17 50 -19 96 -14 31 4 59 11 62 16 10 16 -15 35 -61 47
-33 8 -45 16 -46 31 -1 11 -2 26 -3 33 -1 6 -14 17 -31 23 l-30 11 63 23 c35
13 62 29 62 36 0 24 20 15 53 -21 17 -19 39 -35 49 -35 10 0 23 -9 30 -20 7
-11 20 -20 30 -20 24 0 32 37 14 65 -9 13 -16 33 -16 43 0 10 -5 23 -12 30 -8
8 -8 15 2 27 22 26 -19 58 -82 65 -28 3 -53 10 -55 16 -2 7 6 10 21 7 14 -3
40 0 57 6 26 9 37 8 56 -5 14 -9 22 -21 19 -30 -3 -8 1 -14 9 -14 8 0 15 -7
15 -15 0 -19 57 -55 87 -55 13 0 30 11 39 25 23 35 5 55 -51 55 -50 0 -62 11
-71 69 -4 24 -17 54 -30 68 -21 23 -27 24 -55 14 -24 -8 -35 -8 -51 3 -10 8
-28 12 -38 9 -12 -3 -34 9 -64 37 l-46 42 -32 -19 c-32 -19 -34 -19 -65 0 -32
18 -40 40 -25 64 6 10 20 8 60 -7 91 -35 73 15 -30 82 -29 18 -57 46 -68 69
-11 21 -36 50 -55 65 -50 38 -58 56 -45 105 9 34 9 44 -5 59 -14 16 -13 19 22
46 35 26 36 27 20 4 -16 -23 -16 -25 5 -47 13 -14 34 -23 52 -24 64 -2 80 -12
91 -59 l11 -45 57 -3 c34 -2 57 1 57 7 0 6 -26 23 -57 38 -67 32 -76 56 -24
61 30 3 40 -2 77 -42 48 -53 61 -56 70 -21 8 32 -16 60 -57 69 -31 6 -39 30
-13 40 38 15 75 5 113 -29 41 -37 61 -44 61 -21 0 24 -40 64 -70 71 -17 4 -37
14 -46 22 -13 14 -16 14 -29 -3 -13 -18 -15 -17 -29 18 -9 20 -24 41 -33 46
-14 8 -15 13 -5 25 9 10 25 13 55 10 46 -5 62 6 88 62 17 35 42 43 65 20 22
-21 50 -11 99 36 l41 39 49 -16 c42 -15 57 -15 111 -5 68 14 93 9 73 -15 -17
-20 -4 -41 29 -49 22 -4 50 2 103 25 39 17 75 28 78 24 3 -3 -9 -18 -28 -33
-81 -62 -114 -98 -105 -112 5 -8 10 -43 11 -79 6 -163 9 -200 18 -209 7 -7 41
4 97 30 49 21 92 39 98 39 12 0 -14 -55 -38 -83 -14 -16 -14 -19 -2 -27 8 -6
22 -10 31 -10 22 0 54 -36 39 -45 -6 -4 -10 -14 -8 -23 3 -13 12 -16 42 -14
44 4 42 -8 -11 -53 -18 -15 -33 -33 -33 -40 0 -7 16 -27 36 -44 29 -26 39 -30
50 -20 8 6 17 9 20 6 3 -3 -8 -13 -24 -21 -26 -14 -34 -14 -57 -2 -15 8 -36
28 -46 46 -28 46 -54 37 -54 -19 -1 -34 4 -45 20 -51 18 -8 17 -9 -10 -15 -23
-5 -30 -12 -31 -31 -2 -19 3 -24 23 -24 14 0 38 -8 55 -17 29 -18 30 -18 53
11 l22 28 11 -31 c12 -33 21 -38 39 -20 18 18 90 -7 97 -34 10 -39 7 -46 -31
-66 -39 -20 -36 -27 17 -33 22 -3 25 -7 22 -39 -4 -47 13 -58 43 -29 l24 22
30 -23 c16 -13 30 -32 30 -41 1 -15 -8 -18 -54 -18 -60 0 -71 -15 -39 -51 13
-14 21 -16 41 -8 18 6 30 6 40 -2 10 -9 17 -9 25 -1 7 7 20 12 30 12 10 0 50
16 89 36 47 23 75 32 81 26 14 -14 1 -32 -23 -32 -11 0 -29 -5 -40 -10 -15 -9
-17 -15 -9 -30 10 -18 7 -20 -23 -20 -23 0 -53 -13 -91 -37 -58 -39 -73 -60
-33 -49 12 3 35 6 50 6 20 0 30 6 34 20 4 14 14 20 32 20 15 0 37 7 49 16 20
14 22 14 22 -1 0 -9 -10 -25 -22 -34 -18 -15 -19 -19 -5 -24 19 -7 104 82 113
119 9 34 33 30 41 -6 4 -22 13 -32 32 -36 14 -3 34 -8 44 -11 13 -3 17 2 17
26 0 62 50 25 65 -47 9 -41 50 -62 124 -62 27 0 53 -5 56 -11 8 -12 38 6 106
63 48 40 67 46 87 26 10 -10 15 -10 21 1 10 15 6 134 -4 187 -8 36 -4 38 91
58 49 11 84 10 188 0 131 -14 168 -27 212 -75 27 -29 61 -45 117 -53 40 -6 48
-5 54 11 8 23 23 33 48 33 11 0 25 8 32 19 6 10 26 21 45 25 63 12 107 39 119
73 9 28 13 31 29 21 31 -20 50 5 44 55 -5 37 -1 50 33 102 22 33 47 68 57 78
22 22 78 22 157 0 l61 -17 20 27 c12 16 29 27 44 27 23 0 28 9 25 38 -2 16 42
112 51 112 5 0 8 344 8 764 0 682 -2 766 -16 780 -22 22 -29 20 -58 -16 -24
-31 -27 -32 -56 -21 -23 9 -38 9 -55 1 -19 -8 -27 -6 -44 11 -35 35 -86 28
-127 -15 -43 -47 -73 -42 -109 20 -36 61 -72 66 -134 19 -39 -30 -51 -34 -84
-30 -52 7 -77 32 -74 71 2 30 1 31 -38 31 -33 -1 -40 -5 -45 -25 -9 -40 -51
-60 -211 -99 -172 -42 -182 -46 -224 -91 -16 -18 -51 -43 -77 -56 -35 -18 -68
-50 -121 -117 -89 -111 -127 -152 -147 -159 -9 -3 -15 -18 -15 -43 0 -23 -6
-40 -15 -45 -8 -4 -32 -15 -52 -25 -31 -15 -51 -16 -116 -11 -66 6 -81 4 -92
-9 -26 -31 -68 -44 -176 -53 -121 -10 -309 0 -346 18 -44 23 -78 63 -84 99
-10 62 -14 69 -49 91 -19 12 -40 33 -48 48 -11 24 -18 27 -57 26 l-44 -1 26
21 c14 12 28 33 32 47 3 16 15 29 27 32 19 5 21 10 14 44 -19 102 -21 141 -8
159 8 11 12 27 9 37 -5 21 27 37 71 34 l28 -2 -2 75 c-1 41 -11 115 -22 164
l-20 89 25 48 c13 27 24 55 24 63 0 37 40 81 87 96 l48 15 3 59 c2 32 0 66 -4
75 -4 9 -8 36 -8 61 -1 38 -4 45 -21 45 -11 0 -23 5 -27 10 -13 18 -8 35 10
35 35 0 59 27 54 59 -4 26 -1 31 16 31 27 0 35 12 72 104 19 49 29 89 25 103
-3 13 -1 23 5 23 13 0 13 33 -1 47 -16 16 43 60 91 68 22 4 40 12 40 18 0 6
13 -1 28 -16 27 -26 70 -38 57 -17 -4 6 9 10 31 10 l37 0 -22 -24 c-33 -35
-19 -50 41 -42 37 5 52 3 64 -9 21 -21 56 -19 88 6 14 11 42 25 62 30 19 6 44
19 55 30 19 19 22 19 38 5 25 -23 38 -20 55 12 l15 27 1 -31 c0 -16 5 -35 12
-42 9 -9 4 -20 -22 -47 -19 -19 -41 -34 -49 -32 -9 1 -15 -3 -14 -9 1 -6 -14
-26 -32 -44 -19 -19 -35 -38 -35 -43 0 -5 -13 -22 -30 -37 -36 -33 -37 -45 -9
-61 17 -9 29 -7 60 6 37 17 39 17 74 -4 40 -24 75 -27 93 -9 9 9 19 5 42 -17
25 -24 29 -34 24 -61 -3 -18 -1 -42 6 -54 10 -19 9 -24 -9 -37 -25 -17 -19
-33 13 -33 12 0 31 -7 42 -15 54 -41 119 2 168 110 38 81 86 130 122 121 25
-7 44 16 44 51 0 10 9 24 21 31 13 8 18 19 14 31 -10 32 19 46 65 31 35 -12
42 -11 58 3 10 10 25 17 33 17 8 0 25 7 37 16 20 13 21 21 16 68 -4 35 -3 56
5 60 6 4 11 16 11 27 0 15 -5 18 -22 14 -13 -3 -41 -9 -63 -13 -28 -6 -41 -14
-43 -27 -6 -33 -20 -40 -40 -22 -21 19 -32 13 -32 -18 0 -24 -29 -55 -52 -55
-26 0 -105 59 -167 126 -34 36 -61 68 -61 73 0 5 10 6 23 4 33 -7 56 25 68 95
7 40 19 70 35 87 13 14 24 32 24 39 0 7 11 25 25 40 19 21 33 27 58 24 29 -3
33 0 41 34 11 43 32 55 56 33 30 -27 51 -19 48 19 -3 44 37 98 68 91 19 -4 23
1 28 39 8 50 13 56 75 80 32 12 46 14 57 5 10 -8 14 -6 19 14 5 18 24 32 76
57 58 27 70 37 77 64 10 36 49 47 76 21 21 -21 5 -55 -27 -55 -16 0 -30 -13
-50 -45 -15 -25 -43 -55 -62 -66 -19 -12 -35 -29 -35 -38 0 -9 -5 -22 -11 -28
-6 -6 -17 -22 -23 -35 -6 -13 -22 -24 -36 -26 -53 -6 -55 -11 -20 -47 28 -29
41 -35 74 -35 24 0 54 -8 71 -20 17 -11 42 -20 58 -20 15 0 27 -5 27 -10 0 -6
-16 -8 -41 -4 -35 6 -41 4 -46 -15 -3 -11 -11 -21 -19 -21 -23 0 -34 -34 -23
-74 9 -31 7 -42 -13 -77 l-23 -41 40 -33 c36 -30 38 -35 20 -40 -11 -4 -27
-11 -35 -16 -37 -23 -69 -32 -115 -33 l-50 -1 0 -35 c1 -23 -6 -41 -20 -52
-34 -28 -6 -43 85 -43 78 0 79 0 119 -39 38 -37 42 -39 87 -32 26 3 53 11 60
16 9 8 26 2 63 -21 42 -25 58 -30 84 -24 69 16 140 9 217 -24 41 -17 76 -31
78 -31 1 0 2 1886 2 4190 l0 4190 -1160 0 -1160 0 0 -24z m-2730 -291 c0 -13
-8 -29 -19 -34 -17 -10 -17 -9 -2 24 19 41 21 42 21 10z m559 -164 c11 -7 10
-11 -6 -20 -22 -11 -33 -6 -33 16 0 15 18 17 39 4z m-1078 -171 c5 0 9 -4 9
-10 0 -16 -37 -11 -44 6 -5 12 -2 15 10 10 8 -3 20 -6 25 -6z m-153 -48 c2
-18 -1 -32 -7 -32 -20 0 -41 13 -41 25 0 7 -6 15 -12 18 -15 5 31 27 47 23 6
-1 11 -17 13 -34z m-148 -167 c10 -13 9 -15 -9 -15 -12 0 -21 6 -21 15 0 8 4
15 9 15 5 0 14 -7 21 -15z m-204 -122 c-8 -8 -36 5 -36 17 0 7 6 7 21 0 11 -7
18 -14 15 -17z m-360 -227 c15 -12 17 -17 7 -27 -11 -11 -13 -10 -13 0 0 8 -8
20 -17 27 -10 7 -13 14 -7 14 5 0 19 -6 30 -14z m272 -86 c3 -20 1 -22 -20
-16 -12 4 -29 8 -37 8 -9 1 -6 8 9 20 28 23 44 19 48 -12z m-48 -71 c0 -6 -4
-7 -10 -4 -5 3 -10 11 -10 16 0 6 5 7 10 4 6 -3 10 -11 10 -16z m-115 -86 c14
-21 25 -44 25 -53 -1 -23 -60 47 -60 70 0 28 6 25 35 -17z m-84 -93 c29 -16
23 -31 -8 -24 -35 8 -37 10 -28 23 8 14 11 14 36 1z m-61 -67 c0 -10 -4 -14
-8 -8 -4 6 -11 13 -16 18 -5 4 -2 7 7 7 10 0 17 -8 17 -17z m-290 -767 c0 -8
-6 -16 -14 -19 -10 -4 -12 0 -9 14 6 22 23 26 23 5z m-170 -482 c0 -8 -13 -20
-30 -25 -37 -14 -38 -34 -2 -53 l27 -14 -30 -11 c-61 -23 -59 -23 -45 -6 11
13 9 15 -12 15 -14 0 -27 2 -30 5 -8 8 94 105 110 105 6 0 12 -7 12 -16z
m-108 -136 c-17 -17 -15 -28 4 -28 9 0 14 -7 12 -17 -4 -20 -42 -28 -76 -16
-21 8 -20 10 20 41 42 32 62 42 40 20z m-336 -286 c-4 -3 -14 2 -24 12 -16 18
-16 18 6 6 13 -6 21 -14 18 -18z m-151 -92 c-3 -5 -12 -10 -18 -10 -7 0 -6 4
3 10 19 12 23 12 15 0z m-55 -385 c-7 -9 -15 -13 -17 -11 -7 7 7 26 19 26 6 0
6 -6 -2 -15z m30 -90 c0 -9 -9 -15 -25 -15 -29 0 -34 16 -7 23 30 8 32 7 32
-8z m-355 -15 c-3 -5 -14 -10 -23 -9 -14 0 -13 2 3 9 27 11 27 11 20 0z m133
-15 c-3 -3 -9 2 -12 12 -6 14 -5 15 5 6 7 -7 10 -15 7 -18z m132 -55 c0 -6 -4
-10 -8 -10 -17 0 -32 25 -32 55 l0 30 20 -33 c11 -18 20 -37 20 -42z m-178
-261 c7 0 1 -5 -14 -10 -15 -6 -30 -19 -33 -30 -4 -10 -10 -19 -15 -19 -5 0
-3 18 5 41 21 59 27 66 36 41 5 -12 14 -22 21 -23z m1998 -90 c4 -8 12 -25 19
-37 11 -21 10 -23 -4 -20 -9 1 -23 20 -30 41 -9 25 -9 37 -2 34 6 -2 14 -10
17 -18z m-54 -84 c35 -19 51 -22 65 -14 15 7 19 6 19 -6 0 -8 7 -15 15 -15 8
0 15 -9 15 -20 0 -26 -25 -26 -75 0 -22 12 -48 19 -57 16 -24 -6 -62 36 -46
52 15 15 9 16 64 -13z m-116 5 c0 -5 6 -10 14 -10 8 0 16 -7 20 -15 6 -17 -7
-19 -35 -5 -20 11 -27 40 -9 40 6 0 10 -4 10 -10z m-60 -30 c-19 -13 -30 -13
-30 0 0 6 10 10 23 10 18 0 19 -2 7 -10z m347 -6 c-3 -3 -12 -4 -19 -1 -8 3
-5 6 6 6 11 1 17 -2 13 -5z m-1506 -191 c13 -16 12 -17 -3 -4 -10 7 -18 15
-18 17 0 8 8 3 21 -13z m-104 -743 c0 -21 -5 -30 -17 -30 -9 0 -31 -16 -50
-35 -41 -42 -48 -43 -52 -7 -5 39 11 82 28 75 7 -3 17 2 20 11 4 10 18 16 38
16 30 0 33 -3 33 -30z m13 -99 c0 -12 -20 -25 -27 -18 -7 7 6 27 18 27 5 0 9
-4 9 -9z m560 -305 c0 -3 -4 -8 -10 -11 -5 -3 -10 -1 -10 4 0 6 5 11 10 11 6
0 10 -2 10 -4z m-460 -772 c0 -14 -3 -14 -15 -4 -8 7 -15 14 -15 16 0 2 7 4
15 4 8 0 15 -7 15 -16z m-527 -71 c-7 -2 -19 -2 -25 0 -7 3 -2 5 12 5 14 0 19
-2 13 -5z m-689 -572 c11 -4 15 -10 9 -14 -5 -3 -19 0 -29 8 -20 15 -11 18 20
6z m-68 -49 c-4 -3 -14 2 -24 12 -16 18 -16 18 6 6 13 -6 21 -14 18 -18z m89
-3 c11 -17 2 -18 -19 -3 -17 12 -17 14 -4 14 9 0 20 -5 23 -11z m6421 -895
c13 -3 37 -1 54 4 24 9 30 8 30 -3 0 -8 -18 -15 -52 -20 -29 -3 -73 -9 -97
-12 -31 -4 -42 -2 -37 6 4 6 21 11 38 11 32 0 32 -4 13 70 -3 14 2 8 11 -13
10 -23 25 -39 40 -43z m-536 -810 c0 -18 -5 -36 -11 -40 -7 -4 -9 0 -5 13 4
13 -1 26 -14 38 -16 14 -17 21 -8 38 10 20 11 20 24 2 8 -10 14 -33 14 -51z
m-7385 -434 c3 -5 1 -10 -4 -10 -6 0 -11 5 -11 10 0 6 2 10 4 10 3 0 8 -4 11
-10z m1523 -598 c2 -7 -3 -12 -12 -12 -9 0 -16 7 -16 16 0 17 22 14 28 -4z
m6209 -272 c13 0 26 -7 29 -15 4 -8 15 -15 25 -15 32 0 21 -13 -52 -59 -82
-53 -88 -71 -24 -71 25 0 45 -4 45 -9 0 -13 -19 -18 -96 -26 -38 -4 -91 -16
-119 -26 -27 -11 -51 -19 -51 -19 -1 0 -1 8 0 18 1 20 -49 29 -74 13 -12 -8
-12 -12 3 -29 16 -18 16 -20 -1 -35 -31 -29 -78 -32 -98 -8 -24 27 -43 27 -84
-4 -19 -14 -43 -25 -55 -25 -12 0 -27 -6 -34 -12 -11 -11 -12 -10 -3 6 5 11
36 38 68 61 62 43 104 102 104 146 0 36 18 49 67 49 35 0 49 5 67 27 24 27 36
29 136 22 27 -2 57 3 75 12 17 9 34 12 40 7 5 -4 19 -8 32 -8z m173 -15 c-14
-8 -32 -14 -40 -14 -9 0 -4 6 10 14 14 8 32 14 40 14 9 0 4 -6 -10 -14z
m-10035 -66 c-10 -15 -25 -10 -19 6 4 8 10 12 15 9 5 -3 7 -10 4 -15z m9246
-296 c-12 -20 -14 -14 -5 12 4 9 9 14 11 11 3 -2 0 -13 -6 -23z m-41 -83 c-6
-11 -15 -20 -20 -20 -6 0 -5 9 2 20 7 11 16 20 21 20 4 0 3 -9 -3 -20z m-690
-613 c67 -33 89 -61 48 -63 -13 0 -29 -2 -37 -5 -9 -2 -16 4 -19 16 -6 31 -18
38 -42 25 -19 -10 -24 -9 -37 10 -12 17 -23 21 -57 18 -24 -1 -39 1 -36 7 3 6
15 10 27 10 12 0 28 6 34 13 16 15 35 10 119 -31z m-682 -9 c9 -9 18 -9 38 1
24 11 26 10 14 -3 -16 -20 -66 -21 -74 -1 -6 18 5 20 22 3z m570 -195 c17 4
34 2 37 -2 3 -5 15 -7 28 -3 20 5 21 4 8 -12 -11 -13 -23 -16 -47 -11 -42 7
-55 -12 -24 -37 31 -25 6 -23 -29 2 -16 13 -55 25 -95 31 -42 5 -85 19 -110
35 l-41 25 40 -6 c22 -4 47 -9 56 -11 9 -3 24 2 32 10 13 14 16 14 21 1 8 -22
37 -18 43 6 6 20 7 20 28 -7 18 -23 27 -26 53 -21z"/>
<path d="M7156 12295 c-20 -14 -45 -25 -55 -25 -26 0 -46 -26 -33 -43 7 -8 7
-18 2 -27 -14 -22 -12 -30 8 -30 32 0 79 38 104 83 33 59 23 75 -26 42z"/>
<path d="M7030 12230 c0 -5 5 -10 10 -10 6 0 10 5 10 10 0 6 -4 10 -10 10 -5
0 -10 -4 -10 -10z"/>
<path d="M6896 12057 c-13 -9 -16 -20 -11 -40 4 -15 10 -27 14 -27 7 0 41 64
41 75 0 10 -27 5 -44 -8z"/>
<path d="M1216 11752 c-3 -5 -4 -34 -2 -66 2 -42 9 -63 26 -81 22 -23 22 -25
6 -50 -9 -14 -20 -25 -25 -25 -15 0 -31 51 -31 100 0 55 -18 80 -57 80 -23 0
-25 -3 -19 -32 6 -30 6 -31 -13 -14 -16 15 -22 15 -40 4 -12 -7 -21 -23 -21
-35 0 -21 -2 -22 -20 -11 -30 19 -46 -2 -31 -43 12 -36 5 -54 -11 -25 -14 25
-46 56 -58 56 -13 0 -32 -48 -24 -61 3 -6 16 -14 29 -19 13 -5 25 -19 27 -32
3 -20 9 -23 43 -23 22 0 45 -3 51 -7 6 -4 25 -5 42 -3 26 3 32 1 32 -15 0 -25
8 -25 40 0 34 27 50 25 50 -5 0 -15 -6 -25 -14 -25 -7 0 -19 -7 -26 -15 -11
-13 -10 -18 5 -29 16 -12 14 -14 -25 -19 -54 -7 -79 -29 -60 -52 7 -8 10 -19
6 -23 -4 -4 -15 4 -25 17 -14 19 -25 23 -50 19 -17 -2 -31 0 -31 5 0 5 -18 7
-43 3 -33 -5 -47 -3 -57 9 -16 19 -40 19 -68 -1 -30 -21 -15 -40 39 -49 21 -4
39 -11 39 -17 0 -6 7 -8 15 -4 9 3 29 -8 50 -29 19 -19 44 -35 56 -35 20 0 21
-2 7 -17 -10 -13 -14 -37 -13 -80 1 -35 -1 -63 -6 -63 -4 0 -7 -17 -6 -37 l2
-38 -45 -1 c-35 0 -47 4 -55 19 -13 25 -29 24 -33 -3 -2 -11 -13 -27 -25 -35
-11 -8 -19 -16 -16 -19 13 -12 191 -96 204 -96 8 0 22 -14 30 -31 9 -17 22
-29 28 -26 8 3 13 -8 13 -34 2 -46 25 -85 56 -94 13 -4 50 -36 83 -72 l60 -65
72 -6 73 -5 16 38 c12 31 19 36 37 31 12 -3 34 -6 49 -6 15 0 33 -7 42 -15 20
-21 33 -19 39 7 l6 22 25 -23 24 -22 53 27 c30 15 72 29 94 30 22 1 48 2 58 3
10 1 22 11 26 24 9 21 10 20 26 -16 16 -38 16 -38 40 -23 13 9 34 16 45 16 15
0 22 8 26 29 6 26 11 30 55 36 37 5 65 19 108 51 32 24 64 50 71 59 17 21 5
44 -30 56 -35 13 -32 24 10 32 21 5 31 14 36 32 9 36 -4 76 -27 82 -12 4 -22
17 -26 35 -3 16 -15 35 -26 43 l-21 15 22 23 c30 32 29 65 -3 73 -53 13 -19
64 43 64 36 0 44 8 31 31 -12 23 -52 25 -69 4 -7 -8 -23 -15 -36 -15 -13 0
-24 -4 -24 -10 0 -13 -27 -13 -35 1 -4 5 0 18 9 28 20 21 21 50 2 57 -8 3 -11
14 -9 28 4 20 -1 26 -31 36 -51 16 -64 8 -68 -41 -3 -36 -7 -44 -29 -50 -22
-5 -29 -2 -38 17 -14 32 -36 30 -71 -5 -32 -32 -50 -25 -50 19 0 36 -35 68
-58 54 -9 -6 -19 -21 -22 -34 -3 -13 -11 -25 -18 -28 -9 -3 -10 8 -6 40 7 54
-12 78 -49 61 -13 -6 -35 -9 -49 -6 -33 6 -58 -27 -58 -77 -1 -33 -2 -34 -15
-16 -9 12 -14 39 -12 77 2 63 -5 77 -42 81 -26 3 -31 -7 -45 -94 -5 -26 -16
-44 -37 -59 -36 -25 -47 -19 -25 13 20 28 20 38 1 38 -37 0 -74 -31 -86 -70
-13 -43 -49 -86 -49 -58 0 8 7 23 15 34 20 26 19 54 -2 54 -14 0 -11 5 11 23
24 19 27 27 18 43 -9 17 -6 19 20 20 16 1 37 8 46 17 15 15 14 19 -9 43 -13
14 -18 24 -10 22 23 -5 23 19 0 25 -16 4 -20 10 -14 24 12 27 7 77 -9 88 -9 7
-12 21 -9 37 4 22 0 29 -26 42 -17 9 -31 21 -31 27 0 6 -6 9 -12 6 -7 -2 -21
0 -30 4 -9 5 -19 5 -22 1z m-156 -184 c0 -5 -4 -8 -10 -8 -5 0 -10 10 -10 23
0 18 2 19 10 7 5 -8 10 -18 10 -22z m10 -39 c0 -5 -4 -9 -10 -9 -5 0 -10 7
-10 16 0 8 5 12 10 9 6 -3 10 -10 10 -16z m130 -276 c0 -10 -6 -13 -16 -9 -9
3 -20 6 -25 6 -16 0 -9 18 9 23 23 5 32 -1 32 -20z"/>
<path d="M6120 11289 c0 -11 -5 -30 -11 -41 -19 -36 5 -42 39 -9 42 39 43 71
2 71 -24 0 -30 -4 -30 -21z"/>
<path d="M5428 9739 c-21 -11 -38 -24 -38 -29 0 -12 70 -13 89 -1 8 5 11 16 6
30 -8 25 -10 25 -57 0z"/>
<path d="M2910 9547 c0 -7 9 -18 21 -25 14 -9 19 -21 17 -40 -4 -34 27 -44 37
-12 10 32 -24 90 -52 90 -13 0 -23 -6 -23 -13z"/>
<path d="M2898 9265 c-6 -30 -3 -43 8 -33 3 4 4 19 2 35 l-3 28 -7 -30z"/>
<path d="M3740 8738 c-11 -22 -20 -28 -46 -28 -42 0 -50 -14 -29 -46 11 -17
23 -24 36 -21 18 5 18 3 3 -32 -30 -67 -28 -79 5 -41 19 21 31 45 31 62 0 16
7 31 15 34 8 4 15 16 15 28 0 12 5 27 12 34 9 9 8 12 -4 12 -9 0 -18 6 -21 13
-2 7 -10 0 -17 -15z"/>
<path d="M4836 8434 c-9 -33 1 -64 20 -64 19 0 19 63 0 79 -11 9 -15 6 -20
-15z"/>
<path d="M3298 8359 c-47 -27 13 -113 75 -107 44 4 44 24 0 39 -21 7 -32 14
-25 16 17 7 15 27 -6 46 -21 20 -21 20 -44 6z"/>
<path d="M7870 8285 c-6 -15 -20 -27 -37 -31 -55 -12 -59 -14 -43 -24 8 -6 25
-10 37 -10 16 0 27 -10 37 -35 17 -41 20 -41 63 -15 20 12 31 25 27 34 -3 9 3
17 15 21 12 3 21 13 21 20 0 17 -54 48 -64 37 -4 -4 -12 1 -17 11 -14 24 -28
21 -39 -8z"/>
<path d="M2697 8243 c-10 -10 -30 -18 -45 -18 -20 0 -28 -6 -30 -22 -3 -20 -6
-21 -28 -11 -31 15 -42 4 -49 -48 -4 -35 -2 -43 18 -52 21 -10 20 -11 -11 -11
-41 -1 -52 -25 -25 -53 l20 -20 21 22 c27 29 70 51 77 40 12 -19 35 4 47 44 6
22 22 52 35 67 28 31 31 79 5 79 -10 0 -26 -8 -35 -17z"/>
<path d="M2944 8215 c-8 -19 -19 -35 -24 -35 -16 0 -12 -27 6 -45 24 -23 10
-29 -27 -11 l-31 16 6 -30 c5 -25 2 -30 -14 -30 -23 0 -27 -28 -7 -49 12 -14
8 -14 -38 5 -11 5 -15 -1 -15 -22 -1 -27 -1 -28 -15 -10 -18 24 -45 14 -45
-17 0 -13 11 -41 25 -61 18 -27 25 -50 25 -86 0 -49 -1 -50 -30 -50 -36 0 -38
-12 -7 -33 17 -12 19 -18 10 -28 -10 -10 -18 -10 -38 -1 -47 21 -87 -22 -53
-56 9 -9 1 -12 -36 -12 -43 0 -48 -2 -43 -20 3 -13 0 -20 -8 -20 -28 0 -25
-21 4 -31 17 -6 31 -14 31 -18 0 -15 -37 -41 -51 -36 -8 2 -20 1 -28 -4 -20
-13 3 -41 33 -41 44 0 114 31 121 53 6 20 8 20 12 4 3 -10 -2 -26 -11 -36 -9
-10 -16 -35 -16 -59 0 -34 -5 -44 -30 -62 -17 -12 -27 -26 -24 -31 4 -6 15 -3
27 8 21 17 21 16 0 -8 -25 -28 -30 -49 -10 -49 6 -1 2 -9 -11 -20 -13 -11 -28
-35 -33 -53 -5 -19 -18 -44 -29 -57 -22 -25 -18 -40 10 -40 30 0 50 11 50 29
0 9 7 25 15 35 8 11 15 28 15 37 0 10 11 26 25 36 24 17 25 21 14 52 -14 38
-8 45 65 83 l39 20 -6 -34 c-4 -18 -9 -53 -13 -78 -4 -25 -11 -50 -16 -57 -6
-8 -2 -25 13 -51 l23 -40 -32 -27 c-18 -15 -32 -31 -32 -37 0 -5 -11 -24 -25
-42 -14 -18 -25 -42 -25 -54 0 -12 -8 -23 -20 -27 -11 -3 -20 -10 -20 -14 0
-13 51 -32 69 -26 12 4 24 -6 40 -35 27 -49 46 -47 46 3 0 44 9 47 29 8 19
-36 38 -43 65 -24 12 8 31 13 42 10 10 -3 29 3 42 13 16 13 28 16 38 9 8 -4
22 -6 33 -3 13 4 16 2 11 -6 -4 -6 -17 -9 -30 -6 -19 5 -31 -3 -60 -36 -45
-53 -52 -81 -32 -123 9 -18 13 -43 10 -55 -4 -16 0 -23 16 -27 15 -4 21 -13
21 -34 0 -34 8 -36 44 -8 28 22 34 15 11 -14 -7 -11 -11 -25 -9 -32 4 -9 -4
-15 -23 -17 -22 -2 -27 -8 -25 -23 2 -11 11 -26 19 -32 14 -11 13 -15 -10 -34
-16 -12 -27 -30 -27 -45 0 -14 -7 -27 -15 -30 -11 -4 -14 -13 -9 -28 6 -20 6
-20 -8 -2 -12 15 -22 17 -51 12 -26 -5 -44 -2 -62 10 -23 15 -25 15 -25 0 0
-9 -8 -16 -20 -16 -12 0 -17 5 -14 13 2 7 -9 26 -25 41 -23 23 -35 27 -56 22
-24 -6 -26 -10 -20 -34 4 -15 9 -44 12 -64 5 -37 4 -38 -42 -58 -41 -17 -46
-23 -39 -42 11 -36 26 -39 61 -12 39 30 49 26 63 -24 19 -70 14 -86 -46 -141
-54 -49 -66 -55 -110 -52 -11 1 -27 -5 -34 -13 -8 -10 -29 -16 -55 -16 -67 0
-75 -6 -75 -55 0 -29 5 -45 15 -49 8 -3 15 -12 15 -20 0 -28 79 -37 100 -11
15 18 46 20 56 3 4 -6 10 -25 14 -42 5 -24 11 -30 28 -28 12 1 32 3 44 5 17 1
27 -7 41 -38 32 -66 70 -79 119 -41 23 17 41 23 56 19 l23 -6 -22 -15 c-11 -8
-27 -30 -35 -48 -18 -42 -41 -44 -116 -9 -64 30 -128 33 -151 7 -10 -10 -17
-24 -17 -30 0 -15 -37 -16 -46 0 -10 15 -34 -19 -34 -48 0 -23 -57 -74 -84
-74 -9 0 -23 -11 -32 -25 -9 -14 -22 -25 -29 -25 -7 0 -20 -11 -29 -25 -12
-19 -25 -25 -51 -25 -18 0 -46 -5 -61 -10 -32 -13 -22 -28 28 -44 21 -7 34
-19 38 -35 9 -39 26 -35 51 9 19 34 28 41 47 37 15 -3 30 3 43 16 19 20 20 20
67 4 26 -9 53 -17 61 -17 7 0 29 -13 48 -30 56 -49 78 -37 114 60 21 59 23 60
59 60 71 0 148 -40 162 -83 l6 -22 7 23 c8 26 23 28 51 7 21 -16 64 -20 64 -6
0 6 -4 13 -10 16 -24 15 -5 20 61 17 39 -3 75 0 81 6 6 6 26 1 59 -15 45 -21
59 -23 124 -17 65 6 77 4 103 -15 35 -25 65 -27 82 -6 7 8 24 15 39 15 14 0
33 4 41 10 9 5 19 5 27 -1 15 -13 53 5 53 25 0 7 14 16 32 20 42 8 58 23 58
55 0 15 5 32 11 38 21 21 -2 36 -47 29 -38 -5 -47 -2 -69 20 -30 30 -31 34 -5
34 23 0 44 34 37 60 -4 16 0 18 27 14 17 -3 38 0 46 6 13 9 11 13 -10 30 -24
19 -24 19 -3 13 37 -9 69 21 109 101 32 65 36 82 32 126 -8 79 -62 125 -178
149 l-55 12 -27 -33 -27 -33 -26 27 c-14 15 -25 29 -25 32 0 3 15 13 33 22 58
30 62 62 17 141 -23 41 -27 53 -15 53 21 0 19 20 -10 82 -29 61 -31 84 -10 92
25 9 19 55 -9 66 -16 6 -27 20 -31 42 -11 49 -37 80 -92 107 -26 14 -49 26
-50 26 -8 4 -34 275 -29 302 3 25 0 36 -14 46 -11 7 -28 35 -40 62 -21 50 -26
55 -98 106 l-44 31 -21 -20 c-22 -20 -23 -20 -67 -2 l-45 19 49 0 c40 1 47 4
42 17 -6 14 -1 16 35 10 26 -4 46 -2 55 5 19 16 18 25 -8 48 l-21 21 47 41
c53 47 146 173 146 199 0 9 14 29 31 46 41 39 51 59 43 89 -8 34 -46 52 -136
65 -40 6 -90 18 -111 27 -32 14 -46 15 -83 5 -24 -7 -58 -12 -74 -12 -17 0
-30 -5 -30 -11 0 -5 -4 -7 -10 -4 -5 3 -10 16 -10 27 0 18 4 20 34 15 27 -4
38 -1 56 18 23 25 20 45 -8 45 -9 0 26 28 78 61 101 65 110 73 110 103 0 11 7
27 16 37 22 25 9 40 -34 38 -20 -1 -74 2 -119 6 -62 6 -86 5 -98 -5 -12 -10
-15 -9 -15 6 0 18 -55 54 -81 54 -5 0 -17 -16 -25 -35z m-223 -1802 c7 -18 6
-30 -1 -37 -7 -7 -10 -6 -10 5 0 7 -3 24 -6 37 -9 31 4 28 17 -5z"/>
<path d="M7931 8149 c-24 -5 -51 -15 -60 -22 -9 -8 -24 -17 -33 -20 -11 -4
-15 -12 -12 -22 7 -18 0 -19 -26 -5 -29 15 -38 -10 -11 -31 12 -10 17 -20 11
-24 -20 -12 -9 -35 26 -53 31 -16 34 -20 20 -31 -19 -16 -21 -57 -4 -67 18
-12 50 36 46 70 -3 28 2 33 46 55 27 13 51 32 53 42 3 11 9 19 14 19 5 0 9 9
9 21 0 14 5 19 13 16 8 -3 20 -1 28 3 10 7 8 11 -11 19 -14 6 -34 17 -45 24
-15 10 -32 12 -64 6z"/>
<path d="M7247 7806 c-9 -9 -32 -44 -53 -77 -34 -56 -36 -65 -26 -93 6 -17 9
-41 6 -52 -3 -12 1 -35 10 -52 12 -23 13 -38 6 -56 -13 -35 8 -45 31 -15 10
13 21 36 24 52 4 15 15 32 26 37 10 6 19 19 19 29 0 10 10 26 23 35 l22 16
-29 24 -28 24 28 52 c21 39 26 55 17 68 -14 23 -57 27 -76 8z"/>
<path d="M2023 7193 c-35 -18 -43 -33 -18 -33 17 0 20 -16 5 -25 -6 -4 -8 -11
-5 -16 3 -5 -1 -6 -9 -3 -9 3 -16 1 -16 -4 0 -6 -12 -12 -27 -14 -37 -4 -44
-42 -11 -59 13 -6 26 -17 30 -24 5 -7 19 -10 35 -7 25 5 27 4 14 -11 -8 -10
-28 -17 -50 -17 -47 0 -65 -13 -58 -39 l5 -21 -28 20 c-34 24 -56 25 -68 4 -7
-13 -10 -11 -15 14 -7 37 -45 52 -127 52 -57 0 -58 -1 -64 -32 -7 -38 -2 -45
20 -27 16 13 17 11 10 -14 -4 -17 -2 -34 4 -42 8 -9 5 -14 -11 -18 -32 -8 -12
-30 21 -23 31 6 41 0 33 -20 -4 -10 -15 -12 -42 -8 -30 5 -40 1 -60 -20 -14
-14 -35 -26 -48 -26 -31 0 -39 -24 -19 -55 12 -19 25 -25 51 -25 44 0 69 -24
54 -52 -14 -26 -2 -34 63 -43 26 -4 48 -11 48 -17 0 -6 -12 -8 -27 -5 -20 4
-36 -2 -58 -20 -16 -14 -30 -31 -31 -37 -1 -29 -17 -56 -33 -56 -9 0 -26 -7
-37 -15 -10 -8 -27 -15 -36 -15 -10 0 -18 -5 -18 -11 0 -8 14 -9 42 -5 l42 7
-26 -21 c-14 -11 -38 -20 -52 -20 -24 0 -30 -8 -27 -36 1 -6 -11 -9 -29 -6
-37 5 -100 -6 -100 -18 0 -5 19 -20 43 -34 38 -24 40 -26 16 -26 -14 0 -39
-11 -55 -25 -28 -24 -28 -26 -14 -52 9 -15 26 -33 39 -39 l23 -12 -23 -7 c-40
-13 7 -28 67 -22 30 3 54 2 54 -2 0 -4 -20 -17 -45 -29 -56 -27 -57 -42 -5
-42 22 0 40 -4 40 -10 0 -13 36 -13 61 1 15 8 31 6 65 -7 37 -14 47 -15 54 -4
4 7 12 10 18 6 6 -3 27 3 47 15 28 17 35 27 31 43 -4 17 -1 15 17 -8 l23 -28
31 26 c17 14 37 24 45 21 21 -8 68 12 68 30 0 19 7 19 60 0 32 -11 52 -13 78
-5 28 7 40 6 52 -5 9 -8 26 -15 38 -15 18 0 22 6 22 34 0 19 6 36 13 39 7 3
39 44 71 91 l58 87 -4 68 c-3 56 -1 68 11 63 11 -4 12 1 7 22 -4 17 -2 34 5
42 9 11 9 20 0 37 -6 12 -10 40 -9 62 3 35 8 42 42 60 21 11 43 30 49 43 6 12
19 22 31 22 62 1 86 29 86 100 0 29 -6 43 -19 52 -15 9 -17 16 -10 29 11 22
-8 69 -28 69 -10 0 -12 9 -8 34 9 44 -2 76 -24 76 -9 0 -22 5 -29 12 -7 7 -40
13 -75 14 -52 2 -65 -1 -80 -20 -17 -21 -17 -21 -35 -1 -32 37 -52 47 -115 61
-76 16 -75 16 -114 -3z m182 -63 c-3 -5 -11 -10 -16 -10 -6 0 -7 5 -4 10 3 6
11 10 16 10 6 0 7 -4 4 -10z m-505 -720 c0 -5 -5 -10 -11 -10 -5 0 -7 5 -4 10
3 6 8 10 11 10 2 0 4 -4 4 -10z"/>
<path d="M2759 6793 c-24 -6 -79 -78 -79 -102 0 -43 67 -15 95 39 16 31 20 71
8 69 -5 -1 -15 -3 -24 -6z"/>
<path d="M7380 6681 c0 -13 29 -35 37 -28 7 8 -15 37 -28 37 -5 0 -9 -4 -9 -9z"/>
<path d="M5476 2508 c-9 -12 -16 -35 -16 -50 0 -25 -3 -27 -29 -22 -20 4 -30
2 -34 -10 -4 -9 -13 -16 -20 -16 -29 0 -77 -32 -77 -50 0 -11 -9 -24 -21 -31
l-21 -11 23 -24 c19 -21 20 -24 5 -30 -22 -9 -20 -41 4 -49 24 -8 25 -18 5
-35 -23 -19 -19 -43 5 -37 23 6 27 -8 5 -17 -8 -3 -15 -14 -15 -24 0 -11 7
-25 15 -32 8 -7 15 -20 15 -29 0 -25 20 -41 51 -41 21 0 28 -5 31 -22 4 -28
36 -36 44 -11 3 10 17 41 30 68 15 32 24 68 24 98 0 28 8 64 20 87 22 44 26
105 8 147 -6 15 -12 57 -12 92 -1 70 -14 86 -40 49z"/>
<path d="M5404 1893 c-67 -57 -141 -103 -167 -103 -15 0 -34 10 -45 25 -26 32
-32 32 -32 -4 0 -17 -4 -33 -10 -36 -12 -7 -14 -95 -2 -95 4 0 14 6 20 12 16
16 26 2 47 -66 17 -55 20 -106 6 -106 -10 0 -19 -40 -13 -58 2 -7 10 -12 18
-12 16 0 19 -16 4 -25 -5 -3 -10 -23 -10 -44 0 -21 -7 -55 -15 -74 -19 -47
-19 -76 2 -99 15 -17 15 -19 -3 -34 -18 -14 -17 -15 13 -9 29 6 33 4 38 -22
11 -48 14 -53 30 -53 9 0 34 9 55 20 30 15 40 26 40 45 0 31 20 75 34 75 6 0
31 -12 55 -25 24 -14 48 -22 52 -18 15 15 39 127 39 179 0 28 5 75 10 104 8
44 7 56 -5 70 -19 21 -19 44 1 61 47 39 55 131 11 143 -17 4 -18 7 -7 20 11
14 8 18 -20 30 -33 13 -33 14 -11 25 14 8 21 20 19 33 -3 22 -6 24 -74 55
l-41 19 -39 -33z"/>
<path d="M3972 1578 c-17 -17 13 -48 46 -48 14 0 40 -11 59 -26 18 -14 37 -23
42 -19 16 9 -14 79 -40 92 -31 16 -91 17 -107 1z"/>
<path d="M3717 1546 c-67 -28 -137 -72 -137 -86 0 -15 41 -32 66 -27 20 3 25
-1 30 -22 11 -48 13 -53 33 -46 13 4 25 -2 39 -21 l19 -28 55 52 c30 28 61 63
68 78 13 23 13 27 -5 40 -10 8 -31 14 -47 14 -31 0 -33 6 -18 44 9 24 7 26
-18 26 -15 0 -53 -11 -85 -24z"/>
<path d="M12787 1511 c-2 -10 -1 -25 4 -32 6 -10 9 -4 9 19 0 36 -5 42 -13 13z"/>
<path d="M3553 1400 c-24 -10 -57 -65 -48 -80 12 -19 56 -10 80 16 28 30 31
44 13 62 -14 14 -15 14 -45 2z"/>
<path d="M3596 1307 c-21 -16 -16 -44 9 -54 28 -10 67 14 63 40 -4 27 -44 35
-72 14z"/>
<path d="M8522 1158 c-12 -24 -22 -57 -22 -72 0 -22 3 -26 19 -21 11 3 22 2
24 -2 3 -4 25 -8 48 -8 56 0 66 26 20 53 -17 9 -31 24 -31 32 0 8 -9 26 -19
39 l-18 24 -21 -45z"/>
<path d="M12411 1066 c-128 -110 -152 -123 -253 -133 -60 -6 -66 -11 -46 -42
16 -26 3 -51 -26 -51 -40 0 -56 -11 -71 -47 -13 -29 -17 -33 -34 -23 -38 20
-33 -10 9 -65 42 -54 43 -55 94 -55 29 0 58 6 65 13 10 10 15 9 25 -5 26 -35
51 -21 47 24 -1 11 20 30 61 53 70 41 78 50 78 83 0 14 6 22 18 22 10 0 27 7
38 15 10 8 29 15 42 15 34 0 26 23 -16 45 -54 29 -51 50 13 124 68 77 88 107
83 122 -2 6 -59 -37 -127 -95z"/>
<path d="M5535 584 c-22 -9 -63 -24 -92 -34 -28 -10 -75 -35 -103 -54 -64 -44
-87 -50 -151 -43 -36 5 -60 1 -85 -10 l-35 -17 -94 50 c-103 53 -127 54 -133
0 -4 -31 -33 -35 -78 -11 -16 8 -39 15 -51 15 -13 0 -24 8 -28 21 -6 17 -14
20 -48 17 -35 -3 -43 -7 -45 -26 -5 -31 -55 -52 -126 -52 -46 0 -58 -4 -74
-25 -31 -40 -85 -35 -125 11 -18 20 -44 42 -58 49 -14 8 -89 19 -167 25 -137
10 -143 9 -187 -12 -39 -19 -50 -21 -77 -10 -23 8 -35 9 -45 0 -10 -8 -18 -7
-31 6 -25 22 -29 21 -90 -20 l-52 -37 -43 16 c-31 12 -52 14 -81 7 -21 -4 -96
-6 -167 -3 -122 6 -133 5 -211 -21 -138 -46 -209 -85 -241 -133 -19 -29 -35
-43 -50 -43 -29 0 -49 14 -45 31 5 25 -48 23 -71 -3 -19 -20 -30 -22 -86 -20
-61 3 -67 1 -93 -26 -15 -16 -35 -41 -44 -55 -12 -17 -44 -35 -103 -56 -101
-37 -136 -38 -182 -10 -26 16 -42 19 -69 14 -33 -6 -39 -3 -75 36 -22 23 -39
53 -39 65 0 33 -16 38 -37 10 -11 -13 -37 -29 -58 -35 -36 -10 -43 -8 -78 15
-37 25 -49 26 -89 9 -13 -5 -18 -2 -18 9 0 18 -25 20 -85 6 -56 -13 -122 10
-185 67 -83 75 -128 176 -95 213 25 27 -1 43 -46 28 -19 -6 -58 -12 -87 -12
l-54 -1 -88 -152 c-103 -178 -158 -258 -230 -330 l-52 -53 2594 1 c1878 1
2585 4 2566 12 -16 6 -28 17 -28 24 0 7 -17 21 -37 30 -27 13 -45 31 -61 65
-29 58 -23 82 28 108 41 21 75 58 86 93 4 12 20 37 36 56 17 19 27 40 24 48
-4 8 -9 26 -12 39 -3 13 -12 24 -20 24 -7 0 -48 -27 -91 -59 l-78 -60 -11 26
c-6 14 -22 34 -35 44 -24 18 -24 18 -6 49 l18 30 -35 15 c-19 8 -44 15 -53 15
-10 0 -26 9 -36 20 -20 24 -20 24 -72 4z"/>
<path d="M10265 380 c-10 -11 -27 -20 -37 -20 -10 0 -30 -12 -45 -26 -33 -33
-55 -25 -47 16 7 35 -2 38 -47 14 -17 -8 -38 -13 -46 -10 -8 4 -34 1 -56 -5
-30 -8 -42 -8 -45 0 -8 23 -86 12 -149 -21 -59 -30 -63 -31 -81 -15 -10 9 -27
17 -37 17 -17 0 -17 1 0 20 12 13 14 20 6 20 -7 0 -24 -9 -38 -20 -34 -26 -49
-25 -69 5 -21 32 -52 32 -64 1 -5 -14 -8 -51 -7 -83 l2 -58 35 3 c19 2 68 3
108 3 42 0 72 4 72 10 0 9 30 7 98 -7 12 -2 27 -16 32 -29 13 -33 40 -32 131
6 41 16 121 42 179 56 142 35 141 34 138 93 -2 28 -6 50 -9 50 -3 0 -14 -9
-24 -20z"/>
<path d="M6950 140 c0 -5 7 -10 16 -10 8 0 12 5 9 10 -3 6 -10 10 -16 10 -5 0
-9 -4 -9 -10z"/>
<path d="M7013 43 c9 -9 20 -13 24 -9 4 4 1 11 -7 16 -25 16 -35 11 -17 -7z"/>
</g>
</svg>
