<?xml version="1.0" standalone="no"?>
<!DOCTYPE svg PUBLIC "-//W3C//DTD SVG 20010904//EN"
 "http://www.w3.org/TR/2001/REC-SVG-20010904/DTD/svg10.dtd">
<svg version="1.0" xmlns="http://www.w3.org/2000/svg"
 width="739.000000pt" height="1280.000000pt" viewBox="0 0 739.000000 1280.000000"
 preserveAspectRatio="xMidYMid meet">
<metadata>
Created by potrace 1.15, written by Peter Selinger 2001-2017
</metadata>
<g transform="translate(0.000000,1280.000000) scale(0.100000,-0.100000)"
fill="#000000" stroke="none">
<path d="M5050 12766 c-27 -44 -84 -95 -127 -113 -22 -9 -38 -24 -45 -43 -12
-37 -42 -39 -143 -10 -136 39 -161 26 -244 -126 -76 -140 -86 -152 -115 -147
-44 9 -62 -23 -69 -118 -3 -46 -17 -128 -31 -183 -14 -54 -26 -109 -26 -122 0
-13 -4 -24 -9 -24 -5 0 -14 -12 -20 -27 -23 -58 -34 -144 -40 -329 -5 -163 -9
-193 -24 -208 -9 -10 -15 -22 -12 -27 4 -5 -7 -6 -25 -3 -77 16 -186 -69 -209
-163 -7 -27 -16 -64 -21 -84 -6 -19 -21 -46 -35 -59 -29 -28 -23 -29 -127 41
-29 20 -80 46 -113 58 -71 27 -95 46 -95 76 0 23 -17 35 -47 35 -9 0 -26 11
-39 25 -23 25 -25 25 -54 10 -17 -9 -43 -37 -58 -63 -39 -66 -69 -95 -94 -89
-27 7 -62 -7 -109 -44 l-38 -30 -36 35 c-23 23 -45 36 -62 36 -14 0 -60 19
-102 42 -41 23 -91 44 -111 48 l-35 5 -15 80 c-9 44 -20 91 -27 105 -6 14 -16
48 -22 75 -14 59 -101 243 -168 357 -37 61 -56 84 -82 95 -18 8 -46 24 -62 35
-25 19 -31 20 -61 8 -61 -24 -127 -71 -149 -106 -17 -28 -20 -46 -16 -87 2
-29 8 -60 12 -69 12 -29 -14 -21 -56 17 -22 19 -46 35 -54 35 -23 0 -155 -91
-155 -106 0 -8 35 -31 77 -52 l78 -38 0 -61 c0 -67 10 -85 64 -113 46 -23 78
-59 127 -139 21 -36 61 -88 87 -117 35 -39 50 -64 55 -96 7 -41 9 -43 47 -46
45 -4 75 -26 75 -54 0 -30 42 -64 108 -88 33 -12 71 -33 83 -46 12 -13 29 -24
36 -24 39 0 153 -88 153 -117 0 -7 18 -24 39 -38 35 -21 41 -31 51 -82 17 -89
35 -136 53 -145 9 -4 25 -12 34 -16 10 -5 20 -23 24 -40 4 -18 23 -56 43 -84
20 -29 36 -62 36 -72 0 -11 -12 -40 -27 -65 -24 -41 -28 -65 -44 -236 -9 -104
-25 -219 -34 -255 -15 -61 -15 -65 1 -77 10 -7 39 -13 66 -13 44 0 48 -2 53
-27 3 -16 10 -43 15 -62 12 -46 -2 -78 -44 -95 -39 -16 -79 -72 -70 -96 3 -8
12 -42 21 -75 8 -33 21 -67 29 -76 8 -8 14 -25 14 -36 0 -12 27 -99 61 -195
54 -154 60 -176 49 -203 -6 -16 -27 -106 -47 -200 -34 -159 -37 -184 -40 -379
-5 -235 -5 -234 74 -415 24 -57 49 -129 55 -160 14 -77 19 -84 64 -94 24 -5
69 -31 116 -68 43 -33 106 -74 140 -92 75 -38 223 -179 234 -222 9 -38 -13
-238 -33 -293 -23 -65 -14 -149 21 -203 16 -23 32 -55 37 -72 8 -27 7 -29 -14
-22 -74 23 -97 16 -97 -32 0 -28 42 -77 80 -93 35 -14 38 -25 10 -40 -17 -9
-25 -4 -57 31 l-37 41 -91 -4 c-124 -6 -170 -28 -223 -104 -54 -81 -110 -194
-122 -250 -13 -55 -37 -85 -154 -189 -61 -54 -105 -105 -150 -173 -81 -123
-185 -245 -237 -277 -42 -27 -64 -65 -74 -127 -4 -27 -11 -38 -23 -38 -9 0
-37 -10 -62 -22 -33 -16 -65 -22 -125 -23 -57 0 -91 -6 -118 -20 -33 -16 -37
-23 -37 -56 0 -51 34 -92 71 -87 32 5 33 4 19 -21 -14 -28 -38 -33 -72 -15
-17 9 -41 13 -54 10 -30 -8 -85 -60 -114 -109 -12 -21 -33 -45 -47 -54 -13 -9
-33 -33 -44 -55 -12 -23 -27 -38 -38 -38 -49 0 -52 -70 -6 -160 14 -27 25 -55
25 -62 0 -7 -6 -2 -13 12 -8 17 -22 26 -43 28 -19 2 -33 11 -39 25 -12 25 -68
36 -91 16 -21 -17 -17 -57 6 -69 13 -7 20 -21 20 -41 0 -27 -2 -30 -22 -22
-13 4 -41 8 -63 8 -39 0 -41 1 -37 26 3 21 -2 31 -22 44 -32 21 -56 14 -106
-36 -44 -44 -45 -46 -65 -178 -18 -127 -78 -249 -169 -348 -102 -110 -143
-206 -131 -307 9 -75 10 -162 4 -281 -4 -82 -2 -93 18 -118 12 -16 25 -49 29
-75 3 -26 13 -55 21 -64 13 -15 12 -24 -12 -83 -35 -87 -37 -206 -4 -286 53
-134 61 -165 66 -274 4 -86 2 -124 -11 -167 -19 -66 -20 -127 -5 -195 10 -44
9 -54 -20 -128 -29 -75 -92 -189 -146 -263 -32 -44 -40 -131 -26 -274 6 -63
11 -133 11 -157 0 -38 -3 -43 -34 -56 -51 -22 -62 -74 -26 -125 l20 -28 -26
-17 c-32 -20 -29 -51 8 -78 33 -25 143 -30 157 -8 5 8 16 11 26 7 21 -8 51 8
93 47 17 17 32 27 32 23 0 -4 -13 -21 -30 -36 -20 -19 -30 -38 -30 -57 0 -47
16 -54 67 -31 59 26 99 15 168 -46 45 -40 48 -46 34 -58 -17 -13 -26 -42 -36
-108 -5 -38 14 -64 52 -72 11 -2 18 -10 16 -19 -2 -8 -6 -22 -8 -31 -4 -12 3
-21 20 -29 14 -6 31 -22 38 -35 7 -15 21 -24 36 -24 13 0 23 -4 23 -10 0 -5
-7 -10 -15 -10 -42 0 -25 -107 25 -155 16 -16 30 -36 30 -45 0 -24 29 -46 79
-61 41 -12 45 -12 55 6 6 11 26 35 44 54 39 40 52 63 52 89 0 11 7 25 15 32
12 10 21 7 50 -19 20 -17 40 -31 45 -31 6 0 10 -7 10 -15 0 -15 -48 -45 -73
-45 -21 0 -47 -34 -47 -61 0 -43 26 -69 71 -69 l40 0 -35 -46 c-20 -26 -33
-50 -30 -55 3 -5 38 -9 77 -9 76 0 81 2 166 67 32 24 57 33 99 38 93 10 250
45 431 96 58 16 105 29 107 29 1 0 5 -15 8 -34 7 -37 21 -46 69 -46 52 0 80
21 112 85 38 76 87 104 203 114 64 5 87 12 128 39 59 37 71 40 228 51 94 6
132 5 179 -7 l60 -15 36 41 c31 35 40 40 67 35 35 -5 64 16 64 47 0 22 31 45
72 55 21 6 35 1 59 -19 46 -39 93 -36 134 10 26 28 51 41 124 64 50 15 111 40
135 54 38 22 56 26 128 26 46 0 88 -4 93 -9 17 -17 126 -31 232 -31 l104 0 14
33 c7 17 19 60 25 95 7 34 17 62 22 62 14 0 52 42 189 207 150 180 195 223
231 223 32 0 68 31 68 59 0 10 21 60 46 110 41 82 50 94 92 115 58 30 134 109
195 201 25 39 69 97 97 130 89 104 155 197 219 308 69 120 114 187 176 262 54
66 139 184 159 223 9 17 45 64 80 104 103 118 296 370 316 413 11 22 34 59 51
82 18 24 34 57 35 75 3 43 27 131 80 304 24 78 44 155 44 172 0 18 -12 44 -31
68 -17 22 -35 50 -40 62 -5 13 -18 26 -29 29 -11 3 -20 14 -20 25 0 11 -13 26
-30 36 -27 15 -45 48 -66 120 -2 8 -13 16 -23 19 -10 2 -28 18 -40 34 -12 16
-27 29 -33 29 -6 0 -35 22 -64 50 -29 28 -58 50 -64 50 -6 0 -26 11 -44 25
-18 14 -69 38 -112 53 -70 25 -81 33 -96 65 -10 20 -48 60 -88 92 -38 30 -75
66 -81 78 -7 12 -32 46 -57 75 l-45 54 56 56 c49 51 107 149 107 182 0 6 11
21 25 32 14 11 23 24 19 29 -3 5 2 12 10 15 10 4 16 18 16 38 0 17 5 48 11 70
8 27 8 41 0 49 -6 6 -11 19 -11 28 0 9 -7 22 -16 30 -10 8 -14 23 -11 43 7 46
-16 94 -50 102 -15 3 -53 25 -83 48 -30 23 -67 49 -82 59 -33 21 -45 58 -57
177 -8 83 -7 96 8 106 13 10 17 37 21 134 3 67 2 126 -1 131 -3 5 -44 16 -91
23 -47 8 -99 21 -116 30 -33 17 -32 14 -35 156 l-2 95 58 29 c62 32 64 37 48
109 -6 23 -12 54 -15 69 -4 19 -15 30 -41 38 -54 18 -63 51 -27 93 13 14 17
57 23 198 7 166 9 183 31 215 26 38 62 45 83 17 7 -9 19 -14 29 -10 32 12 15
155 -50 412 -40 160 -70 232 -119 286 -35 39 -40 53 -48 125 -3 22 -15 63 -27
90 -13 27 -24 56 -25 64 -2 8 -21 57 -44 108 -22 51 -41 100 -41 109 0 20 -50
110 -105 188 -106 151 -109 197 -25 372 74 156 163 312 246 435 84 123 94 151
101 271 l5 88 -74 72 c-75 72 -123 138 -174 239 -43 86 -134 209 -163 220 -14
5 -55 23 -91 38 -36 16 -80 34 -98 41 -19 7 -40 22 -47 33 -8 12 -23 86 -35
166 -11 80 -26 160 -31 178 -9 29 -5 44 40 145 28 61 53 128 56 147 10 60 37
153 57 194 11 21 16 42 11 47 -4 4 -34 9 -65 11 l-57 3 80 88 c77 85 95 122
64 133 -21 9 -38 70 -33 125 4 37 13 57 39 86 19 21 63 88 99 148 76 130 78
147 27 257 -43 94 -97 154 -187 208 -76 45 -173 116 -261 192 -65 56 -119 147
-122 205 -2 41 -8 43 -83 28 -21 -5 -34 -2 -43 9 -20 24 -37 19 -61 -18z"/>
<path d="M3516 6580 c-41 -13 -96 -69 -96 -98 0 -34 28 -89 58 -112 39 -31 82
-25 149 19 74 50 97 75 86 94 -16 27 -89 84 -122 95 -38 13 -36 13 -75 2z"/>
<path d="M1500 4530 c-26 -26 -26 -65 2 -84 12 -9 19 -18 16 -22 -4 -3 -17 1
-30 10 -28 20 -51 20 -88 1 -70 -36 -47 -148 35 -175 45 -15 66 -7 109 40 41
46 57 104 33 127 -13 14 -13 18 1 43 15 25 15 30 -1 54 -21 31 -50 33 -77 6z"/>
<path d="M1372 4073 c-41 -16 -32 -83 11 -83 29 0 47 18 47 47 0 18 -28 46
-42 42 -2 0 -9 -3 -16 -6z"/>
<path d="M253 950 c-23 -9 -37 -39 -38 -79 0 -21 -10 -27 -84 -52 -123 -42
-131 -49 -131 -114 0 -69 18 -89 72 -82 29 4 38 2 38 -10 0 -25 66 -83 102
-90 23 -4 54 -27 101 -75 55 -57 73 -69 95 -66 20 2 29 11 36 33 5 17 24 49
42 73 29 38 31 47 22 75 -18 59 -19 72 -5 91 11 16 16 17 34 6 11 -7 28 -10
37 -7 23 9 21 64 -3 76 -10 6 -28 30 -40 54 -27 56 -72 98 -146 135 -71 36
-103 43 -132 32z"/>
<path d="M520 870 c-21 -39 32 -87 65 -60 22 18 18 47 -7 64 -30 21 -45 20
-58 -4z"/>
<path d="M1512 833 c-26 -23 -45 -89 -31 -114 5 -10 25 -21 44 -25 29 -5 33
-9 22 -18 -26 -21 -28 -46 -4 -55 13 -5 27 -5 35 1 15 13 16 44 1 54 -6 3 2
14 20 25 17 10 31 26 31 34 0 26 -39 94 -59 105 -27 14 -36 13 -59 -7z"/>
<path d="M1221 817 c-14 -14 -14 -44 -1 -52 15 -9 40 14 40 35 0 22 -24 32
-39 17z"/>
<path d="M800 801 c-14 -27 -12 -101 3 -131 7 -14 23 -26 35 -28 19 -3 22 1
22 30 0 19 -5 39 -12 46 -10 10 -8 19 5 41 9 16 14 36 11 45 -9 22 -51 20 -64
-3z"/>
<path d="M1201 697 c-6 -6 -11 -21 -11 -33 0 -15 -10 -27 -27 -36 -38 -18 -44
-63 -10 -79 32 -15 107 5 108 29 5 82 -29 150 -60 119z"/>
<path d="M1416 549 c-13 -19 -18 -20 -47 -10 -44 15 -47 15 -74 -15 -31 -34
-34 -88 -6 -104 29 -15 77 -12 91 5 8 9 29 15 55 15 36 0 48 5 69 31 32 37 33
63 4 83 -32 23 -74 20 -92 -5z"/>
<path d="M622 458 c-29 -37 -23 -88 10 -88 30 0 78 32 78 51 0 40 -64 66 -88
37z"/>
<path d="M478 405 c-15 -34 5 -57 46 -53 24 2 32 9 34 26 8 51 -58 74 -80 27z"/>
<path d="M852 313 c-34 -7 -48 -44 -30 -79 12 -25 19 -29 51 -28 52 2 70 20
63 63 -7 48 -22 56 -84 44z"/>
</g>
</svg>
