<?xml version="1.0" standalone="no"?>
<!DOCTYPE svg PUBLIC "-//W3C//DTD SVG 20010904//EN"
 "http://www.w3.org/TR/2001/REC-SVG-20010904/DTD/svg10.dtd">
<svg version="1.0" xmlns="http://www.w3.org/2000/svg"
 width="790.000000pt" height="1280.000000pt" viewBox="0 0 790.000000 1280.000000"
 preserveAspectRatio="xMidYMid meet">
<metadata>
Created by potrace 1.15, written by Peter Selinger 2001-2017
</metadata>
<g transform="translate(0.000000,1280.000000) scale(0.100000,-0.100000)"
fill="#000000" stroke="none">
<path d="M3740 12794 c-392 -26 -703 -70 -985 -140 -1063 -266 -1924 -836
-2658 -1761 l-97 -122 0 -74 0 -74 1125 -849 c619 -467 1129 -850 1134 -852 5
-2 60 68 122 154 321 443 601 685 907 784 207 67 477 83 653 37 153 -40 315
-132 452 -257 116 -106 202 -245 232 -373 19 -81 21 -224 4 -293 -34 -141
-145 -319 -298 -477 -180 -186 -328 -304 -648 -514 -410 -269 -598 -435 -800
-707 -255 -341 -402 -732 -463 -1226 -29 -233 -21 -1006 15 -1455 15 -179 53
-546 58 -551 1 -1 225 20 497 46 272 27 727 72 1010 99 1196 118 1323 130
1326 134 2 1 -4 50 -13 107 -12 77 -16 178 -17 380 0 266 1 278 26 371 47 172
114 299 224 428 27 32 134 122 238 202 245 186 644 498 721 563 461 389 789
776 1008 1186 456 855 513 2007 146 2927 -176 441 -437 831 -804 1198 -637
639 -1378 983 -2345 1091 -127 14 -646 26 -770 18z"/>
<path d="M3045 3118 c-517 -507 -984 -965 -1038 -1017 l-98 -95 1003 -1003
1003 -1003 71 0 71 0 929 947 c511 522 953 973 981 1003 l52 56 -1017 1017
-1018 1017 -939 -922z"/>
</g>
</svg>
