<?xml version="1.0" encoding="utf-8"?>
<!-- Generator: Adobe Illustrator 15.0.0, SVG Export Plug-In . SVG Version: 6.00 Build 0)  -->
<!DOCTYPE svg PUBLIC "-//W3C//DTD SVG 1.1//EN" "http://www.w3.org/Graphics/SVG/1.1/DTD/svg11.dtd">
<svg version="1.1" xmlns="http://www.w3.org/2000/svg" xmlns:xlink="http://www.w3.org/1999/xlink" x="0px" y="0px" width="1024px"
	 height="768px" viewBox="0 0 1024 768" enable-background="new 0 0 1024 768" xml:space="preserve">
<g id="Layer_2">
	<rect fill="#808080" width="1024" height="768"/>
</g>
<g id="GRID">
	<g>
		<g>
			<g>
				<line fill="none" x1="88" y1="-10" x2="88" y2="774"/>
			</g>
			<g>
				<rect x="84" y="-10" fill="#FFFFFF" width="7" height="784"/>
			</g>
			<g>
				<rect x="20" y="-10" fill="#FFFFFF" width="7" height="784"/>
			</g>
			<g>
				<rect x="149" y="-10" fill="#FFFFFF" width="7" height="784"/>
			</g>
			<g>
				<rect x="215" y="-10" fill="#FFFFFF" width="7" height="784"/>
			</g>
			<g>
				<rect x="278" y="-10" fill="#FFFFFF" width="7" height="784"/>
			</g>
			<g>
				<rect x="345" y="-10" fill="#FFFFFF" width="7" height="784"/>
			</g>
			<g>
				<rect x="410" y="-10" fill="#FFFFFF" width="7" height="784"/>
			</g>
			<g>
				<rect x="475" y="-10" fill="#FFFFFF" width="7" height="784"/>
			</g>
			<g>
				<rect x="542" y="-10" fill="#FFFFFF" width="7" height="784"/>
			</g>
			<g>
				<rect x="605" y="-10" fill="#FFFFFF" width="7" height="784"/>
			</g>
			<g>
				<rect x="671" y="-10" fill="#FFFFFF" width="7" height="784"/>
			</g>
			<g>
				<rect x="737" y="-10" fill="#FFFFFF" width="7" height="784"/>
			</g>
			<g>
				<rect x="802" y="-10" fill="#FFFFFF" width="7" height="784"/>
			</g>
			<g>
				<rect x="868" y="-10" fill="#FFFFFF" width="7" height="784"/>
			</g>
			<g>
				<rect x="932" y="-10" fill="#FFFFFF" width="7" height="784"/>
			</g>
			<g>
				<rect x="996" y="-10" fill="#FFFFFF" width="7" height="784"/>
			</g>
		</g>
		<g>
			<g>
				<line fill="none" x1="1040" y1="-41" x2="-19" y2="-41"/>
			</g>
			<g>
				<rect x="-19" y="20" fill="#FFFFFF" width="1059" height="7"/>
			</g>
			<g>
				<rect x="-19" y="86" fill="#FFFFFF" width="1059" height="7"/>
			</g>
			<g>
				<rect x="-19" y="150" fill="#FFFFFF" width="1059" height="7"/>
			</g>
			<g>
				<rect x="-19" y="216" fill="#FFFFFF" width="1059" height="7"/>
			</g>
			<g>
				<rect x="-19" y="282" fill="#FFFFFF" width="1059" height="7"/>
			</g>
			<g>
				<rect x="-19" y="346" fill="#FFFFFF" width="1059" height="7"/>
			</g>
			<g>
				<rect x="-19" y="413" fill="#FFFFFF" width="1059" height="7"/>
			</g>
			<g>
				<rect x="-19" y="476" fill="#FFFFFF" width="1059" height="7"/>
			</g>
			<g>
				<rect x="-19" y="542" fill="#FFFFFF" width="1059" height="7"/>
			</g>
			<g>
				<rect x="-19" y="608" fill="#FFFFFF" width="1059" height="7"/>
			</g>
			<g>
				<rect x="-19" y="673" fill="#FFFFFF" width="1059" height="7"/>
			</g>
			<g>
				<rect x="-19" y="739" fill="#FFFFFF" width="1059" height="7"/>
			</g>
		</g>
	</g>
</g>
<g id="Layer_1">
	<g>
		<rect x="222" y="93" fill="#FFD76E" width="97" height="209"/>
		<rect x="319" y="93" fill="#EA8E43" width="96" height="209"/>
		<rect x="415" y="93" fill="#CE492A" width="97" height="209"/>
		<rect x="512" y="93" fill="#A74E77" width="97" height="209"/>
		<rect x="609" y="93" fill="#008AAD" width="97" height="209"/>
		<rect x="706" y="93" fill="#69A656" width="96" height="209"/>
	</g>
	<g>
		<rect x="222" y="302" fill="#FFFFFF" width="116" height="115"/>
		<rect x="338" y="302" fill="#BFBFBF" width="115" height="115"/>
		<rect x="453" y="302" fill="#808080" width="116" height="115"/>
		<rect x="569" y="302" fill="#404040" width="117" height="115"/>
		<rect x="686" y="302" width="116" height="115"/>
	</g>
	<rect x="218" y="417" fill="#FFFFFF" width="587" height="63"/>
	<rect x="284" y="417" width="455" height="63"/>
	<g>
		<g>
			<rect x="215" y="480" fill="#FFFFFF" width="13.166" height="65.5"/>
			<rect x="228.166" y="480" width="13.166" height="65.5"/>
			<rect x="241.332" y="480" fill="#FFFFFF" width="13.167" height="65.5"/>
			<rect x="254.498" y="480" width="13.166" height="65.5"/>
			<rect x="267.664" y="480" fill="#FFFFFF" width="13.166" height="65.5"/>
			<rect x="280.83" y="480" width="13.166" height="65.5"/>
			<rect x="293.996" y="480" fill="#FFFFFF" width="13.167" height="65.5"/>
			<rect x="307.162" y="480" width="13.166" height="65.5"/>
			<rect x="320.328" y="480" fill="#FFFFFF" width="13.166" height="65.5"/>
			<rect x="333.494" y="480" width="13.166" height="65.5"/>
		</g>
		<g>
			<g>
				<rect x="346.66" y="480" fill="#FFFFFF" width="6.583" height="65.5"/>
				<rect x="353.243" y="480" width="6.583" height="65.5"/>
				<rect x="359.825" y="480" fill="#FFFFFF" width="6.583" height="65.5"/>
				<rect x="366.409" y="480" width="6.583" height="65.5"/>
				<rect x="372.992" y="480" fill="#FFFFFF" width="6.583" height="65.5"/>
				<rect x="379.574" y="480" width="6.583" height="65.5"/>
				<rect x="386.158" y="480" fill="#FFFFFF" width="6.583" height="65.5"/>
				<rect x="392.741" y="480" width="6.583" height="65.5"/>
				<rect x="399.323" y="480" fill="#FFFFFF" width="6.583" height="65.5"/>
				<rect x="405.907" y="480" width="6.583" height="65.5"/>
			</g>
			<g>
				<rect x="412.489" y="480" fill="#FFFFFF" width="6.583" height="65.5"/>
				<rect x="419.072" y="480" width="6.583" height="65.5"/>
				<rect x="425.656" y="480" fill="#FFFFFF" width="6.583" height="65.5"/>
				<rect x="432.238" y="480" width="6.583" height="65.5"/>
				<rect x="438.821" y="480" fill="#FFFFFF" width="6.583" height="65.5"/>
				<rect x="445.405" y="480" width="6.583" height="65.5"/>
				<rect x="451.987" y="480" fill="#FFFFFF" width="6.583" height="65.5"/>
				<rect x="458.57" y="480" width="6.583" height="65.5"/>
				<rect x="465.153" y="480" fill="#FFFFFF" width="6.583" height="65.5"/>
				<rect x="471.736" y="480" width="6.583" height="65.5"/>
			</g>
		</g>
		<g>
			<g>
				<g>
					<rect x="478.319" y="480" fill="#FFFFFF" width="3.292" height="65.5"/>
					<rect x="481.611" y="480" width="3.292" height="65.5"/>
					<rect x="484.902" y="480" fill="#FFFFFF" width="3.291" height="65.5"/>
					<rect x="488.193" y="480" width="3.292" height="65.5"/>
					<rect x="491.485" y="480" fill="#FFFFFF" width="3.292" height="65.5"/>
					<rect x="494.777" y="480" width="3.292" height="65.5"/>
					<rect x="498.068" y="480" fill="#FFFFFF" width="3.292" height="65.5"/>
					<rect x="501.36" y="480" width="3.292" height="65.5"/>
					<rect x="504.651" y="480" fill="#FFFFFF" width="3.291" height="65.5"/>
					<rect x="507.942" y="480" width="3.292" height="65.5"/>
				</g>
				<g>
					<rect x="511.234" y="480" fill="#FFFFFF" width="3.291" height="65.5"/>
					<rect x="514.525" y="480" width="3.292" height="65.5"/>
					<rect x="517.817" y="480" fill="#FFFFFF" width="3.291" height="65.5"/>
					<rect x="521.108" y="480" width="3.292" height="65.5"/>
					<rect x="524.4" y="480" fill="#FFFFFF" width="3.291" height="65.5"/>
					<rect x="527.691" y="480" width="3.292" height="65.5"/>
					<rect x="530.983" y="480" fill="#FFFFFF" width="3.291" height="65.5"/>
					<rect x="534.274" y="480" width="3.292" height="65.5"/>
					<rect x="537.566" y="480" fill="#FFFFFF" width="3.291" height="65.5"/>
					<rect x="540.857" y="480" width="3.292" height="65.5"/>
				</g>
			</g>
			<g>
				<g>
					<rect x="544.149" y="480" fill="#FFFFFF" width="3.292" height="65.5"/>
					<rect x="547.441" y="480" width="3.291" height="65.5"/>
					<rect x="550.732" y="480" fill="#FFFFFF" width="3.291" height="65.5"/>
					<rect x="554.023" y="480" width="3.292" height="65.5"/>
					<rect x="557.315" y="480" fill="#FFFFFF" width="3.291" height="65.5"/>
					<rect x="560.606" y="480" width="3.291" height="65.5"/>
					<rect x="563.897" y="480" fill="#FFFFFF" width="3.292" height="65.5"/>
					<rect x="567.189" y="480" width="3.292" height="65.5"/>
					<rect x="570.481" y="480" fill="#FFFFFF" width="3.291" height="65.5"/>
					<rect x="573.772" y="480" width="3.292" height="65.5"/>
				</g>
				<g>
					<rect x="577.064" y="480" fill="#FFFFFF" width="3.291" height="65.5"/>
					<rect x="580.355" y="480" width="3.291" height="65.5"/>
					<rect x="583.646" y="480" fill="#FFFFFF" width="3.292" height="65.5"/>
					<rect x="586.938" y="480" width="3.292" height="65.5"/>
					<rect x="590.23" y="480" fill="#FFFFFF" width="3.291" height="65.5"/>
					<rect x="593.521" y="480" width="3.292" height="65.5"/>
					<rect x="596.813" y="480" fill="#FFFFFF" width="3.291" height="65.5"/>
					<rect x="600.104" y="480" width="3.291" height="65.5"/>
					<rect x="603.396" y="480" fill="#FFFFFF" width="3.292" height="65.5"/>
					<rect x="606.688" y="480" width="3.291" height="65.5"/>
				</g>
			</g>
		</g>
	</g>
	<linearGradient id="SVGID_1_" gradientUnits="userSpaceOnUse" x1="222" y1="577" x2="610" y2="577">
		<stop  offset="0" style="stop-color:#69A656"/>
		<stop  offset="1" style="stop-color:#A74E77"/>
	</linearGradient>
	<rect x="222" y="545" fill="url(#SVGID_1_)" width="388" height="64"/>
	<linearGradient id="SVGID_2_" gradientUnits="userSpaceOnUse" x1="222" y1="641" x2="610" y2="641">
		<stop  offset="0" style="stop-color:#CE492A"/>
		<stop  offset="1" style="stop-color:#008AAD"/>
	</linearGradient>
	<rect x="222" y="609" fill="url(#SVGID_2_)" width="388" height="64"/>
	<rect x="610" y="480" fill="#FFFFFF" width="198.667" height="199.667"/>
</g>
<g id="circle">
	<g>
		<path fill="#FFFFFF" d="M510.5,714.353c-88.24,0-171.199-34.362-233.595-96.758C214.51,555.199,180.147,472.24,180.147,384
			s34.363-171.199,96.758-233.595C339.301,88.01,422.26,53.647,510.5,53.647s171.199,34.363,233.595,96.758
			C806.49,212.801,840.853,295.76,840.853,384s-34.362,171.199-96.758,233.595S598.74,714.353,510.5,714.353z M510.5,60.647
			c-178.297,0-323.353,145.055-323.353,323.353c0,178.297,145.055,323.353,323.353,323.353
			c178.297,0,323.353-145.056,323.353-323.353C833.853,205.703,688.797,60.647,510.5,60.647z"/>
	</g>
</g>
<g id="qr">
	<g>
		<rect x="628.779" y="499.279" fill="#FFFFFF" width="161.108" height="161.108"/>
		<rect x="628.779" y="499.279" width="5.556" height="5.556"/>
		<rect x="634.335" y="499.279" width="5.556" height="5.556"/>
		<rect x="639.891" y="499.279" width="5.556" height="5.556"/>
		<rect x="645.446" y="499.279" width="5.555" height="5.556"/>
		<rect x="651.001" y="499.279" width="5.556" height="5.556"/>
		<rect x="656.557" y="499.279" width="5.556" height="5.556"/>
		<rect x="662.112" y="499.279" width="5.555" height="5.556"/>
		<rect x="673.223" y="499.279" width="5.557" height="5.556"/>
		<rect x="684.333" y="499.279" width="5.557" height="5.556"/>
		<rect x="695.444" y="499.279" width="5.556" height="5.556"/>
		<rect x="706.557" y="499.279" width="5.554" height="5.556"/>
		<rect x="717.667" y="499.279" width="5.555" height="5.556"/>
		<rect x="728.777" y="499.279" width="5.557" height="5.556"/>
		<rect x="734.334" y="499.279" width="5.554" height="5.556"/>
		<rect x="739.888" y="499.279" width="5.556" height="5.556"/>
		<rect x="751" y="499.279" width="5.555" height="5.556"/>
		<rect x="756.555" y="499.279" width="5.556" height="5.556"/>
		<rect x="762.11" y="499.279" width="5.555" height="5.556"/>
		<rect x="767.665" y="499.279" width="5.556" height="5.556"/>
		<rect x="773.221" y="499.279" width="5.557" height="5.556"/>
		<rect x="778.777" y="499.279" width="5.555" height="5.556"/>
		<rect x="784.332" y="499.279" width="5.556" height="5.556"/>
		<rect x="628.779" y="504.835" width="5.556" height="5.555"/>
		<rect x="662.112" y="504.835" width="5.555" height="5.555"/>
		<rect x="678.779" y="504.835" width="5.554" height="5.555"/>
		<rect x="684.333" y="504.835" width="5.557" height="5.555"/>
		<rect x="689.89" y="504.835" width="5.555" height="5.555"/>
		<rect x="695.444" y="504.835" width="5.556" height="5.555"/>
		<rect x="701" y="504.835" width="5.557" height="5.555"/>
		<rect x="706.557" y="504.835" width="5.554" height="5.555"/>
		<rect x="723.222" y="504.835" width="5.556" height="5.555"/>
		<rect x="728.777" y="504.835" width="5.557" height="5.555"/>
		<rect x="751" y="504.835" width="5.555" height="5.555"/>
		<rect x="784.332" y="504.835" width="5.556" height="5.555"/>
		<rect x="628.779" y="510.39" width="5.556" height="5.557"/>
		<rect x="639.891" y="510.39" width="5.556" height="5.557"/>
		<rect x="645.446" y="510.39" width="5.555" height="5.557"/>
		<rect x="651.001" y="510.39" width="5.556" height="5.557"/>
		<rect x="662.112" y="510.39" width="5.555" height="5.557"/>
		<rect x="673.223" y="510.39" width="5.557" height="5.557"/>
		<rect x="678.779" y="510.39" width="5.554" height="5.557"/>
		<rect x="684.333" y="510.39" width="5.557" height="5.557"/>
		<rect x="701" y="510.39" width="5.557" height="5.557"/>
		<rect x="706.557" y="510.39" width="5.554" height="5.557"/>
		<rect x="712.11" y="510.39" width="5.557" height="5.557"/>
		<rect x="717.667" y="510.39" width="5.555" height="5.557"/>
		<rect x="728.777" y="510.39" width="5.557" height="5.557"/>
		<rect x="734.334" y="510.39" width="5.554" height="5.557"/>
		<rect x="751" y="510.39" width="5.555" height="5.557"/>
		<rect x="762.11" y="510.39" width="5.555" height="5.557"/>
		<rect x="767.665" y="510.39" width="5.556" height="5.557"/>
		<rect x="773.221" y="510.39" width="5.557" height="5.557"/>
		<rect x="784.332" y="510.39" width="5.556" height="5.557"/>
		<rect x="628.779" y="515.946" width="5.556" height="5.555"/>
		<rect x="639.891" y="515.946" width="5.556" height="5.555"/>
		<rect x="645.446" y="515.946" width="5.555" height="5.555"/>
		<rect x="651.001" y="515.946" width="5.556" height="5.555"/>
		<rect x="662.112" y="515.946" width="5.555" height="5.555"/>
		<rect x="673.223" y="515.946" width="5.557" height="5.555"/>
		<rect x="678.779" y="515.946" width="5.554" height="5.555"/>
		<rect x="684.333" y="515.946" width="5.557" height="5.555"/>
		<rect x="695.444" y="515.946" width="5.556" height="5.555"/>
		<rect x="701" y="515.946" width="5.557" height="5.555"/>
		<rect x="712.11" y="515.946" width="5.557" height="5.555"/>
		<rect x="723.222" y="515.946" width="5.556" height="5.555"/>
		<rect x="734.334" y="515.946" width="5.554" height="5.555"/>
		<rect x="751" y="515.946" width="5.555" height="5.555"/>
		<rect x="762.11" y="515.946" width="5.555" height="5.555"/>
		<rect x="767.665" y="515.946" width="5.556" height="5.555"/>
		<rect x="773.221" y="515.946" width="5.557" height="5.555"/>
		<rect x="784.332" y="515.946" width="5.556" height="5.555"/>
		<rect x="628.779" y="521.501" width="5.556" height="5.556"/>
		<rect x="639.891" y="521.501" width="5.556" height="5.556"/>
		<rect x="645.446" y="521.501" width="5.555" height="5.556"/>
		<rect x="651.001" y="521.501" width="5.556" height="5.556"/>
		<rect x="662.112" y="521.501" width="5.555" height="5.556"/>
		<rect x="673.223" y="521.501" width="5.557" height="5.556"/>
		<rect x="689.89" y="521.501" width="5.555" height="5.556"/>
		<rect x="695.444" y="521.501" width="5.556" height="5.556"/>
		<rect x="701" y="521.501" width="5.557" height="5.556"/>
		<rect x="706.557" y="521.501" width="5.554" height="5.556"/>
		<rect x="712.11" y="521.501" width="5.557" height="5.556"/>
		<rect x="717.667" y="521.501" width="5.555" height="5.556"/>
		<rect x="723.222" y="521.501" width="5.556" height="5.556"/>
		<rect x="728.777" y="521.501" width="5.557" height="5.556"/>
		<rect x="734.334" y="521.501" width="5.554" height="5.556"/>
		<rect x="751" y="521.501" width="5.555" height="5.556"/>
		<rect x="762.11" y="521.501" width="5.555" height="5.556"/>
		<rect x="767.665" y="521.501" width="5.556" height="5.556"/>
		<rect x="773.221" y="521.501" width="5.557" height="5.556"/>
		<rect x="784.332" y="521.501" width="5.556" height="5.556"/>
		<rect x="628.779" y="527.057" width="5.556" height="5.556"/>
		<rect x="662.112" y="527.057" width="5.555" height="5.556"/>
		<rect x="684.333" y="527.057" width="5.557" height="5.556"/>
		<rect x="689.89" y="527.057" width="5.555" height="5.556"/>
		<rect x="706.557" y="527.057" width="5.554" height="5.556"/>
		<rect x="723.222" y="527.057" width="5.556" height="5.556"/>
		<rect x="734.334" y="527.057" width="5.554" height="5.556"/>
		<rect x="751" y="527.057" width="5.555" height="5.556"/>
		<rect x="784.332" y="527.057" width="5.556" height="5.556"/>
		<rect x="628.779" y="532.612" width="5.556" height="5.555"/>
		<rect x="634.335" y="532.612" width="5.556" height="5.555"/>
		<rect x="639.891" y="532.612" width="5.556" height="5.555"/>
		<rect x="645.446" y="532.612" width="5.555" height="5.555"/>
		<rect x="651.001" y="532.612" width="5.556" height="5.555"/>
		<rect x="656.557" y="532.612" width="5.556" height="5.555"/>
		<rect x="662.112" y="532.612" width="5.555" height="5.555"/>
		<rect x="673.223" y="532.612" width="5.557" height="5.555"/>
		<rect x="684.333" y="532.612" width="5.557" height="5.555"/>
		<rect x="695.444" y="532.612" width="5.556" height="5.555"/>
		<rect x="706.557" y="532.612" width="5.554" height="5.555"/>
		<rect x="717.667" y="532.612" width="5.555" height="5.555"/>
		<rect x="728.777" y="532.612" width="5.557" height="5.555"/>
		<rect x="739.888" y="532.612" width="5.556" height="5.555"/>
		<rect x="751" y="532.612" width="5.555" height="5.555"/>
		<rect x="756.555" y="532.612" width="5.556" height="5.555"/>
		<rect x="762.11" y="532.612" width="5.555" height="5.555"/>
		<rect x="767.665" y="532.612" width="5.556" height="5.555"/>
		<rect x="773.221" y="532.612" width="5.557" height="5.555"/>
		<rect x="778.777" y="532.612" width="5.555" height="5.555"/>
		<rect x="784.332" y="532.612" width="5.556" height="5.555"/>
		<rect x="684.333" y="538.167" width="5.557" height="5.556"/>
		<rect x="695.444" y="538.167" width="5.556" height="5.556"/>
		<rect x="706.557" y="538.167" width="5.554" height="5.556"/>
		<rect x="723.222" y="538.167" width="5.556" height="5.556"/>
		<rect x="728.777" y="538.167" width="5.557" height="5.556"/>
		<rect x="734.334" y="538.167" width="5.554" height="5.556"/>
		<rect x="739.888" y="538.167" width="5.556" height="5.556"/>
		<rect x="628.779" y="543.723" width="5.556" height="5.557"/>
		<rect x="634.335" y="543.723" width="5.556" height="5.557"/>
		<rect x="639.891" y="543.723" width="5.556" height="5.557"/>
		<rect x="645.446" y="543.723" width="5.555" height="5.557"/>
		<rect x="662.112" y="543.723" width="5.555" height="5.557"/>
		<rect x="673.223" y="543.723" width="5.557" height="5.557"/>
		<rect x="684.333" y="543.723" width="5.557" height="5.557"/>
		<rect x="689.89" y="543.723" width="5.555" height="5.557"/>
		<rect x="695.444" y="543.723" width="5.556" height="5.557"/>
		<rect x="706.557" y="543.723" width="5.554" height="5.557"/>
		<rect x="717.667" y="543.723" width="5.555" height="5.557"/>
		<rect x="723.222" y="543.723" width="5.556" height="5.557"/>
		<rect x="734.334" y="543.723" width="5.554" height="5.557"/>
		<rect x="739.888" y="543.723" width="5.556" height="5.557"/>
		<rect x="745.443" y="543.723" width="5.557" height="5.557"/>
		<rect x="762.11" y="543.723" width="5.555" height="5.557"/>
		<rect x="767.665" y="543.723" width="5.556" height="5.557"/>
		<rect x="773.221" y="543.723" width="5.557" height="5.557"/>
		<rect x="784.332" y="543.723" width="5.556" height="5.557"/>
		<rect x="634.335" y="549.279" width="5.556" height="5.554"/>
		<rect x="639.891" y="549.279" width="5.556" height="5.554"/>
		<rect x="645.446" y="549.279" width="5.555" height="5.554"/>
		<rect x="656.557" y="549.279" width="5.556" height="5.554"/>
		<rect x="673.223" y="549.279" width="5.557" height="5.554"/>
		<rect x="684.333" y="549.279" width="5.557" height="5.554"/>
		<rect x="695.444" y="549.279" width="5.556" height="5.554"/>
		<rect x="701" y="549.279" width="5.557" height="5.554"/>
		<rect x="717.667" y="549.279" width="5.555" height="5.554"/>
		<rect x="723.222" y="549.279" width="5.556" height="5.554"/>
		<rect x="728.777" y="549.279" width="5.557" height="5.554"/>
		<rect x="734.334" y="549.279" width="5.554" height="5.554"/>
		<rect x="739.888" y="549.279" width="5.556" height="5.554"/>
		<rect x="745.443" y="549.279" width="5.557" height="5.554"/>
		<rect x="751" y="549.279" width="5.555" height="5.554"/>
		<rect x="756.555" y="549.279" width="5.556" height="5.554"/>
		<rect x="762.11" y="549.279" width="5.555" height="5.554"/>
		<rect x="784.332" y="549.279" width="5.556" height="5.554"/>
		<rect x="628.779" y="554.833" width="5.556" height="5.556"/>
		<rect x="639.891" y="554.833" width="5.556" height="5.556"/>
		<rect x="651.001" y="554.833" width="5.556" height="5.556"/>
		<rect x="662.112" y="554.833" width="5.555" height="5.556"/>
		<rect x="673.223" y="554.833" width="5.557" height="5.556"/>
		<rect x="678.779" y="554.833" width="5.554" height="5.556"/>
		<rect x="684.333" y="554.833" width="5.557" height="5.556"/>
		<rect x="689.89" y="554.833" width="5.555" height="5.556"/>
		<rect x="695.444" y="554.833" width="5.556" height="5.556"/>
		<rect x="701" y="554.833" width="5.557" height="5.556"/>
		<rect x="723.222" y="554.833" width="5.556" height="5.556"/>
		<rect x="728.777" y="554.833" width="5.557" height="5.556"/>
		<rect x="745.443" y="554.833" width="5.557" height="5.556"/>
		<rect x="751" y="554.833" width="5.555" height="5.556"/>
		<rect x="756.555" y="554.833" width="5.556" height="5.556"/>
		<rect x="773.221" y="554.833" width="5.557" height="5.556"/>
		<rect x="778.777" y="554.833" width="5.555" height="5.556"/>
		<rect x="634.335" y="560.389" width="5.556" height="5.556"/>
		<rect x="645.446" y="560.389" width="5.555" height="5.556"/>
		<rect x="651.001" y="560.389" width="5.556" height="5.556"/>
		<rect x="656.557" y="560.389" width="5.556" height="5.556"/>
		<rect x="678.779" y="560.389" width="5.554" height="5.556"/>
		<rect x="684.333" y="560.389" width="5.557" height="5.556"/>
		<rect x="701" y="560.389" width="5.557" height="5.556"/>
		<rect x="706.557" y="560.389" width="5.554" height="5.556"/>
		<rect x="728.777" y="560.389" width="5.557" height="5.556"/>
		<rect x="734.334" y="560.389" width="5.554" height="5.556"/>
		<rect x="745.443" y="560.389" width="5.557" height="5.556"/>
		<rect x="756.555" y="560.389" width="5.556" height="5.556"/>
		<rect x="767.665" y="560.389" width="5.556" height="5.556"/>
		<rect x="784.332" y="560.389" width="5.556" height="5.556"/>
		<rect x="628.779" y="565.944" width="5.556" height="5.556"/>
		<rect x="634.335" y="565.944" width="5.556" height="5.556"/>
		<rect x="639.891" y="565.944" width="5.556" height="5.556"/>
		<rect x="645.446" y="565.944" width="5.555" height="5.556"/>
		<rect x="651.001" y="565.944" width="5.556" height="5.556"/>
		<rect x="662.112" y="565.944" width="5.555" height="5.556"/>
		<rect x="673.223" y="565.944" width="5.557" height="5.556"/>
		<rect x="678.779" y="565.944" width="5.554" height="5.556"/>
		<rect x="684.333" y="565.944" width="5.557" height="5.556"/>
		<rect x="695.444" y="565.944" width="5.556" height="5.556"/>
		<rect x="701" y="565.944" width="5.557" height="5.556"/>
		<rect x="706.557" y="565.944" width="5.554" height="5.556"/>
		<rect x="723.222" y="565.944" width="5.556" height="5.556"/>
		<rect x="767.665" y="565.944" width="5.556" height="5.556"/>
		<rect x="773.221" y="565.944" width="5.557" height="5.556"/>
		<rect x="628.779" y="571.5" width="5.556" height="5.556"/>
		<rect x="645.446" y="571.5" width="5.555" height="5.556"/>
		<rect x="651.001" y="571.5" width="5.556" height="5.556"/>
		<rect x="656.557" y="571.5" width="5.556" height="5.556"/>
		<rect x="678.779" y="571.5" width="5.554" height="5.556"/>
		<rect x="689.89" y="571.5" width="5.555" height="5.556"/>
		<rect x="695.444" y="571.5" width="5.556" height="5.556"/>
		<rect x="712.11" y="571.5" width="5.557" height="5.556"/>
		<rect x="717.667" y="571.5" width="5.555" height="5.556"/>
		<rect x="723.222" y="571.5" width="5.556" height="5.556"/>
		<rect x="734.334" y="571.5" width="5.554" height="5.556"/>
		<rect x="751" y="571.5" width="5.555" height="5.556"/>
		<rect x="778.777" y="571.5" width="5.555" height="5.556"/>
		<rect x="784.332" y="571.5" width="5.556" height="5.556"/>
		<rect x="634.335" y="577.056" width="5.556" height="5.556"/>
		<rect x="639.891" y="577.056" width="5.556" height="5.556"/>
		<rect x="645.446" y="577.056" width="5.555" height="5.556"/>
		<rect x="651.001" y="577.056" width="5.556" height="5.556"/>
		<rect x="662.112" y="577.056" width="5.555" height="5.556"/>
		<rect x="678.779" y="577.056" width="5.554" height="5.556"/>
		<rect x="689.89" y="577.056" width="5.555" height="5.556"/>
		<rect x="717.667" y="577.056" width="5.555" height="5.556"/>
		<rect x="728.777" y="577.056" width="5.557" height="5.556"/>
		<rect x="734.334" y="577.056" width="5.554" height="5.556"/>
		<rect x="751" y="577.056" width="5.555" height="5.556"/>
		<rect x="756.555" y="577.056" width="5.556" height="5.556"/>
		<rect x="767.665" y="577.056" width="5.556" height="5.556"/>
		<rect x="773.221" y="577.056" width="5.557" height="5.556"/>
		<rect x="778.777" y="577.056" width="5.555" height="5.556"/>
		<rect x="784.332" y="577.056" width="5.556" height="5.556"/>
		<rect x="628.779" y="582.611" width="5.556" height="5.556"/>
		<rect x="634.335" y="582.611" width="5.556" height="5.556"/>
		<rect x="639.891" y="582.611" width="5.556" height="5.556"/>
		<rect x="667.667" y="582.611" width="5.556" height="5.556"/>
		<rect x="673.223" y="582.611" width="5.557" height="5.556"/>
		<rect x="689.89" y="582.611" width="5.555" height="5.556"/>
		<rect x="717.667" y="582.611" width="5.555" height="5.556"/>
		<rect x="728.777" y="582.611" width="5.557" height="5.556"/>
		<rect x="739.888" y="582.611" width="5.556" height="5.556"/>
		<rect x="751" y="582.611" width="5.555" height="5.556"/>
		<rect x="778.777" y="582.611" width="5.555" height="5.556"/>
		<rect x="634.335" y="588.167" width="5.556" height="5.556"/>
		<rect x="645.446" y="588.167" width="5.555" height="5.556"/>
		<rect x="651.001" y="588.167" width="5.556" height="5.556"/>
		<rect x="656.557" y="588.167" width="5.556" height="5.556"/>
		<rect x="662.112" y="588.167" width="5.555" height="5.556"/>
		<rect x="667.667" y="588.167" width="5.556" height="5.556"/>
		<rect x="673.223" y="588.167" width="5.557" height="5.556"/>
		<rect x="678.779" y="588.167" width="5.554" height="5.556"/>
		<rect x="684.333" y="588.167" width="5.557" height="5.556"/>
		<rect x="695.444" y="588.167" width="5.556" height="5.556"/>
		<rect x="701" y="588.167" width="5.557" height="5.556"/>
		<rect x="728.777" y="588.167" width="5.557" height="5.556"/>
		<rect x="745.443" y="588.167" width="5.557" height="5.556"/>
		<rect x="756.555" y="588.167" width="5.556" height="5.556"/>
		<rect x="762.11" y="588.167" width="5.555" height="5.556"/>
		<rect x="778.777" y="588.167" width="5.555" height="5.556"/>
		<rect x="634.335" y="593.723" width="5.556" height="5.556"/>
		<rect x="639.891" y="593.723" width="5.556" height="5.556"/>
		<rect x="651.001" y="593.723" width="5.556" height="5.556"/>
		<rect x="656.557" y="593.723" width="5.556" height="5.556"/>
		<rect x="667.667" y="593.723" width="5.556" height="5.556"/>
		<rect x="673.223" y="593.723" width="5.557" height="5.556"/>
		<rect x="678.779" y="593.723" width="5.554" height="5.556"/>
		<rect x="684.333" y="593.723" width="5.557" height="5.556"/>
		<rect x="701" y="593.723" width="5.557" height="5.556"/>
		<rect x="712.11" y="593.723" width="5.557" height="5.556"/>
		<rect x="739.888" y="593.723" width="5.556" height="5.556"/>
		<rect x="745.443" y="593.723" width="5.557" height="5.556"/>
		<rect x="756.555" y="593.723" width="5.556" height="5.556"/>
		<rect x="773.221" y="593.723" width="5.557" height="5.556"/>
		<rect x="778.777" y="593.723" width="5.555" height="5.556"/>
		<rect x="628.779" y="599.278" width="5.556" height="5.556"/>
		<rect x="639.891" y="599.278" width="5.556" height="5.556"/>
		<rect x="645.446" y="599.278" width="5.555" height="5.556"/>
		<rect x="651.001" y="599.278" width="5.556" height="5.556"/>
		<rect x="662.112" y="599.278" width="5.555" height="5.556"/>
		<rect x="673.223" y="599.278" width="5.557" height="5.556"/>
		<rect x="701" y="599.278" width="5.557" height="5.556"/>
		<rect x="706.557" y="599.278" width="5.554" height="5.556"/>
		<rect x="712.11" y="599.278" width="5.557" height="5.556"/>
		<rect x="717.667" y="599.278" width="5.555" height="5.556"/>
		<rect x="756.555" y="599.278" width="5.556" height="5.556"/>
		<rect x="767.665" y="599.278" width="5.556" height="5.556"/>
		<rect x="773.221" y="599.278" width="5.557" height="5.556"/>
		<rect x="639.891" y="604.834" width="5.556" height="5.554"/>
		<rect x="645.446" y="604.834" width="5.555" height="5.554"/>
		<rect x="651.001" y="604.834" width="5.556" height="5.554"/>
		<rect x="673.223" y="604.834" width="5.557" height="5.554"/>
		<rect x="684.333" y="604.834" width="5.557" height="5.554"/>
		<rect x="689.89" y="604.834" width="5.555" height="5.554"/>
		<rect x="717.667" y="604.834" width="5.555" height="5.554"/>
		<rect x="723.222" y="604.834" width="5.556" height="5.554"/>
		<rect x="728.777" y="604.834" width="5.557" height="5.554"/>
		<rect x="734.334" y="604.834" width="5.554" height="5.554"/>
		<rect x="745.443" y="604.834" width="5.557" height="5.554"/>
		<rect x="756.555" y="604.834" width="5.556" height="5.554"/>
		<rect x="762.11" y="604.834" width="5.555" height="5.554"/>
		<rect x="773.221" y="604.834" width="5.557" height="5.554"/>
		<rect x="634.335" y="610.388" width="5.556" height="5.556"/>
		<rect x="639.891" y="610.388" width="5.556" height="5.556"/>
		<rect x="645.446" y="610.388" width="5.555" height="5.556"/>
		<rect x="662.112" y="610.388" width="5.555" height="5.556"/>
		<rect x="678.779" y="610.388" width="5.554" height="5.556"/>
		<rect x="712.11" y="610.388" width="5.557" height="5.556"/>
		<rect x="717.667" y="610.388" width="5.555" height="5.556"/>
		<rect x="723.222" y="610.388" width="5.556" height="5.556"/>
		<rect x="728.777" y="610.388" width="5.557" height="5.556"/>
		<rect x="739.888" y="610.388" width="5.556" height="5.556"/>
		<rect x="745.443" y="610.388" width="5.557" height="5.556"/>
		<rect x="751" y="610.388" width="5.555" height="5.556"/>
		<rect x="756.555" y="610.388" width="5.556" height="5.556"/>
		<rect x="762.11" y="610.388" width="5.555" height="5.556"/>
		<rect x="767.665" y="610.388" width="5.556" height="5.556"/>
		<rect x="773.221" y="610.388" width="5.557" height="5.556"/>
		<rect x="673.223" y="615.943" width="5.557" height="5.557"/>
		<rect x="701" y="615.943" width="5.557" height="5.557"/>
		<rect x="717.667" y="615.943" width="5.555" height="5.557"/>
		<rect x="723.222" y="615.943" width="5.556" height="5.557"/>
		<rect x="728.777" y="615.943" width="5.557" height="5.557"/>
		<rect x="739.888" y="615.943" width="5.556" height="5.557"/>
		<rect x="762.11" y="615.943" width="5.555" height="5.557"/>
		<rect x="767.665" y="615.943" width="5.556" height="5.557"/>
		<rect x="773.221" y="615.943" width="5.557" height="5.557"/>
		<rect x="778.777" y="615.943" width="5.555" height="5.557"/>
		<rect x="784.332" y="615.943" width="5.556" height="5.557"/>
		<rect x="628.779" y="621.5" width="5.556" height="5.555"/>
		<rect x="634.335" y="621.5" width="5.556" height="5.555"/>
		<rect x="639.891" y="621.5" width="5.556" height="5.555"/>
		<rect x="645.446" y="621.5" width="5.555" height="5.555"/>
		<rect x="651.001" y="621.5" width="5.556" height="5.555"/>
		<rect x="656.557" y="621.5" width="5.556" height="5.555"/>
		<rect x="662.112" y="621.5" width="5.555" height="5.555"/>
		<rect x="684.333" y="621.5" width="5.557" height="5.555"/>
		<rect x="701" y="621.5" width="5.557" height="5.555"/>
		<rect x="717.667" y="621.5" width="5.555" height="5.555"/>
		<rect x="723.222" y="621.5" width="5.556" height="5.555"/>
		<rect x="728.777" y="621.5" width="5.557" height="5.555"/>
		<rect x="734.334" y="621.5" width="5.554" height="5.555"/>
		<rect x="739.888" y="621.5" width="5.556" height="5.555"/>
		<rect x="751" y="621.5" width="5.555" height="5.555"/>
		<rect x="762.11" y="621.5" width="5.555" height="5.555"/>
		<rect x="767.665" y="621.5" width="5.556" height="5.555"/>
		<rect x="778.777" y="621.5" width="5.555" height="5.555"/>
		<rect x="628.779" y="627.055" width="5.556" height="5.556"/>
		<rect x="662.112" y="627.055" width="5.555" height="5.556"/>
		<rect x="684.333" y="627.055" width="5.557" height="5.556"/>
		<rect x="689.89" y="627.055" width="5.555" height="5.556"/>
		<rect x="695.444" y="627.055" width="5.556" height="5.556"/>
		<rect x="701" y="627.055" width="5.557" height="5.556"/>
		<rect x="706.557" y="627.055" width="5.554" height="5.556"/>
		<rect x="712.11" y="627.055" width="5.557" height="5.556"/>
		<rect x="728.777" y="627.055" width="5.557" height="5.556"/>
		<rect x="739.888" y="627.055" width="5.556" height="5.556"/>
		<rect x="762.11" y="627.055" width="5.555" height="5.556"/>
		<rect x="628.779" y="632.61" width="5.556" height="5.557"/>
		<rect x="639.891" y="632.61" width="5.556" height="5.557"/>
		<rect x="645.446" y="632.61" width="5.555" height="5.557"/>
		<rect x="651.001" y="632.61" width="5.556" height="5.557"/>
		<rect x="662.112" y="632.61" width="5.555" height="5.557"/>
		<rect x="678.779" y="632.61" width="5.554" height="5.557"/>
		<rect x="684.333" y="632.61" width="5.557" height="5.557"/>
		<rect x="689.89" y="632.61" width="5.555" height="5.557"/>
		<rect x="712.11" y="632.61" width="5.557" height="5.557"/>
		<rect x="717.667" y="632.61" width="5.555" height="5.557"/>
		<rect x="723.222" y="632.61" width="5.556" height="5.557"/>
		<rect x="739.888" y="632.61" width="5.556" height="5.557"/>
		<rect x="745.443" y="632.61" width="5.557" height="5.557"/>
		<rect x="751" y="632.61" width="5.555" height="5.557"/>
		<rect x="756.555" y="632.61" width="5.556" height="5.557"/>
		<rect x="762.11" y="632.61" width="5.555" height="5.557"/>
		<rect x="767.665" y="632.61" width="5.556" height="5.557"/>
		<rect x="773.221" y="632.61" width="5.557" height="5.557"/>
		<rect x="778.777" y="632.61" width="5.555" height="5.557"/>
		<rect x="784.332" y="632.61" width="5.556" height="5.557"/>
		<rect x="628.779" y="638.167" width="5.556" height="5.554"/>
		<rect x="639.891" y="638.167" width="5.556" height="5.554"/>
		<rect x="645.446" y="638.167" width="5.555" height="5.554"/>
		<rect x="651.001" y="638.167" width="5.556" height="5.554"/>
		<rect x="662.112" y="638.167" width="5.555" height="5.554"/>
		<rect x="673.223" y="638.167" width="5.557" height="5.554"/>
		<rect x="684.333" y="638.167" width="5.557" height="5.554"/>
		<rect x="689.89" y="638.167" width="5.555" height="5.554"/>
		<rect x="701" y="638.167" width="5.557" height="5.554"/>
		<rect x="706.557" y="638.167" width="5.554" height="5.554"/>
		<rect x="712.11" y="638.167" width="5.557" height="5.554"/>
		<rect x="717.667" y="638.167" width="5.555" height="5.554"/>
		<rect x="734.334" y="638.167" width="5.554" height="5.554"/>
		<rect x="739.888" y="638.167" width="5.556" height="5.554"/>
		<rect x="745.443" y="638.167" width="5.557" height="5.554"/>
		<rect x="756.555" y="638.167" width="5.556" height="5.554"/>
		<rect x="762.11" y="638.167" width="5.555" height="5.554"/>
		<rect x="767.665" y="638.167" width="5.556" height="5.554"/>
		<rect x="773.221" y="638.167" width="5.557" height="5.554"/>
		<rect x="784.332" y="638.167" width="5.556" height="5.554"/>
		<rect x="628.779" y="643.721" width="5.556" height="5.557"/>
		<rect x="639.891" y="643.721" width="5.556" height="5.557"/>
		<rect x="645.446" y="643.721" width="5.555" height="5.557"/>
		<rect x="651.001" y="643.721" width="5.556" height="5.557"/>
		<rect x="662.112" y="643.721" width="5.555" height="5.557"/>
		<rect x="673.223" y="643.721" width="5.557" height="5.557"/>
		<rect x="695.444" y="643.721" width="5.556" height="5.557"/>
		<rect x="706.557" y="643.721" width="5.554" height="5.557"/>
		<rect x="717.667" y="643.721" width="5.555" height="5.557"/>
		<rect x="723.222" y="643.721" width="5.556" height="5.557"/>
		<rect x="728.777" y="643.721" width="5.557" height="5.557"/>
		<rect x="756.555" y="643.721" width="5.556" height="5.557"/>
		<rect x="773.221" y="643.721" width="5.557" height="5.557"/>
		<rect x="784.332" y="643.721" width="5.556" height="5.557"/>
		<rect x="628.779" y="649.277" width="5.556" height="5.554"/>
		<rect x="662.112" y="649.277" width="5.555" height="5.554"/>
		<rect x="673.223" y="649.277" width="5.557" height="5.554"/>
		<rect x="684.333" y="649.277" width="5.557" height="5.554"/>
		<rect x="695.444" y="649.277" width="5.556" height="5.554"/>
		<rect x="701" y="649.277" width="5.557" height="5.554"/>
		<rect x="717.667" y="649.277" width="5.555" height="5.554"/>
		<rect x="739.888" y="649.277" width="5.556" height="5.554"/>
		<rect x="751" y="649.277" width="5.555" height="5.554"/>
		<rect x="756.555" y="649.277" width="5.556" height="5.554"/>
		<rect x="762.11" y="649.277" width="5.555" height="5.554"/>
		<rect x="767.665" y="649.277" width="5.556" height="5.554"/>
		<rect x="778.777" y="649.277" width="5.555" height="5.554"/>
		<rect x="628.779" y="654.831" width="5.556" height="5.557"/>
		<rect x="634.335" y="654.831" width="5.556" height="5.557"/>
		<rect x="639.891" y="654.831" width="5.556" height="5.557"/>
		<rect x="645.446" y="654.831" width="5.555" height="5.557"/>
		<rect x="651.001" y="654.831" width="5.556" height="5.557"/>
		<rect x="656.557" y="654.831" width="5.556" height="5.557"/>
		<rect x="662.112" y="654.831" width="5.555" height="5.557"/>
		<rect x="673.223" y="654.831" width="5.557" height="5.557"/>
		<rect x="678.779" y="654.831" width="5.554" height="5.557"/>
		<rect x="689.89" y="654.831" width="5.555" height="5.557"/>
		<rect x="712.11" y="654.831" width="5.557" height="5.557"/>
		<rect x="734.334" y="654.831" width="5.554" height="5.557"/>
		<rect x="739.888" y="654.831" width="5.556" height="5.557"/>
		<rect x="745.443" y="654.831" width="5.557" height="5.557"/>
		<rect x="756.555" y="654.831" width="5.556" height="5.557"/>
		<rect x="762.11" y="654.831" width="5.555" height="5.557"/>
		<rect x="778.777" y="654.831" width="5.555" height="5.557"/>
	</g>
</g>
</svg>
