<?xml version="1.0" standalone="no"?>
<!DOCTYPE svg PUBLIC "-//W3C//DTD SVG 20010904//EN"
 "http://www.w3.org/TR/2001/REC-SVG-20010904/DTD/svg10.dtd">
<svg version="1.0" xmlns="http://www.w3.org/2000/svg"
 width="1280.000000pt" height="652.000000pt" viewBox="0 0 1280.000000 652.000000"
 preserveAspectRatio="xMidYMid meet">
<metadata>
Created by potrace 1.15, written by Peter Selinger 2001-2017
</metadata>
<g transform="translate(0.000000,652.000000) scale(0.100000,-0.100000)"
fill="#000000" stroke="none">
<path d="M3889 6496 c-47 -13 -99 -33 -116 -45 -24 -18 -60 -27 -184 -42 -125
-16 -158 -24 -176 -41 -15 -14 -21 -28 -17 -43 5 -19 2 -22 -19 -18 -17 3 -32
-3 -51 -22 l-26 -26 25 -24 c22 -23 45 -29 108 -28 9 0 17 -6 17 -12 0 -7 18
-17 40 -24 38 -11 45 -10 102 19 43 22 59 27 55 15 -4 -8 -2 -15 3 -15 5 0 12
9 15 20 4 11 18 27 33 35 15 8 22 14 17 15 -6 0 -22 -8 -35 -17 -25 -18 -41
-24 -72 -26 -9 -1 -15 -4 -13 -7 2 -4 -12 -14 -32 -24 -31 -15 -41 -15 -67 -5
-17 7 -35 19 -39 26 -5 8 -27 13 -56 13 -35 0 -53 5 -66 20 -17 19 -17 21 0
40 10 11 26 20 35 20 9 0 25 -9 35 -20 10 -11 23 -20 28 -20 6 0 2 7 -9 16
-17 14 -18 15 -1 10 10 -3 37 -9 60 -13 38 -6 39 -7 17 -14 -23 -7 -23 -7 7
-8 18 -1 52 -6 75 -12 38 -10 48 -9 85 9 23 12 49 19 57 16 9 -3 26 6 43 24
25 28 44 34 203 68 96 20 187 39 203 41 15 3 30 9 33 14 3 5 19 9 35 9 37 0
29 -20 -9 -21 -15 0 -36 -5 -47 -10 -15 -7 -12 -8 13 -3 19 3 32 1 32 -5 0
-16 -46 -24 -98 -18 -31 4 -40 3 -27 -3 38 -16 104 -11 125 10 10 10 22 15 25
10 14 -22 -60 -44 -149 -44 -136 -1 -124 -28 24 -55 51 -10 71 -19 95 -44 19
-20 21 -23 5 -10 -37 32 -77 45 -101 32 -12 -6 -42 -8 -74 -4 -30 4 -71 4 -91
0 -56 -10 -25 -29 70 -44 75 -12 83 -16 143 -69 56 -50 65 -63 83 -122 11 -37
20 -72 20 -79 0 -6 4 -11 9 -11 10 0 -19 112 -37 146 -22 42 -129 133 -163
139 -19 3 -56 10 -84 14 -47 8 -45 9 35 10 47 1 91 5 99 10 30 19 117 -42 162
-114 10 -16 19 -24 19 -18 0 7 -16 31 -36 53 -41 45 -33 56 9 12 28 -29 67
-137 67 -188 0 -51 -20 -67 -90 -72 -66 -5 -69 -9 -45 -64 6 -16 1 -18 -44
-18 -55 0 -60 -6 -40 -57 6 -15 15 -50 20 -78 13 -67 68 -149 119 -175 53 -27
65 -26 96 15 14 19 32 35 39 35 16 0 78 70 107 120 19 32 30 38 107 60 68 20
86 29 88 45 2 11 0 14 -3 7 -3 -6 -11 -9 -16 -6 -7 4 -8 2 -4 -4 4 -7 6 -12 4
-12 -2 0 -34 -9 -73 -20 l-69 -20 21 21 c23 23 184 75 277 90 32 5 84 16 116
24 32 8 78 15 103 15 39 0 49 5 76 35 17 19 35 35 40 35 5 0 23 13 40 29 26
24 31 37 31 73 l0 44 49 13 c49 12 80 35 67 48 -3 3 -6 2 -6 -4 0 -11 -43 -33
-66 -33 -29 0 -7 25 27 31 l34 6 -37 2 c-31 1 -38 -3 -46 -26 -6 -16 -11 -22
-11 -15 -2 35 19 52 67 52 68 0 126 35 130 78 3 25 12 38 35 53 18 10 26 19
18 19 -23 0 5 25 51 45 24 11 44 20 46 21 2 1 -7 13 -20 27 -26 27 -80 40
-148 36 -25 -2 -180 -3 -345 -4 -266 0 -303 2 -325 17 -23 15 -31 16 -95 2
-104 -22 -428 -9 -630 26 -71 12 -59 13 -166 -14z m1271 -535 c0 -22 -54 -51
-94 -51 -22 0 -68 -7 -101 -14 -79 -19 -144 -23 -145 -11 -2 13 82 38 210 63
126 24 130 25 130 13z m-949 -153 c1 -22 1 -22 8 2 7 22 9 20 15 -20 4 -25 16
-60 27 -78 22 -38 24 -46 7 -36 -7 4 -8 3 -4 -5 4 -6 11 -9 16 -6 4 3 15 -6
24 -20 9 -13 31 -32 49 -41 17 -9 34 -18 36 -20 7 -6 -51 -64 -64 -64 -24 0
-95 61 -119 102 -13 24 -31 72 -40 108 -8 36 -18 73 -21 83 -6 14 -1 17 29 17
30 0 36 -4 37 -22z"/>
<path d="M5115 5950 l-30 -8 27 -1 c15 0 30 4 33 9 3 6 5 9 3 9 -2 -1 -16 -5
-33 -9z"/>
<path d="M5048 5933 c7 -3 16 -2 19 1 4 3 -2 6 -13 5 -11 0 -14 -3 -6 -6z"/>
<path d="M5008 5923 c7 -3 16 -2 19 1 4 3 -2 6 -13 5 -11 0 -14 -3 -6 -6z"/>
<path d="M4905 5910 c-13 -6 -5 -7 25 -3 25 3 47 7 49 9 9 8 -55 2 -74 -6z"/>
<path d="M4840 5890 c-8 -5 -10 -10 -5 -10 6 0 17 5 25 10 8 5 11 10 5 10 -5
0 -17 -5 -25 -10z"/>
<path d="M4221 5754 c0 -11 3 -14 6 -6 3 7 2 16 -1 19 -3 4 -6 -2 -5 -13z"/>
<path d="M4240 5710 c6 -11 13 -20 16 -20 2 0 0 9 -6 20 -6 11 -13 20 -16 20
-2 0 0 -9 6 -20z"/>
<path d="M4300 5626 c14 -15 39 -34 55 -42 17 -8 22 -9 11 -2 -11 7 -35 26
-55 43 l-36 29 25 -28z"/>
<path d="M4128 6373 c7 -3 16 -2 19 1 4 3 -2 6 -13 5 -11 0 -14 -3 -6 -6z"/>
<path d="M4038 6353 c6 -2 18 -2 25 0 6 3 1 5 -13 5 -14 0 -19 -2 -12 -5z"/>
<path d="M3998 6343 c7 -3 16 -2 19 1 4 3 -2 6 -13 5 -11 0 -14 -3 -6 -6z"/>
<path d="M3948 6333 c7 -3 16 -2 19 1 4 3 -2 6 -13 5 -11 0 -14 -3 -6 -6z"/>
<path d="M3908 6323 c7 -3 16 -2 19 1 4 3 -2 6 -13 5 -11 0 -14 -3 -6 -6z"/>
<path d="M3848 6313 c6 -2 18 -2 25 0 6 3 1 5 -13 5 -14 0 -19 -2 -12 -5z"/>
<path d="M3885 6300 c-97 -23 -108 -24 -100 -7 4 6 -1 3 -9 -7 -9 -11 -15 -21
-13 -22 2 -3 166 32 212 45 57 17 -9 10 -90 -9z"/>
<path d="M9138 6245 c-3 -3 -39 -6 -81 -7 -68 0 -78 -3 -99 -26 -36 -39 -96
-62 -164 -62 -33 0 -83 -7 -110 -15 -27 -8 -64 -15 -82 -15 -18 0 -35 -6 -38
-13 -5 -13 7 -76 20 -108 4 -9 -1 -26 -13 -40 -16 -19 -23 -22 -37 -13 -10 6
-20 17 -22 25 -3 9 3 7 19 -6 l24 -20 -19 22 c-10 13 -22 20 -27 18 -4 -3 -22
17 -40 45 -18 27 -34 50 -35 50 -6 0 25 -78 50 -129 21 -41 25 -56 15 -67 -13
-16 -69 -19 -69 -3 0 5 -5 7 -12 3 -6 -4 -8 -3 -4 4 3 6 2 13 -4 17 -5 3 -10
22 -10 42 0 81 -61 149 -140 155 -43 3 -45 2 -48 -25 -2 -18 6 -43 22 -68 29
-43 32 -54 14 -43 -11 6 -2 -6 31 -46 2 -3 1 3 -2 12 -4 12 -1 16 14 15 25 -2
24 -13 -4 -31 -53 -36 -193 -13 -248 40 l-27 26 -39 -20 c-22 -12 -45 -28 -52
-36 -8 -9 -25 -15 -40 -14 -14 1 -40 -2 -58 -6 -19 -4 -34 -3 -38 3 -10 17
-91 13 -105 -4 -7 -8 -18 -15 -26 -15 -44 0 -164 -59 -237 -117 -44 -34 -86
-63 -93 -63 -11 0 -64 45 -64 54 0 2 9 6 20 9 53 14 25 68 -34 66 -28 -1 -26
-2 12 -11 44 -10 48 -14 32 -38 -8 -13 -13 -13 -31 -2 -11 8 -18 9 -14 3 3 -6
2 -11 -3 -11 -11 0 -30 20 -32 35 -1 6 -4 12 -7 15 -4 3 -3 -1 2 -9 5 -9 3
-12 -5 -9 -28 9 -19 25 20 38 33 11 48 11 74 2 48 -18 73 -15 91 11 15 21 14
23 -6 40 -12 9 -29 17 -38 17 -9 1 -41 10 -71 21 -97 35 -296 69 -411 69
l-105 0 -70 -48 c-131 -90 -222 -161 -305 -236 -52 -48 -92 -76 -106 -76 -19
0 -24 -7 -29 -40 -6 -37 -9 -40 -39 -40 -39 0 -45 -12 -44 -88 0 -55 1 -56 16
-34 8 12 20 22 26 22 14 0 148 -69 168 -87 9 -8 19 -27 23 -44 3 -16 11 -29
17 -29 8 0 8 4 1 13 -5 6 -12 23 -14 37 -2 19 -20 34 -75 64 -39 22 -70 43
-68 46 6 10 -59 9 -72 -1 -10 -9 -13 -5 -13 17 0 57 10 75 39 72 21 -2 27 -9
29 -35 3 -35 16 -43 26 -17 3 8 10 12 16 9 6 -3 7 1 4 9 -8 21 -2 20 56 -9 28
-14 49 -30 47 -36 -1 -7 5 -14 13 -16 13 -4 13 -3 0 6 -27 19 4 12 38 -9 21
-13 32 -27 32 -43 0 -13 3 -27 8 -31 4 -4 7 -12 7 -16 0 -5 9 -16 20 -24 19
-14 17 -15 -20 -11 l-40 5 35 -9 c31 -9 38 -6 71 24 21 18 49 41 64 51 14 9
35 37 47 60 11 24 26 48 34 55 13 10 12 15 -7 35 -21 22 -22 27 -10 71 6 27
12 53 13 60 1 7 5 10 9 8 3 -3 21 0 38 6 24 8 35 8 46 -1 22 -18 19 -36 -15
-85 -36 -52 -37 -65 -7 -92 20 -18 26 -19 67 -7 l45 13 -52 -6 c-45 -5 -52 -3
-63 16 -9 19 -6 30 24 78 28 45 33 60 25 75 -14 27 -37 33 -71 20 -48 -18 -22
3 47 38 61 31 67 32 82 17 15 -15 14 -20 -18 -69 -33 -50 -59 -101 -43 -85 8
8 34 -11 34 -25 0 -6 -8 -4 -17 3 -15 11 -14 10 1 -9 20 -23 32 -30 20 -10 -5
7 -2 9 7 6 8 -3 46 -2 84 3 44 4 75 3 83 -3 44 -36 -55 -79 -108 -46 -28 18
-31 8 -14 -41 8 -24 11 -47 7 -51 -13 -12 -65 -22 -59 -11 5 7 -14 21 -30 21
-2 0 -4 -18 -4 -41 0 -60 -14 -80 -50 -72 -18 3 -30 1 -30 -5 0 -5 10 -8 22
-4 14 3 19 2 14 -6 -4 -7 -32 -12 -65 -12 -43 0 -65 -5 -84 -20 -29 -23 -62
-26 -74 -7 -11 17 -49 37 -71 37 -10 0 -27 -7 -38 -15 -26 -19 -61 -19 -72 2
-8 14 -14 12 -47 -20 -21 -21 -46 -37 -55 -37 -42 0 -79 -22 -82 -48 -2 -21
-9 -28 -30 -30 -16 -2 -41 -19 -62 -42 -46 -52 -63 -59 -147 -68 -40 -4 -74
-12 -76 -18 -2 -5 14 -19 34 -29 l38 -19 -77 -11 c-42 -5 -79 -13 -82 -16 -4
-3 12 -14 34 -24 22 -10 39 -23 37 -29 -2 -6 -25 -13 -52 -16 l-49 -5 37 -25
c20 -13 41 -35 46 -47 6 -13 15 -23 20 -23 6 0 8 -7 4 -16 -5 -14 -3 -15 18
-4 29 16 39 25 19 18 -9 -3 -34 15 -62 44 -44 44 -46 48 -24 48 65 0 74 30 19
59 -25 13 -31 20 -20 21 25 0 71 -33 101 -73 20 -26 23 -39 18 -70 -6 -32 -13
-41 -48 -56 -40 -18 -43 -18 -82 -1 -23 10 -61 22 -85 25 -40 6 -46 4 -70 -25
-15 -17 -27 -35 -27 -40 0 -4 -11 -11 -25 -14 -41 -10 -52 -42 -59 -162 -8
-137 -2 -147 93 -163 36 -6 67 -9 69 -7 7 7 -70 26 -105 26 -22 0 -36 6 -43
19 -15 29 -2 220 18 251 15 23 16 23 24 5 8 -18 8 -18 4 3 -2 12 0 22 4 22 15
0 22 -65 12 -104 -6 -20 -8 -54 -5 -74 4 -29 2 -34 -7 -22 -8 10 -10 11 -8 2
2 -8 6 -12 10 -10 3 2 15 -5 26 -15 11 -10 44 -22 74 -26 29 -5 67 -14 83 -20
l30 -13 -25 -13 c-14 -8 -29 -10 -35 -5 -6 5 -17 5 -25 0 -8 -5 -18 -6 -24 -3
-5 3 -6 1 -2 -6 8 -13 -30 -81 -46 -81 -6 0 -26 -13 -45 -30 -18 -16 -38 -30
-42 -30 -5 0 -11 -9 -14 -19 -3 -11 -19 -29 -37 -39 -39 -24 -70 -73 -70 -111
0 -22 -20 -48 -97 -126 -54 -54 -90 -92 -80 -85 17 13 17 12 3 -16 -9 -16 -25
-51 -36 -77 -11 -27 -23 -46 -27 -44 -10 6 -1 -124 10 -140 11 -18 -11 -130
-35 -177 -17 -34 -19 -45 -9 -71 6 -17 11 -48 11 -68 0 -20 5 -39 10 -42 6 -4
8 -10 5 -15 -3 -5 0 -12 6 -16 8 -5 9 -3 4 6 -5 8 -3 11 4 9 7 -3 12 -8 11
-13 -3 -12 52 -66 61 -60 5 2 20 -18 34 -45 28 -56 30 -65 13 -55 -7 5 -8 3
-4 -5 5 -7 11 -10 14 -7 7 7 32 -13 32 -26 0 -5 -6 -6 -12 -2 -9 5 -9 3 1 -9
7 -9 17 -15 21 -12 9 5 52 -39 45 -47 -3 -2 7 -15 22 -29 25 -22 26 -22 9 -1
-26 31 -15 28 40 -10 42 -30 52 -33 124 -33 44 0 73 -4 67 -8 -8 -6 -7 -7 3
-4 8 2 14 9 13 15 -4 17 34 33 60 27 13 -4 63 5 113 20 186 55 252 52 306 -16
27 -34 36 -39 67 -37 23 2 36 -1 36 -10 0 -7 13 -19 28 -27 15 -8 25 -10 21
-4 -3 6 -16 14 -28 19 -14 6 -16 9 -5 9 23 1 56 -38 67 -80 10 -37 5 -73 -20
-157 l-12 -42 52 -53 c49 -50 67 -77 40 -61 -8 4 -10 3 -5 -2 5 -5 13 -9 19
-9 6 0 19 -24 29 -53 10 -30 28 -70 41 -90 15 -25 22 -53 24 -97 1 -34 7 -72
13 -84 17 -31 4 -84 -40 -171 -31 -60 -39 -89 -42 -142 -3 -43 -1 -66 6 -65
13 3 50 -63 94 -166 23 -56 37 -109 44 -167 5 -47 12 -100 16 -119 4 -26 3
-32 -7 -26 -9 6 -11 4 -6 -4 5 -7 11 -10 14 -7 7 8 62 -44 62 -58 0 -5 -12 1
-27 15 l-28 24 24 -27 c13 -15 28 -25 32 -22 11 6 49 -69 49 -98 1 -13 10 -48
21 -78 11 -30 21 -60 22 -67 2 -7 7 -16 12 -20 4 -4 6 -3 2 2 -3 7 9 12 31 13
108 4 157 14 214 43 28 14 33 10 12 -10 -10 -10 -25 -16 -33 -13 -9 3 -12 1
-7 -6 4 -8 0 -12 -12 -12 -10 0 -42 -12 -72 -26 -37 -18 -64 -24 -86 -21 -18
3 -44 -1 -59 -9 -53 -27 -89 10 -102 103 -7 59 -34 113 -83 173 -36 42 -39 51
-49 146 -13 125 -67 273 -133 367 -16 22 -19 39 -16 75 6 60 37 129 50 110 8
-10 9 -10 5 2 -2 8 2 27 9 41 24 47 33 109 22 138 -6 14 -12 54 -13 87 -2 44
-10 74 -28 105 -14 24 -30 62 -37 84 -15 47 -55 108 -99 149 -35 34 -37 48
-16 99 47 112 -10 237 -110 241 -39 2 -50 7 -75 38 -32 38 -75 54 -168 61 -35
3 -49 1 -40 -5 9 -7 4 -8 -15 -3 -18 3 -26 2 -23 -4 7 -10 0 -13 -88 -36 -38
-10 -85 -14 -134 -11 -44 3 -62 2 -42 -2 34 -7 34 -8 13 -20 -37 -21 -133 -18
-178 5 -60 31 -142 119 -187 201 -25 45 -58 88 -89 114 -27 22 -46 45 -42 51
3 5 0 33 -7 61 -11 48 -10 56 8 92 12 21 21 31 22 22 0 -9 4 -20 10 -23 6 -4
6 4 -1 22 -6 15 -7 48 -4 76 4 26 2 75 -5 110 -11 58 -11 65 12 114 14 29 29
49 33 45 5 -4 5 -1 1 6 -4 7 -4 22 -1 33 6 17 9 19 16 8 7 -12 9 -11 10 1 1 8
1 21 0 29 -2 7 3 10 9 6 6 -3 9 -3 8 2 -1 4 4 19 11 33 l14 25 -22 -20 c-13
-11 -43 -62 -68 -114 -42 -88 -45 -99 -38 -146 14 -89 8 -169 -15 -224 -19
-44 -21 -57 -12 -94 6 -23 9 -52 6 -63 -4 -16 5 -29 43 -56 37 -26 59 -54 88
-109 75 -144 207 -243 312 -236 28 2 61 11 74 21 13 9 42 16 66 16 41 0 121
18 176 39 47 18 109 22 164 10 42 -10 57 -19 77 -48 24 -32 31 -36 76 -37 57
-1 72 -11 99 -68 26 -53 26 -97 1 -170 l-19 -57 54 -59 c52 -57 85 -107 85
-131 0 -6 14 -39 31 -72 21 -42 32 -79 34 -121 3 -34 7 -81 11 -106 5 -41 1
-55 -36 -125 -27 -52 -44 -98 -47 -131 -5 -47 -2 -58 31 -111 47 -77 107 -236
108 -288 1 -79 25 -166 56 -199 44 -47 72 -104 83 -165 20 -110 56 -149 111
-120 12 7 39 12 59 10 22 -1 61 9 94 24 32 14 64 25 73 25 14 0 137 106 238
206 28 29 60 57 70 62 11 6 37 45 58 88 41 81 108 164 134 164 12 0 13 9 8 43
-19 114 -18 123 2 164 12 22 38 56 58 74 21 19 50 45 64 59 15 14 42 37 62 52
67 51 74 173 21 368 -45 165 -45 169 50 282 29 35 75 92 102 128 26 36 81 99
120 140 40 41 90 102 111 135 22 33 52 77 67 97 24 31 66 154 67 194 0 12 -47
7 -65 -6 -5 -4 -77 -9 -160 -11 l-150 -4 -7 40 c-3 22 -9 51 -14 64 -6 19 -4
22 7 16 8 -5 11 -4 6 1 -5 5 -14 9 -20 9 -5 0 -12 6 -15 14 -3 9 0 11 9 6 8
-5 11 -4 6 1 -5 5 -12 9 -16 9 -4 0 -23 18 -41 40 -19 22 -57 65 -85 96 -27
31 -62 76 -76 100 -34 56 -129 275 -129 296 0 9 -23 59 -51 112 -32 60 -44 89
-31 78 13 -12 28 -16 40 -13 30 10 49 -2 82 -51 33 -48 36 -58 18 -47 -10 5
-10 3 0 -7 7 -8 18 -14 25 -14 15 0 117 -205 112 -222 -2 -7 1 -12 7 -10 6 1
13 -4 16 -12 3 -9 0 -11 -8 -6 -9 6 -11 4 -6 -4 5 -7 11 -10 14 -7 7 8 52 -34
52 -47 0 -6 -10 -2 -22 9 -21 17 -21 16 1 -9 26 -29 36 -35 26 -14 -4 6 3 1
14 -12 23 -26 28 -46 9 -35 -8 4 -10 3 -5 -2 5 -5 14 -9 20 -9 17 0 46 -56 66
-131 10 -38 22 -78 26 -88 7 -15 5 -17 -6 -11 -8 5 -5 -1 5 -13 11 -12 24 -22
29 -22 6 0 2 7 -9 15 -24 18 -15 19 27 1 22 -9 42 -11 63 -5 45 13 53 11 28
-7 -12 -8 -27 -12 -34 -8 -7 5 -8 3 -3 -6 6 -10 4 -12 -8 -7 -39 16 -50 17
-28 4 23 -14 23 -15 5 -20 -66 -19 -80 -18 -92 5 -12 23 -12 23 -6 -2 4 -14 8
-27 10 -29 11 -12 108 23 179 63 44 25 84 46 90 46 54 1 279 174 335 258 13
20 46 60 72 89 26 28 48 56 48 61 0 6 -20 22 -45 37 -50 29 -81 68 -69 86 4 7
3 9 -4 5 -16 -9 -33 28 -35 74 -1 38 -3 40 -32 40 -19 0 -25 -3 -17 -8 10 -7
8 -12 -5 -24 -26 -23 -186 -7 -226 23 -16 11 -31 19 -33 16 -3 -3 11 -15 31
-27 32 -19 123 -38 198 -40 49 -1 -6 -58 -83 -85 -45 -16 -39 -19 -117 45 -7
5 -19 36 -29 67 -9 32 -25 79 -35 105 -19 47 -25 108 -11 108 7 0 45 -59 46
-72 1 -3 5 -10 10 -15 5 -5 6 -3 2 5 -10 17 5 15 32 -4 12 -8 20 -19 17 -24
-3 -5 0 -12 6 -16 8 -5 9 -3 4 6 -5 8 -3 11 6 8 8 -3 13 -11 11 -17 -3 -17 59
-51 93 -50 29 1 29 1 -5 8 -38 8 -84 30 -77 37 2 2 17 -2 33 -10 16 -7 63 -17
104 -20 84 -7 100 -19 95 -69 -2 -18 -1 -24 1 -15 5 16 9 16 32 5 18 -9 78
-14 172 -16 80 -1 154 -4 165 -7 35 -9 100 -38 107 -49 12 -16 9 -27 -4 -19
-7 4 -2 -5 11 -19 26 -28 42 -38 21 -12 -7 8 -8 15 -2 15 11 0 29 -20 32 -35
1 -5 4 -12 7 -15 4 -3 3 1 -1 8 -12 20 9 13 32 -11 24 -25 29 -43 10 -31 -7 5
-8 3 -4 -5 5 -7 11 -10 14 -7 3 4 16 -3 28 -15 18 -17 31 -20 59 -16 21 3 33
2 30 -4 -10 -15 2 -10 16 8 12 15 12 16 -1 8 -13 -8 -13 -7 0 9 11 14 15 15
18 5 3 -8 11 -22 19 -31 12 -13 13 -31 8 -76 -6 -56 -4 -63 49 -179 31 -66 56
-125 56 -132 0 -7 6 -25 14 -39 8 -15 22 -52 32 -82 24 -78 42 -110 62 -110
10 0 3 -9 -20 -25 -63 -43 -70 -38 -104 65 -37 109 -70 191 -113 280 -39 79
-41 89 -35 142 5 46 3 63 -11 84 -9 14 -15 34 -12 44 3 13 -2 17 -23 16 -16
-1 -26 -4 -24 -8 6 -9 -37 -38 -56 -38 -8 0 -38 24 -66 53 -157 159 -167 164
-359 170 -77 2 -129 0 -115 -4 14 -4 77 -8 140 -8 132 -2 186 -19 233 -76 15
-19 36 -37 47 -40 10 -3 35 -28 55 -56 41 -55 62 -61 110 -29 37 25 45 25 45
1 0 -10 7 -24 16 -32 12 -10 14 -25 9 -73 -6 -59 -4 -66 49 -181 31 -66 56
-126 56 -133 0 -8 6 -26 14 -40 7 -15 22 -52 31 -82 37 -112 58 -119 141 -43
27 24 62 56 78 69 l29 25 -6 113 c-6 109 -5 115 22 172 16 35 41 68 57 79 16
10 61 49 99 85 169 162 174 164 251 144 68 -17 108 -51 134 -110 10 -23 23
-45 29 -48 6 -4 11 -12 11 -18 0 -6 -7 -5 -17 3 -10 7 -7 1 6 -14 25 -28 38
-36 25 -16 -4 7 -1 10 7 7 8 -3 14 -11 14 -18 0 -7 7 -15 15 -17 13 -4 13 -3
0 7 -13 9 -12 11 5 8 17 -3 20 -11 21 -53 l2 -50 -8 40 -8 40 2 -40 c0 -22 6
-41 11 -41 31 -4 54 -18 48 -28 -3 -6 2 -4 13 5 10 9 26 19 34 22 13 5 13 6 0
6 -9 1 -22 -5 -30 -11 -12 -11 -12 -10 -1 5 25 32 47 20 69 -37 31 -82 38
-127 20 -140 -28 -21 -38 -55 -38 -132 0 -113 -10 -84 -13 37 -5 173 -61 276
-120 221 -29 -28 -37 -20 -37 35 0 38 -4 46 -32 62 -47 28 -68 51 -88 96 -31
71 -104 125 -167 125 -19 0 -24 4 -19 16 5 14 4 15 -9 4 -22 -18 -11 -27 45
-34 62 -8 96 -38 143 -121 21 -39 48 -70 75 -88 37 -25 42 -33 42 -65 0 -20 4
-44 10 -52 8 -12 11 -12 28 3 22 20 56 22 69 5 28 -37 47 -116 45 -183 -2 -76
15 -168 29 -159 5 3 9 41 9 85 0 57 5 89 17 112 l18 32 6 -65 c3 -36 10 -73
14 -82 12 -30 25 -9 25 43 0 27 3 49 7 49 9 0 123 -119 123 -128 0 -4 13 -15
28 -24 34 -21 38 -19 151 81 80 71 131 141 131 179 0 38 -106 196 -166 248
-58 49 -65 69 -35 105 17 21 21 22 50 9 42 -17 51 -37 51 -109 0 -34 4 -61 9
-61 5 0 8 29 7 64 -1 53 -5 69 -25 90 -14 14 -31 26 -39 26 -12 0 -12 3 -1 18
13 15 12 16 -3 3 -26 -20 -22 2 5 27 29 27 43 27 85 2 29 -18 32 -24 32 -67 0
-52 9 -93 19 -93 3 0 26 36 51 79 39 71 48 80 79 86 55 10 86 31 161 104 73
71 120 154 120 210 0 70 -36 144 -103 216 -37 38 -74 84 -84 102 -16 31 -16
32 8 65 49 64 48 66 -46 61 -91 -6 -135 1 -135 20 0 17 55 93 101 140 37 37
69 48 69 25 0 -7 8 -32 18 -55 16 -42 34 -54 47 -33 3 6 11 10 16 10 6 0 7 -4
4 -10 -10 -16 1 -11 16 7 12 15 12 16 -1 8 -13 -8 -13 -7 -1 8 12 15 17 16 35
4 12 -8 25 -30 30 -49 7 -28 18 -38 60 -58 49 -24 51 -27 54 -70 1 -25 5 -52
9 -60 3 -8 7 -17 7 -20 1 -3 5 -11 10 -19 12 -19 -21 -43 -54 -39 -21 2 -25 9
-28 38 -5 69 -11 79 -62 105 -34 17 -50 32 -50 44 0 11 -11 33 -25 49 -13 16
-22 32 -19 35 17 17 -45 -9 -64 -27 -23 -21 -24 -21 -38 -2 -7 11 -17 34 -20
53 -3 18 -10 33 -14 33 -10 0 5 -58 24 -95 l14 -26 32 27 c30 26 34 27 58 13
17 -9 31 -29 37 -53 9 -30 20 -43 60 -64 47 -26 50 -29 53 -72 4 -54 16 -70
52 -70 19 0 37 12 63 40 19 22 40 40 46 40 17 0 71 87 65 104 -3 8 -43 41 -89
72 -86 58 -100 79 -83 125 14 38 39 59 69 59 23 0 29 6 39 35 9 27 19 37 40
41 22 5 33 18 56 67 16 33 28 64 27 67 -6 20 -5 100 1 136 7 39 5 44 -32 81
-22 21 -47 53 -56 71 -25 48 -49 57 -163 57 -56 0 -105 4 -109 8 -4 4 -15 7
-25 7 -22 0 -29 20 -29 81 0 62 22 107 57 115 14 4 54 2 87 -4 34 -7 86 -15
116 -18 30 -4 70 -12 87 -20 30 -12 34 -11 48 9 17 25 20 57 4 57 -5 0 -7 -4
-4 -10 11 -17 -15 -52 -33 -45 -19 7 -75 17 -205 36 l-87 12 21 23 c28 30 65
37 120 24 39 -9 160 -27 229 -33 19 -1 29 5 40 28 14 27 18 29 43 21 23 -8 31
-6 54 16 31 29 79 29 87 -1 18 -62 17 -90 -4 -119 -45 -60 -23 -147 46 -182
36 -18 44 -29 44 -56 0 -14 24 -44 69 -83 38 -34 71 -61 75 -61 3 0 6 27 6 60
0 33 4 60 8 60 5 0 19 -11 32 -25 13 -14 27 -25 30 -25 13 0 20 206 8 241 -16
48 -47 79 -79 79 -36 0 -53 28 -39 65 9 24 21 31 134 83 19 9 -7 -72 -30 -95
l-25 -25 6 24 c9 37 -17 55 -50 34 -14 -9 -25 -19 -25 -22 0 -4 11 1 25 10 35
23 38 21 33 -24 -2 -22 -1 -40 2 -40 3 0 50 43 104 96 86 83 104 95 128 92 16
-3 33 1 38 7 8 9 -8 21 -56 46 -89 46 -99 62 -22 37 81 -26 128 -38 153 -38
16 0 17 2 5 9 -8 6 -18 7 -24 4 -5 -3 -6 -2 -3 4 12 19 -39 53 -106 69 -55 14
-65 19 -56 31 13 15 47 11 144 -17 33 -10 78 -21 100 -25 l40 -7 -42 41 c-54
52 -137 76 -229 67 -50 -5 -72 -2 -125 17 -35 14 -144 37 -242 53 l-179 28
-26 -31 c-20 -23 -31 -30 -42 -24 -31 18 -184 43 -310 50 -95 6 -135 12 -148
24 -14 12 -57 16 -226 21 -158 4 -213 9 -230 20 -12 8 -42 20 -67 27 -24 7
-52 19 -62 28 -16 13 -19 13 -27 1 -6 -8 -10 -19 -10 -25 0 -5 -19 -23 -41
-38 -34 -25 -47 -28 -87 -24 -26 3 -99 10 -162 16 -88 8 -127 17 -165 36 -62
32 -172 37 -255 11 -62 -19 -145 -14 -195 12 -23 12 -56 15 -137 13 -126 -3
-133 4 -68 69 l40 40 -25 10 c-15 6 -64 10 -111 10 -49 0 -84 4 -84 10 0 10
-142 15 -152 5z m3203 -466 c38 -9 85 -49 58 -49 -8 0 -49 11 -91 24 -42 13
-79 22 -82 19 -2 -3 -11 -1 -18 3 -9 6 -6 10 12 15 26 7 58 4 121 -12z m-5985
-105 c-30 -21 -42 -17 -15 5 13 11 26 17 29 14 3 -2 -4 -11 -14 -19z m5384
-35 c0 -6 -5 -7 -11 -4 -11 7 -49 -22 -49 -38 0 -5 9 1 19 14 l19 24 23 -20
c13 -11 18 -13 12 -5 -10 13 -5 15 32 15 24 0 41 -3 38 -7 -9 -16 5 -7 23 14
19 22 19 23 -1 8 -17 -12 -18 -12 -7 0 7 8 23 15 36 15 20 1 25 -7 36 -48 12
-47 11 -50 -11 -71 l-23 -21 18 22 c10 12 16 28 13 35 -4 9 -6 8 -6 -3 -1 -9
-7 -21 -13 -27 -14 -11 -17 -114 -4 -147 8 -20 7 -20 -8 -1 -9 11 -16 15 -16
9 0 -5 10 -18 22 -29 13 -12 18 -13 13 -4 -5 8 6 3 24 -12 18 -16 39 -28 46
-28 15 0 30 -54 19 -71 -4 -7 -3 -9 3 -6 11 7 37 -16 28 -25 -3 -3 5 -13 17
-24 18 -15 20 -16 9 -1 -14 18 -2 24 14 8 12 -12 7 -123 -5 -119 -28 10 -114
106 -120 132 -4 22 -15 36 -39 47 -49 23 -71 56 -71 110 0 33 5 51 20 64 23
21 25 62 7 114 -17 49 -61 60 -97 26 -31 -30 -51 -31 -73 -7 -15 17 -15 20 13
51 28 30 50 34 50 10z m-5211 -278 c7 -5 9 -11 4 -14 -4 -3 -17 1 -28 9 -21
16 0 20 24 5z m12 -502 c11 -5 17 -14 14 -19 -3 -5 0 -12 6 -16 8 -5 9 -3 4 6
-5 8 -3 11 6 8 8 -3 14 -10 14 -15 0 -6 4 -15 9 -20 5 -5 6 -3 2 5 -4 6 -3 12
2 12 12 0 53 -45 47 -52 -3 -3 3 -11 12 -19 16 -13 17 -12 4 4 -16 21 1 23 19
2 7 -8 23 -15 35 -15 32 0 44 -19 49 -79 2 -29 11 -60 20 -70 9 -10 16 -21 16
-25 0 -5 14 -29 31 -53 21 -32 27 -49 20 -56 -6 -6 -11 -19 -11 -29 0 -42 -43
-13 -75 52 -10 19 -28 48 -41 63 -36 43 -31 75 11 68 6 -2 -11 20 -38 46 -26
27 -45 52 -42 55 4 3 1 9 -6 14 -8 4 -10 3 -5 -4 9 -15 5 -15 -29 -2 -14 5
-24 14 -20 19 3 5 0 13 -6 17 -8 4 -9 3 -5 -4 16 -27 -16 -9 -54 29 -44 45
-60 69 -60 93 0 16 23 11 71 -15z m-203 -43 c14 -1 27 -7 30 -15 3 -9 0 -11
-8 -6 -9 5 -11 4 -6 -4 4 -6 11 -9 15 -6 5 2 17 -5 27 -17 11 -11 46 -33 79
-48 34 -16 83 -50 113 -80 l54 -52 -24 -26 c-32 -37 -40 -42 -67 -42 -20 0
-22 -3 -13 -12 17 -17 -33 -68 -67 -69 -26 0 -26 0 -4 -11 20 -10 32 -3 107
66 60 55 86 85 88 104 4 39 22 30 31 -17 5 -23 12 -41 17 -41 5 0 28 -31 50
-70 33 -56 46 -70 65 -70 18 0 24 6 27 28 2 22 10 29 40 36 29 7 38 15 43 38
4 15 13 28 21 28 19 0 18 7 -6 37 -11 14 -20 36 -20 48 0 19 5 21 49 21 30 -1
47 -5 43 -11 -3 -6 -1 -6 4 -2 5 5 9 14 9 20 0 7 11 13 25 15 l25 3 -1 -86
c-1 -49 3 -88 9 -92 6 -4 7 -1 2 7 -5 8 -3 11 6 8 8 -3 14 -10 14 -16 0 -6 7
-17 15 -24 12 -11 12 -11 1 5 -17 22 -9 22 31 -3 29 -18 51 -20 180 -20 139 0
147 -1 153 -21 14 -42 -34 -187 -57 -173 -7 4 -8 3 -4 -4 8 -14 -10 -52 -26
-52 -7 0 -7 4 -1 13 19 24 34 122 24 150 -12 30 -11 30 -181 32 -138 3 -144 4
-188 32 l-42 27 0 76 c0 41 -4 80 -8 85 -9 13 -55 18 -47 5 3 -6 2 -10 -4 -10
-5 0 -12 8 -15 18 -2 9 -4 6 -3 -8 2 -25 5 -25 49 -13 14 4 17 -5 17 -71 0
-42 3 -80 5 -85 3 -4 23 -20 46 -36 40 -27 45 -28 193 -32 123 -3 154 -6 164
-19 13 -18 7 -69 -16 -134 l-17 -45 -144 3 c-87 2 -173 10 -215 19 -76 18
-161 56 -168 76 -2 6 -8 -5 -12 -25 -4 -21 -17 -48 -30 -62 -13 -14 -22 -26
-20 -28 2 -2 -16 -4 -39 -5 -35 -2 -57 5 -122 42 -55 32 -90 45 -117 45 -30 0
-44 6 -64 30 -13 17 -33 30 -44 30 -16 0 -19 7 -19 53 0 32 6 61 16 76 14 19
14 25 3 37 -12 11 -25 10 -89 -5 -41 -10 -124 -23 -184 -29 -72 -8 -119 -18
-140 -31 -25 -15 -44 -17 -94 -13 -39 3 -79 -1 -103 -8 -31 -11 -41 -11 -54 0
-8 7 -15 17 -15 22 0 6 6 5 14 -1 11 -10 21 -9 46 4 17 9 29 19 26 24 -3 4 9
15 27 25 l32 18 -25 -21 c-14 -11 -21 -21 -17 -21 4 0 25 17 46 38 21 20 50
45 65 55 18 12 26 27 26 47 0 21 11 40 40 67 22 21 62 59 88 86 37 36 56 47
80 47 17 0 34 -5 37 -10 4 -6 12 -10 18 -9 33 4 47 -4 68 -37 16 -27 40 -45
86 -66 36 -16 84 -49 109 -73 50 -50 66 -59 35 -19 -32 40 -101 89 -154 108
-37 14 -52 26 -67 56 -10 20 -16 41 -12 45 4 5 2 5 -4 2 -8 -5 -11 4 -9 26 4
41 3 39 16 31 7 -4 23 -7 37 -8z m5111 -66 c-14 -38 -49 -42 -49 -6 0 25 11
34 42 35 15 1 15 -3 7 -29z m-4608 -212 c22 -33 38 -62 36 -65 -5 -5 -67 81
-67 93 0 4 -10 19 -22 33 -13 14 -15 19 -6 12 10 -7 36 -40 59 -73z m4579
-202 c0 -11 -19 -15 -25 -6 -3 5 1 10 9 10 9 0 16 -2 16 -4z m-5900 -188 c0
-9 -15 -29 -32 -44 -44 -36 -50 -12 -13 47 21 32 29 39 36 28 5 -8 9 -21 9
-31z m2920 -182 c0 -3 -15 -15 -32 -27 l-33 -23 24 27 c22 24 41 35 41 23z
m71 -36 l24 -21 -32 16 c-32 15 -42 25 -24 25 5 0 19 -9 32 -20z m2585 -159
c-19 -21 -106 -55 -106 -42 0 14 27 32 67 47 52 18 59 17 39 -5z m-1417 -224
c-2 -1 -14 -11 -26 -21 -13 -11 -23 -16 -23 -13 0 10 31 37 42 37 6 0 9 -1 7
-3z m-1408 -144 c-33 -24 -200 -96 -176 -77 23 19 175 93 190 93 6 0 -1 -7
-14 -16z m2243 -132 c9 -16 13 -31 11 -33 -3 -3 5 -13 17 -24 l23 -19 -19 23
c-11 12 -16 22 -13 22 9 0 91 -90 95 -104 2 -6 -2 -4 -8 4 -8 10 -10 11 -8 2
2 -8 8 -13 13 -13 15 0 45 -31 40 -40 -3 -4 0 -11 6 -15 8 -4 9 -3 5 4 -7 12
6 17 17 6 9 -9 -48 -54 -69 -54 -18 0 -54 27 -54 41 0 4 -22 31 -50 58 -36 36
-50 58 -50 78 0 42 11 74 23 66 6 -4 7 -1 2 6 -11 19 -24 0 -34 -50 -9 -43 -9
-43 -10 -9 -1 35 21 80 39 80 5 0 16 -13 24 -29z m-5249 -81 c27 -30 12 -34
-15 -5 -13 14 -19 25 -13 25 5 0 18 -9 28 -20z"/>
<path d="M11875 5630 c3 -5 8 -10 11 -10 2 0 4 5 4 10 0 6 -5 10 -11 10 -5 0
-7 -4 -4 -10z"/>
<path d="M11955 5310 c3 -5 8 -10 11 -10 2 0 4 5 4 10 0 6 -5 10 -11 10 -5 0
-7 -4 -4 -10z"/>
<path d="M6487 4851 c2 -10 23 -36 46 -57 l42 -39 -37 40 c-21 23 -38 49 -38
58 0 9 -4 17 -9 17 -5 0 -7 -8 -4 -19z"/>
<path d="M6510 4856 c0 -2 7 -7 16 -10 8 -3 12 -2 9 4 -6 10 -25 14 -25 6z"/>
<path d="M6740 4689 c0 -19 4 -41 9 -48 6 -10 8 1 4 30 -7 55 -13 63 -13 18z"/>
<path d="M6690 4675 c13 -14 26 -25 28 -25 3 0 -5 11 -18 25 -13 14 -26 25
-28 25 -3 0 5 -11 18 -25z"/>
<path d="M6378 4755 c15 -30 107 -113 139 -127 15 -6 38 -21 50 -31 19 -17 20
-21 7 -34 -7 -8 -14 -20 -14 -26 0 -7 7 -4 14 6 7 9 18 17 25 17 35 0 -13 47
-85 83 -28 14 -73 50 -99 79 -26 29 -43 44 -37 33z"/>
<path d="M6182 4733 c-2 -35 -4 -36 -39 -27 -14 4 -20 11 -16 18 4 6 -1 4 -12
-4 -17 -14 -16 -16 24 -24 23 -5 44 -6 47 -3 3 3 4 20 1 39 l-4 33 -1 -32z"/>
<path d="M7056 4635 c4 -8 8 -15 10 -15 2 0 4 7 4 15 0 8 -4 15 -10 15 -5 0
-7 -7 -4 -15z"/>
<path d="M7063 4560 c0 -25 2 -35 4 -22 2 12 2 32 0 45 -2 12 -4 2 -4 -23z"/>
<path d="M7180 4430 c8 -5 28 -10 44 -10 39 0 30 6 -19 13 -27 4 -35 3 -25 -3z"/>
<path d="M7323 4423 c20 -2 54 -2 75 0 20 2 3 4 -38 4 -41 0 -58 -2 -37 -4z"/>
<path d="M7471 4354 c0 -11 3 -14 6 -6 3 7 2 16 -1 19 -3 4 -6 -2 -5 -13z"/>
<path d="M6760 4185 c0 -8 7 -15 16 -15 14 0 14 3 4 15 -7 8 -14 15 -16 15 -2
0 -4 -7 -4 -15z"/>
<path d="M11411 4744 c0 -11 3 -14 6 -6 3 7 2 16 -1 19 -3 4 -6 -2 -5 -13z"/>
<path d="M11020 3750 c-8 -5 -10 -10 -5 -10 6 0 17 5 25 10 8 5 11 10 5 10 -5
0 -17 -5 -25 -10z"/>
<path d="M10575 3170 c10 -11 20 -20 23 -20 3 0 -3 9 -13 20 -10 11 -20 20
-23 20 -3 0 3 -9 13 -20z"/>
<path d="M3547 6229 c7 -7 15 -10 18 -7 3 3 -2 9 -12 12 -14 6 -15 5 -6 -5z"/>
<path d="M2167 6140 c-24 -15 -51 -36 -58 -47 -8 -10 -31 -32 -53 -48 l-38
-29 33 -12 c19 -7 53 -13 77 -13 28 -1 42 -5 42 -14 0 -8 6 -14 14 -14 11 0
12 4 3 19 -9 13 -24 18 -57 18 -26 0 -54 6 -64 13 -17 12 -15 15 19 41 35 27
37 28 76 12 23 -9 51 -13 65 -10 23 6 25 4 22 -29 -1 -22 4 -43 14 -54 9 -10
17 -22 16 -26 0 -5 4 -12 8 -15 4 -4 4 -1 -1 7 -7 12 2 13 53 8 43 -5 71 -2
96 8 32 13 40 13 75 -1 37 -15 42 -14 83 4 24 10 60 22 79 26 l36 6 0 60 c1
66 -3 69 -58 46 -19 -7 -66 -17 -105 -20 l-71 -7 -59 44 c-54 39 -67 44 -131
50 -66 5 -74 4 -116 -23z"/>
<path d="M3273 6112 c-28 -23 -32 -32 -29 -65 2 -21 7 -41 11 -45 5 -4 5 -1 1
6 -7 11 -4 11 14 0 19 -12 23 -10 41 11 15 18 26 22 51 18 34 -5 143 -27 166
-33 16 -5 62 -106 62 -138 0 -23 -22 -48 -50 -58 -12 -4 -22 10 -39 57 -25 72
-32 80 -81 88 -19 3 -66 13 -103 21 -70 15 -97 13 -97 -7 0 -7 4 -7 12 1 14
14 28 16 28 4 0 -9 -47 -31 -132 -62 l-48 -17 0 31 c0 23 -6 34 -22 41 -18 8
-23 18 -23 50 0 37 -2 40 -25 38 -53 -6 -67 -13 -83 -48 -10 -21 -24 -35 -35
-35 -21 0 -46 -24 -56 -55 l-6 -20 15 20 c26 36 36 45 48 45 7 -1 -12 -23 -42
-50 -42 -38 -58 -47 -71 -40 -49 26 -115 41 -206 47 -125 7 -144 3 -176 -42
l-25 -35 -23 25 -23 24 24 5 c54 12 62 15 24 10 -104 -14 -175 -3 -175 26 0
19 -8 20 -116 20 -78 0 -134 5 -172 16 -49 14 -71 15 -157 6 -55 -6 -138 -23
-185 -36 -47 -14 -104 -26 -128 -26 -38 0 -48 5 -82 43 -22 23 -40 47 -40 53
0 7 -7 15 -16 18 -29 11 -178 6 -269 -9 -49 -8 -135 -18 -190 -21 -55 -4 -124
-15 -154 -26 -30 -10 -71 -18 -92 -18 -31 0 -122 -30 -138 -45 -2 -3 1 -11 8
-19 10 -12 5 -16 -26 -27 -32 -10 -35 -13 -18 -20 11 -4 27 -8 35 -8 9 0 8 3
-4 8 -19 7 -19 8 2 13 25 7 34 -2 22 -21 -5 -9 -19 -12 -41 -8 -101 19 -117
18 -146 -8 l-28 -25 25 -20 c30 -24 44 -25 60 -5 13 16 60 21 60 7 0 -5 -9
-17 -20 -27 -19 -17 -23 -17 -80 -2 -75 21 -72 21 -104 -4 -20 -15 -24 -24
-16 -34 7 -9 0 -19 -31 -41 -23 -15 -56 -42 -73 -59 -18 -16 -42 -38 -54 -47
-17 -14 -21 -27 -20 -58 1 -22 6 -40 12 -40 6 -1 28 -9 48 -18 37 -18 37 -19
22 -41 l-16 -23 30 16 c17 9 42 16 55 16 39 0 144 40 163 62 l19 22 -35 -21
c-37 -21 -112 -47 -167 -57 -23 -4 -31 -2 -27 7 3 8 -10 18 -31 26 -43 15 -65
36 -65 61 0 22 39 62 52 54 4 -3 8 3 9 13 0 16 1 16 8 -2 5 -11 6 -23 4 -28
-2 -4 18 -17 46 -28 49 -21 50 -22 34 -45 -17 -26 -6 -32 27 -14 11 6 41 15
67 20 27 5 59 12 72 14 13 3 47 21 75 41 56 38 68 43 60 21 -10 -25 10 -24 73
4 68 31 80 31 278 -5 100 -18 105 -20 105 -41 0 -8 8 -14 18 -14 10 0 29 -10
41 -21 22 -21 23 -26 17 -123 -8 -141 -8 -152 10 -234 18 -80 14 -102 -15
-102 -14 0 -22 -9 -27 -32 -7 -30 -9 -25 -25 52 -14 68 -17 112 -12 216 l6
130 -29 27 c-16 15 -32 27 -36 27 -4 0 -17 10 -30 23 -19 18 -46 26 -143 40
-66 10 -134 22 -151 26 -23 6 -44 2 -90 -19 -32 -15 -61 -26 -64 -23 -3 3 10
18 28 34 18 16 29 29 25 29 -18 -1 -63 -50 -63 -69 0 -18 4 -17 62 11 67 32
78 32 238 3 41 -7 92 -16 112 -20 25 -4 39 -12 43 -25 4 -11 12 -20 19 -20 7
0 25 -11 40 -25 24 -22 26 -31 26 -97 0 -40 -5 -89 -10 -109 -8 -27 -5 -58 10
-130 25 -119 25 -116 -9 -134 -19 -9 -32 -26 -36 -44 -7 -32 -47 -92 -101
-153 -18 -20 -37 -47 -44 -60 -11 -22 -10 -22 12 3 13 14 35 41 51 60 l28 34
-29 -48 c-16 -27 -40 -56 -54 -65 -13 -9 -42 -36 -63 -60 l-38 -43 6 -97 c8
-137 27 -184 92 -232 l52 -38 5 -79 c3 -43 10 -89 16 -103 5 -14 15 -43 21
-65 6 -22 27 -67 47 -100 19 -33 33 -51 29 -40 -4 11 -11 47 -17 80 -6 33 -21
80 -34 106 -12 25 -25 61 -29 81 -6 31 -3 38 22 58 23 18 24 22 8 19 -11 -2
-28 -20 -38 -39 l-17 -35 6 45 c5 40 3 50 -20 77 -15 18 -42 41 -60 52 -42 26
-62 89 -71 222 -6 94 -6 96 19 112 18 12 26 13 29 4 3 -6 6 4 7 23 l2 35 9
-40 c4 -22 8 -68 8 -102 1 -37 9 -84 21 -115 24 -63 23 -61 8 -52 -7 4 -4 -2
6 -14 20 -23 32 -29 20 -11 -4 7 -1 10 7 7 8 -3 14 -10 14 -15 0 -6 4 -15 9
-20 5 -5 6 -3 2 5 -4 6 -3 12 2 12 19 0 29 -26 31 -80 2 -30 5 -57 8 -60 3 -3
3 21 1 53 -5 85 8 69 16 -20 4 -42 14 -89 22 -104 8 -15 14 -37 14 -47 0 -26
78 -181 104 -209 12 -11 43 -60 69 -107 41 -76 47 -94 47 -147 0 -52 3 -61 23
-69 12 -5 40 -23 62 -39 115 -86 207 -117 305 -106 59 7 62 6 103 -28 61 -50
117 -75 177 -81 39 -3 56 -10 67 -26 9 -12 28 -34 43 -50 16 -16 30 -44 34
-68 4 -30 15 -48 39 -68 35 -28 105 -56 118 -48 4 2 11 -1 15 -7 5 -8 2 -10
-7 -5 -8 4 -5 0 5 -8 29 -23 39 -19 21 8 -18 28 -41 39 -58 29 -7 -3 -9 -2 -4
2 4 5 -3 19 -15 32 -12 13 -27 50 -35 85 l-13 63 5 -59 c3 -47 9 -64 31 -87
l28 -29 -25 0 c-37 1 -86 49 -94 93 -7 36 -52 102 -97 140 -13 10 -37 17 -65
17 -49 0 -85 16 -158 71 -50 37 -51 37 -140 36 -106 -1 -126 6 -261 95 l-94
62 2 55 c2 47 -3 63 -25 96 -15 22 -27 43 -27 47 0 4 -15 31 -32 60 -18 29
-31 60 -30 69 1 8 -2 26 -8 40 -8 20 -9 18 -5 -16 8 -64 -12 -7 -26 73 -6 37
-22 87 -34 112 -31 61 -40 107 -25 125 7 8 16 15 20 15 11 0 60 -96 60 -119 0
-25 64 -157 90 -186 19 -21 90 -146 90 -159 0 -4 -5 -4 -12 0 -7 4 -8 3 -4 -5
4 -6 11 -9 16 -6 16 10 23 -17 21 -79 -1 -61 -1 -61 36 -81 21 -11 38 -25 38
-32 0 -6 4 -15 9 -20 5 -5 6 -3 2 5 -4 6 -3 12 2 12 14 0 64 -41 58 -48 -3 -3
-16 3 -28 14 l-23 19 19 -23 c12 -13 26 -20 37 -17 9 3 32 -4 52 -15 34 -20
129 -49 170 -51 14 -1 10 -4 -13 -9 l-35 -8 35 1 c24 1 35 7 35 17 0 10 11 15
35 15 20 0 35 -5 35 -12 0 -6 4 -15 9 -20 5 -5 6 -3 2 5 -11 18 9 15 25 -5 12
-15 12 -16 -1 -8 -9 5 -8 0 4 -13 21 -25 36 -31 16 -7 -8 9 -9 15 -2 15 11 0
27 -19 27 -32 0 -3 4 -10 9 -15 5 -5 6 -3 2 5 -10 17 -2 15 44 -8 22 -11 59
-20 83 -20 41 0 67 -13 67 -34 0 -5 -9 -1 -19 8 -14 12 -31 16 -62 13 l-44 -4
46 -1 c27 -1 52 -8 59 -17 7 -8 16 -13 20 -10 14 8 59 -54 70 -96 8 -28 22
-48 52 -69 23 -17 49 -30 58 -30 10 0 28 -8 41 -19 13 -10 35 -22 47 -26 23
-7 23 -6 7 19 -9 14 -32 34 -50 45 -18 11 -40 30 -49 43 -19 28 -23 106 -12
209 l9 77 -38 12 c-24 8 -62 10 -103 7 -48 -5 -63 -3 -59 6 88 217 91 227 75
243 -18 19 -82 21 -102 5 -8 -7 -17 -23 -20 -36 -4 -16 -16 -26 -36 -30 -17
-4 -35 -16 -41 -28 -9 -19 -8 -20 3 -6 18 21 51 33 46 17 -7 -22 -81 -56 -122
-57 -47 -1 -118 31 -145 65 -37 47 -35 98 9 233 41 126 64 176 79 167 4 -3 23
8 42 25 18 16 39 27 47 24 7 -2 11 -1 8 4 -7 10 29 26 98 42 45 11 50 10 65
-8 9 -11 23 -23 31 -26 12 -4 11 -6 -3 -6 -9 -1 -16 -4 -15 -8 9 -46 -70 -61
-90 -18 -6 14 -18 25 -26 25 -8 0 -23 3 -33 6 -14 5 -15 4 -4 -4 12 -9 9 -12
-15 -17 -36 -8 -73 -23 -58 -24 6 -1 33 6 60 14 48 15 49 14 67 -10 29 -39 77
-34 111 10 25 32 32 35 77 35 88 0 168 -55 169 -116 0 -38 27 -131 40 -139 13
-8 59 45 60 67 0 9 -7 43 -15 75 -17 66 -19 103 -5 103 6 0 10 -21 10 -47 0
-47 31 -134 47 -132 4 0 19 13 31 30 20 25 23 37 18 77 -3 26 -9 79 -12 119
l-6 71 108 73 c60 40 112 78 117 85 4 7 25 23 47 35 22 13 43 34 49 49 10 30
152 180 170 180 6 0 11 7 11 15 0 8 4 15 9 15 5 0 7 -9 4 -21 -10 -37 28 -18
41 21 10 31 16 35 47 38 31 3 38 8 42 30 7 35 92 101 172 134 33 14 77 33 98
42 22 9 36 12 32 6 -6 -10 -88 -50 -193 -95 -23 -10 -41 -20 -39 -22 4 -3 121
41 149 57 31 17 11 -61 -24 -93 -16 -16 -31 -27 -33 -25 -11 11 11 61 31 70
13 6 24 15 24 19 0 5 -13 0 -30 -9 -21 -12 -31 -27 -36 -55 -3 -21 -4 -40 -2
-42 2 -2 32 18 68 45 44 34 73 50 94 50 44 1 101 31 101 54 0 13 14 23 45 35
33 12 45 22 45 36 0 21 -1 21 -68 4 -31 -9 -53 -8 -84 0 -49 13 -48 25 2 60
54 37 45 45 -42 38 -129 -11 -159 9 -68 45 69 27 129 36 275 42 l125 5 -50
-29 c-48 -28 -55 -29 -208 -32 -87 -1 -163 -6 -169 -9 -19 -12 20 -17 58 -8
22 4 93 9 159 9 120 0 120 0 170 34 28 18 84 65 125 104 l75 72 -27 27 c-22
22 -30 24 -42 14 -12 -10 -19 -5 -41 33 -15 25 -32 46 -37 46 -7 0 -8 29 -3
84 4 54 3 86 -4 90 -5 4 -48 -12 -95 -36 -97 -48 -116 -44 -116 22 0 50 -31
88 -78 95 -20 4 -52 11 -70 17 -30 9 -35 7 -94 -46 -43 -39 -65 -53 -73 -46
-15 12 -25 3 -25 -22 0 -10 -11 -30 -25 -44 -20 -20 -29 -23 -39 -15 -19 16
-26 -7 -24 -77 l1 -57 6 60 c4 44 10 59 20 57 7 -2 22 5 32 14 18 16 19 15 19
-29 0 -25 3 -52 6 -61 4 -11 -3 -19 -22 -26 -112 -41 -152 -64 -158 -90 -3
-20 -14 -29 -38 -36 -18 -5 -37 -19 -43 -32 -12 -27 -27 -28 -49 -3 -14 15
-16 29 -11 60 4 22 13 45 21 52 21 17 17 29 -10 29 -13 0 -59 7 -101 16 -159
33 -235 133 -151 200 36 29 123 66 221 94 46 13 63 23 76 46 13 23 23 29 50
29 21 0 46 9 63 22 16 13 54 30 85 39 84 24 141 52 141 69 0 8 15 22 33 31 46
24 67 44 67 67 0 14 4 17 18 12 9 -4 44 -12 77 -19 59 -12 60 -13 87 -66 34
-69 35 -87 2 -102 -19 -9 -24 -17 -20 -33 4 -17 -2 -23 -37 -35 -66 -24 -60
-42 34 -89 54 -27 96 -41 121 -41 43 0 46 7 18 52 -11 18 -20 27 -20 20 0 -7
7 -24 16 -37 16 -25 16 -25 -17 -25 -34 1 -180 68 -186 86 -6 18 64 36 89 24
22 -11 22 -10 4 4 -27 22 -13 20 33 -4 88 -44 191 -66 191 -39 0 6 -8 24 -17
40 -16 26 -16 30 -1 45 14 14 18 14 46 0 43 -22 49 -5 19 56 -25 50 -25 50 -3
45 11 -2 28 -7 36 -11 9 -4 20 1 27 13 17 27 0 76 -43 121 -25 27 -31 41 -27
62 4 23 1 29 -22 38 -14 5 -36 10 -48 10 -12 0 -47 13 -77 30 -64 34 -86 36
-181 14 -64 -15 -72 -15 -88 0 -22 20 -20 21 -58 -12z m-88 -262 c-4 -6 -10
-8 -15 -5 -4 3 -10 -2 -13 -10 -3 -7 -23 -17 -44 -21 -21 -4 -46 -11 -57 -16
-13 -7 -16 -7 -12 1 11 17 98 60 124 61 13 0 20 -4 17 -10z m-184 -41 c21 -21
21 -22 3 -32 -11 -5 -30 -19 -43 -31 l-24 -21 13 25 c7 13 13 37 12 52 -1 34
11 35 39 7z m-2672 -83 l34 -12 -29 -12 c-64 -25 -176 -1 -127 27 24 14 80 12
122 -3z m2522 -28 c-6 -17 -24 -26 -72 -38 -35 -9 -85 -26 -111 -38 -27 -12
-48 -19 -48 -17 0 10 93 55 237 114 1 1 -1 -9 -6 -21z m69 -497 c-6 -13 -20
-20 -33 -20 l-22 2 23 4 c12 2 22 8 22 13 0 4 -10 6 -22 4 -17 -3 -15 0 7 10
36 17 40 15 25 -13z m-1974 -282 c-18 -27 -46 -34 -46 -12 0 10 6 13 17 9 10
-4 14 -4 10 0 -4 4 1 13 11 20 23 17 27 10 8 -17z m-56 -72 c-19 -18 -26 -23
-17 -11 9 11 17 25 17 31 0 6 6 13 13 16 25 9 20 -4 -13 -36z m2547 7 c4 -11
-64 -44 -89 -44 -6 0 1 14 17 30 29 30 65 37 72 14z m-2577 -48 c0 -2 -8 -10
-17 -17 -16 -13 -17 -12 -4 4 13 16 21 21 21 13z m2073 -156 c-7 -25 -23 -27
-18 -2 2 9 4 18 4 20 1 1 5 2 10 2 5 0 7 -9 4 -20z m-700 -516 c20 -10 37 -22
37 -26 0 -5 -10 -3 -22 3 -18 9 -20 9 -12 0 6 -7 20 -14 30 -15 14 -2 18 -10
16 -30 -2 -16 4 -59 13 -97 16 -64 16 -71 1 -94 -9 -14 -20 -25 -25 -25 -13 0
-29 49 -36 113 -4 36 -12 60 -21 64 -8 3 -14 10 -14 17 -1 16 -89 56 -124 56
-24 0 -27 2 -16 15 7 8 16 13 20 10 5 -3 11 -1 15 5 3 5 21 11 38 11 31 2 31
2 4 6 -16 3 -35 -1 -43 -8 -9 -7 -14 -8 -14 -1 0 27 93 25 153 -4z m-1365
-177 c5 -7 12 -32 15 -57 l6 -45 -16 29 c-14 27 -54 157 -53 173 1 5 9 -14 20
-40 10 -27 23 -54 28 -60z"/>
<path d="M3115 5830 c-3 -6 1 -7 9 -4 18 7 21 14 7 14 -6 0 -13 -4 -16 -10z"/>
<path d="M2985 5800 c3 -5 8 -10 11 -10 2 0 4 5 4 10 0 6 -5 10 -11 10 -5 0
-7 -4 -4 -10z"/>
<path d="M263 5713 c15 -2 37 -2 50 0 12 2 0 4 -28 4 -27 0 -38 -2 -22 -4z"/>
<path d="M3391 4849 c-13 -5 -21 -12 -18 -15 3 -3 18 1 34 10 31 17 21 20 -16
5z"/>
<path d="M2180 4136 c0 -2 9 -6 20 -9 11 -3 18 -1 14 4 -5 9 -34 13 -34 5z"/>
<path d="M3183 6028 c-30 -31 -31 -34 -17 -61 8 -15 19 -25 24 -22 5 3 0 15
-12 27 l-21 21 39 34 c21 18 34 33 28 33 -5 0 -24 -15 -41 -32z"/>
<path d="M2225 6019 c-4 -12 -3 -25 2 -29 4 -5 8 4 9 21 1 34 -2 37 -11 8z"/>
<path d="M8485 6029 c-5 -7 5 -8 32 -3 51 9 54 14 10 14 -20 0 -39 -5 -42 -11z"/>
<path d="M3343 6023 c9 -2 23 -2 30 0 6 3 -1 5 -18 5 -16 0 -22 -2 -12 -5z"/>
<path d="M8133 6013 c-3 -7 -2 -23 1 -36 7 -24 44 -72 51 -65 2 2 -7 17 -20
32 -36 42 -33 66 7 66 17 0 40 -8 51 -17 19 -17 20 -17 9 3 -14 26 -91 39 -99
17z"/>
<path d="M3410 6010 c8 -5 22 -9 30 -9 10 0 8 3 -5 9 -27 12 -43 12 -25 0z"/>
<path d="M4341 5995 c0 -17 -7 -38 -13 -45 -7 -8 -5 -8 5 1 13 11 17 26 14 45
l-4 29 -2 -30z"/>
<path d="M8563 5991 c0 -11 5 -18 9 -15 4 3 5 11 1 19 -7 21 -12 19 -10 -4z"/>
<path d="M3478 5993 c6 -2 18 -2 25 0 6 3 1 5 -13 5 -14 0 -19 -2 -12 -5z"/>
<path d="M3525 5980 c3 -5 8 -10 11 -10 2 0 4 5 4 10 0 6 -5 10 -11 10 -5 0
-7 -4 -4 -10z"/>
<path d="M2420 5940 c-8 -5 -26 -10 -40 -11 -23 -1 -23 -2 5 -8 18 -5 34 -3
40 3 6 7 33 10 60 9 36 -2 44 0 30 7 -27 12 -77 12 -95 0z"/>
<path d="M2580 5940 c-24 -8 -23 -8 8 -9 20 -1 31 3 27 9 -3 6 -7 10 -8 9 -1
-1 -13 -5 -27 -9z"/>
<path d="M2306 5931 c-3 -4 6 -6 19 -3 14 2 25 6 25 8 0 8 -39 4 -44 -5z"/>
<path d="M2258 5913 c6 -2 18 -2 25 0 6 3 1 5 -13 5 -14 0 -19 -2 -12 -5z"/>
<path d="M8213 5913 c9 -2 23 -2 30 0 6 3 -1 5 -18 5 -16 0 -22 -2 -12 -5z"/>
<path d="M3566 5885 c8 -37 14 -45 14 -19 0 10 -5 26 -10 34 -8 11 -9 7 -4
-15z"/>
<path d="M4625 5790 c-13 -5 -14 -9 -5 -9 8 0 24 4 35 9 13 5 14 9 5 9 -8 0
-24 -4 -35 -9z"/>
<path d="M12251 5594 c-12 -14 -10 -15 15 -12 16 2 28 8 27 13 -3 16 -27 16
-42 -1z"/>
<path d="M12130 5579 c-15 -11 -18 -17 -7 -13 12 4 17 1 18 -12 0 -15 2 -14
10 5 14 36 7 43 -21 20z"/>
<path d="M620 5570 c8 -5 20 -10 25 -10 6 0 3 5 -5 10 -8 5 -19 10 -25 10 -5
0 -3 -5 5 -10z"/>
<path d="M7005 5568 c5 -13 1 -19 -17 -22 -12 -3 -32 -7 -43 -9 -13 -3 -9 -5
11 -6 41 -1 74 23 56 41 -11 11 -12 10 -7 -4z"/>
<path d="M6885 5561 l-30 -7 32 -5 c18 -3 30 -2 27 2 -2 4 15 10 38 12 l43 4
-40 0 c-22 0 -53 -2 -70 -6z"/>
<path d="M555 5550 c-3 -6 1 -7 9 -4 18 7 21 14 7 14 -6 0 -13 -4 -16 -10z"/>
<path d="M728 5553 c7 -3 16 -2 19 1 4 3 -2 6 -13 5 -11 0 -14 -3 -6 -6z"/>
<path d="M768 5543 c6 -2 18 -2 25 0 6 3 1 5 -13 5 -14 0 -19 -2 -12 -5z"/>
<path d="M828 5533 c6 -2 18 -2 25 0 6 3 1 5 -13 5 -14 0 -19 -2 -12 -5z"/>
<path d="M870 5526 c0 -2 11 -6 25 -8 13 -3 22 -1 19 3 -5 9 -44 13 -44 5z"/>
<path d="M11279 5513 c-12 -16 -12 -17 1 -7 8 6 22 14 30 17 13 5 12 6 -1 6
-9 1 -23 -7 -30 -16z"/>
<path d="M11358 5523 c6 -2 18 -2 25 0 6 3 1 5 -13 5 -14 0 -19 -2 -12 -5z"/>
<path d="M110 5510 c8 -5 20 -10 25 -10 6 0 3 5 -5 10 -8 5 -19 10 -25 10 -5
0 -3 -5 5 -10z"/>
<path d="M6301 5516 c2 -2 15 -9 29 -15 24 -11 24 -11 6 3 -16 13 -49 24 -35
12z"/>
<path d="M11418 5513 c7 -3 16 -2 19 1 4 3 -2 6 -13 5 -11 0 -14 -3 -6 -6z"/>
<path d="M11468 5503 c12 -2 30 -2 40 0 9 3 -1 5 -23 4 -22 0 -30 -2 -17 -4z"/>
<path d="M153 5485 c0 -8 4 -12 9 -9 5 3 6 10 3 15 -9 13 -12 11 -12 -6z"/>
<path d="M990 5382 l5 -87 3 79 c2 44 -1 83 -5 87 -4 4 -6 -31 -3 -79z"/>
<path d="M6431 5443 c7 -10 15 -20 16 -22 2 -2 3 3 3 11 0 9 -7 19 -16 22 -15
6 -15 4 -3 -11z"/>
<path d="M180 5440 c-8 -5 -10 -10 -5 -10 6 0 17 5 25 10 8 5 11 10 5 10 -5 0
-17 -5 -25 -10z"/>
<path d="M3098 5400 c-3 -19 0 -30 7 -30 7 0 10 11 7 30 -2 17 -5 30 -7 30 -2
0 -5 -13 -7 -30z"/>
<path d="M982 5195 c0 -11 4 -31 8 -45 6 -20 8 -21 8 -5 0 11 -4 31 -8 45 -6
20 -8 21 -8 5z"/>
<path d="M1006 5078 c4 -29 1 -37 -13 -41 -14 -4 -13 -5 5 -6 24 -1 27 14 11
59 -7 20 -8 18 -3 -12z"/>
<path d="M3448 5093 c17 -2 47 -2 65 0 17 2 3 4 -33 4 -36 0 -50 -2 -32 -4z"/>
<path d="M3373 5083 c9 -2 23 -2 30 0 6 3 -1 5 -18 5 -16 0 -22 -2 -12 -5z"/>
<path d="M3305 5070 c-13 -6 -15 -9 -5 -9 8 0 22 4 30 9 18 12 2 12 -25 0z"/>
<path d="M5880 4900 c6 -11 13 -20 16 -20 2 0 0 9 -6 20 -6 11 -13 20 -16 20
-2 0 0 -9 6 -20z"/>
<path d="M5902 4835 c0 -16 2 -22 5 -12 2 9 2 23 0 30 -3 6 -5 -1 -5 -18z"/>
<path d="M11054 4648 c-4 -6 -3 -8 4 -4 5 3 13 0 15 -6 3 -8 6 -6 6 5 1 19
-14 23 -25 5z"/>
<path d="M5581 4604 c0 -11 3 -14 6 -6 3 7 2 16 -1 19 -3 4 -6 -2 -5 -13z"/>
<path d="M5571 4564 c0 -11 3 -14 6 -6 3 7 2 16 -1 19 -3 4 -6 -2 -5 -13z"/>
<path d="M11300 4470 c37 -24 46 -37 51 -67 l6 -38 2 40 c1 37 -2 42 -43 68
-58 37 -73 35 -16 -3z"/>
<path d="M721 4450 c0 -8 4 -24 9 -35 5 -13 9 -14 9 -5 0 8 -4 24 -9 35 -5 13
-9 14 -9 5z"/>
<path d="M5673 4443 c9 -2 25 -2 35 0 9 3 1 5 -18 5 -19 0 -27 -2 -17 -5z"/>
<path d="M5750 4430 c8 -5 20 -10 25 -10 6 0 3 5 -5 10 -8 5 -19 10 -25 10 -5
0 -3 -5 5 -10z"/>
<path d="M944 4176 c-3 -8 -1 -23 5 -33 9 -15 10 -13 5 10 -8 36 2 34 26 -5
11 -18 20 -29 20 -25 0 14 -34 67 -42 67 -5 0 -11 -6 -14 -14z"/>
<path d="M1901 4111 c-10 -7 -7 -9 12 -8 14 1 23 5 20 10 -6 9 -15 9 -32 -2z"/>
<path d="M960 4105 c0 -5 5 -17 10 -25 5 -8 10 -10 10 -5 0 6 -5 17 -10 25 -5
8 -10 11 -10 5z"/>
<path d="M1838 4093 c7 -3 16 -2 19 1 4 3 -2 6 -13 5 -11 0 -14 -3 -6 -6z"/>
<path d="M1001 4074 c0 -11 3 -14 6 -6 3 7 2 16 -1 19 -3 4 -6 -2 -5 -13z"/>
<path d="M8100 4085 c0 -5 5 -17 10 -25 5 -8 10 -10 10 -5 0 6 -5 17 -10 25
-5 8 -10 11 -10 5z"/>
<path d="M7473 4028 c9 -7 24 -22 33 -33 8 -11 12 -13 8 -5 -11 24 -36 50 -47
50 -6 0 -3 -6 6 -12z"/>
<path d="M1001 4014 c0 -11 3 -14 6 -6 3 7 2 16 -1 19 -3 4 -6 -2 -5 -13z"/>
<path d="M7430 4023 c1 -12 69 -139 70 -130 0 4 -13 34 -30 66 -16 32 -26 61
-23 65 4 3 1 6 -5 6 -7 0 -12 -3 -12 -7z"/>
<path d="M1036 3997 c3 -10 9 -15 12 -12 3 3 0 11 -7 18 -10 9 -11 8 -5 -6z"/>
<path d="M1012 3970 c0 -14 2 -19 5 -12 2 6 2 18 0 25 -3 6 -5 1 -5 -13z"/>
<path d="M1060 3941 c0 -6 4 -13 10 -16 6 -3 7 1 4 9 -7 18 -14 21 -14 7z"/>
<path d="M1115 3866 c10 -14 19 -26 22 -26 7 0 -17 39 -28 46 -6 3 -3 -5 6
-20z"/>
<path d="M8578 3883 c12 -2 32 -2 45 0 12 2 2 4 -23 4 -25 0 -35 -2 -22 -4z"/>
<path d="M7502 3875 c16 -51 134 -272 160 -302 35 -39 93 -124 121 -178 9 -16
16 -24 17 -16 0 18 -70 128 -132 205 -25 32 -61 93 -79 135 -27 63 -98 190
-87 156z"/>
<path d="M8838 3873 c7 -3 16 -2 19 1 4 3 -2 6 -13 5 -11 0 -14 -3 -6 -6z"/>
<path d="M1140 3821 c0 -6 4 -13 10 -16 6 -3 7 1 4 9 -7 18 -14 21 -14 7z"/>
<path d="M7626 3797 c3 -10 9 -15 12 -12 3 3 0 11 -7 18 -10 9 -11 8 -5 -6z"/>
<path d="M1160 3781 c0 -6 4 -13 10 -16 6 -3 7 1 4 9 -7 18 -14 21 -14 7z"/>
<path d="M7640 3761 c0 -6 4 -13 10 -16 6 -3 7 1 4 9 -7 18 -14 21 -14 7z"/>
<path d="M9903 3723 c-17 -14 -17 -14 1 -5 10 5 27 7 37 5 11 -3 19 -3 19 0 0
13 -41 13 -57 0z"/>
<path d="M1202 3695 c0 -16 2 -22 5 -12 2 9 2 23 0 30 -3 6 -5 -1 -5 -18z"/>
<path d="M10747 3713 c-3 -5 8 -8 25 -9 20 -1 25 2 16 7 -16 11 -35 11 -41 2z"/>
<path d="M9060 3696 c0 -2 8 -10 18 -17 15 -13 16 -12 3 4 -13 16 -21 21 -21
13z"/>
<path d="M10050 3696 c0 -2 8 -10 18 -17 15 -13 16 -12 3 4 -13 16 -21 21 -21
13z"/>
<path d="M10818 3690 c18 -21 16 -130 -4 -158 -9 -13 -14 -26 -11 -29 3 -2 13
9 21 26 23 43 22 144 -1 162 -15 11 -16 11 -5 -1z"/>
<path d="M9217 3649 c4 -13 8 -18 11 -10 2 7 -1 18 -6 23 -8 8 -9 4 -5 -13z"/>
<path d="M5181 3640 c0 -8 4 -22 9 -30 12 -18 12 -2 0 25 -6 13 -9 15 -9 5z"/>
<path d="M9212 3560 c0 -19 2 -27 5 -17 2 9 2 25 0 35 -3 9 -5 1 -5 -18z"/>
<path d="M5186 3519 c-4 -23 -5 -44 -2 -46 2 -2 7 14 11 37 4 23 5 43 2 46 -2
3 -7 -14 -11 -37z"/>
<path d="M7826 3487 c3 -10 9 -15 12 -12 3 3 0 11 -7 18 -10 9 -11 8 -5 -6z"/>
<path d="M1380 3476 c0 -3 14 -12 30 -21 17 -9 30 -13 30 -11 0 3 -13 12 -30
21 -16 9 -30 13 -30 11z"/>
<path d="M9240 3471 c0 -6 4 -13 10 -16 6 -3 7 1 4 9 -7 18 -14 21 -14 7z"/>
<path d="M7842 3435 c0 -16 2 -22 5 -12 2 9 2 23 0 30 -3 6 -5 -1 -5 -18z"/>
<path d="M1460 3430 c8 -5 22 -9 30 -9 10 0 8 3 -5 9 -27 12 -43 12 -25 0z"/>
<path d="M9260 3431 c0 -6 4 -13 10 -16 6 -3 7 1 4 9 -7 18 -14 21 -14 7z"/>
<path d="M7860 3365 c0 -5 5 -17 10 -25 5 -8 10 -10 10 -5 0 6 -5 17 -10 25
-5 8 -10 11 -10 5z"/>
<path d="M9300 3345 c0 -5 5 -17 10 -25 5 -8 10 -10 10 -5 0 6 -5 17 -10 25
-5 8 -10 11 -10 5z"/>
<path d="M1790 3336 c0 -2 7 -7 16 -10 8 -3 12 -2 9 4 -6 10 -25 14 -25 6z"/>
<path d="M5163 3290 c0 -25 2 -35 4 -22 2 12 2 32 0 45 -2 12 -4 2 -4 -23z"/>
<path d="M10371 3304 c0 -11 3 -14 6 -6 3 7 2 16 -1 19 -3 4 -6 -2 -5 -13z"/>
<path d="M9320 3276 c0 -8 4 -17 9 -20 5 -4 7 3 4 14 -6 23 -13 26 -13 6z"/>
<path d="M2599 3221 c-7 -21 -19 -32 -39 -36 -18 -4 -69 -46 -135 -111 -101
-99 -107 -107 -101 -137 3 -18 14 -46 23 -63 16 -30 15 -33 -5 -59 -12 -15
-22 -34 -22 -42 0 -7 -36 -69 -80 -135 -44 -67 -80 -131 -80 -143 0 -11 7 -29
15 -39 22 -29 18 -53 -10 -72 -40 -26 -32 -60 30 -136 49 -62 69 -98 151 -271
23 -49 43 -72 128 -141 131 -106 158 -125 195 -132 17 -4 31 -10 31 -14 0 -5
12 -22 26 -39 24 -29 25 -33 14 -84 -6 -30 -10 -71 -9 -93 6 -149 31 -566 39
-648 6 -54 10 -124 10 -156 0 -40 5 -61 16 -71 29 -24 72 -94 83 -136 6 -22
18 -46 26 -53 18 -15 12 -41 -17 -82 l-19 -28 37 -67 c84 -152 162 -223 247
-223 34 0 37 2 27 19 -5 11 -10 31 -10 46 0 22 3 24 19 15 11 -5 36 -10 56
-10 32 0 36 3 30 18 -18 41 -17 81 5 119 16 29 20 52 18 93 l-3 55 -35 0 c-31
0 -35 3 -32 25 1 14 14 41 27 60 29 42 32 80 8 117 -10 14 -19 36 -20 49 -4
24 12 41 22 24 3 -5 18 -10 33 -10 37 0 110 90 85 103 -9 6 -19 5 -26 -3 -9
-8 -8 -10 6 -5 20 8 22 -3 3 -28 -20 -26 -28 -21 -24 16 3 34 15 38 65 22 24
-8 50 14 105 90 26 36 28 41 13 51 -15 11 -15 15 6 43 12 17 26 28 31 25 4 -3
8 -1 8 5 0 5 9 13 20 16 11 4 29 23 39 43 11 20 31 48 45 61 14 14 32 48 41
80 9 31 32 89 52 128 31 63 35 76 25 98 -13 29 -14 29 65 49 70 18 133 52 133
70 0 7 19 22 41 33 37 19 45 30 71 95 30 77 42 130 57 264 16 131 52 244 95
290 50 53 76 105 76 152 0 43 -16 59 -92 93 -20 10 -46 27 -57 38 -12 12 -28
21 -36 21 -9 0 -33 9 -54 20 -27 13 -62 20 -117 21 -77 2 -81 4 -137 47 -51
38 -63 44 -94 39 -29 -5 -34 -3 -29 10 6 14 -1 15 -51 10 -32 -3 -69 -9 -83
-13 -23 -7 -22 -4 13 34 44 50 46 75 12 142 -31 61 -94 110 -142 110 -40 0
-93 32 -153 94 -31 32 -60 51 -93 61 -60 18 -137 72 -137 97 0 18 -8 19 -102
17 -69 -1 -103 2 -106 10 -2 6 -9 11 -16 11 -7 0 -33 10 -58 23 l-45 23 -18
-53 c-10 -29 -26 -60 -37 -69 -17 -16 -18 -15 -18 20 0 36 -42 116 -62 116 -5
0 -14 -13 -19 -29z m-190 -251 c1 -13 0 -13 -10 0 -9 13 -10 13 -6 0 2 -8 10
-15 17 -15 7 0 17 -7 23 -16 8 -13 5 -23 -11 -44 -12 -15 -22 -34 -22 -42 0
-15 -73 -134 -129 -211 -21 -28 -34 -57 -33 -74 0 -19 -3 -26 -11 -22 -7 4
-10 5 -7 1 3 -3 8 -5 11 -4 12 4 39 -26 39 -44 0 -10 -11 -26 -25 -35 -19 -12
-25 -25 -25 -51 0 -19 -4 -32 -9 -29 -5 3 -8 17 -8 31 0 14 -8 34 -17 44 -22
24 -20 64 4 86 24 21 165 245 154 245 -3 0 2 10 10 22 20 28 20 52 2 67 -7 6
-16 28 -19 48 -5 30 -2 42 15 60 16 17 24 20 30 11 5 -9 8 -5 9 12 l1 25 8
-25 c4 -14 8 -32 9 -40z m-189 -595 c0 5 9 0 20 -10 25 -22 27 -43 3 -24 -15
12 -15 10 1 -8 10 -12 23 -21 29 -20 15 3 78 -95 72 -111 -3 -7 0 -10 5 -7 5
3 15 -7 21 -22 7 -15 27 -61 45 -102 38 -82 39 -85 22 -75 -7 4 0 -7 16 -24
30 -32 49 -44 26 -17 -7 8 -8 15 -3 15 13 0 45 -35 38 -42 -3 -3 5 -13 17 -24
18 -15 20 -16 9 -1 -7 9 -9 17 -4 17 13 0 45 -35 38 -42 -3 -3 5 -13 17 -24
18 -15 20 -16 9 -1 -19 25 2 21 25 -5 10 -12 13 -18 7 -14 -19 10 -16 1 4 -15
14 -12 16 -12 9 0 -6 9 -4 12 5 9 8 -3 14 -10 14 -16 0 -6 7 -17 15 -24 12
-11 12 -11 1 5 -8 10 -9 17 -3 17 12 0 27 -19 27 -34 0 -5 7 -11 15 -13 13 -4
13 -3 0 7 -12 10 -10 11 10 6 14 -3 30 -6 37 -6 10 0 26 -30 28 -52 0 -3 4
-10 9 -15 5 -5 6 -3 2 5 -4 6 -3 12 2 12 18 0 22 -31 11 -74 -12 -50 -7 -251
15 -546 8 -113 18 -250 22 -305 4 -55 12 -109 18 -120 5 -11 10 -23 11 -27 0
-3 4 -10 9 -15 5 -5 6 -3 2 5 -4 6 -4 12 1 12 20 0 89 -161 75 -175 -4 -3 1
-3 11 1 20 7 20 4 7 -31 -5 -14 -14 -24 -19 -21 -5 3 -14 0 -20 -8 -14 -17 -6
-41 43 -121 36 -60 49 -98 21 -61 -8 11 -15 15 -15 9 0 -12 21 -31 35 -31 5 0
11 -6 14 -13 2 -8 -1 -9 -10 -4 -8 5 -11 5 -7 1 3 -4 10 -8 15 -8 12 0 33 -19
33 -30 0 -6 -8 -5 -17 2 -10 7 1 -6 24 -29 23 -22 48 -41 55 -41 7 0 -1 9 -18
19 -18 11 -35 25 -39 31 -4 7 11 0 33 -15 34 -22 41 -33 44 -66 3 -36 1 -39
-21 -39 -42 0 -124 55 -157 107 -59 93 -94 154 -94 168 0 8 9 29 20 47 24 39
25 61 5 78 -8 7 -20 31 -27 54 -13 44 -48 102 -74 120 -12 9 -18 52 -29 191
-39 484 -48 710 -32 789 11 55 10 59 -11 76 -12 10 -22 23 -22 28 0 19 -31 42
-55 42 -24 0 -106 56 -215 148 -66 56 -93 95 -130 190 -23 62 -76 147 -131
213 -44 53 -48 70 -18 100 16 16 23 18 35 8 8 -6 14 -8 14 -4z m1760 -882 c0
-5 -17 -16 -38 -25 -53 -25 -162 -57 -162 -48 0 16 34 34 108 56 87 26 92 27
92 17z m-461 -564 c-6 -3 -10 -10 -9 -15 3 -16 -15 -14 -47 6 -19 11 -33 28
-33 39 0 19 1 19 50 -2 27 -11 45 -24 39 -28z m-557 -531 c-7 -7 -12 -8 -12
-2 0 14 12 26 19 19 2 -3 -1 -11 -7 -17z"/>
<path d="M2394 2885 c-9 -13 -14 -28 -12 -33 1 -5 10 6 19 24 19 40 16 44 -7
9z"/>
<path d="M2246 2507 c3 -10 9 -15 12 -12 3 3 0 11 -7 18 -10 9 -11 8 -5 -6z"/>
<path d="M2295 2266 c10 -14 19 -26 22 -26 7 0 -17 39 -28 46 -6 3 -3 -5 6
-20z"/>
<path d="M2361 2155 c1 -19 18 -51 18 -35 0 8 -4 22 -9 30 -5 8 -9 11 -9 5z"/>
<path d="M2401 2060 c14 -31 19 -36 19 -24 0 6 -7 19 -16 30 -14 18 -14 18 -3
-6z"/>
<path d="M2748 1753 c7 -3 16 -2 19 1 4 3 -2 6 -13 5 -11 0 -14 -3 -6 -6z"/>
<path d="M2801 1664 c0 -11 3 -14 6 -6 3 7 2 16 -1 19 -3 4 -6 -2 -5 -13z"/>
<path d="M2794 1530 c0 -58 1 -81 3 -52 2 28 2 76 0 105 -2 28 -3 5 -3 -53z"/>
<path d="M2802 1280 c0 -14 2 -19 5 -12 2 6 2 18 0 25 -3 6 -5 1 -5 -13z"/>
<path d="M2812 1220 c0 -19 2 -27 5 -17 2 9 2 25 0 35 -3 9 -5 1 -5 -18z"/>
<path d="M2812 1120 c0 -19 2 -27 5 -17 2 9 2 25 0 35 -3 9 -5 1 -5 -18z"/>
<path d="M2823 980 c0 -30 2 -43 4 -27 2 15 2 39 0 55 -2 15 -4 2 -4 -28z"/>
<path d="M2833 875 c0 -27 2 -38 4 -22 2 15 2 37 0 50 -2 12 -4 0 -4 -28z"/>
<path d="M2843 725 c0 -22 2 -30 4 -17 2 12 2 30 0 40 -3 9 -5 -1 -4 -23z"/>
<path d="M2927 569 c4 -13 8 -18 11 -10 2 7 -1 18 -6 23 -8 8 -9 4 -5 -13z"/>
<path d="M2940 525 c0 -5 5 -17 10 -25 5 -8 10 -10 10 -5 0 6 -5 17 -10 25 -5
8 -10 11 -10 5z"/>
<path d="M2975 290 c9 -16 18 -30 21 -30 2 0 -2 14 -11 30 -9 17 -18 30 -21
30 -2 0 2 -13 11 -30z"/>
<path d="M3454 941 c15 -17 46 -19 46 -4 0 3 -7 3 -15 -1 -8 -3 -15 -1 -15 3
0 5 -8 12 -17 15 -15 6 -15 5 1 -13z"/>
<path d="M9347 3219 c4 -13 8 -18 11 -10 2 7 -1 18 -6 23 -8 8 -9 4 -5 -13z"/>
<path d="M5280 3131 c0 -6 4 -13 10 -16 6 -3 7 1 4 9 -7 18 -14 21 -14 7z"/>
<path d="M9396 3087 c3 -10 9 -15 12 -12 3 3 0 11 -7 18 -10 9 -11 8 -5 -6z"/>
<path d="M6020 2949 c-27 -4 -21 -6 28 -7 34 0 62 1 62 3 0 7 -58 10 -90 4z"/>
<path d="M11189 2910 c-35 -36 -55 -49 -80 -52 -29 -3 -38 -10 -62 -55 -16
-29 -32 -53 -38 -53 -5 0 -9 -11 -9 -25 0 -16 -6 -25 -15 -25 -13 0 -14 4 -4
23 6 12 19 30 27 40 15 16 14 17 -1 11 -10 -3 -24 -21 -32 -39 -11 -27 -18
-32 -35 -28 -22 6 -22 4 -18 -58 3 -48 11 -78 31 -112 l28 -47 69 0 c38 0 71
-3 73 -7 3 -5 -23 -7 -56 -7 l-62 2 59 -7 c62 -6 81 -22 48 -40 -13 -7 -39 -7
-78 -1 -33 6 -71 8 -85 5 -33 -8 -63 26 -83 96 -19 64 -12 91 20 79 13 -5 24
-6 24 -1 0 10 -51 22 -62 14 -17 -10 -6 -72 25 -133 l32 -65 100 -7 c109 -7
135 0 135 36 0 19 7 25 34 30 33 6 47 22 51 60 1 10 14 28 28 38 16 12 27 29
27 43 0 14 8 32 19 42 20 19 20 30 0 81 -11 26 -11 38 0 65 28 66 26 91 -9
120 -17 15 -37 27 -43 26 -7 -1 -33 -23 -58 -49z"/>
<path d="M5940 2930 c-8 -5 -10 -10 -5 -10 6 0 17 5 25 10 8 5 11 10 5 10 -5
0 -17 -5 -25 -10z"/>
<path d="M6131 2933 c9 -2 31 -22 48 -43 21 -27 39 -40 54 -39 l22 2 -22 4
c-12 2 -36 22 -54 44 -17 21 -38 38 -47 38 -15 -1 -15 -2 -1 -6z"/>
<path d="M5487 2889 c7 -7 15 -10 18 -7 3 3 -2 9 -12 12 -14 6 -15 5 -6 -5z"/>
<path d="M5725 2890 c-3 -6 1 -7 9 -4 18 7 21 14 7 14 -6 0 -13 -4 -16 -10z"/>
<path d="M10324 2869 c14 -17 26 -36 26 -42 0 -6 18 -32 40 -58 43 -51 67 -95
57 -105 -12 -13 -79 40 -118 92 -22 30 -46 54 -53 54 -8 0 -22 3 -31 6 -18 7
7 -37 62 -109 18 -23 42 -59 53 -80 21 -38 116 -185 183 -282 19 -28 47 -57
62 -65 25 -14 28 -13 46 9 10 13 19 32 19 43 0 14 5 18 18 14 26 -9 62 29 62
65 0 31 -31 100 -59 134 -10 11 -29 40 -43 65 -41 71 -94 127 -127 133 -29 6
-81 52 -131 114 -16 19 -38 33 -58 37 l-34 6 26 -31z m-24 -90 c31 -56 131
-141 147 -125 6 6 32 -24 33 -37 0 -5 -6 -5 -12 -1 -8 4 -10 3 -5 -2 5 -5 14
-9 20 -9 5 0 12 -6 15 -14 3 -9 0 -11 -9 -6 -8 5 -11 4 -6 -1 5 -5 14 -9 20
-9 5 0 12 -6 15 -14 3 -9 0 -11 -9 -6 -8 5 -11 4 -6 -1 5 -5 14 -9 20 -9 5 0
12 -6 15 -14 3 -9 0 -11 -8 -6 -9 5 -11 4 -6 -4 4 -6 11 -9 16 -6 4 3 17 -11
29 -31 27 -45 27 -56 0 -24 l-21 25 14 -25 c9 -14 21 -25 28 -25 8 0 15 -6 18
-14 3 -9 0 -11 -9 -6 -8 5 -11 5 -7 1 3 -4 9 -7 13 -6 4 1 19 -10 34 -24 31
-30 31 -63 1 -91 -16 -15 -20 -14 -48 10 -17 15 -53 61 -79 103 -26 42 -59 93
-74 112 -14 19 -37 55 -49 80 -13 25 -40 65 -60 90 -49 59 -74 110 -55 110 8
0 19 -9 25 -21z"/>
<path d="M10625 2370 c10 -11 20 -20 23 -20 3 0 -3 9 -13 20 -10 11 -20 20
-23 20 -3 0 3 -9 13 -20z"/>
<path d="M5773 2883 c9 -2 23 -2 30 0 6 3 -1 5 -18 5 -16 0 -22 -2 -12 -5z"/>
<path d="M5527 2869 c7 -7 15 -10 18 -7 3 3 -2 9 -12 12 -14 6 -15 5 -6 -5z"/>
<path d="M6341 2805 c1 -19 18 -51 18 -35 0 8 -4 22 -9 30 -5 8 -9 11 -9 5z"/>
<path d="M6352 2705 c0 -16 2 -22 5 -12 2 9 2 23 0 30 -3 6 -5 -1 -5 -18z"/>
<path d="M6331 2639 c-18 -51 -14 -62 37 -109 l47 -45 -45 47 c-44 48 -44 48
-33 90 14 51 10 62 -6 17z"/>
<path d="M11972 2609 c-12 -5 -29 -6 -37 -3 -29 12 -15 -15 26 -47 39 -30 40
-33 23 -46 -28 -21 -6 -46 52 -59 62 -15 131 -46 167 -77 26 -22 29 -30 25
-73 l-3 -49 34 3 c25 2 32 -1 28 -12 -6 -14 21 -46 38 -46 5 0 0 7 -11 16 -19
15 -19 16 1 8 11 -4 40 -10 65 -14 49 -8 45 -12 -10 -12 l-35 0 33 -6 c32 -7
32 -8 14 -23 -27 -23 -117 -17 -146 10 -12 12 -32 21 -44 21 -20 0 -22 5 -22
48 0 41 -4 50 -33 73 -17 14 -47 31 -65 38 l-33 14 38 23 c21 13 35 24 31 24
-4 0 -22 -9 -40 -20 -18 -11 -41 -20 -50 -20 -26 0 -71 67 -78 114 -4 34 -9
40 -25 38 -11 -2 -33 -4 -49 -4 l-29 -1 44 -38 c24 -20 46 -36 49 -34 3 1 15
-13 28 -32 l22 -35 -32 7 c-38 8 -48 16 -30 22 6 3 12 9 12 14 0 4 -7 6 -15 3
-35 -14 -2 -54 45 -54 36 0 127 -37 165 -66 34 -27 36 -32 33 -79 l-2 -50 32
3 c18 2 32 -1 32 -7 0 -18 61 -43 91 -37 16 3 31 1 34 -5 4 -5 21 3 41 21 19
16 40 30 45 30 6 0 33 -20 60 -44 84 -76 137 -106 186 -106 24 0 43 2 43 4 0
2 -43 39 -96 81 -80 65 -94 79 -80 87 13 7 26 2 53 -19 70 -56 99 -72 140 -78
83 -14 73 3 -69 117 -49 39 -55 48 -43 58 19 16 19 40 1 40 -8 0 -26 20 -40
45 -23 38 -34 47 -78 60 -28 8 -61 21 -73 29 -12 8 -57 26 -101 41 -43 15 -83
31 -88 36 -20 19 -55 9 -68 -18 -7 -16 -30 -37 -50 -48 -36 -19 -37 -19 -59 0
-26 24 -49 75 -49 109 0 28 -16 37 -48 25z m-42 -115 c0 -25 -6 -25 -37 -1
-17 12 -7 27 18 27 14 0 19 -7 19 -26z m592 -253 c-1 -7 2 -10 7 -7 5 4 12 2
15 -3 3 -5 -1 -11 -9 -15 -8 -3 -15 -9 -15 -14 0 -5 41 -41 91 -81 65 -51 85
-71 70 -71 -47 0 -139 56 -212 129 l-29 29 31 27 c31 26 57 29 51 6z"/>
<path d="M10937 2525 c12 -22 52 -61 56 -54 1 2 -13 20 -32 39 -19 19 -29 26
-24 15z"/>
<path d="M6441 2435 c1 -19 18 -51 18 -35 0 8 -4 22 -9 30 -5 8 -9 11 -9 5z"/>
<path d="M12182 2371 c18 -16 35 -28 37 -26 4 5 -51 54 -62 55 -4 0 7 -13 25
-29z"/>
<path d="M6466 2357 c3 -10 9 -15 12 -12 3 3 0 11 -7 18 -10 9 -11 8 -5 -6z"/>
<path d="M12206 2294 c-4 -14 -5 -28 -3 -31 3 -2 8 8 11 23 4 14 5 28 3 31 -3
2 -8 -8 -11 -23z"/>
<path d="M6511 2264 c0 -11 3 -14 6 -6 3 7 2 16 -1 19 -3 4 -6 -2 -5 -13z"/>
<path d="M12238 2233 c7 -3 16 -2 19 1 4 3 -2 6 -13 5 -11 0 -14 -3 -6 -6z"/>
<path d="M6521 2214 c0 -11 3 -14 6 -6 3 7 2 16 -1 19 -3 4 -6 -2 -5 -13z"/>
<path d="M6520 2141 c0 -6 4 -13 10 -16 6 -3 7 1 4 9 -7 18 -14 21 -14 7z"/>
<path d="M6531 2054 c0 -11 3 -14 6 -6 3 7 2 16 -1 19 -3 4 -6 -2 -5 -13z"/>
<path d="M12377 2060 c-3 -8 -10 -37 -16 -65 -11 -52 -76 -185 -91 -185 -5 0
2 19 15 41 13 23 21 48 18 55 -3 8 -2 22 1 31 6 15 8 15 16 3 14 -22 11 2 -3
28 -12 21 -14 18 -26 -40 -18 -90 -45 -138 -77 -138 -24 0 -109 59 -142 99
-14 17 -7 70 14 113 8 15 10 29 5 32 -5 4 -43 9 -83 12 -85 8 -122 -6 -158
-56 -12 -16 -30 -30 -40 -30 -18 0 -35 -37 -32 -70 1 -10 0 -11 -4 -2 -3 6
-10 9 -15 6 -16 -9 -59 5 -59 20 0 16 -32 46 -49 46 -19 0 -153 -138 -146
-150 3 -6 2 -10 -4 -10 -5 0 -13 5 -16 10 -12 19 -23 10 -42 -35 -14 -34 -23
-45 -38 -43 -12 2 -24 -6 -31 -21 -12 -23 -120 -80 -154 -81 -27 -1 -84 -25
-134 -58 -27 -17 -52 -33 -57 -34 -7 -3 -15 -40 -40 -195 -7 -43 -9 -104 -5
-155 8 -104 -1 -198 -20 -198 -17 0 -18 -22 -2 -38 20 -20 118 -11 196 19 12
5 48 12 80 15 31 4 69 15 83 25 14 10 29 16 32 13 5 -5 64 11 126 34 10 4 12
1 6 -8 -5 -9 -4 -11 4 -6 6 4 9 11 6 16 -9 14 9 19 92 24 44 3 88 9 97 12 18
7 79 -42 71 -56 -3 -4 3 -14 13 -21 16 -13 16 -13 2 5 -13 17 -13 19 0 14 10
-3 15 -17 14 -42 -1 -31 2 -36 21 -36 13 0 50 15 83 34 l60 34 -14 -34 c-8
-18 -14 -45 -14 -59 0 -18 -4 -24 -12 -19 -8 5 -7 0 2 -11 10 -12 14 -34 12
-64 -3 -39 0 -50 20 -66 17 -15 19 -16 9 -2 -7 9 -9 17 -4 17 12 0 42 -31 41
-43 0 -5 4 -12 8 -15 4 -4 3 -1 -1 7 -6 11 -4 13 9 8 10 -4 25 -3 35 3 19 10
91 2 91 -10 0 -4 -12 -5 -27 -2 -16 2 -25 2 -22 -2 17 -18 62 -14 116 10 80
35 103 44 103 39 0 -3 -50 -30 -111 -61 -85 -42 -114 -52 -120 -43 -5 9 -33
14 -78 14 -88 2 -101 12 -101 78 0 33 -6 57 -17 69 -15 17 -15 23 -4 51 18 44
25 87 14 87 -5 0 -18 -7 -29 -15 -10 -8 -30 -15 -43 -15 -13 0 -21 -3 -18 -7
9 -8 -24 -32 -45 -33 -12 0 -18 8 -18 23 0 16 -16 37 -48 64 l-48 40 -99 -4
c-55 -2 -107 -7 -115 -10 -8 -4 -19 -5 -23 -4 -5 1 -6 -3 -2 -9 4 -6 -5 -7
-24 -4 -31 7 -66 -10 -56 -27 3 -4 -24 -8 -60 -7 -36 0 -69 -3 -73 -7 -4 -4
11 -5 32 -2 33 5 37 4 25 -7 -8 -7 -43 -18 -79 -24 -36 -6 -96 -20 -135 -31
-38 -11 -82 -21 -98 -21 -27 0 -27 0 -11 25 13 20 15 49 12 172 -3 131 3 200
28 351 2 17 9 32 14 32 5 0 10 -15 12 -32 3 -31 4 -30 9 10 5 46 -1 52 -29 24
-28 -28 -48 -206 -44 -389 4 -143 3 -152 -16 -164 -11 -7 -18 -19 -15 -26 8
-19 57 -16 159 11 50 14 108 26 130 28 22 2 51 12 64 21 14 9 36 17 50 17 31
0 110 27 130 44 9 8 55 16 118 19 89 4 104 3 115 -12 6 -10 24 -26 40 -35 20
-14 27 -26 27 -51 0 -32 1 -33 28 -25 15 4 49 20 76 34 27 15 50 25 53 22 2
-2 -3 -21 -11 -41 -20 -46 -20 -69 -2 -84 8 -7 14 -31 14 -61 0 -64 28 -93 82
-86 44 6 106 -7 103 -22 -5 -22 227 93 244 121 4 7 59 59 121 115 63 56 133
128 156 160 23 31 50 63 59 70 8 7 19 28 22 45 4 18 15 56 26 85 35 98 18 237
-33 254 -32 11 -74 64 -84 104 -12 50 -32 81 -62 93 -27 12 -28 14 -24 67 5
55 -24 159 -53 194 -7 8 -22 35 -33 60 -13 30 -21 40 -25 30z m-985 -352 c-7
-7 -12 -8 -12 -2 0 14 12 26 19 19 2 -3 -1 -11 -7 -17z m-13 -712 c-12 -10
-60 -16 -54 -6 3 5 18 10 32 10 15 0 24 -2 22 -4z m561 -161 l-9 -50 3 52 c2
29 -1 57 -5 63 -5 5 -2 4 6 -2 11 -10 12 -23 5 -63z"/>
<path d="M6512 2005 c-17 -37 -14 -45 4 -12 9 16 14 31 11 33 -2 2 -9 -7 -15
-21z"/>
<path d="M8139 1974 c-14 -28 -33 -51 -44 -53 -11 -2 -33 -14 -50 -26 -16 -13
-49 -31 -72 -40 -34 -14 -43 -22 -43 -41 0 -19 -9 -28 -40 -40 l-40 -16 6 -72
c8 -87 -7 -148 -41 -170 -23 -15 -24 -20 -18 -79 3 -36 14 -73 25 -89 16 -23
24 -26 51 -21 46 9 97 32 97 43 0 6 -4 10 -10 10 -5 0 -10 -4 -10 -10 0 -5 -4
-10 -8 -10 -5 0 -9 7 -9 15 0 8 6 15 14 15 7 0 33 10 57 23 42 21 44 24 50 79
3 33 19 84 36 120 48 97 65 146 90 258 10 45 9 64 -2 104 l-14 48 -25 -48z
m-214 -322 c-3 -18 -16 -39 -30 -48 -22 -15 -25 -23 -25 -81 0 -53 5 -71 28
-106 43 -66 43 -66 -39 -81 -25 -5 -48 43 -50 105 -2 47 1 58 24 81 30 30 42
93 34 174 -6 54 -5 55 26 68 l32 13 3 -46 c2 -25 1 -61 -3 -79z"/>
<path d="M7913 1720 c0 -25 2 -35 4 -22 2 12 2 32 0 45 -2 12 -4 2 -4 -23z"/>
<path d="M7901 1644 c0 -11 3 -14 6 -6 3 7 2 16 -1 19 -3 4 -6 -2 -5 -13z"/>
<path d="M7851 1489 c0 -19 6 -44 15 -55 8 -10 12 -12 8 -4 -5 8 -11 33 -15
55 l-6 40 -2 -36z"/>
<path d="M6442 1805 c0 -16 2 -22 5 -12 2 9 2 23 0 30 -3 6 -5 -1 -5 -18z"/>
<path d="M6480 1724 c0 -5 7 -18 15 -28 8 -11 15 -16 15 -10 0 5 -7 18 -15 28
-8 11 -15 16 -15 10z"/>
<path d="M6516 1657 c3 -10 9 -15 12 -12 3 3 0 11 -7 18 -10 9 -11 8 -5 -6z"/>
<path d="M6560 1541 c0 -6 4 -13 10 -16 6 -3 7 1 4 9 -7 18 -14 21 -14 7z"/>
<path d="M6581 1484 c0 -11 3 -14 6 -6 3 7 2 16 -1 19 -3 4 -6 -2 -5 -13z"/>
<path d="M6593 1415 c0 -27 2 -38 4 -22 2 15 2 37 0 50 -2 12 -4 0 -4 -28z"/>
<path d="M10971 1344 c0 -11 3 -14 6 -6 3 7 2 16 -1 19 -3 4 -6 -2 -5 -13z"/>
<path d="M6602 1330 c0 -14 2 -19 5 -12 2 6 2 18 0 25 -3 6 -5 1 -5 -13z"/>
<path d="M10962 1300 c0 -14 2 -19 5 -12 2 6 2 18 0 25 -3 6 -5 1 -5 -13z"/>
<path d="M10967 1145 c3 -33 7 -62 9 -64 7 -8 2 74 -6 99 -5 16 -6 2 -3 -35z"/>
<path d="M6722 1095 c0 -16 2 -22 5 -12 2 9 2 23 0 30 -3 6 -5 -1 -5 -18z"/>
<path d="M11550 1070 l-45 -7 40 -1 c22 0 51 4 65 8 32 10 5 10 -60 0z"/>
<path d="M10958 1035 c-2 -19 0 -35 4 -35 4 0 8 16 8 35 0 19 -2 35 -4 35 -2
0 -6 -16 -8 -35z"/>
<path d="M6731 1044 c0 -11 3 -14 6 -6 3 7 2 16 -1 19 -3 4 -6 -2 -5 -13z"/>
<path d="M6740 1001 c0 -6 4 -13 10 -16 6 -3 7 1 4 9 -7 18 -14 21 -14 7z"/>
<path d="M11903 992 c-7 -4 -9 -13 -4 -21 6 -10 10 -9 15 5 8 20 4 25 -11 16z"/>
<path d="M10940 946 c0 -2 8 -10 18 -17 15 -13 16 -12 3 4 -13 16 -21 21 -21
13z"/>
<path d="M11128 943 c7 -3 16 -2 19 1 4 3 -2 6 -13 5 -11 0 -14 -3 -6 -6z"/>
<path d="M11055 930 c-13 -6 -15 -9 -5 -9 8 0 22 4 30 9 18 12 2 12 -25 0z"/>
<path d="M12025 730 c-16 -7 -17 -9 -3 -9 9 -1 20 4 23 9 7 11 7 11 -20 0z"/>
</g>
</svg>
