<?xml version="1.0" encoding="utf-8"?>
<!-- Generator: Adobe Illustrator 16.0.4, SVG Export Plug-In . SVG Version: 6.00 Build 0)  -->
<!DOCTYPE svg PUBLIC "-//W3C//DTD SVG 1.1//EN" "http://www.w3.org/Graphics/SVG/1.1/DTD/svg11.dtd">
<svg version="1.1" id="Layer_1" xmlns="http://www.w3.org/2000/svg" xmlns:xlink="http://www.w3.org/1999/xlink" x="0px" y="0px"
	 width="24px" height="24px" viewBox="0 0 24 24" enable-background="new 0 0 24 24" xml:space="preserve">
<g transform="matrix(1 0 0 -1 0 1638)">
	<path d="M14.273,1618.805H8.531c-0.359,0-0.594,0.18-0.703,0.539c-0.062,0.211-0.105,0.41-0.129,0.598
		c-0.016,0.195-0.027,0.312-0.035,0.352l9.621,9.609h0.398l-1.359-10.336c-0.062-0.383-0.262-0.613-0.598-0.691
		c-0.328-0.078-0.641-0.109-0.938-0.094C14.484,1618.797,14.312,1618.805,14.273,1618.805z M6.141,1631.707v1.16
		c0,0.141,0.109,0.266,0.328,0.375s0.48,0.164,0.785,0.164l2.203,0.188l0.797,0.914h3.492l0.82-0.914l1.934-0.141l2.543,2.555
		l1.23-1.207l-15.949-16.441l-1.465,1.465l4.301,4.301l-0.762,5.754h6.527l1.605,1.605H7.254l-0.504-0.012
		C6.344,1631.473,6.141,1631.551,6.141,1631.707z"/>
</g>
</svg>
