<?xml version="1.0" encoding="utf-8"?>
<!-- Generator: Adobe Illustrator 16.0.4, SVG Export Plug-In . SVG Version: 6.00 Build 0)  -->
<!DOCTYPE svg PUBLIC "-//W3C//DTD SVG 1.1//EN" "http://www.w3.org/Graphics/SVG/1.1/DTD/svg11.dtd">
<svg version="1.1" id="Layer_1" xmlns="http://www.w3.org/2000/svg" xmlns:xlink="http://www.w3.org/1999/xlink" x="0px" y="0px"
	 width="24px" height="24px" viewBox="0 0 24 24" enable-background="new 0 0 24 24" xml:space="preserve">
<g transform="matrix(1 0 0 -1 0 1638)">
	<path d="M13.535,1622.918c-0.43-0.43-0.957-0.652-1.582-0.668s-1.164,0.203-1.617,0.656s-0.676,0.996-0.668,1.629
		c0.008,0.625,0.23,1.152,0.668,1.582c0.438,0.422,0.969,0.641,1.594,0.656s1.164-0.203,1.617-0.656s0.672-0.992,0.656-1.617
		S13.965,1623.348,13.535,1622.918z M18.434,1624.559c0-1.289-0.316-2.449-0.949-3.48s-1.488-1.82-2.566-2.367
		c-1.078-0.562-2.242-0.793-3.492-0.691c-1.586,0.125-2.941,0.754-4.066,1.887s-1.746,2.453-1.863,3.961
		c-0.109,1.508,0.215,2.859,0.973,4.055c0.43,0.68,0.785,1.152,1.066,1.418c0.305-0.273,0.578-0.535,0.82-0.785
		s0.363-0.387,0.363-0.41l0.445-0.445l0.434,0.434l0.422-1.641l-1.652,0.422l0.434,0.434l-0.387,0.387
		c-0.172-0.188-0.402-0.555-0.691-1.102c-0.289-0.555-0.457-1.164-0.504-1.828h0.527v0.621l1.477-0.867l-1.477-0.867v0.609H7.207
		c0.031-1.117,0.422-2.105,1.172-2.965l0.422,0.434l-0.434,0.434l1.652,0.422l-0.422-1.652l-0.434,0.434l-0.434-0.434
		c0.836-0.773,1.824-1.195,2.965-1.266v0.621h-0.609l0.867,1.465l0.867-1.465h-0.621v-0.621c1.141,0.055,2.137,0.473,2.988,1.254
		l-0.445,0.445l-0.434-0.434l-0.422,1.652l1.652-0.422l-0.434-0.434l0.434-0.445c0.758,0.852,1.152,1.844,1.184,2.977h-0.574v-0.609
		l-1.465,0.867l1.465,0.867v-0.621h0.562c-0.086,1.117-0.504,2.082-1.254,2.895l-0.352-0.352l0.434-0.434l-1.652-0.422l0.422,1.641
		l0.434-0.434l0.352,0.352c-0.445,0.383-0.93,0.672-1.453,0.867l-0.258,0.117c-0.164,0.078-0.359,0.168-0.586,0.27
		s-0.387,0.18-0.48,0.234c-0.672,0.391-1.172,1.082-1.5,2.074l-0.117,0.609c0,0.016-0.227-0.047-0.68-0.188s-0.68-0.207-0.68-0.199
		c0.195,0.453,0.793,1.512,1.793,3.176l0.516,0.879l2.145-4.055c-0.055,0.023-0.129,0.051-0.223,0.082l-0.445,0.152
		c-0.453,0.156-0.672,0.207-0.656,0.152c0.102-0.422,0.285-0.754,0.551-0.996c0.203-0.219,0.652-0.461,1.348-0.727
		c1.211-0.484,2.191-1.273,2.941-2.367S18.434,1625.848,18.434,1624.559z"/>
</g>
</svg>
