<?xml version="1.0" encoding="utf-8"?>
<!-- Generator: Adobe Illustrator 16.0.4, SVG Export Plug-In . SVG Version: 6.00 Build 0)  -->
<!DOCTYPE svg PUBLIC "-//W3C//DTD SVG 1.1//EN" "http://www.w3.org/Graphics/SVG/1.1/DTD/svg11.dtd">
<svg version="1.1" id="Layer_1" xmlns="http://www.w3.org/2000/svg" xmlns:xlink="http://www.w3.org/1999/xlink" x="0px" y="0px"
	 width="24px" height="24px" viewBox="0 0 24 24" enable-background="new 0 0 24 24" xml:space="preserve">
<g transform="matrix(1 0 0 -1 0 1638)">
	<path d="M14.531,1631.016c-0.469,0-0.863-0.164-1.184-0.492c-0.328-0.328-0.492-0.727-0.492-1.195s0.164-0.863,0.492-1.184
		c0.32-0.328,0.715-0.492,1.184-0.492s0.867,0.164,1.195,0.492c0.328,0.32,0.492,0.715,0.492,1.184s-0.164,0.867-0.492,1.195
		S15,1631.016,14.531,1631.016z M14.496,1634.801c0.984,0,1.895-0.242,2.73-0.727s1.496-1.145,1.98-1.98s0.727-1.746,0.727-2.73
		c0-1.5-0.531-2.781-1.594-3.844s-2.344-1.594-3.844-1.594c-0.766,0-1.5,0.152-2.203,0.457v-1.734h-1.922v-1.922H8.449v-1.922H4.055
		l0.27,2.625l5.367,5.367c-0.43,0.812-0.645,1.688-0.645,2.625s0.242,1.828,0.727,2.672c0.484,0.836,1.148,1.496,1.992,1.98
		S13.52,1634.801,14.496,1634.801z"/>
</g>
</svg>
