<?xml version="1.0" encoding="utf-8"?>
<!-- Generator: Adobe Illustrator 16.0.4, SVG Export Plug-In . SVG Version: 6.00 Build 0)  -->
<!DOCTYPE svg PUBLIC "-//W3C//DTD SVG 1.1//EN" "http://www.w3.org/Graphics/SVG/1.1/DTD/svg11.dtd">
<svg version="1.1" id="Layer_1" xmlns="http://www.w3.org/2000/svg" xmlns:xlink="http://www.w3.org/1999/xlink" x="0px" y="0px"
	 width="24px" height="24px" viewBox="0 0 24 24" enable-background="new 0 0 24 24" xml:space="preserve">
<g transform="matrix(1 0 0 -1 0 1638)">
	<path d="M18.094,1632.891c0-0.328-0.102-0.645-0.305-0.949l-1.383-1.371l-0.855,0.809l2.238,2.25
		C17.992,1633.465,18.094,1633.219,18.094,1632.891z M17.613,1627.605h3.188c0-0.328-0.117-0.613-0.352-0.855
		s-0.512-0.363-0.832-0.363h-2.004V1627.605z M11.414,1632.562v3.188c0.328,0,0.613-0.117,0.855-0.352s0.363-0.512,0.363-0.832
		v-2.004H11.414z M17.789,1620.891c-0.328,0-0.605,0.113-0.832,0.34l-1.406,1.395l0.832,0.832l2.238-2.227
		C18.395,1621.004,18.117,1620.891,17.789,1620.891z M6.211,1633.137c0.32,0,0.594-0.113,0.82-0.34l1.406-1.406l-0.832-0.844
		l-2.215,2.25C5.617,1633.023,5.891,1633.137,6.211,1633.137z M11.402,1621.371h1.219v-3.188c-0.328,0-0.613,0.117-0.855,0.352
		s-0.363,0.512-0.363,0.832V1621.371z M4.371,1627.605h2.004v-1.219H3.188c0,0.328,0.117,0.613,0.352,0.855
		S4.051,1627.605,4.371,1627.605z M6.211,1622.039l1.406,1.406l0.832-0.832l-2.227-2.238c-0.227,0.227-0.34,0.504-0.34,0.832
		S5.992,1621.812,6.211,1622.039z M12.023,1631.25c1.18,0,2.184-0.414,3.012-1.242s1.242-1.836,1.242-3.023
		s-0.414-2.195-1.242-3.023s-1.828-1.242-3-1.242s-2.18,0.422-3.023,1.266s-1.266,1.848-1.266,3.012c0,1.18,0.418,2.184,1.254,3.012
		S10.844,1631.25,12.023,1631.25z"/>
</g>
</svg>
