<?xml version="1.0" encoding="utf-8"?>
<!-- Generator: Adobe Illustrator 18.1.1, SVG Export Plug-In . SVG Version: 6.00 Build 0)  -->
<svg version="1.1" id="Layer_1" xmlns="http://www.w3.org/2000/svg" xmlns:xlink="http://www.w3.org/1999/xlink" x="0px" y="0px"
	 viewBox="0 0 24 24" enable-background="new 0 0 24 24" xml:space="preserve">
<g>
	<path d="M19.5,18.5c-1.2-0.4-4-1.5-4-1.5c-0.9-0.3-0.9-1.1-1-2v-0.1c1.4-1.2,2.5-3.2,2.5-5.4C17,4.8,15,3,12,3C9.9,3,7,4.2,7,9.5
		c0,2.1,1.1,4.1,2.5,5.4V15c0,0.9-0.1,1.7-1,2c0,0-2.9,1.1-4,1.5C3.2,18.9,2,19.5,2,21v1h20v-1C22,19.8,21.2,19,19.5,18.5z"/>
</g>
</svg>
