<?xml version="1.0" encoding="utf-8"?>
<!-- Generator: Adobe Illustrator 16.0.4, SVG Export Plug-In . SVG Version: 6.00 Build 0)  -->
<!DOCTYPE svg PUBLIC "-//W3C//DTD SVG 1.1//EN" "http://www.w3.org/Graphics/SVG/1.1/DTD/svg11.dtd">
<svg version="1.1" id="Layer_1" xmlns="http://www.w3.org/2000/svg" xmlns:xlink="http://www.w3.org/1999/xlink" x="0px" y="0px"
	 width="24px" height="24px" viewBox="0 0 24 24" enable-background="new 0 0 24 24" xml:space="preserve">
<g transform="matrix(1 0 0 -1 0 1638)">
	<path d="M14.355,1634.332c0.773,0.672,1.676,0.992,2.707,0.961s1.906-0.371,2.625-1.02c0.719-0.641,1.148-1.422,1.289-2.344
		c0.227-1.422-0.262-2.672-1.465-3.75c-0.039-0.031-0.398-0.352-1.078-0.961c-0.68-0.602-3.605-3.211-8.777-7.828
		c-0.75-0.656-1.633-0.992-2.648-1.008s-1.898,0.301-2.648,0.949c-1.266,1.227-1.672,2.629-1.219,4.207
		c0.164,0.562,0.375,0.992,0.633,1.289s0.477,0.523,0.656,0.68c0.172,0.156,0.375,0.336,0.609,0.539s0.406,0.355,0.516,0.457
		l5.379,4.781c1.18,1.047,2.297,1.25,3.352,0.609c0.492-0.297,0.832-0.699,1.02-1.207c0.188-0.5,0.215-1.016,0.082-1.547
		c-0.141-0.531-0.418-0.98-0.832-1.348l-5.262-4.676c-0.758,0.852-0.82,1.555-0.188,2.109c1.562,1.414,3.023,2.723,4.383,3.926
		c0.258,0.219,0.305,0.465,0.141,0.738c-0.156,0.273-0.328,0.406-0.516,0.398c-0.195,0-0.418-0.109-0.668-0.328
		s-1.336-1.188-3.258-2.906s-2.938-2.637-3.047-2.754s-0.273-0.285-0.492-0.504c-0.289-0.305-0.504-0.68-0.645-1.125
		c-0.141-0.453-0.059-0.891,0.246-1.312c0.297-0.422,0.66-0.703,1.09-0.844s0.824-0.156,1.184-0.047
		c0.617,0.195,3.441,2.602,8.473,7.219l2.508,2.297c0.289,0.312,0.449,0.695,0.48,1.148s-0.062,0.852-0.281,1.195
		s-0.461,0.586-0.727,0.727c-0.281,0.141-0.57,0.203-0.867,0.188s-0.648-0.043-1.055-0.082c-0.406-0.047-0.754,0.09-1.043,0.41
		c-0.016,0.023-0.148,0.141-0.398,0.352C14.371,1634.141,14.285,1634.277,14.355,1634.332z"/>
</g>
</svg>
