<?xml version="1.0" encoding="utf-8"?>
<!-- Generator: Adobe Illustrator 18.1.1, SVG Export Plug-In . SVG Version: 6.00 Build 0)  -->
<!DOCTYPE svg PUBLIC "-//W3C//DTD SVG 1.1//EN" "http://www.w3.org/Graphics/SVG/1.1/DTD/svg11.dtd">
<svg version="1.1" id="Layer_1" xmlns="http://www.w3.org/2000/svg" xmlns:xlink="http://www.w3.org/1999/xlink" x="0px" y="0px"
	 viewBox="0 0 24 24" enable-background="new 0 0 24 24" xml:space="preserve">
<g id="Layer_1_1_" display="none">
	<g transform="matrix(1 0 0 -1 0 1638)" display="inline">
		<path d="M17.2,1634.1c-0.7,0-1-0.4-1-1.2v-1h2.1v1C18.2,1633.7,17.9,1634.1,17.2,1634.1z M17.2,1635.4c0.6,0,1.2-0.2,1.6-0.7
			s0.7-1.1,0.7-1.8v-1.1h1v-4.6h-6.6v4.6h1v1.1c0,0.7,0.2,1.3,0.7,1.8C16,1635.2,16.6,1635.4,17.2,1635.4z M12.8,1626.1h1.6
			l-7.5-6.8l-4.8-0.5l1,4.7l9.7,8.7v-1.6l-8.5-7.6c0.2-0.1,0.5-0.4,0.9-0.8l7.5,6.8L12.8,1626.1L12.8,1626.1z"/>
	</g>
</g>
<g id="Layer_2">
	<g>
		<path d="M21,4V3c0,0,0-3-3-3s-3,3-3,3v1h-1v6h8V4H21z M19.5,4h-3V3c0,0,0-1.5,1.5-1.5S19.5,3,19.5,3V4z"/>
	</g>
</g>
</svg>
