<?xml version="1.0" encoding="utf-8"?>
<!-- Generator: Adobe Illustrator 16.0.4, SVG Export Plug-In . SVG Version: 6.00 Build 0)  -->
<!DOCTYPE svg PUBLIC "-//W3C//DTD SVG 1.1//EN" "http://www.w3.org/Graphics/SVG/1.1/DTD/svg11.dtd">
<svg version="1.1" id="Layer_1" xmlns="http://www.w3.org/2000/svg" xmlns:xlink="http://www.w3.org/1999/xlink" x="0px" y="0px"
	 width="24px" height="24px" viewBox="0 0 24 24" enable-background="new 0 0 24 24" xml:space="preserve">
<g transform="matrix(1 0 0 -1 0 1638)">
	<path d="M12,1634.93c0.734,0,1.363-0.195,1.887-0.586c1.023-0.75,1.535-1.844,1.535-3.281c0-1.43-0.336-2.609-1.008-3.539
		s-1.477-1.395-2.414-1.395s-1.742,0.465-2.414,1.395s-1.008,2.109-1.008,3.539c0,1.438,0.508,2.531,1.523,3.281
		C10.633,1634.734,11.266,1634.93,12,1634.93z M19.418,1627.207v-8.402H6.27c-0.461,0-0.855,0.164-1.184,0.492
		s-0.492,0.727-0.492,1.195v6.715h3.773c0.32-0.664,0.828-1.207,1.523-1.629s1.379-0.633,2.051-0.633
		c0.664,0,1.355,0.203,2.074,0.609s1.262,0.957,1.629,1.652H19.418z"/>
</g>
</svg>
