<?xml version="1.0" encoding="utf-8"?>
<!-- Generator: Adobe Illustrator 16.0.4, SVG Export Plug-In . SVG Version: 6.00 Build 0)  -->
<!DOCTYPE svg PUBLIC "-//W3C//DTD SVG 1.1//EN" "http://www.w3.org/Graphics/SVG/1.1/DTD/svg11.dtd">
<svg version="1.1" id="Layer_1" xmlns="http://www.w3.org/2000/svg" xmlns:xlink="http://www.w3.org/1999/xlink" x="0px" y="0px"
	 width="24px" height="24px" viewBox="0 0 24 24" enable-background="new 0 0 24 24" xml:space="preserve">
<g transform="matrix(1 0 0 -1 0 1638)">
	<path d="M12.961,1625.297l6.609,6.645v-6.668c-0.359-0.602-0.945-1.039-1.758-1.312c-1.094-0.367-2.336-0.145-3.727,0.668
		C13.719,1624.871,13.344,1625.094,12.961,1625.297z M9.117,1619.391c0-0.234-0.109-0.398-0.328-0.492s-0.438-0.133-0.656-0.117
		l-0.328,0.035v1.348l1.312,1.301V1619.391z M15.598,1632.469l3.645,3.621l1.395-1.395L4.371,1618.43l-1.395,1.406l4.828,4.863
		v9.809c1.484,0.086,3.211-0.293,5.18-1.137C14.125,1632.887,14.996,1632.586,15.598,1632.469z"/>
</g>
</svg>
