<?xml version="1.0" encoding="utf-8"?>
<!-- Generator: Adobe Illustrator 16.0.4, SVG Export Plug-In . SVG Version: 6.00 Build 0)  -->
<!DOCTYPE svg PUBLIC "-//W3C//DTD SVG 1.1//EN" "http://www.w3.org/Graphics/SVG/1.1/DTD/svg11.dtd">
<svg version="1.1" id="Layer_1" xmlns="http://www.w3.org/2000/svg" xmlns:xlink="http://www.w3.org/1999/xlink" x="0px" y="0px"
	 width="24px" height="24px" viewBox="0 0 24 24" enable-background="new 0 0 24 24" xml:space="preserve">
<g transform="matrix(1 0 0 -1 0 1638)">
	<path d="M18.246,1638.598h1.488v-2.32h1.793c0.148,0.008,0.277-0.043,0.387-0.152s0.164-0.242,0.164-0.398v-0.879h-2.344v-2.414
		h-1.5v2.414h-2.309v1.43h2.32V1638.598z M12.023,1633.301c-1.109-0.008-2.055-0.402-2.836-1.184s-1.176-1.727-1.184-2.836
		c0.008-1.109,0.402-2.059,1.184-2.848s1.727-1.184,2.836-1.184s2.059,0.395,2.848,1.184s1.184,1.738,1.184,2.848
		s-0.395,2.055-1.184,2.836S13.133,1633.293,12.023,1633.301z M14.871,1633.805h2.32v-2.414h1.957
		c0.383-1.25,0.41-2.539,0.082-3.867s-0.984-2.484-1.969-3.469l-5.25-5.25l-5.238,5.215c-0.953,0.945-1.598,2.059-1.934,3.34
		s-0.332,2.555,0.012,3.82c0.344,1.273,1.023,2.418,2.039,3.434s2.266,1.668,3.75,1.957s2.895,0.148,4.23-0.422V1633.805z"/>
</g>
</svg>
