<?xml version="1.0" encoding="utf-8"?>
<!-- Generator: Adobe Illustrator 16.0.4, SVG Export Plug-In . SVG Version: 6.00 Build 0)  -->
<!DOCTYPE svg PUBLIC "-//W3C//DTD SVG 1.1//EN" "http://www.w3.org/Graphics/SVG/1.1/DTD/svg11.dtd">
<svg version="1.1" id="Layer_1" xmlns="http://www.w3.org/2000/svg" xmlns:xlink="http://www.w3.org/1999/xlink" x="0px" y="0px"
	 width="24px" height="24px" viewBox="0 0 24 24" enable-background="new 0 0 24 24" xml:space="preserve">
<g transform="matrix(1 0 0 -1 0 1638)">
	<path d="M12,1625.461l3.504-3.492l1.43,1.43l-3.492,3.504l3.492,3.504l-1.43,1.43L12,1628.344l-3.363,3.375l-1.453-1.453
		l3.375-3.363l-3.492-3.504l1.43-1.43L12,1625.461z M12,1635.047c1.109,0,2.164-0.215,3.164-0.645s1.867-1.012,2.602-1.746
		s1.312-1.602,1.734-2.602c0.43-1,0.645-2.051,0.645-3.152s-0.215-2.152-0.645-3.152c-0.422-1-1-1.867-1.734-2.602
		s-1.602-1.316-2.602-1.746s-2.055-0.645-3.164-0.645s-2.164,0.215-3.164,0.645s-1.867,1.012-2.602,1.746s-1.312,1.602-1.734,2.602
		c-0.43,1-0.645,2.051-0.645,3.152s0.215,2.152,0.645,3.152c0.422,1,1,1.867,1.734,2.602s1.602,1.316,2.602,1.746
		S10.891,1635.047,12,1635.047z"/>
</g>
</svg>
