<?xml version="1.0" encoding="utf-8"?>
<!-- Generator: Adobe Illustrator 16.0.4, SVG Export Plug-In . SVG Version: 6.00 Build 0)  -->
<!DOCTYPE svg PUBLIC "-//W3C//DTD SVG 1.1//EN" "http://www.w3.org/Graphics/SVG/1.1/DTD/svg11.dtd">
<svg version="1.1" id="Layer_1" xmlns="http://www.w3.org/2000/svg" xmlns:xlink="http://www.w3.org/1999/xlink" x="0px" y="0px"
	 width="24px" height="24px" viewBox="0 0 24 24" enable-background="new 0 0 24 24" xml:space="preserve">
<g transform="matrix(1 0 0 -1 0 1638)">
	<path d="M6.094,1628.027h16.57v-2.613H6.094V1628.027z M2.848,1634.848c0.422,0,0.781-0.148,1.078-0.445
		c0.297-0.289,0.445-0.645,0.445-1.066s-0.148-0.781-0.445-1.078s-0.656-0.445-1.078-0.445s-0.781,0.148-1.078,0.445
		s-0.445,0.656-0.445,1.078s0.148,0.777,0.445,1.066C2.066,1634.699,2.426,1634.848,2.848,1634.848z M6.094,1621.418h16.57v-2.613
		H6.094V1621.418z M2.848,1628.238c0.422,0,0.781-0.148,1.078-0.445c0.297-0.289,0.445-0.645,0.445-1.066s-0.148-0.781-0.445-1.078
		s-0.656-0.445-1.078-0.445s-0.781,0.148-1.078,0.445s-0.445,0.656-0.445,1.078s0.148,0.777,0.445,1.066
		C2.066,1628.09,2.426,1628.238,2.848,1628.238z M2.848,1621.629c0.422,0,0.781-0.148,1.078-0.445
		c0.297-0.289,0.445-0.645,0.445-1.066s-0.148-0.781-0.445-1.078s-0.656-0.445-1.078-0.445s-0.781,0.148-1.078,0.445
		s-0.445,0.656-0.445,1.078s0.148,0.777,0.445,1.066C2.066,1621.48,2.426,1621.629,2.848,1621.629z M6.094,1634.637h15.211
		c0.375,0,0.695-0.133,0.961-0.398s0.398-0.586,0.398-0.961v-1.254H6.094V1634.637z"/>
</g>
</svg>
