<?xml version="1.0" encoding="utf-8"?>
<!-- Generator: Adobe Illustrator 18.1.1, SVG Export Plug-In . SVG Version: 6.00 Build 0)  -->
<!DOCTYPE svg PUBLIC "-//W3C//DTD SVG 1.1//EN" "http://www.w3.org/Graphics/SVG/1.1/DTD/svg11.dtd">
<svg version="1.1" id="Layer_1" xmlns="http://www.w3.org/2000/svg" xmlns:xlink="http://www.w3.org/1999/xlink" x="0px" y="0px"
	 viewBox="0 0 24 24" enable-background="new 0 0 24 24" xml:space="preserve">
<g>
	<g>
		<polygon points="24,4 20,4 20,0 18,0 18,4 14,4 14,6 18,6 18,10 20,10 20,6 24,6 		"/>
	</g>
</g>
<path d="M18,11h-1v-1V7.1c0,0-0.1-0.1-0.1-0.1H14h-1V6V5.1C12.7,5,12.3,5,12,5c-3.9,0-7,3.1-7,7c0,1.4,0.4,2.6,1.1,3.7L12,23
	l5.9-7.3c0.7-1.1,1.1-2.3,1.1-3.7c0-0.3,0-0.7-0.1-1H18z M12,16c-2.2,0-4-1.8-4-4s1.8-4,4-4s4,1.8,4,4S14.2,16,12,16z"/>
</svg>
