<?xml version="1.0" encoding="utf-8"?>
<!-- Generator: Adobe Illustrator 16.0.4, SVG Export Plug-In . SVG Version: 6.00 Build 0)  -->
<!DOCTYPE svg PUBLIC "-//W3C//DTD SVG 1.1//EN" "http://www.w3.org/Graphics/SVG/1.1/DTD/svg11.dtd">
<svg version="1.1" id="Layer_1" xmlns="http://www.w3.org/2000/svg" xmlns:xlink="http://www.w3.org/1999/xlink" x="0px" y="0px"
	 width="24px" height="24px" viewBox="0 0 24 24" enable-background="new 0 0 24 24" xml:space="preserve">
<g transform="matrix(1 0 0 -1 0 1638)">
	<path d="M17.66,1632.586v2.906h1.863v-2.906h2.262c0.195,0,0.359-0.066,0.492-0.199s0.199-0.297,0.199-0.492v-1.102h-2.953v-3.035
		h-1.875v3.035h-2.906v1.793H17.66z M1.535,1621.066v11.52h12.094v-1.816H3.316v-8.484c-0.008-0.383,0.129-0.715,0.41-0.996
		s0.617-0.422,1.008-0.422h12.914v5.426h1.828v-7.488H3.797c-0.625,0-1.156,0.223-1.594,0.668S1.543,1620.449,1.535,1621.066z"/>
</g>
</svg>
