<?xml version="1.0" encoding="utf-8"?>
<!-- Generator: Adobe Illustrator 18.1.1, SVG Export Plug-In . SVG Version: 6.00 Build 0)  -->
<svg version="1.1" id="Layer_1" xmlns="http://www.w3.org/2000/svg" xmlns:xlink="http://www.w3.org/1999/xlink" x="0px" y="0px"
	 viewBox="0 0 24 24" enable-background="new 0 0 24 24" xml:space="preserve">
<g>
	<path d="M15.4,7.8c-2-0.9-2.3-2.5-2.4-2.8c0.1,0.1,2,1,2,1l-3-5L9,6l2-1c0,0,0,0.8,0.6,2.1c0.8,1.5,2.2,2.2,2.2,2.2
		s1.6,0.7,2.2,1.3l-0.7,0.7l-0.5-0.5l-0.4,1.8l1.8-0.4l-0.5-0.5l0.7-0.7c0.9,1,1.5,2.3,1.6,3.8h-1V14l-1.5,1l1.5,1v-0.8h1
		c-0.1,1.5-0.6,2.8-1.6,3.8l-0.7-0.7l0.5-0.5l-1.8-0.4l0.4,1.8l0.5-0.5l0.7,0.7c-1,0.9-2.3,1.5-3.8,1.6v-1H13l-1-1.5L11,20h0.8v1
		c-1.5-0.1-2.8-0.6-3.8-1.6l0.7-0.7l0.5,0.5l0.4-1.8l-1.8,0.4l0.5,0.5l-0.7,0.7c-0.9-1-1.5-2.3-1.6-3.8h1V16l1.5-1L7,14v0.8H6
		c0.1-1.5,0.6-2.8,1.6-3.8l0.7,0.7l-0.5,0.5l1.8,0.4l-0.4-1.8l-0.5,0.5l-0.7-0.7c0,0,0,0,0,0L6.5,9.2C5,10.6,4,12.7,4,15
		c0,4.4,3.6,8,8,8s8-3.6,8-8C20,11.8,18.1,9.1,15.4,7.8z"/>
	<circle cx="12" cy="15" r="3"/>
</g>
</svg>
