<?xml version="1.0" encoding="utf-8"?>
<!-- Generator: Adobe Illustrator 16.0.4, SVG Export Plug-In . SVG Version: 6.00 Build 0)  -->
<!DOCTYPE svg PUBLIC "-//W3C//DTD SVG 1.1//EN" "http://www.w3.org/Graphics/SVG/1.1/DTD/svg11.dtd">
<svg version="1.1" id="Layer_1" xmlns="http://www.w3.org/2000/svg" xmlns:xlink="http://www.w3.org/1999/xlink" x="0px" y="0px"
	 width="24px" height="24px" viewBox="0 0 24 24" enable-background="new 0 0 24 24" xml:space="preserve">
<g transform="matrix(1 0 0 -1 0 1638)">
	<path d="M12,1632.445c-0.773,0-1.434-0.273-1.98-0.82s-0.82-1.207-0.82-1.98s0.273-1.434,0.82-1.98s1.207-0.82,1.98-0.82
		s1.434,0.273,1.98,0.82s0.82,1.207,0.82,1.98s-0.273,1.434-0.82,1.98S12.773,1632.445,12,1632.445z M12,1623.422
		c0.219,0,0.562-0.211,1.031-0.633s0.762-0.664,0.879-0.727v-4.336l-1.922,1.898l-1.91-1.887v4.324
		c0.125,0.062,0.422,0.305,0.891,0.727S11.781,1623.422,12,1623.422z M17.824,1629.645c0-0.234-0.246-0.473-0.738-0.715
		c-0.492-0.234-0.77-0.438-0.832-0.609s-0.031-0.398,0.094-0.68s0.238-0.559,0.34-0.832c0.102-0.266,0.109-0.461,0.023-0.586
		c-0.086-0.133-0.281-0.191-0.586-0.176s-0.586,0.047-0.844,0.094s-0.48,0.016-0.668-0.094c-0.133-0.109-0.254-0.445-0.363-1.008
		s-0.258-0.875-0.445-0.938c-0.172-0.062-0.473,0.105-0.902,0.504c-0.43,0.391-0.723,0.586-0.879,0.586s-0.355-0.102-0.598-0.305
		c-0.234-0.203-0.461-0.395-0.68-0.574s-0.41-0.246-0.574-0.199c-0.172,0.039-0.312,0.348-0.422,0.926s-0.23,0.914-0.363,1.008
		s-0.496,0.109-1.09,0.047c-0.594-0.07-0.93-0.027-1.008,0.129c-0.086,0.125-0.078,0.32,0.023,0.586
		c0.102,0.273,0.215,0.551,0.34,0.832c0.133,0.281,0.176,0.484,0.129,0.609s-0.156,0.25-0.328,0.375s-0.352,0.227-0.539,0.305
		c-0.188,0.094-0.359,0.203-0.516,0.328s-0.23,0.254-0.223,0.387c0,0.234,0.246,0.473,0.738,0.715
		c0.492,0.234,0.773,0.445,0.844,0.633c0.062,0.172-0.027,0.523-0.27,1.055s-0.316,0.867-0.223,1.008s0.297,0.203,0.609,0.188
		c0.305-0.016,0.586-0.047,0.844-0.094s0.48-0.016,0.668,0.094c0.133,0.094,0.254,0.43,0.363,1.008s0.258,0.891,0.445,0.938
		c0.188,0.055,0.492-0.113,0.914-0.504s0.719-0.586,0.891-0.586s0.469,0.195,0.891,0.586s0.727,0.559,0.914,0.504
		c0.188-0.047,0.336-0.359,0.445-0.938s0.23-0.914,0.363-1.008s0.496-0.109,1.09-0.047c0.594,0.07,0.93,0.027,1.008-0.129
		c0.109-0.148,0.043-0.488-0.199-1.02s-0.34-0.859-0.293-0.984c0.047-0.141,0.156-0.273,0.328-0.398s0.352-0.227,0.539-0.305
		C17.578,1630.125,17.824,1629.887,17.824,1629.645z"/>
</g>
</svg>
