<?xml version="1.0" encoding="utf-8"?>
<!-- Generator: Adobe Illustrator 16.0.4, SVG Export Plug-In . SVG Version: 6.00 Build 0)  -->
<!DOCTYPE svg PUBLIC "-//W3C//DTD SVG 1.1//EN" "http://www.w3.org/Graphics/SVG/1.1/DTD/svg11.dtd">
<svg version="1.1" id="Layer_1" xmlns="http://www.w3.org/2000/svg" xmlns:xlink="http://www.w3.org/1999/xlink" x="0px" y="0px"
	 width="24px" height="24px" viewBox="0 0 24 24" enable-background="new 0 0 24 24" xml:space="preserve">
<g transform="matrix(1 0 0 -1 0 1638)">
	<path d="M7.488,1627.078h8.977v1.172H7.488V1627.078z M7.488,1624.113h8.977v1.148H7.488V1624.113z M7.488,1621.16h8.977v1.184
		H7.488V1621.16z M11.414,1631.203H7.488v-1.172h3.926V1631.203z M11.414,1634.168H7.488v-1.172h3.926V1634.168z M16.477,1636.477
		h0.785c0.477,0,0.855-0.129,1.137-0.387s0.422-0.625,0.422-1.102v-16.184H6.691c-0.469,0-0.84,0.137-1.113,0.41
		s-0.41,0.641-0.41,1.102v16.16h8.051v-6.41l1.605,2.027l1.652-2.027V1636.477z"/>
</g>
</svg>
