<?xml version="1.0" encoding="utf-8"?>
<!-- Generator: Adobe Illustrator 18.1.1, SVG Export Plug-In . SVG Version: 6.00 Build 0)  -->
<!DOCTYPE svg PUBLIC "-//W3C//DTD SVG 1.1//EN" "http://www.w3.org/Graphics/SVG/1.1/DTD/svg11.dtd">
<svg version="1.1" id="Layer_1" xmlns="http://www.w3.org/2000/svg" xmlns:xlink="http://www.w3.org/1999/xlink" x="0px" y="0px"
	 viewBox="0 0 24 24" enable-background="new 0 0 24 24" xml:space="preserve">
<g transform="matrix(1 0 0 -1 0 1638)">
	<path d="M22.3,1631.7c0-0.2,0-0.3-0.1-0.3c-0.7-0.1-1.2-0.5-1.6-1.1c-0.1-0.2-0.2-0.4-0.3-0.7l-4.6-10.1c-0.1-0.2-0.2-0.3-0.2-0.3
		s-0.1-0.1-0.2-0.1c-0.2,0-0.4,0.1-0.5,0.4l-2.6,5.5l-2.8-5.5c-0.1-0.3-0.3-0.4-0.5-0.4s-0.4,0.1-0.5,0.4l-4.3,10.1
		c-0.3,0.8-0.6,1.2-0.8,1.4c-0.2,0.2-0.5,0.3-1,0.4c-0.1,0.1-0.1,0.2-0.1,0.3c0,0.2,0,0.3,0.1,0.3c0.3,0,1,0,2.1,0s1.8,0,2.2,0
		c0.1-0.1,0.1-0.2,0.1-0.3c0-0.2,0-0.3-0.1-0.3c-0.6-0.1-1-0.2-1.1-0.4c-0.1-0.2,0-0.6,0.3-1.2l3.6-8.2h0.1l2.2,4.4l-1.7,3.6
		c-0.3,0.7-0.6,1.2-0.8,1.4s-0.5,0.3-0.9,0.4c-0.1,0.1-0.1,0.2-0.1,0.3c0,0.2,0,0.3,0.1,0.3c0.3,0,0.9,0,1.8,0s1.5,0,1.8,0
		c0.1-0.1,0.1-0.2,0.1-0.3c0-0.2,0-0.3-0.1-0.3c-0.4-0.1-0.6-0.2-0.6-0.4c0-0.2,0.1-0.6,0.4-1.2l1-1.9l1,1.9
		c0.3,0.6,0.5,0.9,0.5,1.1c0,0.2,0,0.3-0.1,0.4c-0.1,0.1-0.3,0.1-0.5,0.1c0,0.1-0.1,0.2-0.1,0.3c0,0.2,0,0.3,0.1,0.3
		c0.3,0,0.8,0,1.5,0s1.2,0,1.5,0c0.1-0.1,0.1-0.2,0.1-0.3c0-0.2,0-0.3-0.1-0.3c-0.5-0.1-0.8-0.2-1.1-0.5c-0.3-0.3-0.6-0.7-0.8-1.3
		l-1.3-2.8l2.5-5.2h0.1l3.7,8.1c0.3,0.5,0.3,0.9,0.2,1.2c-0.1,0.3-0.5,0.4-1.1,0.5c-0.1,0.1-0.1,0.2-0.1,0.3s0,0.3,0.1,0.3
		c0.4,0,1,0,1.9,0c0.9,0,1.5,0,1.8,0C22.3,1631.9,22.3,1631.8,22.3,1631.7z"/>
</g>
</svg>
