<?xml version="1.0" encoding="utf-8"?>
<!-- Generator: Adobe Illustrator 16.0.4, SVG Export Plug-In . SVG Version: 6.00 Build 0)  -->
<!DOCTYPE svg PUBLIC "-//W3C//DTD SVG 1.1//EN" "http://www.w3.org/Graphics/SVG/1.1/DTD/svg11.dtd">
<svg version="1.1" id="Layer_1" xmlns="http://www.w3.org/2000/svg" xmlns:xlink="http://www.w3.org/1999/xlink" x="0px" y="0px"
	 width="24px" height="24px" viewBox="0 0 24 24" enable-background="new 0 0 24 24" xml:space="preserve">
<g transform="matrix(1 0 0 -1 0 1638)">
	<path d="M13.066,1629.422L12,1632.398l-1.055-2.977l-2.859,1.359l1.359-2.859l-2.977-1.055l2.977-1.066l-1.359-2.859l2.859,1.359
		l1.055-2.977l1.066,2.977l2.848-1.359l-1.348,2.859l2.977,1.066l-2.977,1.055l1.348,2.859L13.066,1629.422z M12.281,1634.918
		c1.281,0,2.535-0.359,3.762-1.078c1.234-0.727,2.211-1.707,2.93-2.941s1.078-2.578,1.078-4.031s-0.359-2.805-1.078-4.055
		c-0.719-1.234-1.695-2.211-2.93-2.93c-1.227-0.719-2.48-1.078-3.762-1.078s-2.418,0.211-3.41,0.633s-1.848,0.996-2.566,1.723
		c-0.719,0.711-1.289,1.566-1.711,2.566s-0.637,2.047-0.645,3.141c0.008,1.094,0.223,2.137,0.645,3.129s0.992,1.848,1.711,2.566
		s1.574,1.289,2.566,1.711S11,1634.91,12.281,1634.918z"/>
</g>
</svg>
