<?xml version="1.0" encoding="utf-8"?>
<!-- Generator: Adobe Illustrator 18.1.1, SVG Export Plug-In . SVG Version: 6.00 Build 0)  -->
<!DOCTYPE svg PUBLIC "-//W3C//DTD SVG 1.1//EN" "http://www.w3.org/Graphics/SVG/1.1/DTD/svg11.dtd">
<svg version="1.1" id="Layer_1" xmlns="http://www.w3.org/2000/svg" xmlns:xlink="http://www.w3.org/1999/xlink" x="0px" y="0px"
	 viewBox="0 0 24 24" enable-background="new 0 0 24 24" xml:space="preserve">
<g>
	<path d="M20.8,20h-8.1v-0.8c0.4,0,0.8-0.1,1.3-0.2c0.5-0.1,0.8-0.2,0.8-0.4c0-0.1,0-0.1,0-0.2c0-0.1,0-0.2-0.1-0.3L13.4,15H8.3
		c-0.1,0.3-0.2,0.6-0.4,1c-0.1,0.4-0.3,0.7-0.4,1c-0.1,0.4-0.2,0.7-0.2,0.8c0,0.2,0,0.3,0,0.4c0,0.2,0.2,0.4,0.5,0.6
		c0.3,0.2,0.9,0.3,1.7,0.3V20H3.4v-0.8c0.2,0,0.5-0.1,0.8-0.1c0.3-0.1,0.5-0.1,0.7-0.2c0.3-0.2,0.5-0.4,0.7-0.6
		C5.8,18,6,17.7,6.1,17.4c0.8-2,1.6-3.9,2.4-5.9c0.8-2,1.7-4.1,2.7-6.5h2.1c1.4,3.3,2.4,6,3.2,7.9c0.8,1.9,1.4,3.6,2,4.8
		c0.1,0.2,0.2,0.4,0.3,0.6c0.1,0.2,0.3,0.3,0.6,0.5c0.2,0.1,0.4,0.2,0.7,0.3c0.3,0.1,0.5,0.1,0.7,0.1V20z M13,14l-2.1-5.3L8.8,14H13
		z"/>
</g>
</svg>
