<?xml version="1.0" encoding="utf-8"?>
<!-- Generator: Adobe Illustrator 19.1.0, SVG Export Plug-In . SVG Version: 6.00 Build 0)  -->
<!DOCTYPE svg PUBLIC "-//W3C//DTD SVG 1.1//EN" "http://www.w3.org/Graphics/SVG/1.1/DTD/svg11.dtd">
<svg version="1.1" id="Layer_1" xmlns="http://www.w3.org/2000/svg" xmlns:xlink="http://www.w3.org/1999/xlink" x="0px" y="0px"
	 viewBox="0 0 24 24" style="enable-background:new 0 0 24 24;" xml:space="preserve">
<g>
	<path d="M17,11v2h-2l3.6,3.6c0.9-1.3,1.4-2.9,1.4-4.6c0-4.4-3.6-8-8-8c-1.7,0-3.3,0.5-4.6,1.4L13,11H17z"/>
	<path d="M4,4L3,5l2.4,2.4C4.5,8.7,4,10.3,4,12c0,4.4,3.6,8,8,8c1.7,0,3.3-0.5,4.6-1.4L19,21l1-1L4,4z M7,13v-2h2l2,2H7z"/>
</g>
</svg>
