<?xml version="1.0" encoding="utf-8"?>
<!-- Generator: Adobe Illustrator 16.0.4, SVG Export Plug-In . SVG Version: 6.00 Build 0)  -->
<!DOCTYPE svg PUBLIC "-//W3C//DTD SVG 1.1//EN" "http://www.w3.org/Graphics/SVG/1.1/DTD/svg11.dtd">
<svg version="1.1" id="Layer_1" xmlns="http://www.w3.org/2000/svg" xmlns:xlink="http://www.w3.org/1999/xlink" x="0px" y="0px"
	 width="24px" height="24px" viewBox="0 0 24 24" enable-background="new 0 0 24 24" xml:space="preserve">
<g transform="matrix(1 0 0 -1 0 1638)">
	<path d="M11.742,1632.129c-0.25,0.008-0.461-0.074-0.633-0.246s-0.254-0.383-0.246-0.633s0.098-0.461,0.27-0.633
		s0.379-0.258,0.621-0.258s0.449,0.086,0.621,0.258s0.258,0.379,0.258,0.621s-0.086,0.449-0.258,0.621
		S11.992,1632.121,11.742,1632.129z M8.789,1632.129c-0.25,0.008-0.461-0.074-0.633-0.246s-0.254-0.383-0.246-0.633
		s0.098-0.461,0.27-0.633s0.379-0.258,0.621-0.258s0.449,0.086,0.621,0.258s0.258,0.379,0.258,0.621s-0.086,0.449-0.258,0.621
		S9.039,1632.121,8.789,1632.129z M5.824,1632.129c-0.242,0.008-0.449-0.074-0.621-0.246s-0.258-0.383-0.258-0.633
		s0.086-0.461,0.258-0.633s0.383-0.258,0.633-0.258s0.461,0.086,0.633,0.258s0.254,0.379,0.246,0.621s-0.098,0.449-0.27,0.621
		S6.066,1632.121,5.824,1632.129z M19.078,1620.539v8.625H4.945v-7.57c0-0.297,0.102-0.547,0.305-0.75s0.453-0.305,0.75-0.305
		H19.078z M3.188,1633.324h17.637v-14.52H4.875c-0.469,0-0.867,0.164-1.195,0.492s-0.492,0.727-0.492,1.195V1633.324z"/>
</g>
</svg>
