<?xml version="1.0" encoding="utf-8"?>
<!-- Generator: Adobe Illustrator 18.1.1, SVG Export Plug-In . SVG Version: 6.00 Build 0)  -->
<!DOCTYPE svg PUBLIC "-//W3C//DTD SVG 1.1//EN" "http://www.w3.org/Graphics/SVG/1.1/DTD/svg11.dtd">
<svg version="1.1" id="Layer_1" xmlns="http://www.w3.org/2000/svg" xmlns:xlink="http://www.w3.org/1999/xlink" x="0px" y="0px"
	 viewBox="0 0 24 24" enable-background="new 0 0 24 24" xml:space="preserve">
<path d="M16.4,16.4c1-1.2,1.6-2.7,1.6-4.4c0-3.9-3.1-7-7-7s-7,3.1-7,7s3.1,7,7,7c1.2,0,2.3-0.3,3.2-0.8L17,21c1.4,1.4,2.5,1.5,4,0
	L16.4,16.4z M6,12c0-2.8,2.2-5,5-5s5,2.2,5,5s-2.2,5-5,5S6,14.7,6,12z"/>
</svg>
