<?xml version="1.0" encoding="utf-8"?>
<!-- Generator: Adobe Illustrator 16.0.4, SVG Export Plug-In . SVG Version: 6.00 Build 0)  -->
<!DOCTYPE svg PUBLIC "-//W3C//DTD SVG 1.1//EN" "http://www.w3.org/Graphics/SVG/1.1/DTD/svg11.dtd">
<svg version="1.1" id="Layer_1" xmlns="http://www.w3.org/2000/svg" xmlns:xlink="http://www.w3.org/1999/xlink" x="0px" y="0px"
	 width="24px" height="24px" viewBox="0 0 24 24" enable-background="new 0 0 24 24" xml:space="preserve">
<g transform="matrix(1 0 0 -1 0 1638)">
	<path d="M15.422,1631.039c-0.375,0-0.695-0.133-0.961-0.398s-0.395-0.578-0.387-0.938c-0.008-0.375,0.121-0.695,0.387-0.961
		s0.586-0.395,0.961-0.387c0.375-0.008,0.688,0.121,0.938,0.387c0.266,0.266,0.398,0.586,0.398,0.961s-0.133,0.688-0.398,0.938
		C16.109,1630.906,15.797,1631.039,15.422,1631.039z M15.422,1624.219c-0.375,0-0.695-0.133-0.961-0.398s-0.395-0.578-0.387-0.938
		c-0.008-0.375,0.121-0.695,0.387-0.961s0.586-0.395,0.961-0.387c0.375-0.008,0.688,0.121,0.938,0.387
		c0.266,0.266,0.398,0.586,0.398,0.961s-0.133,0.688-0.398,0.938C16.109,1624.086,15.797,1624.219,15.422,1624.219z M8.602,1631.039
		c-0.375,0-0.695-0.133-0.961-0.398s-0.395-0.578-0.387-0.938c-0.008-0.375,0.121-0.695,0.387-0.961s0.586-0.395,0.961-0.387
		c0.375-0.008,0.688,0.121,0.938,0.387c0.266,0.266,0.398,0.586,0.398,0.961s-0.133,0.688-0.398,0.938
		C9.289,1630.906,8.977,1631.039,8.602,1631.039z M12,1627.629c-0.375,0.008-0.688-0.121-0.938-0.387
		c-0.266-0.266-0.398-0.586-0.398-0.961s0.133-0.688,0.398-0.938c0.266-0.266,0.578-0.398,0.938-0.398
		c0.375,0,0.695,0.133,0.961,0.398s0.395,0.578,0.387,0.938c0.008,0.375-0.121,0.695-0.387,0.961S12.375,1627.637,12,1627.629z
		 M8.766,1624.219c-0.375,0-0.695-0.133-0.961-0.398s-0.395-0.578-0.387-0.938c-0.008-0.375,0.121-0.695,0.387-0.961
		s0.586-0.395,0.961-0.387c0.375-0.008,0.688,0.121,0.938,0.387c0.266,0.266,0.398,0.586,0.398,0.961s-0.133,0.688-0.398,0.938
		C9.453,1624.086,9.141,1624.219,8.766,1624.219z M4.523,1633.77h13.289c0.461,0,0.855-0.164,1.184-0.492s0.492-0.723,0.492-1.184
		v-13.289H6.199c-0.461,0-0.855,0.164-1.184,0.492s-0.492,0.723-0.492,1.184V1633.77z"/>
</g>
</svg>
