<?xml version="1.0" encoding="utf-8"?>
<!-- Generator: Adobe Illustrator 18.1.1, SVG Export Plug-In . SVG Version: 6.00 Build 0)  -->
<!DOCTYPE svg PUBLIC "-//W3C//DTD SVG 1.1//EN" "http://www.w3.org/Graphics/SVG/1.1/DTD/svg11.dtd">
<svg version="1.1" id="Layer_1" xmlns="http://www.w3.org/2000/svg" xmlns:xlink="http://www.w3.org/1999/xlink" x="0px" y="0px"
	 viewBox="0 0 24 24" enable-background="new 0 0 24 24" xml:space="preserve">
<path d="M0,20h24v1H0V20z"/>
<polygon points="6,12 5,11 3,13 1,11 0,12 2,14 0,16 1,17 3,15 5,17 6,16 4,14 "/>
<path d="M21.6,15.7c-0.9-0.5-1.9-0.5-2.7,0c-1.5,0.9-3.1,0.4-3.1,0.4c-0.4-0.2-0.8-0.4-1.1-0.6c2.2-0.6,4.4-1.8,6-3.9
	c1.1-1.2,2.5-3.9,0.4-6c-0.7-0.7-1.6-1.1-2.7-1c-1.4,0.1-2.8,0.9-3.9,2.1c-0.9,1.1-3.1,4.5-2.3,7.5c0,0.1,0,0.2,0.1,0.3
	c-2.3,0.3-4.2,0.2-4.4,0.1v1.5c0.7,0.1,2.7,0.2,5.1-0.2c0.5,0.7,1.3,1.2,2.3,1.6c0.1,0,2.4,0.8,4.5-0.6c0.5-0.3,0.9-0.1,1.1,0
	c0.4,0.2,0.7,0.6,0.7,1H23C23,17.1,22.4,16.2,21.6,15.7z M13.6,14c-0.5-2.2,1.1-5.1,2-6.2c0.8-0.9,1.8-1.5,2.8-1.6c0,0,0.1,0,0.1,0
	c0.6,0,1.1,0.2,1.5,0.6c1.6,1.6-0.4,3.9-0.5,4c-1.5,2-3.7,3-5.8,3.5C13.7,14.2,13.6,14.1,13.6,14z"/>
</svg>
