<?xml version="1.0" encoding="utf-8"?>
<!-- Generator: Adobe Illustrator 16.0.4, SVG Export Plug-In . SVG Version: 6.00 Build 0)  -->
<!DOCTYPE svg PUBLIC "-//W3C//DTD SVG 1.1//EN" "http://www.w3.org/Graphics/SVG/1.1/DTD/svg11.dtd">
<svg version="1.1" id="Layer_1" xmlns="http://www.w3.org/2000/svg" xmlns:xlink="http://www.w3.org/1999/xlink" x="0px" y="0px"
	 width="24px" height="24px" viewBox="0 0 24 24" enable-background="new 0 0 24 24" xml:space="preserve">
<g transform="matrix(1 0 0 -1 0 1638)">
	<path d="M18.75,1624.16l-2.121,6.328l-2.145-6.328H18.75z M5.953,1635.363h2.133v-2.812h5.637l-0.691-2.109H8.086
		c0.414-1.609,1.145-2.992,2.191-4.148c0.234-0.258,0.562-0.598,0.984-1.02l-0.727-2.109c-0.625,0.625-0.996,1-1.113,1.125
		c-0.109,0.133-0.305,0.348-0.586,0.645s-0.477,0.523-0.586,0.68s-0.297,0.406-0.562,0.75c-0.258,0.344-0.488,0.785-0.691,1.324
		c-0.648-2.078-1.723-3.727-3.223-4.945c-0.594-0.484-1.285-0.941-2.074-1.371l-0.27,0.809c-0.125,0.375-0.121,0.742,0.012,1.102
		s0.367,0.645,0.703,0.855c0.609,0.484,1.098,0.906,1.465,1.266c0.359,0.359,0.68,0.77,0.961,1.23s0.5,0.895,0.656,1.301
		s0.371,1.008,0.645,1.805l0.082,0.703h-4.98v2.109h4.98V1635.363z M16.84,1632.551c0.367,0,0.695-0.094,0.984-0.281
		s0.492-0.449,0.609-0.785l4.582-13.605h-2.133l-1.43,4.195h-5.695l-1.418-4.195h-2.133l4.98,14.672H16.84z"/>
</g>
</svg>
