<?xml version="1.0" encoding="utf-8"?>
<!-- Generator: Adobe Illustrator 16.0.4, SVG Export Plug-In . SVG Version: 6.00 Build 0)  -->
<!DOCTYPE svg PUBLIC "-//W3C//DTD SVG 1.1//EN" "http://www.w3.org/Graphics/SVG/1.1/DTD/svg11.dtd">
<svg version="1.1" id="Layer_1" xmlns="http://www.w3.org/2000/svg" xmlns:xlink="http://www.w3.org/1999/xlink" x="0px" y="0px"
	 width="24px" height="24px" viewBox="0 0 24 24" enable-background="new 0 0 24 24" xml:space="preserve">
<g transform="matrix(1 0 0 -1 0 1638)">
	<path d="M5.074,1632.527h2.309l2.074-2.109H7.184v-8.273c0.008-0.336,0.129-0.621,0.363-0.855s0.52-0.355,0.855-0.363h8.262v2.273
		l2.109-2.156v-2.227l-12.012-0.012c-0.469,0-0.867,0.164-1.195,0.492s-0.492,0.723-0.492,1.184V1632.527z M9.809,1624.758
		c0,0.469,0.168,0.863,0.504,1.184l3.715,3.715l-2.906,2.906h7.629v-7.617l-2.824,2.812l-4.91-4.91l-0.703,0.715
		C9.977,1623.891,9.809,1624.289,9.809,1624.758z"/>
</g>
</svg>
