<?xml version="1.0" encoding="utf-8"?>
<!-- Generator: Adobe Illustrator 18.1.1, SVG Export Plug-In . SVG Version: 6.00 Build 0)  -->
<!DOCTYPE svg PUBLIC "-//W3C//DTD SVG 1.1//EN" "http://www.w3.org/Graphics/SVG/1.1/DTD/svg11.dtd">
<svg version="1.1" id="Layer_1" xmlns="http://www.w3.org/2000/svg" xmlns:xlink="http://www.w3.org/1999/xlink" x="0px" y="0px"
	 viewBox="0 0 24 24" enable-background="new 0 0 24 24" xml:space="preserve">
<path d="M21,7H9V5h12V7z M7,6c0,1.1-0.9,2-2,2S3,7.1,3,6s0.9-2,2-2S7,4.9,7,6z"/>
<path d="M21,13H9v-2h12V13z M7,12c0,1.1-0.9,2-2,2s-2-0.9-2-2s0.9-2,2-2S7,10.9,7,12z"/>
<path d="M21,19H9v-2h12V19z M7,18c0,1.1-0.9,2-2,2s-2-0.9-2-2s0.9-2,2-2S7,16.9,7,18z"/>
</svg>
