<?xml version="1.0" encoding="utf-8"?>
<!-- Generator: Adobe Illustrator 16.0.4, SVG Export Plug-In . SVG Version: 6.00 Build 0)  -->
<!DOCTYPE svg PUBLIC "-//W3C//DTD SVG 1.1//EN" "http://www.w3.org/Graphics/SVG/1.1/DTD/svg11.dtd">
<svg version="1.1" id="Layer_1" xmlns="http://www.w3.org/2000/svg" xmlns:xlink="http://www.w3.org/1999/xlink" x="0px" y="0px"
	 width="24px" height="24px" viewBox="0 0 24 24" enable-background="new 0 0 24 24" xml:space="preserve">
<g transform="matrix(1 0 0 -1 0 1638)">
	<path d="M14.238,1629.375c-0.281,0-0.52-0.098-0.715-0.293s-0.293-0.434-0.293-0.715s0.098-0.516,0.293-0.703
		c0.195-0.203,0.434-0.305,0.715-0.305s0.52,0.098,0.715,0.293s0.293,0.434,0.293,0.715s-0.098,0.52-0.293,0.715
		S14.52,1629.375,14.238,1629.375z M9.762,1629.375c-0.281,0-0.52-0.102-0.715-0.305s-0.293-0.445-0.293-0.727
		s0.098-0.516,0.293-0.703s0.434-0.281,0.715-0.281s0.52,0.098,0.715,0.293s0.293,0.434,0.293,0.715s-0.098,0.516-0.293,0.703
		C10.281,1629.273,10.043,1629.375,9.762,1629.375z M8.227,1625.25c-0.172,0-0.32-0.062-0.445-0.188
		c-0.117-0.125-0.176-0.273-0.176-0.445s0.062-0.32,0.188-0.445c0.664-0.672,1.52-1.133,2.566-1.383s2.094-0.266,3.141-0.047
		s1.93,0.637,2.648,1.254c0.156,0.133,0.258,0.293,0.305,0.48s0.004,0.352-0.129,0.492s-0.285,0.219-0.457,0.234
		s-0.32-0.035-0.445-0.152c-0.531-0.508-1.227-0.855-2.086-1.043s-1.719-0.188-2.578,0s-1.555,0.543-2.086,1.066
		C8.547,1625.191,8.398,1625.25,8.227,1625.25z M6.492,1633.828h13.02l-0.012-13.125c0-0.172-0.047-0.383-0.141-0.633
		c-0.297-0.836-0.91-1.254-1.84-1.254l-13.008-0.012l-0.023,13.113c0,0.445,0.164,0.875,0.492,1.289S5.812,1633.828,6.492,1633.828z
		"/>
</g>
</svg>
