<?xml version="1.0" encoding="utf-8"?>
<!-- Generator: Adobe Illustrator 18.1.1, SVG Export Plug-In . SVG Version: 6.00 Build 0)  -->
<!DOCTYPE svg PUBLIC "-//W3C//DTD SVG 1.1//EN" "http://www.w3.org/Graphics/SVG/1.1/DTD/svg11.dtd">
<svg version="1.1" id="Layer_1" xmlns="http://www.w3.org/2000/svg" xmlns:xlink="http://www.w3.org/1999/xlink" x="0px" y="0px"
	 viewBox="0 0 24 24" enable-background="new 0 0 24 24" xml:space="preserve">
<g>
	<g transform="matrix(1 0 0 -1 0 1638)">
		<path d="M8,1625c0-0.6-0.2-1-0.6-1.4c-0.4-0.4-0.9-0.6-1.4-0.6c-0.6,0-1,0.2-1.4,0.6c-0.4,0.4-0.6,0.9-0.6,1.4s0.2,1,0.6,1.4
			c0.4,0.4,0.9,0.6,1.4,0.6s1-0.2,1.4-0.6C7.8,1626,8,1625.5,8,1625z"/>
	</g>
	<g transform="matrix(1 0 0 -1 0 1638)">
		<path d="M14,1625c0-0.6-0.2-1-0.6-1.4c-0.4-0.4-0.9-0.6-1.4-0.6c-0.6,0-1,0.2-1.4,0.6c-0.4,0.4-0.6,0.9-0.6,1.4s0.2,1,0.6,1.4
			c0.4,0.4,0.9,0.6,1.4,0.6s1-0.2,1.4-0.6C13.8,1626,14,1625.5,14,1625z"/>
	</g>
	<g transform="matrix(1 0 0 -1 0 1638)">
		<path d="M20,1625c0-0.6-0.2-1-0.6-1.4c-0.4-0.4-0.9-0.6-1.4-0.6c-0.6,0-1,0.2-1.4,0.6c-0.4,0.4-0.6,0.9-0.6,1.4s0.2,1,0.6,1.4
			c0.4,0.4,0.9,0.6,1.4,0.6s1-0.2,1.4-0.6C19.8,1626,20,1625.5,20,1625z"/>
	</g>
</g>
</svg>
