<?xml version="1.0" encoding="utf-8"?>
<!-- Generator: Adobe Illustrator 16.0.4, SVG Export Plug-In . SVG Version: 6.00 Build 0)  -->
<!DOCTYPE svg PUBLIC "-//W3C//DTD SVG 1.1//EN" "http://www.w3.org/Graphics/SVG/1.1/DTD/svg11.dtd">
<svg version="1.1" id="Layer_1" xmlns="http://www.w3.org/2000/svg" xmlns:xlink="http://www.w3.org/1999/xlink" x="0px" y="0px"
	 width="24px" height="24px" viewBox="0 0 24 24" enable-background="new 0 0 24 24" xml:space="preserve">
<g transform="matrix(1 0 0 -1 0 1638)">
	<path d="M15.832,1632.914c1.117,0,2.121-0.391,3.012-1.172c0.422-0.375,0.766-0.855,1.031-1.441
		c0.258-0.594,0.387-1.25,0.387-1.969c0-1.781-0.781-3.348-2.344-4.699c-0.609-0.531-1.734-1.469-3.375-2.812
		s-2.488-2.016-2.543-2.016l-5.895,4.852c-0.727,0.602-1.301,1.301-1.723,2.098c-0.422,0.805-0.637,1.574-0.645,2.309
		s0.074,1.355,0.246,1.863c0.305,0.93,0.855,1.66,1.652,2.191c0.789,0.531,1.637,0.797,2.543,0.797c1.492,0,2.766-0.637,3.82-1.91
		C13.047,1632.277,14.324,1632.914,15.832,1632.914z"/>
</g>
</svg>
