<?xml version="1.0" encoding="utf-8"?>
<!-- Generator: Adobe Illustrator 16.0.4, SVG Export Plug-In . SVG Version: 6.00 Build 0)  -->
<!DOCTYPE svg PUBLIC "-//W3C//DTD SVG 1.1//EN" "http://www.w3.org/Graphics/SVG/1.1/DTD/svg11.dtd">
<svg version="1.1" id="Layer_1" xmlns="http://www.w3.org/2000/svg" xmlns:xlink="http://www.w3.org/1999/xlink" x="0px" y="0px"
	 width="24px" height="24px" viewBox="0 0 24 24" enable-background="new 0 0 24 24" xml:space="preserve">
<g transform="matrix(1 0 0 -1 0 1638)">
	<path d="M12,1628.965c0.57,0,1.059-0.203,1.465-0.609s0.609-0.895,0.609-1.465c0-0.578-0.203-1.07-0.609-1.477
		c-0.398-0.406-0.887-0.609-1.465-0.609s-1.07,0.203-1.477,0.609s-0.609,0.898-0.609,1.477s0.203,1.066,0.609,1.465
		C10.93,1628.762,11.422,1628.965,12,1628.965z M12,1623.059c1.047,0,1.945,0.375,2.695,1.125c0.75,0.758,1.125,1.66,1.125,2.707
		s-0.375,1.945-1.125,2.695s-1.648,1.125-2.695,1.125s-1.945-0.375-2.695-1.125s-1.125-1.648-1.125-2.695s0.375-1.949,1.125-2.707
		C10.055,1623.434,10.953,1623.059,12,1623.059z M11.859,1633.008c0.719,0,1.445-0.117,2.18-0.352s1.43-0.516,2.086-0.844
		c0.648-0.344,1.324-0.75,2.027-1.219c1.086-0.719,2.051-1.449,2.895-2.191s1.402-1.246,1.676-1.512l-0.352-0.34
		c-0.516-0.5-1.184-1.078-2.004-1.734c-1.398-1.125-2.832-2.082-4.301-2.871s-2.824-1.184-4.066-1.184
		c-2.227,0.008-4.473,0.816-6.738,2.426c-1.078,0.766-1.969,1.516-2.672,2.25s-1.145,1.219-1.324,1.453l0.281,0.34
		c0.383,0.484,0.941,1.059,1.676,1.723c0.727,0.656,1.41,1.203,2.051,1.641s1.297,0.836,1.969,1.195
		c0.688,0.359,1.449,0.652,2.285,0.879S11.141,1633.008,11.859,1633.008z"/>
</g>
</svg>
