<?xml version="1.0" encoding="utf-8"?>
<!-- Generator: Adobe Illustrator 18.1.1, SVG Export Plug-In . SVG Version: 6.00 Build 0)  -->
<!DOCTYPE svg PUBLIC "-//W3C//DTD SVG 1.1//EN" "http://www.w3.org/Graphics/SVG/1.1/DTD/svg11.dtd">
<svg version="1.1" id="Layer_1" xmlns="http://www.w3.org/2000/svg" xmlns:xlink="http://www.w3.org/1999/xlink" x="0px" y="0px"
	 viewBox="0 0 24 24" enable-background="new 0 0 24 24" xml:space="preserve">
<path d="M16,5L4,5l0,12c0,1.7,1.3,3,3,3h12V8C19,6.3,17.7,5,16,5z M6.7,10.4C6.2,10,6,9.6,6,9c0.6,0.6,1.5,0.9,2.5,0.9
	c1,0,1.9-0.3,2.5-0.9c0,0.6-0.2,1-0.7,1.4C9.8,10.8,9.2,11,8.5,11C7.8,11,7.2,10.8,6.7,10.4z M15.1,14.7c0,0.2-0.1,0.3-0.3,0.4
	c-1,0.6-2.2,0.9-3.5,0.9C10.1,16,9,15.7,8,15c-0.2-0.1-0.2-0.2-0.3-0.4s0-0.3,0.1-0.5s0.2-0.2,0.4-0.3s0.3,0,0.5,0.1
	c0.8,0.5,1.7,0.8,2.8,0.8s2-0.2,2.8-0.7c0.1-0.1,0.3-0.1,0.5-0.1s0.3,0.1,0.4,0.3C15.1,14.4,15.2,14.6,15.1,14.7z M16.3,10.4
	c-0.5,0.4-1.1,0.6-1.8,0.6s-1.3-0.2-1.8-0.6S12,9.6,12,9c0.6,0.6,1.5,0.9,2.5,0.9S16.4,9.6,17,9C17,9.6,16.8,10,16.3,10.4z"/>
</svg>
