<?xml version="1.0" encoding="utf-8"?>
<!-- Generator: Adobe Illustrator 16.0.4, SVG Export Plug-In . SVG Version: 6.00 Build 0)  -->
<!DOCTYPE svg PUBLIC "-//W3C//DTD SVG 1.1//EN" "http://www.w3.org/Graphics/SVG/1.1/DTD/svg11.dtd">
<svg version="1.1" id="Layer_1" xmlns="http://www.w3.org/2000/svg" xmlns:xlink="http://www.w3.org/1999/xlink" x="0px" y="0px"
	 width="24px" height="24px" viewBox="0 0 24 24" enable-background="new 0 0 24 24" xml:space="preserve">
<g transform="matrix(1 0 0 -1 0 1638)">
	<path d="M20.625,1631.883c0-0.352-0.102-0.672-0.305-0.961s-0.469-0.496-0.797-0.621c-0.812-0.305-1.504-0.793-2.074-1.465
		s-0.965-1.434-1.184-2.285h4.359v-6.023c0-0.477-0.172-0.887-0.516-1.23s-0.758-0.52-1.242-0.527h-6.012v4.16
		c0.008,0.984,0.066,1.867,0.176,2.648s0.332,1.602,0.668,2.461s0.812,1.648,1.43,2.367s1.355,1.312,2.215,1.781
		s1.953,0.809,3.281,1.02V1631.883z M10.828,1631.883c0-0.344-0.105-0.664-0.316-0.961s-0.484-0.504-0.82-0.621
		c-0.812-0.305-1.5-0.793-2.062-1.465s-0.953-1.434-1.172-2.285h4.359v-6.023c0-0.484-0.172-0.898-0.516-1.242
		s-0.754-0.516-1.23-0.516H3.047v4.16c0.016,0.984,0.078,1.867,0.188,2.648s0.328,1.602,0.656,2.461
		c0.336,0.859,0.812,1.645,1.43,2.355c0.617,0.719,1.355,1.312,2.215,1.781s1.957,0.812,3.293,1.031V1631.883z"/>
</g>
</svg>
