<?xml version="1.0" encoding="utf-8"?>
<!-- Generator: Adobe Illustrator 18.1.1, SVG Export Plug-In . SVG Version: 6.00 Build 0)  -->
<!DOCTYPE svg PUBLIC "-//W3C//DTD SVG 1.1//EN" "http://www.w3.org/Graphics/SVG/1.1/DTD/svg11.dtd">
<svg version="1.1" id="Layer_1" xmlns="http://www.w3.org/2000/svg" xmlns:xlink="http://www.w3.org/1999/xlink" x="0px" y="0px"
	 viewBox="0 0 24 24" enable-background="new 0 0 24 24" xml:space="preserve">
<path d="M19.4,12.7c0.7-0.8,1.2-1.7,1.4-2.7h-1.6c-0.9,2.5-3.9,4.4-7.7,4.6h-0.1c-3.7-0.2-6.8-2.1-7.7-4.6H2.2
	c0.2,1,0.8,1.9,1.4,2.7l-2,2l0.7,0.7l2-2C5.1,14,6,14.6,7,15.1l0,0l-1,2.8l0.9,0.3l1-2.8c1,0.3,2,0.6,3.1,0.6v3h1v-3
	c1.1-0.1,2.2-0.3,3.1-0.6l1,2.8l0.9-0.3l-1-2.8l0,0c1-0.4,1.9-1,2.6-1.7l2,2l0.7-0.7L19.4,12.7z"/>
</svg>
