<?xml version="1.0" encoding="utf-8"?>
<!-- Generator: Adobe Illustrator 16.0.4, SVG Export Plug-In . SVG Version: 6.00 Build 0)  -->
<!DOCTYPE svg PUBLIC "-//W3C//DTD SVG 1.1//EN" "http://www.w3.org/Graphics/SVG/1.1/DTD/svg11.dtd">
<svg version="1.1" id="Layer_1" xmlns="http://www.w3.org/2000/svg" xmlns:xlink="http://www.w3.org/1999/xlink" x="0px" y="0px"
	 width="24px" height="24px" viewBox="0 0 24 24" enable-background="new 0 0 24 24" xml:space="preserve">
<g transform="matrix(1 0 0 -1 0 1638)">
	<path d="M23.039,1632.68c0-0.172-0.035-0.293-0.105-0.363c-0.742-0.078-1.328-0.496-1.758-1.254c-0.102-0.18-0.227-0.43-0.375-0.75
		l-5.086-11.016c-0.102-0.172-0.184-0.297-0.246-0.375s-0.148-0.117-0.258-0.117c-0.234,0-0.402,0.164-0.504,0.492l-2.824,6.047
		l-3.117-6.07c-0.141-0.305-0.34-0.457-0.598-0.457s-0.449,0.16-0.574,0.48l-4.711,11.051c-0.352,0.828-0.629,1.355-0.832,1.582
		s-0.574,0.355-1.113,0.387c-0.07,0.07-0.109,0.191-0.117,0.363s0.023,0.289,0.094,0.352c0.383-0.016,1.145-0.023,2.285-0.023
		s1.93,0.008,2.367,0.023c0.07-0.062,0.105-0.18,0.105-0.352s-0.035-0.293-0.105-0.363c-0.664-0.07-1.051-0.223-1.16-0.457
		s-0.016-0.66,0.281-1.277l3.949-9.023H8.73l2.438,4.828l-1.863,3.949c-0.375,0.797-0.664,1.305-0.867,1.523
		s-0.523,0.367-0.961,0.445c-0.07,0.062-0.109,0.18-0.117,0.352s0.023,0.293,0.094,0.363c0.312-0.008,0.961-0.012,1.945-0.012
		s1.633,0.004,1.945,0.012c0.07-0.07,0.105-0.191,0.105-0.363s-0.035-0.289-0.105-0.352c-0.438-0.07-0.664-0.223-0.68-0.457
		s0.133-0.66,0.445-1.277l1.102-2.121l1.066,2.062c0.328,0.617,0.5,1.027,0.516,1.23c0.023,0.203-0.02,0.336-0.129,0.398
		s-0.281,0.113-0.516,0.152c-0.047,0.07-0.066,0.191-0.059,0.363s0.039,0.293,0.094,0.363c0.289-0.008,0.84-0.012,1.652-0.012
		s1.355,0.004,1.629,0.012c0.07-0.07,0.105-0.191,0.105-0.363s-0.035-0.289-0.105-0.352c-0.508-0.078-0.91-0.273-1.207-0.586
		s-0.605-0.777-0.926-1.395l-1.453-3.059l2.766-5.672h0.094l4.09,8.883c0.289,0.586,0.375,1.027,0.258,1.324
		s-0.512,0.469-1.184,0.516c-0.07,0.07-0.105,0.191-0.105,0.363s0.035,0.289,0.105,0.352c0.406-0.016,1.094-0.023,2.062-0.023
		s1.625,0.008,1.969,0.023C23.004,1632.969,23.039,1632.852,23.039,1632.68z"/>
</g>
</svg>
