<?xml version="1.0" encoding="utf-8"?>
<!-- Generator: Adobe Illustrator 18.1.1, SVG Export Plug-In . SVG Version: 6.00 Build 0)  -->
<!DOCTYPE svg PUBLIC "-//W3C//DTD SVG 1.1//EN" "http://www.w3.org/Graphics/SVG/1.1/DTD/svg11.dtd">
<svg version="1.1" id="Layer_1" xmlns="http://www.w3.org/2000/svg" xmlns:xlink="http://www.w3.org/1999/xlink" x="0px" y="0px"
	 viewBox="0 0 24 24" enable-background="new 0 0 24 24" xml:space="preserve">
<path d="M16,5L4,5l0,12c0,1.7,1.3,3,3,3h12V8C19,6.3,17.7,5,16,5z M14,9c0.7,0,1.2,0.6,1.2,1.2s-0.6,1.2-1.2,1.2s-1.2-0.6-1.2-1.2
	S13.3,9,14,9z M9,9c0.7,0,1.2,0.6,1.2,1.2S9.7,11.5,9,11.5s-1.2-0.6-1.2-1.2S8.3,9,9,9z M16,14.4c0,0.2-0.1,0.3-0.3,0.5
	c-0.7,0.6-1.6,1-2.6,1.3s-2.1,0.2-3.1,0S8,15.3,7.3,14.7c-0.1-0.1-0.2-0.3-0.2-0.4s0.1-0.3,0.2-0.4c0.1-0.1,0.3-0.2,0.4-0.2
	c0.2,0,0.3,0.1,0.4,0.2c0.5,0.5,1.2,0.9,2.1,1.1s1.7,0.2,2.6,0s1.6-0.5,2.1-1c0.1-0.1,0.3-0.2,0.4-0.2s0.3,0.1,0.5,0.2
	S16,14.2,16,14.4z"/>
</svg>
