<?xml version="1.0" encoding="utf-8"?>
<!-- Generator: Adobe Illustrator 18.1.1, SVG Export Plug-In . SVG Version: 6.00 Build 0)  -->
<!DOCTYPE svg PUBLIC "-//W3C//DTD SVG 1.1//EN" "http://www.w3.org/Graphics/SVG/1.1/DTD/svg11.dtd">
<svg version="1.1" id="Layer_1" xmlns="http://www.w3.org/2000/svg" xmlns:xlink="http://www.w3.org/1999/xlink" x="0px" y="0px"
	 viewBox="0 0 24 24" enable-background="new 0 0 24 24" xml:space="preserve">
<g>
	<path d="M4.5,8.6C3.9,9.3,2,12,2,16v4h6c1.1,0,2-0.9,2-2v-6H6c0,0,0.1-0.9,0.8-1.8C7.4,9.5,8.1,9,8.9,8.7c0.3-0.1,0.6-0.3,0.8-0.6
		S10,7.4,10,7V6C8.7,6.2,8.1,6.2,6.7,6.8C5.9,7.3,5.1,7.9,4.5,8.6z"/>
	<path d="M16,12c0,0,0.1-0.9,0.8-1.8c0.1-0.1,0.1-0.1,0.2-0.2V8h-1.9c-0.2,0.2-0.4,0.4-0.6,0.6C13.9,9.3,12,12,12,16v4h6
		c1.1,0,2-0.9,2-2v-6h-3H16z"/>
</g>
</svg>
