<?xml version="1.0" encoding="utf-8"?>
<!-- Generator: Adobe Illustrator 18.1.1, SVG Export Plug-In . SVG Version: 6.00 Build 0)  -->
<!DOCTYPE svg PUBLIC "-//W3C//DTD SVG 1.1//EN" "http://www.w3.org/Graphics/SVG/1.1/DTD/svg11.dtd">
<svg version="1.1" id="Layer_1" xmlns="http://www.w3.org/2000/svg" xmlns:xlink="http://www.w3.org/1999/xlink" x="0px" y="0px"
	 viewBox="0 0 24 24" enable-background="new 0 0 24 24" xml:space="preserve">
<g>
	<path d="M8,6c0-1,0-1,0-1H7v7l6.4-6.4C11.8,4.6,8.7,4.9,8,6z"/>
	<path d="M15.3,7.7L19,4l-1-1L2,19l1,1l4-4v4h1c0,0,0-2.1,0-5l2.7-2.7c0.8,0,1.6,0.1,2.3,0.2c0,0.6,0,1.1,0,1.5c1.2,1.5,4.3,1.2,5,0
		V7C17.5,7.5,16.4,7.7,15.3,7.7z"/>
</g>
</svg>
