<?xml version="1.0" encoding="utf-8"?>
<!-- Generator: Adobe Illustrator 18.1.1, SVG Export Plug-In . SVG Version: 6.00 Build 0)  -->
<!DOCTYPE svg PUBLIC "-//W3C//DTD SVG 1.1//EN" "http://www.w3.org/Graphics/SVG/1.1/DTD/svg11.dtd">
<svg version="1.1" id="Layer_1" xmlns="http://www.w3.org/2000/svg" xmlns:xlink="http://www.w3.org/1999/xlink" x="0px" y="0px"
	 viewBox="0 0 24 24" enable-background="new 0 0 24 24" xml:space="preserve">
<g>
	<path d="M17.6,20h-5.4v-0.5c0.2,0,0.5-0.1,0.9-0.1c0.3-0.1,0.5-0.2,0.5-0.3c0,0,0-0.1,0-0.1c0,0,0-0.1-0.1-0.2l-0.8-2H9.3
		c-0.1,0.2-0.2,0.4-0.3,0.7c-0.1,0.3-0.2,0.5-0.2,0.7c-0.1,0.3-0.1,0.4-0.2,0.6c0,0.1,0,0.2,0,0.2c0,0.1,0.1,0.3,0.3,0.4
		c0.2,0.1,0.6,0.2,1.1,0.2V20H6v-0.5c0.2,0,0.3,0,0.5-0.1c0.2,0,0.3-0.1,0.5-0.2c0.2-0.1,0.4-0.2,0.5-0.4c0.1-0.2,0.2-0.4,0.3-0.6
		c0.5-1.3,1.1-2.6,1.6-3.9c0.5-1.3,1.1-2.7,1.8-4.3h1.4c0.9,2.2,1.6,4,2.1,5.3c0.5,1.3,1,2.4,1.3,3.2c0.1,0.1,0.1,0.3,0.2,0.4
		c0.1,0.1,0.2,0.2,0.4,0.3c0.1,0.1,0.3,0.1,0.5,0.2s0.3,0.1,0.5,0.1V20z M12.4,16L11,12.4L9.6,16H12.4z"/>
</g>
</svg>
