<?xml version="1.0" encoding="utf-8"?>
<!-- Generator: Adobe Illustrator 18.1.1, SVG Export Plug-In . SVG Version: 6.00 Build 0)  -->
<!DOCTYPE svg PUBLIC "-//W3C//DTD SVG 1.1//EN" "http://www.w3.org/Graphics/SVG/1.1/DTD/svg11.dtd">
<svg version="1.1" id="Layer_1" xmlns="http://www.w3.org/2000/svg" xmlns:xlink="http://www.w3.org/1999/xlink" x="0px" y="0px"
	 viewBox="0 0 24 24" enable-background="new 0 0 24 24" xml:space="preserve">
<path d="M12,10H0v8h2h0.3c0.3,0.6,1,1,1.7,1h4c1.5,0,2.7-0.8,3-2h1h1c0.3,1.2,1.5,2,3,2h4c0.7,0,1.4,0,1.7-1H22h2v-8H12z M10,16
	c0,1-0.4,2-2,2H4c-0.6,0-1-0.4-1-1v-3c0-0.6,0.4-1,1-1h5c0.6,0,1,0.4,1,1V16z M21,17c0,0.6-0.4,1-1,1h-4c-1.6,0-2-1-2-2v-2
	c0-0.6,0.4-1,1-1h5c0.6,0,1,0.4,1,1V17z"/>
</svg>
