<?xml version="1.0" encoding="utf-8"?>
<!-- Generator: Adobe Illustrator 19.1.0, SVG Export Plug-In . SVG Version: 6.00 Build 0)  -->
<!DOCTYPE svg PUBLIC "-//W3C//DTD SVG 1.1//EN" "http://www.w3.org/Graphics/SVG/1.1/DTD/svg11.dtd">
<svg version="1.1" id="Layer_1" xmlns="http://www.w3.org/2000/svg" xmlns:xlink="http://www.w3.org/1999/xlink" x="0px" y="0px"
	 viewBox="0 0 24 24" style="enable-background:new 0 0 24 24;" xml:space="preserve">
<path d="M18.1,6.3c0,0.3-0.1,0.6-0.3,0.9l-1.4,1.4l-0.9-0.8l2.2-2.2C18,5.7,18.1,6,18.1,6.3z M17.6,11.6h3.2c0,0.3-0.1,0.6-0.4,0.9
	c-0.3,0.3-0.5,0.4-0.8,0.4h-2C17.6,12.9,17.6,11.6,17.6,11.6z M11.4,6.6V3.4c0.3,0,0.6,0.1,0.9,0.4c0.3,0.3,0.4,0.5,0.4,0.8v2H11.4
	L11.4,6.6z M17.8,18.3c-0.3,0-0.6-0.1-0.8-0.3l-1.4-1.4l0.8-0.8l2.2,2.2C18.4,18.2,18.1,18.3,17.8,18.3z M6.2,6.1
	c0.3,0,0.6,0.1,0.8,0.3l1.4,1.4L7.6,8.7L5.4,6.4C5.6,6.2,5.9,6.1,6.2,6.1z M11.4,17.8h1.2V21c-0.3,0-0.6-0.1-0.9-0.4
	c-0.3-0.3-0.4-0.5-0.4-0.8L11.4,17.8L11.4,17.8z M4.4,11.6h2v1.2H3.2c0-0.3,0.1-0.6,0.4-0.9C3.9,11.6,4.1,11.6,4.4,11.6z M6.2,17.2
	l1.4-1.4l0.8,0.8l-2.2,2.2C6,18.6,5.9,18.3,5.9,18C5.9,17.7,6,17.4,6.2,17.2z"/>
<g>
	<path d="M12,9.2c1.7,0,3,1.3,3,3s-1.3,3-3,3s-3-1.3-3-3S10.3,9.2,12,9.2 M12,8.2c-2.2,0-4,1.8-4,4s1.8,4,4,4s4-1.8,4-4
		S14.2,8.2,12,8.2L12,8.2z"/>
</g>
<path d="M12,9.2c1.7,0,3,1.3,3,3s-1.3,3-3,3s-3-1.3-3-3S10.3,9.2,12,9.2 M12,8.2c-2.2,0-4,1.8-4,4s1.8,4,4,4s4-1.8,4-4
	S14.2,8.2,12,8.2L12,8.2z"/>
</svg>
