<?xml version="1.0" encoding="utf-8"?>
<!-- Generator: Adobe Illustrator 16.0.4, SVG Export Plug-In . SVG Version: 6.00 Build 0)  -->
<!DOCTYPE svg PUBLIC "-//W3C//DTD SVG 1.1//EN" "http://www.w3.org/Graphics/SVG/1.1/DTD/svg11.dtd">
<svg version="1.1" id="Layer_1" xmlns="http://www.w3.org/2000/svg" xmlns:xlink="http://www.w3.org/1999/xlink" x="0px" y="0px"
	 width="24px" height="24px" viewBox="0 0 24 24" enable-background="new 0 0 24 24" xml:space="preserve">
<g transform="matrix(1 0 0 -1 0 1638)">
	<path d="M15.105,1630.922c-0.297,0-0.551-0.105-0.762-0.316s-0.316-0.465-0.316-0.762s0.105-0.547,0.316-0.75
		s0.465-0.309,0.762-0.316c0.297,0.008,0.551,0.113,0.762,0.316s0.316,0.453,0.316,0.75s-0.105,0.551-0.316,0.762
		S15.402,1630.922,15.105,1630.922z M10.641,1630.922c-0.297,0-0.547-0.105-0.75-0.316s-0.309-0.465-0.316-0.762
		c0.008-0.297,0.113-0.547,0.316-0.75s0.453-0.309,0.75-0.316c0.297,0.008,0.551,0.113,0.762,0.316s0.316,0.453,0.316,0.75
		s-0.105,0.551-0.316,0.762S10.938,1630.922,10.641,1630.922z M12.996,1626.129c-0.875,0.008-1.797,0.113-2.766,0.316
		s-1.719,0.406-2.25,0.609l-0.797,0.305c0-1.031,0.254-1.984,0.762-2.859s1.199-1.566,2.074-2.074
		c0.867-0.508,1.754-0.762,2.66-0.762s1.711,0.148,2.414,0.445s1.309,0.703,1.816,1.219c0.508,0.508,0.91,1.113,1.207,1.816
		s0.449,1.441,0.457,2.215C16.73,1626.539,14.871,1626.129,12.996,1626.129z M3.445,1633.781h18.527v-13.09
		c-0.148-1.188-0.727-1.816-1.734-1.887H0.457l2.988,3.34V1633.781z"/>
</g>
</svg>
