<?xml version="1.0" encoding="utf-8"?>
<!-- Generator: Adobe Illustrator 16.0.4, SVG Export Plug-In . SVG Version: 6.00 Build 0)  -->
<!DOCTYPE svg PUBLIC "-//W3C//DTD SVG 1.1//EN" "http://www.w3.org/Graphics/SVG/1.1/DTD/svg11.dtd">
<svg version="1.1" id="Layer_1" xmlns="http://www.w3.org/2000/svg" xmlns:xlink="http://www.w3.org/1999/xlink" x="0px" y="0px"
	 width="24px" height="24px" viewBox="0 0 24 24" enable-background="new 0 0 24 24" xml:space="preserve">
<g transform="matrix(1 0 0 -1 0 1638)">
	<path d="M12.023,1631.73c-0.406,0-0.754-0.145-1.043-0.434s-0.434-0.637-0.434-1.043s0.145-0.754,0.434-1.043
		s0.637-0.434,1.043-0.434s0.754,0.145,1.043,0.434s0.434,0.637,0.434,1.043s-0.145,0.754-0.434,1.043S12.43,1631.73,12.023,1631.73
		z M12.797,1619.859c0.391-0.094,0.68-0.258,0.867-0.492s0.285-0.484,0.293-0.75c0.016-0.266-0.094-0.555-0.328-0.867
		s-0.508-0.641-0.82-0.984c-0.312-0.328-0.516-0.621-0.609-0.879c-0.086,0.258-0.285,0.551-0.598,0.879s-0.586,0.656-0.82,0.984
		c-0.234,0.312-0.344,0.602-0.328,0.867s0.117,0.508,0.305,0.727c0.188,0.234,0.469,0.398,0.844,0.492
		c-0.258-0.141-0.395-0.328-0.41-0.562c-0.008-0.234,0.145-0.461,0.457-0.68s0.496-0.418,0.551-0.598
		c0.055,0.164,0.172,0.309,0.352,0.434s0.34,0.25,0.48,0.375s0.199,0.297,0.176,0.516
		C13.191,1619.539,13.055,1619.719,12.797,1619.859z M12.035,1635.691c0.766-0.367,1.414-0.852,1.945-1.453
		c0.961-1.086,1.523-2.441,1.688-4.066s0.043-3.352-0.363-5.18l1.605-4.078l-2.602,0.844c-0.211-0.539-0.402-0.98-0.574-1.324
		h-3.469c-0.18,0.359-0.367,0.793-0.562,1.301l-2.613-0.797l1.582,4.277c-0.844,4.008-0.359,7.027,1.453,9.059
		C10.648,1634.859,11.285,1635.332,12.035,1635.691z"/>
</g>
</svg>
