<?xml version="1.0" encoding="utf-8"?>
<!-- Generator: Adobe Illustrator 19.1.0, SVG Export Plug-In . SVG Version: 6.00 Build 0)  -->
<!DOCTYPE svg PUBLIC "-//W3C//DTD SVG 1.1//EN" "http://www.w3.org/Graphics/SVG/1.1/DTD/svg11.dtd">
<svg version="1.1" id="Layer_1" xmlns="http://www.w3.org/2000/svg" xmlns:xlink="http://www.w3.org/1999/xlink" x="0px" y="0px"
	 viewBox="0 0 24 24" style="enable-background:new 0 0 24 24;" xml:space="preserve">
<g>
	<path d="M12,4c-3.9,0-7,3.1-7,7s3.1,7,7,7s7-3.1,7-7S15.9,4,12,4z M12,17c-3.3,0-6-2.7-6-6s2.7-6,6-6s6,2.7,6,6S15.3,17,12,17z"/>
	<path d="M10.3,12.4c-0.7,0-1-0.4-1-1.2s0.3-1.2,1-1.2c0.4,0,0.6,0.2,0.8,0.6l0.9-0.5c-0.4-0.7-1-1-1.9-1C9.5,9.1,9,9.3,8.6,9.7
		S8,10.5,8,11.2s0.2,1.2,0.6,1.6c0.4,0.4,0.9,0.6,1.5,0.6c0.8,0,1.4-0.4,1.9-1.1l-0.9-0.4C10.9,12.2,10.6,12.4,10.3,12.4z"/>
	<path d="M14.3,12.4c-0.7,0-1-0.4-1-1.2s0.3-1.2,1-1.2c0.4,0,0.6,0.2,0.8,0.6l0.9-0.5c-0.4-0.7-1-1-1.9-1c-0.6,0-1.1,0.2-1.5,0.6
		S12,10.5,12,11.2s0.2,1.2,0.6,1.6c0.4,0.4,0.9,0.6,1.5,0.6c0.8,0,1.4-0.4,1.9-1.1l-0.9-0.4C14.9,12.2,14.6,12.4,14.3,12.4z"/>
</g>
</svg>
