<?xml version="1.0" encoding="utf-8"?>
<!-- Generator: Adobe Illustrator 16.0.4, SVG Export Plug-In . SVG Version: 6.00 Build 0)  -->
<!DOCTYPE svg PUBLIC "-//W3C//DTD SVG 1.1//EN" "http://www.w3.org/Graphics/SVG/1.1/DTD/svg11.dtd">
<svg version="1.1" id="Layer_1" xmlns="http://www.w3.org/2000/svg" xmlns:xlink="http://www.w3.org/1999/xlink" x="0px" y="0px"
	 width="24px" height="24px" viewBox="0 0 24 24" enable-background="new 0 0 24 24" xml:space="preserve">
<g transform="matrix(1 0 0 -1 0 1638)">
	<path d="M15.223,1627.5c0.586,0,1.09,0.172,1.512,0.516s0.629,0.758,0.621,1.242c-0.508-0.5-1.215-0.75-2.121-0.75
		s-1.621,0.25-2.145,0.75c-0.008-0.484,0.199-0.898,0.621-1.242S14.637,1627.5,15.223,1627.5z M9.023,1627.5
		c0.594,0,1.094,0.172,1.5,0.516s0.609,0.758,0.609,1.242c-0.516-0.5-1.219-0.75-2.109-0.75s-1.602,0.25-2.133,0.75
		c0-0.484,0.211-0.898,0.633-1.242S8.445,1627.5,9.023,1627.5z M9.246,1624.664c-0.133,0.094-0.285,0.121-0.457,0.082
		s-0.305-0.129-0.398-0.27s-0.125-0.297-0.094-0.469s0.125-0.305,0.281-0.398c1-0.633,2.141-0.957,3.422-0.973
		s2.434,0.277,3.457,0.879c0.141,0.078,0.234,0.203,0.281,0.375s0.035,0.332-0.035,0.48c-0.078,0.148-0.203,0.246-0.375,0.293
		s-0.332,0.023-0.48-0.07c-0.797-0.484-1.734-0.719-2.812-0.703S10.027,1624.164,9.246,1624.664z M6.492,1633.828h13.02v-13.113
		c0-0.445-0.164-0.875-0.492-1.289s-0.832-0.621-1.512-0.621H4.488v13.113c0,0.445,0.164,0.875,0.492,1.289
		S5.812,1633.828,6.492,1633.828z"/>
</g>
</svg>
