<?xml version="1.0" encoding="utf-8"?>
<!-- Generator: Adobe Illustrator 16.0.4, SVG Export Plug-In . SVG Version: 6.00 Build 0)  -->
<!DOCTYPE svg PUBLIC "-//W3C//DTD SVG 1.1//EN" "http://www.w3.org/Graphics/SVG/1.1/DTD/svg11.dtd">
<svg version="1.1" id="Layer_1" xmlns="http://www.w3.org/2000/svg" xmlns:xlink="http://www.w3.org/1999/xlink" x="0px" y="0px"
	 width="24px" height="24px" viewBox="0 0 24 24" enable-background="new 0 0 24 24" xml:space="preserve">
<g transform="matrix(1 0 0 -1 0 1638)">
	<path d="M7.418,1619.414c-0.008-0.242-0.121-0.41-0.34-0.504s-0.438-0.129-0.656-0.105l-0.328,0.035v15.703
		c1.109,0.102,2.539-0.129,4.289-0.691c0.688-0.219,1.352-0.484,1.992-0.797s1.258-0.504,1.852-0.574
		c1.469-0.172,2.695,0.234,3.68,1.219v-8.367c-0.359-0.602-0.945-1.043-1.758-1.324c-1.086-0.383-2.336-0.168-3.75,0.645
		c-2.094,1.375-3.754,1.859-4.98,1.453V1619.414z"/>
</g>
</svg>
