<?xml version="1.0" encoding="utf-8"?>
<!-- Generator: Adobe Illustrator 19.1.0, SVG Export Plug-In . SVG Version: 6.00 Build 0)  -->
<!DOCTYPE svg PUBLIC "-//W3C//DTD SVG 1.1//EN" "http://www.w3.org/Graphics/SVG/1.1/DTD/svg11.dtd">
<svg version="1.1" id="Layer_1" xmlns="http://www.w3.org/2000/svg" xmlns:xlink="http://www.w3.org/1999/xlink" x="0px" y="0px"
	 viewBox="-13 8 24 24" style="enable-background:new -13 8 24 24;" xml:space="preserve">
<g id="Layer_2">
</g>
<g transform="matrix(1 0 0 -1 0 1638)">
	<g>
		<path d="M1.8,1627c1,0,1.9-0.2,2.6-0.5c1-0.5,1.7-1,1.9-1.7c-2.9,0-5-1.2-6.5-3.1l1.2-1.9l-6.7,0.2l0.5,6.7l1.7-1.9
			C-1.6,1626.6,0.1,1627,1.8,1627z"/>
	</g>
</g>
<g>
	<path d="M1,19.1h-2.6l-5.3,5.5c-0.2-0.5-0.7-0.7-1-1c1-1,2.9-2.9,4.8-4.8H-5L-9,23l-1,5l5-1l7.7-7.9H1z"/>
	<path d="M6.6,14.1c-1.7,0-3.1,0.5-4.3,1.4l-1,0.7L2,17.4l1,1.4L7,14.8C7,14.8,6.8,14.3,6.6,14.1L6.6,14.1z"/>
</g>
</svg>
