<?xml version="1.0" encoding="utf-8"?>
<!-- Generator: Adobe Illustrator 18.1.1, SVG Export Plug-In . SVG Version: 6.00 Build 0)  -->
<!DOCTYPE svg PUBLIC "-//W3C//DTD SVG 1.1//EN" "http://www.w3.org/Graphics/SVG/1.1/DTD/svg11.dtd">
<svg version="1.1" id="Layer_1" xmlns="http://www.w3.org/2000/svg" xmlns:xlink="http://www.w3.org/1999/xlink" x="0px" y="0px"
	 viewBox="0 0 24 24" enable-background="new 0 0 24 24" xml:space="preserve">
<g transform="matrix(1 0 0 -1 0 1638)">
	<path d="M15,1629l0.7,1.8c0.9-0.4,1.8-0.7,2.4-0.9l-0.6-1.7l0-0.2L15,1629z M10.7,1630.9l0.8,1.8c1.2-0.5,2.6-1.1,3-1.4l-0.8-1.8
		L10.7,1630.9z M4.8,1631.9c-0.8,0-1.4-0.2-2-0.6l-1.1,1.7c0.9,0.6,1.9,0.9,3.1,0.9V1631.9z M0.5,1631.2l1.8-0.8
		c-0.3-0.7-0.3-1.3-0.1-1.8l-1.9-0.7C0,1629.1,0,1630.2,0.5,1631.2z M4.7,1625.8l-1.3-1.5c-1,1-1.7,1.6-2,2l1.5,1.3
		C3.6,1626.8,4.2,1626.2,4.7,1625.8z M12,1621.5c0-1.9-1.6-3.5-3.5-3.5s-3.5,1.6-3.5,3.5s1.6,3.5,3.5,3.5S12,1623.4,12,1621.5z"/>
</g>
<polygon points="24,8 23,7 21.5,8.5 20,7 19,8 20.5,9.5 19,11 20,12 21.5,10.5 23,12 24,11 22.5,9.5 "/>
<circle cx="8" cy="5" r="2"/>
</svg>
