<?xml version="1.0" encoding="utf-8"?>
<!-- Generator: Adobe Illustrator 16.0.4, SVG Export Plug-In . SVG Version: 6.00 Build 0)  -->
<!DOCTYPE svg PUBLIC "-//W3C//DTD SVG 1.1//EN" "http://www.w3.org/Graphics/SVG/1.1/DTD/svg11.dtd">
<svg version="1.1" id="Layer_1" xmlns="http://www.w3.org/2000/svg" xmlns:xlink="http://www.w3.org/1999/xlink" x="0px" y="0px"
	 width="24px" height="24px" viewBox="0 0 24 24" enable-background="new 0 0 24 24" xml:space="preserve">
<g transform="matrix(1 0 0 -1 0 1638)">
	<path d="M10.746,1619.531l4.723-0.996c-0.266-0.477-0.648-0.832-1.148-1.066s-1.023-0.297-1.57-0.188s-1,0.379-1.359,0.809
		C11.023,1618.512,10.809,1618.992,10.746,1619.531z M18.105,1621.945l1.113-3.059l-16.078,3.387l2.262,2.344l1.137,5.391
		c0.234,1.141,0.742,2.141,1.523,3s1.719,1.48,2.812,1.863c1.094,0.375,2.215,0.453,3.363,0.234c1.133-0.258,2.129-0.781,2.988-1.57
		s1.469-1.734,1.828-2.836s0.422-2.223,0.188-3.363L18.105,1621.945z"/>
</g>
</svg>
