<?xml version="1.0" encoding="utf-8"?>
<!-- Generator: Adobe Illustrator 19.1.0, SVG Export Plug-In . SVG Version: 6.00 Build 0)  -->
<!DOCTYPE svg PUBLIC "-//W3C//DTD SVG 1.1//EN" "http://www.w3.org/Graphics/SVG/1.1/DTD/svg11.dtd">
<svg version="1.1" id="Layer_1" xmlns="http://www.w3.org/2000/svg" xmlns:xlink="http://www.w3.org/1999/xlink" x="0px" y="0px"
	 viewBox="0 0 24 24" style="enable-background:new 0 0 24 24;" xml:space="preserve">
<g>
	<path d="M15.7,13.3c0.2-0.4,0.3-0.9,0.3-1.3h-1.7L15.7,13.3z"/>
	<path d="M15.5,8.5c-1.1-2-3.9-2.6-5.8-1.2l1.2,1.2c1.3-1,3.1,0,3.2,1.5h1.8C15.9,9.4,15.7,8.7,15.5,8.5C15.3,8.1,15.7,8.9,15.5,8.5
		z"/>
	<path d="M12,4c-3.9,0-7,3.1-7,7s3.1,7,7,7s7-3.1,7-7S15.9,4,12,4z M6,11c0-1.2,0.4-2.3,1-3.2l1.4,1.4C7.8,10.9,8,13,9.3,14.4
		c1.2,1.2,3.3,1.5,4.9,0.7l1,1.1c-0.9,0.6-2,0.9-3.1,0.9C8.7,17,6,14.3,6,11z M9.9,10.8l3,3.1c-0.9,0.3-1.9,0-2.5-0.8
		C10,12.4,9.9,11.5,9.9,10.8z M16.3,15.2L7.9,6.7C8.9,5.6,10.4,5,12,5c3.3,0,6,2.7,6,6C18,12.6,17.3,14.1,16.3,15.2z"/>
</g>
</svg>
