<?xml version="1.0" encoding="utf-8"?>
<!-- Generator: Adobe Illustrator 19.1.0, SVG Export Plug-In . SVG Version: 6.00 Build 0)  -->
<svg version="1.1" id="Layer_1" xmlns="http://www.w3.org/2000/svg" xmlns:xlink="http://www.w3.org/1999/xlink" x="0px" y="0px"
	 viewBox="-293 385 24 24" style="enable-background:new -293 385 24 24;" xml:space="preserve">
<path d="M-274.3,390.9c-1.6-1.6-4.3-1.5-5.8,0.1l0.2,0.2c0.5,0.5,1.3,0.7,2.1,0.4c0.8-0.3,1.7-0.1,2.4,0.6c1,0.9,0.9,2.4,0,3.4
	l-7.1,7.1c-0.9,1-2.4,0.9-3.4,0c-1-0.9-0.9-2.4,0-3.4l4.4-4.4c0.3-0.3,0.9-0.5,1.3-0.1c0.4,0.4,0.2,1-0.1,1.3l-3.4,3.4
	c-0.6,0.6-0.6,1.7,0.1,2.3l4.3-4.3c0.8-0.8,1.1-1.8,0.9-2.7c-0.2-0.9-0.9-1.6-1.7-1.9c-0.9-0.2-1.9,0-2.6,0.7l-4.4,4.4
	c-1.6,1.6-1.6,4.3,0.1,5.8c1.5,1.6,4.3,1.5,5.8-0.1l7-7c0.8-0.8,1.2-1.9,1.2-3C-273,392.6-273.5,391.6-274.3,390.9
	C-275,390.2-273.5,391.6-274.3,390.9C-275,390.2-273.5,391.6-274.3,390.9C-275,390.2-273.5,391.6-274.3,390.9
	C-275,390.2-273.5,391.6-274.3,390.9C-275,390.2-273.5,391.6-274.3,390.9C-275,390.2-273.5,391.6-274.3,390.9
	C-275.8,389.3-273.5,391.6-274.3,390.9z"/>
</svg>
