<?xml version="1.0" encoding="utf-8"?>
<!-- Generator: Adobe Illustrator 18.1.1, SVG Export Plug-In . SVG Version: 6.00 Build 0)  -->
<!DOCTYPE svg PUBLIC "-//W3C//DTD SVG 1.1//EN" "http://www.w3.org/Graphics/SVG/1.1/DTD/svg11.dtd">
<svg version="1.1" id="Layer_1" xmlns="http://www.w3.org/2000/svg" xmlns:xlink="http://www.w3.org/1999/xlink" x="0px" y="0px"
	 viewBox="0 0 24 24" enable-background="new 0 0 24 24" xml:space="preserve">
<path d="M14.5,4C11.5,4,9,6.5,9,9.5c0,1,0.3,1.9,0.7,2.8L4,18v2h4v-2h2v-2h2l1.2-1.2c0.4,0.1,0.9,0.2,1.3,0.2c3,0,5.5-2.5,5.5-5.5
	S17.5,4,14.5,4z M16,9c-0.8,0-1.5-0.7-1.5-1.5S15.2,6,16,6c0.8,0,1.5,0.7,1.5,1.5S16.8,9,16,9z"/>
</svg>
