<?xml version="1.0" encoding="utf-8"?>
<!-- Generator: Adobe Illustrator 16.0.4, SVG Export Plug-In . SVG Version: 6.00 Build 0)  -->
<!DOCTYPE svg PUBLIC "-//W3C//DTD SVG 1.1//EN" "http://www.w3.org/Graphics/SVG/1.1/DTD/svg11.dtd">
<svg version="1.1" id="Layer_1" xmlns="http://www.w3.org/2000/svg" xmlns:xlink="http://www.w3.org/1999/xlink" x="0px" y="0px"
	 width="24px" height="24px" viewBox="0 0 24 24" enable-background="new 0 0 24 24" xml:space="preserve">
<g transform="matrix(1 0 0 -1 0 1638)">
	<path d="M2.367,1634.156H1.43v0.527c0.727,0.023,1.09,0.258,1.09,0.703h0.645v-3.973H2.367V1634.156z M3.984,1627.582
		c0-0.336-0.07-0.598-0.211-0.785s-0.355-0.387-0.645-0.598l-0.316-0.223c-0.312-0.219-0.512-0.395-0.598-0.527h1.77v-0.703H1.219
		c0,0.273,0.059,0.543,0.176,0.809s0.371,0.539,0.762,0.82s0.656,0.492,0.797,0.633c0.141,0.156,0.215,0.328,0.223,0.516
		c-0.008,0.188-0.059,0.336-0.152,0.445c-0.094,0.117-0.227,0.176-0.398,0.176c-0.391,0-0.586-0.254-0.586-0.762H1.266
		c0.023,0.961,0.461,1.441,1.312,1.441c0.422,0,0.766-0.121,1.031-0.363C3.859,1628.211,3.984,1627.918,3.984,1627.582z
		 M1.336,1620.867c0.055,0.828,0.469,1.242,1.242,1.242c0.367,0,0.668-0.094,0.902-0.281c0.227-0.203,0.34-0.441,0.34-0.715
		s-0.055-0.473-0.164-0.598s-0.211-0.203-0.305-0.234c0.062,0,0.176-0.078,0.34-0.234s0.246-0.391,0.246-0.703
		s-0.109-0.594-0.328-0.844s-0.582-0.371-1.09-0.363c-0.797,0-1.215,0.426-1.254,1.277h0.75c0-0.445,0.191-0.668,0.574-0.668
		c0.141,0,0.27,0.051,0.387,0.152c0.109,0.102,0.164,0.25,0.164,0.445c0,0.391-0.285,0.586-0.855,0.586v0.539
		c0.258,0,0.449,0.031,0.574,0.094s0.188,0.207,0.188,0.434c0,0.328-0.168,0.492-0.504,0.492s-0.504-0.207-0.504-0.621H1.336z
		 M22.781,1621.453v-2.648H5.965v2.648H22.781z M22.781,1628.109v-2.648H5.965v2.648H22.781z M21.41,1634.73
		c0.383-0.008,0.707-0.145,0.973-0.41s0.398-0.59,0.398-0.973v-1.266H5.965v2.648H21.41z"/>
</g>
</svg>
