<?xml version="1.0" encoding="utf-8"?>
<!-- Generator: Adobe Illustrator 16.0.4, SVG Export Plug-In . SVG Version: 6.00 Build 0)  -->
<!DOCTYPE svg PUBLIC "-//W3C//DTD SVG 1.1//EN" "http://www.w3.org/Graphics/SVG/1.1/DTD/svg11.dtd">
<svg version="1.1" id="Layer_1" xmlns="http://www.w3.org/2000/svg" xmlns:xlink="http://www.w3.org/1999/xlink" x="0px" y="0px"
	 width="24px" height="24px" viewBox="0 0 24 24" enable-background="new 0 0 24 24" xml:space="preserve">
<g transform="matrix(1 0 0 -1 0 1638)">
	<path d="M13.266,1625.824c0-0.828,0.336-1.242,1.008-1.242c0.359,0,0.629,0.203,0.809,0.609l0.879-0.445
		c-0.438-0.734-1.016-1.102-1.734-1.102s-1.266,0.195-1.641,0.586s-0.566,0.922-0.574,1.594c-0.008,0.68,0.184,1.215,0.574,1.605
		s0.887,0.586,1.488,0.586c0.867,0,1.488-0.34,1.863-1.02L15,1626.504c-0.164,0.375-0.426,0.562-0.785,0.562
		C13.582,1627.066,13.266,1626.652,13.266,1625.824z M11.965,1631.59c-1.023-0.008-1.98-0.27-2.871-0.785s-1.594-1.219-2.109-2.109
		c-0.531-0.891-0.797-1.844-0.797-2.859c0-1.023,0.266-1.977,0.797-2.859c0.531-0.891,1.238-1.594,2.121-2.109
		c0.891-0.516,1.832-0.773,2.824-0.773c1,0,1.938,0.238,2.812,0.715s1.57,1.105,2.086,1.887s0.805,1.66,0.867,2.637
		c0.141,1.805-0.379,3.297-1.559,4.477C14.949,1630.996,13.559,1631.59,11.965,1631.59z M9.211,1625.824
		c0-0.828,0.336-1.242,1.008-1.242c0.359,0,0.629,0.203,0.809,0.609l0.867-0.445c-0.406-0.734-1.023-1.102-1.852-1.102
		c-0.633,0-1.141,0.191-1.523,0.574s-0.574,0.914-0.574,1.594c0,0.688,0.195,1.227,0.586,1.617s0.883,0.586,1.477,0.586
		c0.859,0,1.484-0.34,1.875-1.02l-0.949-0.492c-0.164,0.375-0.422,0.562-0.773,0.562C9.527,1627.066,9.211,1626.652,9.211,1625.824z
		 M11.953,1632.867c0.945,0,1.852-0.188,2.719-0.562s1.617-0.871,2.25-1.488c0.625-0.617,1.125-1.363,1.5-2.238
		s0.562-1.867,0.562-2.977s-0.316-2.203-0.949-3.281s-1.488-1.934-2.566-2.566s-2.25-0.949-3.516-0.949
		c-1.258,0-2.426,0.32-3.504,0.961c-1.07,0.641-1.926,1.5-2.566,2.578s-0.961,2.164-0.961,3.258s0.188,2.074,0.562,2.941
		s0.879,1.617,1.512,2.25s1.379,1.137,2.238,1.512S11,1632.867,11.953,1632.867z"/>
</g>
</svg>
