<?xml version="1.0" encoding="utf-8"?>
<!-- Generator: Adobe Illustrator 18.1.1, SVG Export Plug-In . SVG Version: 6.00 Build 0)  -->
<!DOCTYPE svg PUBLIC "-//W3C//DTD SVG 1.1//EN" "http://www.w3.org/Graphics/SVG/1.1/DTD/svg11.dtd">
<svg version="1.1" id="Layer_1" xmlns="http://www.w3.org/2000/svg" xmlns:xlink="http://www.w3.org/1999/xlink" x="0px" y="0px"
	 viewBox="0 0 24 24" enable-background="new 0 0 24 24" xml:space="preserve">
<path d="M18.9,10.9c-0.7,0-1.4,0.3-1.8,0.9V7h-4c0.2-0.4,0.4-0.8,0.4-1.2c0-1.2-1-2.2-2.2-2.2C10,3.5,9,4.5,9,5.8
	C9,6.2,9.2,6.6,9.4,7H5v3.6c0.2,0,0.4-0.1,0.6-0.1c1.4,0,2.5,1.1,2.5,2.5S7,15.5,5.6,15.5c-0.2,0-0.4,0-0.6-0.1V19h4.9
	C9.4,19.4,9,20,9,20.8C9,22,10,23,11.3,23c1.2,0,2.2-1,2.2-2.2c0-0.7-0.3-1.4-0.9-1.8h4.5v-4.5c0.4,0.5,1,0.9,1.8,0.9
	c1.2,0,2.2-1,2.2-2.2C21.1,11.9,20.1,10.9,18.9,10.9z"/>
</svg>
