<?xml version="1.0" encoding="utf-8"?>
<!-- Generator: Adobe Illustrator 16.0.4, SVG Export Plug-In . SVG Version: 6.00 Build 0)  -->
<!DOCTYPE svg PUBLIC "-//W3C//DTD SVG 1.1//EN" "http://www.w3.org/Graphics/SVG/1.1/DTD/svg11.dtd">
<svg version="1.1" id="Layer_1" xmlns="http://www.w3.org/2000/svg" xmlns:xlink="http://www.w3.org/1999/xlink" x="0px" y="0px"
	 width="24px" height="24px" viewBox="0 0 24 24" enable-background="new 0 0 24 24" xml:space="preserve">
<g transform="matrix(1 0 0 -1 0 1638)">
	<path d="M19.535,1622.543v10.758H15.34c-0.461-0.008-0.855-0.176-1.184-0.504s-0.492-0.723-0.492-1.184v-9.129
		c0.18,0.039,0.344,0.059,0.492,0.059H19.535z M14.156,1635.656h7.746v-15.48h-7.746c-0.57-0.008-1.062-0.207-1.477-0.598
		s-0.641-0.867-0.68-1.43c-0.031,0.562-0.258,1.039-0.68,1.43s-0.918,0.59-1.488,0.598H2.098v15.48h7.734
		c0.57,0,1.066-0.195,1.488-0.586s0.648-0.867,0.68-1.43c0.039,0.562,0.266,1.039,0.68,1.43S13.586,1635.656,14.156,1635.656z"/>
</g>
</svg>
