<?xml version="1.0" encoding="utf-8"?>
<!-- Generator: Adobe Illustrator 18.1.1, SVG Export Plug-In . SVG Version: 6.00 Build 0)  -->
<!DOCTYPE svg PUBLIC "-//W3C//DTD SVG 1.1//EN" "http://www.w3.org/Graphics/SVG/1.1/DTD/svg11.dtd">
<svg version="1.1" id="Layer_1" xmlns="http://www.w3.org/2000/svg" xmlns:xlink="http://www.w3.org/1999/xlink" x="0px" y="0px"
	 viewBox="0 0 24 24" enable-background="new 0 0 24 24" xml:space="preserve">
<g>
	<polygon points="23,5 19,5 19,7 21,7 21,17 19,17 19,19 23,19 	"/>
</g>
<g>
	<polygon points="18,5 14,5 14,7 16,7 16,17 14,17 14,19 18,19 	"/>
</g>
<g>
	<polygon points="2,5 6,5 6,7 4,7 4,17 6,17 6,19 2,19 	"/>
</g>
<g>
	<polygon points="7,5 11,5 11,7 9,7 9,17 11,17 11,19 7,19 	"/>
</g>
</svg>
