<?xml version="1.0" encoding="utf-8"?>
<!-- Generator: Adobe Illustrator 16.0.4, SVG Export Plug-In . SVG Version: 6.00 Build 0)  -->
<!DOCTYPE svg PUBLIC "-//W3C//DTD SVG 1.1//EN" "http://www.w3.org/Graphics/SVG/1.1/DTD/svg11.dtd">
<svg version="1.1" id="Layer_1" xmlns="http://www.w3.org/2000/svg" xmlns:xlink="http://www.w3.org/1999/xlink" x="0px" y="0px"
	 width="24px" height="24px" viewBox="0 0 24 24" enable-background="new 0 0 24 24" xml:space="preserve">
<g transform="matrix(1 0 0 -1 0 1638)">
	<path d="M3.352,1626.586l3.668,3.398v-6.504L3.352,1626.586z M9.434,1625.66h6.832v-2.168H9.434V1625.66z M9.434,1629.984h11.215
		v-2.191H9.434V1629.984z M3.328,1620.984h17.344v-2.18H4.477c-0.328,0-0.602,0.109-0.82,0.328s-0.328,0.488-0.328,0.809V1620.984z
		 M3.328,1634.66h16.184c0.32-0.008,0.59-0.121,0.809-0.34s0.328-0.484,0.328-0.797v-1.055H3.328V1634.66z"/>
</g>
</svg>
