<?xml version="1.0" encoding="utf-8"?>
<!-- Generator: Adobe Illustrator 16.0.4, SVG Export Plug-In . SVG Version: 6.00 Build 0)  -->
<!DOCTYPE svg PUBLIC "-//W3C//DTD SVG 1.1//EN" "http://www.w3.org/Graphics/SVG/1.1/DTD/svg11.dtd">
<svg version="1.1" id="Layer_1" xmlns="http://www.w3.org/2000/svg" xmlns:xlink="http://www.w3.org/1999/xlink" x="0px" y="0px"
	 width="24px" height="24px" viewBox="0 0 24 24" enable-background="new 0 0 24 24" xml:space="preserve">
<g transform="matrix(1 0 0 -1 0 1638)">
	<path d="M13.605,1636.406c0.898,0,1.809-0.195,2.73-0.586s1.57-0.934,1.945-1.629c-2.758-0.07-4.961-1.113-6.609-3.129l1.324-2.004
		l-6.715,0.258l0.492,6.785l1.746-1.969C10.223,1635.648,11.918,1636.406,13.605,1636.406z M4.195,1623.012
		c0.297-0.195,0.598-0.465,0.902-0.809l6.398,5.766l3.738-0.117l-2.039,3.035c0.734,0.742,1.602,1.316,2.602,1.723
		s2.051,0.641,3.152,0.703c0.516-1.07,0.793-1.816,0.832-2.238l-13.066-11.766l-4.828-0.527l1.043,4.711l2.461,2.215
		c0,0,0.891,0.801,2.672,2.402l1.723-0.07L4.195,1623.012z"/>
</g>
</svg>
