<?xml version="1.0" encoding="utf-8"?>
<!-- Generator: Adobe Illustrator 16.0.4, SVG Export Plug-In . SVG Version: 6.00 Build 0)  -->
<!DOCTYPE svg PUBLIC "-//W3C//DTD SVG 1.1//EN" "http://www.w3.org/Graphics/SVG/1.1/DTD/svg11.dtd">
<svg version="1.1" id="Layer_1" xmlns="http://www.w3.org/2000/svg" xmlns:xlink="http://www.w3.org/1999/xlink" x="0px" y="0px"
	 width="24px" height="24px" viewBox="0 0 24 24" enable-background="new 0 0 24 24" xml:space="preserve">
<g transform="matrix(1 0 0 -1 0 1638)">
	<path d="M11.977,1617.539c-0.547,0-1.051,0.168-1.512,0.504c-0.453,0.336-0.762,0.758-0.926,1.266h4.828
		c-0.172-0.523-0.477-0.949-0.914-1.277S12.523,1617.539,11.977,1617.539z M5.461,1628.742c0,1.172,0.293,2.258,0.879,3.258
		s1.379,1.797,2.379,2.391s2.078,0.898,3.234,0.914c0.875-0.016,1.711-0.203,2.508-0.562s1.484-0.828,2.062-1.406
		s1.047-1.27,1.406-2.074c0.344-0.805,0.516-1.645,0.516-2.52v-5.52l1.723-2.754H3.738l1.723,2.754V1628.742z"/>
</g>
</svg>
