<?xml version="1.0" encoding="utf-8"?>
<!-- Generator: Adobe Illustrator 18.1.1, SVG Export Plug-In . SVG Version: 6.00 Build 0)  -->
<!DOCTYPE svg PUBLIC "-//W3C//DTD SVG 1.1//EN" "http://www.w3.org/Graphics/SVG/1.1/DTD/svg11.dtd">
<svg version="1.1" id="Layer_1" xmlns="http://www.w3.org/2000/svg" xmlns:xlink="http://www.w3.org/1999/xlink" x="0px" y="0px"
	 viewBox="0 0 24 24" enable-background="new 0 0 24 24" xml:space="preserve">
<g>
	<path d="M3,7v9c0,1.7,1.3,3,3,3h15V7H3z M11,9h2v2h-2V9z M11,12h2v2h-2V12z M8,9h2v2H8V9z M8,12h2v2H8V12z M7,17H6
		c-0.6,0-1-0.4-1-1v-1h2V17z M7,14H5v-2h2V14z M7,11H5V9h2V11z M16,17H8v-2h8V17z M16,14h-2v-2h2V14z M16,11h-2V9h2V11z M19,17h-2
		v-2h2V17z M19,14h-2v-2h2V14z M19,11h-2V9h2V11z"/>
</g>
</svg>
