<?xml version="1.0" encoding="utf-8"?>
<!-- Generator: Adobe Illustrator 18.1.1, SVG Export Plug-In . SVG Version: 6.00 Build 0)  -->
<!DOCTYPE svg PUBLIC "-//W3C//DTD SVG 1.1//EN" "http://www.w3.org/Graphics/SVG/1.1/DTD/svg11.dtd">
<svg version="1.1" id="Layer_1" xmlns="http://www.w3.org/2000/svg" xmlns:xlink="http://www.w3.org/1999/xlink" x="0px" y="0px"
	 viewBox="0 0 24 24" enable-background="new 0 0 24 24" xml:space="preserve">
<path d="M21,7H8V5h13V7z"/>
<path d="M21,13H8v-2h13V13z"/>
<path d="M21,19H8v-2h13V19z"/>
<polygon points="4,4 6,4 6,8 5,8 5,5 4,5 "/>
<polygon points="3,10 3,9 6,9 6,12 4,12 4,13 6,13 6,14 3,14 3,11 5,11 5,10 "/>
<polygon points="6,20 3,20 3,19 5,19 5,18 4,18 4,17 5,17 5,16 3,16 3,15 6,15 "/>
</svg>
