<?xml version="1.0" encoding="utf-8"?>
<!-- Generator: Adobe Illustrator 16.0.4, SVG Export Plug-In . SVG Version: 6.00 Build 0)  -->
<!DOCTYPE svg PUBLIC "-//W3C//DTD SVG 1.1//EN" "http://www.w3.org/Graphics/SVG/1.1/DTD/svg11.dtd">
<svg version="1.1" id="Layer_1" xmlns="http://www.w3.org/2000/svg" xmlns:xlink="http://www.w3.org/1999/xlink" x="0px" y="0px"
	 width="24px" height="24px" viewBox="0 0 24 24" enable-background="new 0 0 24 24" xml:space="preserve">
<g transform="matrix(1 0 0 -1 0 1638)">
	<path d="M8.578,1631.484l3,2.988l3.117-3.117c0.031-0.031,0.07-0.039,0.117-0.023c0.055,0.016,0.094,0.172,0.117,0.469
		c0.047,0.641,0.258,1.117,0.633,1.43s0.793,0.473,1.254,0.48s0.895-0.176,1.301-0.551l0.188-0.188
		c0.484-0.492,0.727-0.98,0.727-1.465s-0.141-0.891-0.422-1.219s-0.602-0.531-0.961-0.609s-0.609-0.117-0.75-0.117
		s-0.219-0.023-0.234-0.07s-0.008-0.09,0.023-0.129l3.117-3.117l-3.023-3.023c-0.031-0.039-0.039-0.082-0.023-0.129
		s0.047-0.07,0.094-0.07c0.062-0.008,0.203-0.023,0.422-0.047s0.387-0.047,0.504-0.07c0.391-0.086,0.727-0.297,1.008-0.633
		s0.426-0.734,0.434-1.195s-0.176-0.891-0.551-1.289l-0.188-0.188c-0.5-0.5-0.988-0.75-1.465-0.75s-0.902,0.164-1.277,0.492
		c-0.375,0.32-0.586,0.801-0.633,1.441c-0.031,0.477-0.113,0.648-0.246,0.516l-3.422-3.422l-3.27,3.27
		c-0.094,0.094-0.074,0.16,0.059,0.199s0.336,0.07,0.609,0.094s0.465,0.047,0.574,0.07c0.391,0.07,0.727,0.277,1.008,0.621
		s0.426,0.75,0.434,1.219s-0.176,0.891-0.551,1.266l-0.188,0.199c-0.164,0.188-0.402,0.359-0.715,0.516
		c-0.312,0.148-0.633,0.223-0.961,0.223s-0.66-0.141-0.996-0.422s-0.547-0.621-0.633-1.02c-0.023-0.102-0.047-0.289-0.07-0.562
		s-0.055-0.477-0.094-0.609s-0.105-0.156-0.199-0.07l-3.234,3.234l3.387,3.387c0.031,0.031,0.039,0.07,0.023,0.117
		c-0.008,0.047-0.027,0.07-0.059,0.07s-0.16,0.016-0.387,0.047c-0.227,0.023-0.395,0.047-0.504,0.07
		c-0.391,0.086-0.727,0.297-1.008,0.633s-0.426,0.734-0.434,1.195s0.176,0.891,0.551,1.289l0.188,0.188
		c0.5,0.5,0.984,0.75,1.453,0.75s0.891-0.156,1.266-0.469c0.359-0.305,0.578-0.828,0.656-1.57
		C8.375,1631.5,8.453,1631.391,8.578,1631.484z"/>
</g>
</svg>
