<?xml version="1.0" encoding="utf-8"?>
<!-- Generator: Adobe Illustrator 18.1.1, SVG Export Plug-In . SVG Version: 6.00 Build 0)  -->
<!DOCTYPE svg PUBLIC "-//W3C//DTD SVG 1.1//EN" "http://www.w3.org/Graphics/SVG/1.1/DTD/svg11.dtd">
<svg version="1.1" id="Layer_2" xmlns="http://www.w3.org/2000/svg" xmlns:xlink="http://www.w3.org/1999/xlink" x="0px" y="0px"
	 viewBox="0 0 24 24" enable-background="new 0 0 24 24" xml:space="preserve">
<g>
	<polygon points="16,14 18,16 18,5 14,5 14,7 16,7 	"/>
	<polygon points="16,16 9,9 7,7 6,6 5,5 2,2 1,3 3,5 2,5 2,19 6,19 6,17 4,17 4,7 5,7 7,9 7,19 11,19 11,17 9,17 9,11 15,17 14,17 
		14,19 17,19 21,23 22,22 18,18 	"/>
	<polygon points="11,7 11,5 7,5 9,7 	"/>
	<polygon points="19,5 19,7 21,7 21,17 19,17 21,19 23,19 23,5 	"/>
</g>
</svg>
