<?xml version="1.0" encoding="utf-8"?>
<!-- Generator: Adobe Illustrator 18.1.1, SVG Export Plug-In . SVG Version: 6.00 Build 0)  -->
<!DOCTYPE svg PUBLIC "-//W3C//DTD SVG 1.1//EN" "http://www.w3.org/Graphics/SVG/1.1/DTD/svg11.dtd">
<svg version="1.1" id="Layer_1" xmlns="http://www.w3.org/2000/svg" xmlns:xlink="http://www.w3.org/1999/xlink" x="0px" y="0px"
	 viewBox="0 0 24 24" enable-background="new 0 0 24 24" xml:space="preserve">
<path d="M16,5H4v12c0,1.6,1.3,3,3,3h12V8C19,6.3,17.6,5,16,5z M7.5,17C6.7,17,6,16.3,6,15.5S6.7,14,7.5,14S9,14.7,9,15.5
	C9,16.3,8.3,17,7.5,17z M7.5,11C6.7,11,6,10.3,6,9.5S6.7,8,7.5,8S9,8.7,9,9.5S8.3,11,7.5,11z M11.5,14c-0.8,0-1.5-0.7-1.5-1.5
	s0.7-1.5,1.5-1.5s1.5,0.7,1.5,1.5S12.3,14,11.5,14z M15.5,17c-0.8,0-1.5-0.7-1.5-1.5s0.7-1.5,1.5-1.5c0.8,0,1.5,0.7,1.5,1.5
	C17,16.3,16.3,17,15.5,17z M15.5,11c-0.8,0-1.5-0.7-1.5-1.5S14.7,8,15.5,8C16.3,8,17,8.7,17,9.5S16.3,11,15.5,11z"/>
</svg>
