<?xml version="1.0" encoding="utf-8"?>
<!-- Generator: Adobe Illustrator 16.0.4, SVG Export Plug-In . SVG Version: 6.00 Build 0)  -->
<!DOCTYPE svg PUBLIC "-//W3C//DTD SVG 1.1//EN" "http://www.w3.org/Graphics/SVG/1.1/DTD/svg11.dtd">
<svg version="1.1" id="Layer_1" xmlns="http://www.w3.org/2000/svg" xmlns:xlink="http://www.w3.org/1999/xlink" x="0px" y="0px"
	 width="24px" height="24px" viewBox="0 0 24 24" enable-background="new 0 0 24 24" xml:space="preserve">
<g transform="matrix(1 0 0 -1 0 1638)">
	<path d="M16.312,1630.98v2.602H8.438c-0.18,0-0.336-0.066-0.469-0.199s-0.199-0.289-0.199-0.469v-1.934H16.312z M16.254,1619.977
		v6.422H7.605v-6.422H16.254z M8.238,1634.754h9.188v-3.773h2.215c0.469,0,0.867-0.164,1.195-0.492s0.492-0.723,0.492-1.184v-7.5
		h-3.902v-3H6.422v3h-2.59c-0.32,0-0.594,0.113-0.82,0.34s-0.34,0.5-0.34,0.82v8.016h3.891v2.098c0,0.461,0.164,0.855,0.492,1.184
		S7.777,1634.754,8.238,1634.754z"/>
</g>
</svg>
