<?xml version="1.0" encoding="utf-8"?>
<!-- Generator: Adobe Illustrator 18.1.1, SVG Export Plug-In . SVG Version: 6.00 Build 0)  -->
<!DOCTYPE svg PUBLIC "-//W3C//DTD SVG 1.1//EN" "http://www.w3.org/Graphics/SVG/1.1/DTD/svg11.dtd">
<svg version="1.1" id="Layer_1" xmlns="http://www.w3.org/2000/svg" xmlns:xlink="http://www.w3.org/1999/xlink" x="0px" y="0px"
	 viewBox="0 0 500 500" enable-background="new 0 0 500 500" xml:space="preserve">
<path d="M377.1,106.2c0,6.3-2.1,12.5-6.2,18.8l-29.2,29.2l-18.8-16.7l45.8-45.8C375,93.8,377.1,100,377.1,106.2z M366.7,216.7h66.7
	c0,6.2-2.1,12.5-8.3,18.7c-6.2,6.2-10.4,8.3-16.7,8.3h-41.7C366.7,243.8,366.7,216.7,366.7,216.7z M237.5,112.5V45.8
	c6.2,0,12.5,2.1,18.8,8.3c6.2,6.3,8.3,10.4,8.3,16.7v41.7H237.5L237.5,112.5z M370.8,356.3c-6.2,0-12.5-2.1-16.7-6.2L325,320.8
	l16.7-16.7l45.8,45.8C383.3,354.2,377.1,356.3,370.8,356.3z M129.2,102.1c6.2,0,12.5,2.1,16.7,6.2l29.2,29.2l-16.7,18.8l-45.8-47.9
	C116.7,104.2,122.9,102.1,129.2,102.1z M237.5,345.8h25v66.7c-6.2,0-12.5-2.1-18.8-8.3c-6.2-6.2-8.3-10.4-8.3-16.7L237.5,345.8
	L237.5,345.8z M91.7,216.7h41.7v25H66.7c0-6.2,2.1-12.5,8.3-18.7C81.3,216.7,85.4,216.7,91.7,216.7z M129.2,333.3l29.2-29.2
	l16.7,16.7l-45.8,45.8c-4.2-4.2-6.3-10.4-6.3-16.7C122.9,343.8,125,337.5,129.2,333.3z"/>
<circle cx="250" cy="229.2" r="83.3"/>
</svg>
