<?xml version="1.0" encoding="utf-8"?>
<!-- Generator: Adobe Illustrator 16.0.4, SVG Export Plug-In . SVG Version: 6.00 Build 0)  -->
<!DOCTYPE svg PUBLIC "-//W3C//DTD SVG 1.1//EN" "http://www.w3.org/Graphics/SVG/1.1/DTD/svg11.dtd">
<svg version="1.1" id="Layer_1" xmlns="http://www.w3.org/2000/svg" xmlns:xlink="http://www.w3.org/1999/xlink" x="0px" y="0px"
	 width="24px" height="24px" viewBox="0 0 24 24" enable-background="new 0 0 24 24" xml:space="preserve">
<g transform="matrix(1 0 0 -1 0 1638)">
	<path d="M7.945,1628.859c1.258,1.047,2.582,1.438,3.973,1.172c0.953-0.172,1.75-0.605,2.391-1.301
		c0.211-0.227,0.309-0.504,0.293-0.832s-0.145-0.602-0.387-0.82c-0.484-0.438-0.762-0.68-0.832-0.727
		c-0.133,0.547-0.426,0.98-0.879,1.301c-0.445,0.32-0.949,0.473-1.512,0.457s-1.051-0.219-1.465-0.609l-2.789-2.59
		c-0.516-0.508-0.77-1.098-0.762-1.77s0.238-1.234,0.691-1.688c0.789-0.805,1.754-0.859,2.895-0.164
		c0.297,0.18,0.551,0.371,0.762,0.574c0.219,0.211,0.41,0.324,0.574,0.34s0.469-0.043,0.914-0.176s0.961-0.164,1.547-0.094
		c-0.125-0.117-0.375-0.355-0.75-0.715s-0.648-0.617-0.82-0.773c-0.672-0.594-1.25-1-1.734-1.219
		c-1.305-0.594-2.559-0.578-3.762,0.047c-1,0.523-1.684,1.34-2.051,2.449c-0.375,1.109-0.328,2.191,0.141,3.246
		c0.234,0.539,0.578,1.016,1.031,1.43c0.156,0.141,0.516,0.5,1.078,1.078S7.539,1628.516,7.945,1628.859z M14.906,1634.273
		c0.367,0.094,0.797,0.121,1.289,0.082c0.492-0.031,1-0.184,1.523-0.457s0.953-0.617,1.289-1.031
		c0.711-0.875,1.043-1.902,0.996-3.082c-0.039-1.18-0.504-2.184-1.395-3.012c-0.203-0.18-0.57-0.543-1.102-1.09
		c-1.094-1.117-2.031-1.863-2.812-2.238c-0.781-0.383-1.648-0.484-2.602-0.305s-1.75,0.617-2.391,1.312
		c-0.203,0.234-0.297,0.512-0.281,0.832s0.141,0.59,0.375,0.809c0.492,0.445,0.773,0.688,0.844,0.727
		c0.133-0.547,0.426-0.98,0.879-1.301c0.445-0.32,0.949-0.469,1.512-0.445s1.047,0.227,1.453,0.609l2.789,2.578
		c0.516,0.516,0.773,1.105,0.773,1.77c0,0.672-0.191,1.195-0.574,1.57c-0.664,0.664-1.328,0.902-1.992,0.715
		s-1.293-0.555-1.887-1.102c-0.258-0.242-0.582-0.309-0.973-0.199c-0.398,0.109-0.707,0.188-0.926,0.234s-0.562,0.043-1.031-0.012
		c0.125,0.109,0.375,0.348,0.75,0.715c0.375,0.359,0.648,0.617,0.82,0.773s0.438,0.371,0.797,0.645s0.672,0.469,0.938,0.586
		S14.547,1634.18,14.906,1634.273z"/>
</g>
</svg>
