<?xml version="1.0" encoding="utf-8"?>
<!-- Generator: Adobe Illustrator 16.0.4, SVG Export Plug-In . SVG Version: 6.00 Build 0)  -->
<!DOCTYPE svg PUBLIC "-//W3C//DTD SVG 1.1//EN" "http://www.w3.org/Graphics/SVG/1.1/DTD/svg11.dtd">
<svg version="1.1" id="Layer_1" xmlns="http://www.w3.org/2000/svg" xmlns:xlink="http://www.w3.org/1999/xlink" x="0px" y="0px"
	 width="24px" height="24px" viewBox="0 0 24 24" enable-background="new 0 0 24 24" xml:space="preserve">
<g transform="matrix(1 0 0 -1 0 1638)">
	<path d="M18.879,1628.859v2.051H8.309v-2.051H18.879z M18.879,1621.184v5.906h-3.621v-5.906H18.879z M13.488,1625.918v1.172H8.32
		v-1.172H13.488z M13.488,1623.551v1.172H8.32v-1.172H13.488z M13.488,1621.172v1.172H8.32v-1.172H13.488z M3.598,1622.449
		c0-1.031,0.391-1.547,1.172-1.547c0.383-0.008,0.676,0.129,0.879,0.41s0.305,0.66,0.305,1.137v10.793h13.57
		c0.469,0,0.867-0.164,1.195-0.492s0.492-0.727,0.492-1.195v-12.75H4.77c-0.992,0-1.73,0.289-2.215,0.867s-0.727,1.488-0.727,2.73
		v5.977h2.906v-1.781H3.598V1622.449z"/>
</g>
</svg>
