<?xml version="1.0" encoding="utf-8"?>
<!-- Generator: Adobe Illustrator 18.1.1, SVG Export Plug-In . SVG Version: 6.00 Build 0)  -->
<svg version="1.1" id="Layer_1" xmlns="http://www.w3.org/2000/svg" xmlns:xlink="http://www.w3.org/1999/xlink" x="0px" y="0px"
	 viewBox="0 0 24 24" enable-background="new 0 0 24 24" xml:space="preserve">
<g transform="matrix(1 0 0 -1 0 1638)" display="none">
	<path display="inline" d="M14.9,1631.5c0.8,0,1.6-0.3,2.3-0.9c0.3-0.3,0.6-0.7,0.8-1.1c0.2-0.5,0.3-0.9,0.3-1.5
		c0-1.4-0.6-2.6-1.8-3.6c-0.5-0.4-1.3-1.2-2.6-2.2s-1.9-1.5-1.9-1.5l-4.6,3.8c-0.5,0.5-1,1-1.3,1.6c-0.3,0.6-0.5,1.2-0.5,1.8
		c0,0.5,0.1,1.1,0.2,1.5c0.2,0.7,0.7,1.3,1.3,1.7c0.6,0.4,1.2,0.6,1.9,0.6c1.2,0,2.2-0.5,2.9-1.5C12.8,1631,13.8,1631.5,14.9,1631.5
		z"/>
</g>
<path display="none" d="M15.1,7.4c-1.1,0-3.1,1-3.1,2.3c0-1.2-1.9-2.3-3.1-2.3c-1.4,0-2.6,0.8-3.2,2.1c-1.2,2.5,1.1,4.4,2.8,5.9
	C9.4,16,12,18.2,12,18.2s3.9-3.2,4.6-3.9c1.2-1.1,2.3-2.5,1.9-4.2C18.1,8.5,16.5,7.4,15.1,7.4z"/>
<path d="M15,6c-2,0-3,2-3,2s-1-2-3-2c-2.5,0-4,2-4,4c0,4,5,5,7,8c2-3,7-4,7-8C19,8,17.5,6,15,6z"/>
</svg>
