<?xml version="1.0" encoding="utf-8"?>
<!-- Generator: Adobe Illustrator 16.0.4, SVG Export Plug-In . SVG Version: 6.00 Build 0)  -->
<!DOCTYPE svg PUBLIC "-//W3C//DTD SVG 1.1//EN" "http://www.w3.org/Graphics/SVG/1.1/DTD/svg11.dtd">
<svg version="1.1" id="Layer_1" xmlns="http://www.w3.org/2000/svg" xmlns:xlink="http://www.w3.org/1999/xlink" x="0px" y="0px"
	 width="24px" height="24px" viewBox="0 0 24 24" enable-background="new 0 0 24 24" xml:space="preserve">
<g transform="matrix(1 0 0 -1 0 1638)">
	<path d="M9.422,1629.984h11.227v-2.18H9.422V1629.984z M9.422,1625.672h6.844v-2.18H9.422V1625.672z M3.328,1623.48v6.504
		l3.68-3.105L3.328,1623.48z M3.316,1620.984h17.355v-2.18H4.465c-0.312,0-0.582,0.109-0.809,0.328s-0.34,0.488-0.34,0.809V1620.984
		z M3.316,1634.672H19.5c0.312,0,0.582-0.109,0.809-0.328s0.34-0.488,0.34-0.809v-1.055H3.316V1634.672z"/>
</g>
</svg>
