<?xml version="1.0" encoding="utf-8"?>
<!-- Generator: Adobe Illustrator 18.1.1, SVG Export Plug-In . SVG Version: 6.00 Build 0)  -->
<!DOCTYPE svg PUBLIC "-//W3C//DTD SVG 1.1//EN" "http://www.w3.org/Graphics/SVG/1.1/DTD/svg11.dtd">
<svg version="1.1" id="Layer_1" xmlns="http://www.w3.org/2000/svg" xmlns:xlink="http://www.w3.org/1999/xlink" x="0px" y="0px"
	 viewBox="0 0 24 24" enable-background="new 0 0 24 24" xml:space="preserve">
<path fill="#5D5D5D" d="M38.1,12.9c-0.9,0-1.9-0.1-2.9-0.3c-1-0.2-1.8-0.4-2.4-0.6L32,11.6c0,1.1,0.3,2.1,0.8,3
	c0.5,0.9,1.3,1.6,2.2,2.2c0.9,0.5,1.8,0.8,2.8,0.8c1,0,1.8-0.2,2.5-0.5c0.7-0.3,1.4-0.7,1.9-1.3c0.5-0.5,1-1.2,1.3-1.9
	c0.3-0.7,0.5-1.5,0.5-2.3C42.1,12.5,40.1,12.9,38.1,12.9z"/>
<path d="M5,6v11l-3,3h17c1.7,0,3-1.3,3-3V6H5z M16.2,8.5c0.7,0,1.2,0.6,1.2,1.2S16.9,11,16.2,11S15,10.4,15,9.8S15.6,8.5,16.2,8.5z
	 M10.8,8.5c0.7,0,1.2,0.6,1.2,1.2S11.4,11,10.8,11s-1.2-0.6-1.2-1.2S10.1,8.5,10.8,8.5z M13.5,17c-5.1,0-6-5-6-5s2,1,6,1s6-1,6-1
	S18.5,17,13.5,17z"/>
</svg>
