<?xml version="1.0" encoding="utf-8"?>
<!-- Generator: Adobe Illustrator 18.1.1, SVG Export Plug-In . SVG Version: 6.00 Build 0)  -->
<!DOCTYPE svg PUBLIC "-//W3C//DTD SVG 1.1//EN" "http://www.w3.org/Graphics/SVG/1.1/DTD/svg11.dtd">
<svg version="1.1" id="Layer_1" xmlns="http://www.w3.org/2000/svg" xmlns:xlink="http://www.w3.org/1999/xlink" x="0px" y="0px"
	 viewBox="0 0 24 24" enable-background="new 0 0 24 24" xml:space="preserve">
<g>
	<g>
		<polygon points="21,11 15,18 11,14 10,15 15,20 22,12 		"/>
	</g>
	<path d="M17,14V3H4v13c0,1.7,1.3,3,3,3h5l-3-3H6v-1h2.6l1-1H6v-1h9v1h-2l1,1h2L17,14z M6,5h4v1H6V5z M6,7h4v1H6V7z M6,9h4v1H6V9z
		 M15,12H6v-1h9V12z M11,10V5h4v5H11z"/>
</g>
</svg>
