<?xml version="1.0" encoding="utf-8"?>
<!-- Generator: Adobe Illustrator 16.0.4, SVG Export Plug-In . SVG Version: 6.00 Build 0)  -->
<!DOCTYPE svg PUBLIC "-//W3C//DTD SVG 1.1//EN" "http://www.w3.org/Graphics/SVG/1.1/DTD/svg11.dtd">
<svg version="1.1" id="Layer_1" xmlns="http://www.w3.org/2000/svg" xmlns:xlink="http://www.w3.org/1999/xlink" x="0px" y="0px"
	 width="24px" height="24px" viewBox="0 0 24 24" enable-background="new 0 0 24 24" xml:space="preserve">
<g transform="matrix(1 0 0 -1 0 1638)">
	<path d="M19.371,1629.879l1.23,0.668l0.914-1.699l1.664,0.902l0.68-1.266l-1.688-0.902l0.891-1.652l-1.242-0.68l-0.891,1.664
		l-1.676-0.867l-0.68,1.242l1.688,0.902L19.371,1629.879z M14.988,1628.965l0.738,1.816c0.945-0.406,1.762-0.707,2.449-0.902
		l-0.551-1.723l-0.047-0.164L14.988,1628.965z M11.309,1630.57l0.773,1.828c1.164-0.484,1.988-0.852,2.473-1.102l-0.809-1.828
		L11.309,1630.57z M6.914,1634.719c0.5,0.406,1.078,0.582,1.734,0.527c0.656-0.062,1.188-0.344,1.594-0.844
		c0.422-0.492,0.602-1.066,0.539-1.723s-0.344-1.191-0.844-1.605s-1.078-0.59-1.734-0.527s-1.188,0.344-1.594,0.844
		s-0.582,1.078-0.527,1.734S6.414,1634.312,6.914,1634.719z M4.84,1631.918c-0.781,0-1.445-0.195-1.992-0.586l-1.125,1.652
		c0.906,0.594,1.945,0.902,3.117,0.926V1631.918z M0.516,1631.25l1.828-0.809c-0.258-0.656-0.277-1.27-0.059-1.84l-1.863-0.703
		C0,1629.055,0.031,1630.172,0.516,1631.25z M4.664,1625.789l-1.348-1.465c-1.023,0.984-1.676,1.641-1.957,1.969l1.465,1.324
		C3.621,1626.781,4.234,1626.172,4.664,1625.789z M5.473,1624.898c0.727,0.594,1.551,0.852,2.473,0.773s1.68-0.484,2.273-1.219
		c0.594-0.719,0.852-1.539,0.773-2.461c-0.086-0.922-0.488-1.68-1.207-2.273c-0.727-0.586-1.551-0.844-2.473-0.773
		c-0.922,0.078-1.68,0.477-2.273,1.195s-0.852,1.539-0.773,2.461C4.344,1623.539,4.746,1624.305,5.473,1624.898z"/>
</g>
</svg>
