<?xml version="1.0" encoding="utf-8"?>
<!-- Generator: Adobe Illustrator 16.0.4, SVG Export Plug-In . SVG Version: 6.00 Build 0)  -->
<!DOCTYPE svg PUBLIC "-//W3C//DTD SVG 1.1//EN" "http://www.w3.org/Graphics/SVG/1.1/DTD/svg11.dtd">
<svg version="1.1" id="Layer_1" xmlns="http://www.w3.org/2000/svg" xmlns:xlink="http://www.w3.org/1999/xlink" x="0px" y="0px"
	 width="24px" height="24px" viewBox="0 0 24 24" enable-background="new 0 0 24 24" xml:space="preserve">
<g transform="matrix(1 0 0 -1 0 1638)">
	<path d="M21.615,1632.604c0,0.784-0.339,1.177-1.016,1.177c-0.675,0-1.013-0.393-1.013-1.177v-1.037h2.028V1632.604z
		 M20.6,1635.133c0.491,0.008,0.93-0.145,1.318-0.455c0.683-0.544,1.001-1.469,0.956-2.773v-0.338h1.013v-4.546h-6.572v4.546h0.979
		c-0.008,0.877,0.058,1.538,0.198,1.98c0.14,0.443,0.403,0.82,0.792,1.131S20.11,1635.141,20.6,1635.133z M18.549,1620.751v0.011
		l-3.508,3.078l-2.33-1.375l-4.289,4.486l-0.699-0.279l-4.533-5.921H18.549z M1.266,1618.781v14.871h16.072
		c-0.118-0.287-0.179-0.587-0.186-0.898h-1.028v-6.91h4.501v-7.062H1.266z"/>
</g>
</svg>
