<?xml version="1.0" encoding="utf-8"?>
<!-- Generator: Adobe Illustrator 16.0.4, SVG Export Plug-In . SVG Version: 6.00 Build 0)  -->
<!DOCTYPE svg PUBLIC "-//W3C//DTD SVG 1.1//EN" "http://www.w3.org/Graphics/SVG/1.1/DTD/svg11.dtd">
<svg version="1.1" id="Layer_1" xmlns="http://www.w3.org/2000/svg" xmlns:xlink="http://www.w3.org/1999/xlink" x="0px" y="0px"
	 width="24px" height="24px" viewBox="0 0 24 24" enable-background="new 0 0 24 24" xml:space="preserve">
<g transform="matrix(1 0 0 -1 0 1638)">
	<path d="M11.988,1633.301c-1.117-0.008-2.066-0.402-2.848-1.184s-1.172-1.727-1.172-2.836s0.391-2.059,1.172-2.848
		s1.734-1.184,2.859-1.184c1.109,0,2.055,0.395,2.836,1.184s1.176,1.738,1.184,2.848c0,1.109-0.395,2.055-1.184,2.836
		S13.098,1633.293,11.988,1633.301z M13.91,1636.465c1.273-0.336,2.387-0.98,3.34-1.934s1.594-2.062,1.922-3.328
		c0.328-1.281,0.328-2.555,0-3.82c-0.344-1.266-0.992-2.375-1.945-3.328l-5.25-5.25l-5.238,5.215
		c-0.953,0.945-1.598,2.059-1.934,3.34s-0.332,2.555,0.012,3.82c0.344,1.273,0.992,2.387,1.945,3.34
		c0.961,0.945,2.074,1.59,3.34,1.934S12.637,1636.801,13.91,1636.465z"/>
</g>
</svg>
