<?xml version="1.0" encoding="utf-8"?>
<!-- Generator: Adobe Illustrator 19.1.0, SVG Export Plug-In . SVG Version: 6.00 Build 0)  -->
<!DOCTYPE svg PUBLIC "-//W3C//DTD SVG 1.1//EN" "http://www.w3.org/Graphics/SVG/1.1/DTD/svg11.dtd">
<svg version="1.1" id="Layer_1" xmlns="http://www.w3.org/2000/svg" xmlns:xlink="http://www.w3.org/1999/xlink" x="0px" y="0px"
	 viewBox="0 0 24 24" style="enable-background:new 0 0 24 24;" xml:space="preserve">
<path d="M11.4,6.6V3.4c0.3,0,0.6,0.1,0.9,0.4c0.3,0.3,0.4,0.5,0.4,0.8v2H11.4L11.4,6.6z M6.2,6.1c0.3,0,0.6,0.1,0.8,0.3l1.4,1.4
	L7.6,8.7L5.4,6.4C5.6,6.2,5.9,6.1,6.2,6.1z M11.4,17.8h1.2V21c-0.3,0-0.6-0.1-0.9-0.4c-0.3-0.3-0.4-0.5-0.4-0.8L11.4,17.8L11.4,17.8
	z M4.4,11.6h2v1.2H3.2c0-0.3,0.1-0.6,0.4-0.9C3.9,11.6,4.1,11.6,4.4,11.6z M6.2,17.2l1.4-1.4l0.8,0.8l-2.2,2.2
	C6,18.6,5.9,18.3,5.9,18C5.9,17.7,6,17.4,6.2,17.2z"/>
<path d="M12,8.2c-2.2,0-4,1.8-4,4s1.8,4,4,4s4-1.8,4-4S14.2,8.2,12,8.2z M9,12.2c0-1.7,1.3-3,3-3v6C10.3,15.2,9,13.9,9,12.2z"/>
</svg>
