<?xml version="1.0" encoding="utf-8"?>
<!-- Generator: Adobe Illustrator 16.0.4, SVG Export Plug-In . SVG Version: 6.00 Build 0)  -->
<!DOCTYPE svg PUBLIC "-//W3C//DTD SVG 1.1//EN" "http://www.w3.org/Graphics/SVG/1.1/DTD/svg11.dtd">
<svg version="1.1" id="Layer_1" xmlns="http://www.w3.org/2000/svg" xmlns:xlink="http://www.w3.org/1999/xlink" x="0px" y="0px"
	 width="24px" height="24px" viewBox="0 0 24 24" enable-background="new 0 0 24 24" xml:space="preserve">
<g transform="matrix(1 0 0 -1 0 1638)">
	<path d="M12.047,1629.984c-0.844,0-1.57-0.301-2.18-0.902s-0.914-1.332-0.914-2.191s0.301-1.586,0.902-2.18
		c0.602-0.602,1.332-0.902,2.191-0.902c0.859,0.008,1.586,0.309,2.18,0.902s0.895,1.32,0.902,2.18c0,0.859-0.301,1.59-0.902,2.191
		S12.898,1629.984,12.047,1629.984z M10.57,1634.977h2.965l0.293-1.793c0.414-0.109,0.875-0.301,1.383-0.574l1.5,1.078l2.086-2.133
		l-1.066-1.5c0.289-0.516,0.484-0.973,0.586-1.371l1.816-0.316v-2.953l-1.816-0.293c-0.102-0.391-0.297-0.855-0.586-1.395l1.066-1.5
		l-2.086-2.086l-1.5,1.066c-0.445-0.242-0.906-0.434-1.383-0.574l-0.293-1.828h-2.988l-0.293,1.805
		c-0.484,0.133-0.949,0.32-1.395,0.562l-1.5-1.043l-2.086,2.086l1.055,1.5c-0.25,0.461-0.441,0.926-0.574,1.395l-1.805,0.305v2.977
		l1.805,0.281c0.125,0.461,0.316,0.926,0.574,1.395l-1.055,1.5l2.098,2.086l1.512-1.066c0.492,0.273,0.949,0.465,1.371,0.574
		L10.57,1634.977z"/>
</g>
</svg>
