<?xml version="1.0" encoding="utf-8"?>
<!-- Generator: Adobe Illustrator 16.0.4, SVG Export Plug-In . SVG Version: 6.00 Build 0)  -->
<!DOCTYPE svg PUBLIC "-//W3C//DTD SVG 1.1//EN" "http://www.w3.org/Graphics/SVG/1.1/DTD/svg11.dtd">
<svg version="1.1" id="Layer_1" xmlns="http://www.w3.org/2000/svg" xmlns:xlink="http://www.w3.org/1999/xlink" x="0px" y="0px"
	 width="24px" height="24px" viewBox="0 0 24 24" enable-background="new 0 0 24 24" xml:space="preserve">
<g transform="matrix(1 0 0 -1 0 1638)">
	<path d="M19.523,1626.727v1.758h-1.758v-1.758H19.523z M16.887,1626.727v1.758h-1.758v-1.758H16.887z M19.523,1623.656v1.758
		h-1.758v-1.758H19.523z M14.25,1626.727v1.758h-1.758v-1.758H14.25z M16.887,1623.656v1.758h-1.758v-1.758H16.887z
		 M19.523,1620.586v1.758h-1.758v-1.758H19.523z M11.613,1628.484H9.855v-1.734l1.758-0.023V1628.484z M14.25,1623.656v1.758h-1.758
		v-1.758H14.25z M8.977,1626.75v1.734H7.219v-1.734H8.977z M11.613,1623.656v1.758H9.855v-1.758H11.613z M16.887,1620.586v1.758
		H7.219v-1.758H16.887z M6.34,1626.738v1.746H4.594v-1.746H6.34z M8.977,1623.656v1.758H7.219v-1.758H8.977z M6.352,1623.656v1.758
		H4.594v-1.758H6.352z M6.352,1620.586v1.758H4.605v-1.758H6.352z M2.812,1630.254h16.793c0.461-0.008,0.855-0.176,1.184-0.504
		s0.496-0.723,0.504-1.184v-9.762H4.5c-0.469,0-0.867,0.164-1.195,0.492s-0.492,0.727-0.492,1.195V1630.254z"/>
</g>
</svg>
